<?xml version="1.0" standalone="no"?> <!DOCTYPE svg PUBLIC "-//W3C//DTD SVG 1.0//EN" "http://www.w3.org/TR/2001/REC-SVG-20010904/DTD/svg10.dtd" > <svg xmlns="http://www.w3.org/2000/svg" width="100%" height="100%">
<defs >
<font id="AngryBirdsText-Regular" horiz-adv-x="553" ><font-face
    font-family="AngryBirdsText"
    units-per-em="1000"
    panose-1="0 0 0 0 0 0 0 0 0 0"
    ascent="899"
    descent="-301"
    alphabetic="0" />
<missing-glyph horiz-adv-x="500" d="M125 63H375V737H125V63ZM63 0V799H438V0H63Z" />
<glyph unicode=" " glyph-name="space" horiz-adv-x="300" />
<glyph unicode="!" glyph-name="exclam" horiz-adv-x="311" d="M168 122L205 108Q214 64 197 33T133 -7L97 14L59 22L45 57Q65 102 85 123T144 145L168 122ZM203 792L246 777Q246 776 219 595T178 263H146L118 243L87 281Q85 375 104 770L155 755L203 792Z" />
<glyph unicode="&quot;" glyph-name="quotedbl" horiz-adv-x="432" d="M147 784L200 791L144 540L116 537L100 559L62 556L72 788L134 813L147 784ZM339 807L413 792L298 537L258 571L218 561L277 791L320 779L339 807Z" />
<glyph unicode="#" glyph-name="numbersign" horiz-adv-x="664" d="M386 297L405 404L301 399L282 294L386 297ZM607 473L622 414L519 409L496 301L568 303L588 254L553 188L471 184L443 52L399 32L380 68L346 72L365 179L260 174L237 49H195L164 30L139 68L154
168L60 164L84 200L43 229L47 286L172 290L188 394L88 390L60 438L91 453L75 512L206 517L232 686L281 670L334 706L355 691L324 521L427 525L457 694L515 726L537 688L581 698L545 529L618 532L607 473Z" />
<glyph unicode="$" glyph-name="dollar" horiz-adv-x="498" d="M467 333Q470 304 446 264T386 198Q369 186 333 169L318 -17L270 3L235 -19L226 131Q200 124 181 122L152 139L153 176L119 207Q207 220 282 258Q376 303 346 332Q322 355 282 363T191 375T115 386Q68
400 54 424T47 490Q62 562 163 621Q178 630 216 647L204 785L248 786L258 819L333 827L317 682Q362 692 380 686V651L407 630L400 585Q300 583 225 542Q184 519 176 500Q169 484 199 474T286 457T345 449Q405 437 433 410T467 333Z" />
<glyph unicode="%" glyph-name="percent" horiz-adv-x="964" d="M341 577Q346 649 296 682Q279 695 249 694T191 672Q160 651 148 608T146 528Q154 495 181 472T243 449Q287 448 311 483T341 577ZM823 188Q829 259 778 293Q762 306 731 305T673 283Q642 262 630
219T628 139Q637 106 664 83T725 59Q769 59 793 94T823 188ZM431 581Q432 535 416 489T374 416Q313 355 214 363Q140 369 97 427T51 558T90 700Q113 739 173 771T304 795L303 754L340 768Q425 720 431 581ZM734 769L748 744Q681 630 529 352T317 -28L281 -7L248
-11L238 39L639 800L677 760L734 769ZM913 192Q915 146 899 101T856 27Q795 -34 697 -26Q623 -20 580 38T534 169Q530 238 572 311Q595 350 655 382T786 406L785 365L822 379Q909 330 913 192Z" />
<glyph unicode="&amp;" glyph-name="ampersand" horiz-adv-x="540" d="M449 208L479 175Q415 141 330 125L318 -17L270 3L235 -19L227 115Q191 116 154 125T86 160T51 222Q47 262 73 301T145 370Q27 408 27 495Q27 556 84 602T213 673L204 785L248 786L258 819L333
827L319 698Q349 702 408 706L438 675L417 654L446 607Q390 605 328 595T210 562T149 509Q147 493 160 481T196 463T237 455T274 452Q372 473 393 475L417 432L391 415L411 368Q342 364 257 320T171 244Q171 224 195 220T265 219Q296 221 329 231T382 250L400 260L458
256L449 208Z" />
<glyph unicode="&apos;" glyph-name="quotesingle" horiz-adv-x="299" d="M192 807L266 792L151 537L111 571L71 561L130 791L173 779L192 807Z" />
<glyph unicode="(" glyph-name="parenleft" horiz-adv-x="475" d="M408 82L427 49L393 28L386 -15Q342 -22 280 -2T169 55Q107 101 75 180T43 346Q46 487 109 612Q151 694 238 756T399 815L396 768L423 734L393 699Q310 683 237 589T161 384Q159 258 223 176T408 82Z" />
<glyph unicode=")" glyph-name="parenright" horiz-adv-x="475" d="M437 443Q435 307 372 177Q330 95 243 33T82 -27L85 21L58 55L87 90Q170 106 244 200T319 405Q321 530 257 613T73 707L53 740L88 761L94 804Q138 811 200 791T311 734Q374 688 406 609T437 443Z" />
<glyph unicode="*" glyph-name="asterisk" horiz-adv-x="542" d="M346 600L489 510L466 488L469 464L436 437L317 515V398L276 407L260 386L231 415L229 507L129 434L99 442L94 464L66 486L199 600L77 677L63 710L87 728L90 765L226 684L225 797L263 798L287 821L323
813L320 693L426 770L458 734L445 704L469 680L346 600Z" />
<glyph unicode="+" glyph-name="plus" horiz-adv-x="505" d="M435 364L450 305L318 296L315 147L264 158L244 133L217 160L214 289L87 281L59 329L90 344L74 403L212 410L209 543L256 544L290 576L324 568L321 416L446 423L435 364Z" />
<glyph unicode="," glyph-name="comma" horiz-adv-x="299" d="M168 184L242 169L127 -86L87 -52L47 -62L106 168L149 156L168 184Z" />
<glyph unicode="-" glyph-name="hyphen" horiz-adv-x="406" d="M335 354L350 295Q322 295 210 288T87 281L59 329L90 344L74 403Q167 413 346 413L335 354Z" />
<glyph unicode="." glyph-name="period" horiz-adv-x="264" d="M168 122L205 108Q214 64 197 33T133 -7L97 14L59 22L45 57Q65 102 85 123T144 145L168 122Z" />
<glyph unicode="/" glyph-name="slash" horiz-adv-x="533" d="M519 769L533 744Q466 630 314 352T102 -28L66 -7L33 -11L23 39L424 800L462 760L519 769Z" />
<glyph unicode="0" glyph-name="zero" horiz-adv-x="649" d="M502 327Q507 412 488 491T417 608Q386 634 330 633T237 597Q140 509 140 351Q140 243 186 164T313 81Q362 79 399 101T457 162T489 242T502 327ZM607 284Q586 132 508 57T328 -22Q166 -27 99 96Q68
152 56 204T38 340Q34 397 45 458T82 583T164 694T295 758L321 707L376 776Q413 761 459 730T527 670Q639 526 607 284Z" />
<glyph unicode="1" glyph-name="one" horiz-adv-x="244" d="M156 777L181 762Q177 426 177 8H135L109 -12L75 26Q73 95 69 355T59 756L112 740L156 777Z" />
<glyph unicode="2" glyph-name="two" horiz-adv-x="566" d="M490 74L521 61L504 18Q443 8 305 -7T106 -32L90 12L40 24Q198 240 333 453Q409 577 357 633Q331 660 296 667T218 662T149 638T82 604L44 625L55 678L32 707Q80 745 183 767T346 778Q439 758 471 690T476
521Q459 457 393 351T269 170L211 96Q386 111 493 113L490 74Z" />
<glyph unicode="3" glyph-name="three" horiz-adv-x="540" d="M506 266Q506 205 463 151T353 58Q288 21 228 6T78 -17L60 6L83 35L51 83Q100 85 174 102T318 158T394 243Q399 278 366 304T295 339T228 350Q215 347 188 339T139 325T98 318L83 350L113 373L94 429Q135
432 199 463T316 541T369 628Q369 662 332 676T239 686Q201 683 161 669T98 640L76 627L32 631L41 686L15 722Q86 768 197 786T384 771Q410 757 426 746T458 711T477 658Q481 598 442 539T336 437Q411 421 458 376T506 266Z" />
<glyph unicode="4" glyph-name="four" horiz-adv-x="645" d="M591 368L606 319Q578 319 512 315Q512 210 510 0L459 22L411 14Q411 26 406 153T401 307Q211 288 88 263L79 313L40 309Q39 370 59 505T100 738L165 762L185 739L224 746Q164 472 156 400Q172 402
207 406T256 412T304 416T351 419T400 417Q400 456 397 591T392 780L453 760L516 775Q513 598 513 427H602L591 368Z" />
<glyph unicode="5" glyph-name="five" horiz-adv-x="590" d="M549 305Q553 247 513 186T411 79T284 3T167 -33L162 5L123 19L117 68Q162 72 228 98T355 167T427 251Q438 291 404 313T303 346Q262 351 224 351T156 348L128 345L124 382H89L95 640L68 639L77 702L62
757Q259 803 470 784L500 756L476 720L486 687Q261 676 205 664Q200 539 202 463Q286 468 360 456T489 405T549 305Z" />
<glyph unicode="6" glyph-name="six" horiz-adv-x="629" d="M442 177Q467 208 478 239T486 296T470 344T435 377T385 392T326 384Q187 337 160 216Q169 190 183 170Q208 133 257 120T358 122T442 177ZM575 399Q608 321 575 215T467 57Q432 33 406 22T336 4Q248
-12 181 21T76 131Q56 171 46 231T37 348Q46 556 207 705Q266 759 351 784T486 795L474 753L493 733L477 693Q362 685 273 619T150 432Q141 401 140 374Q197 446 284 487Q339 508 396 507T504 477T575 399Z" />
<glyph unicode="7" glyph-name="seven" horiz-adv-x="516" d="M440 722L481 702L472 635Q373 480 317 360Q289 301 246 179T189 0L152 -10L126 26L78 24Q92 87 125 181T186 334Q247 468 346 646Q220 650 69 635L40 666L74 713L32 756Q282 786 450 761L440 722Z" />
<glyph unicode="8" glyph-name="eight" horiz-adv-x="634" d="M490 244Q493 271 479 293T438 327T392 345T352 355Q270 334 222 334Q218 329 198 307T167 273T147 239T136 199Q135 171 148 152T184 125T233 113T290 112Q351 116 417 153T490 244ZM476 628Q476
662 435 676T342 685Q268 677 210 642T142 546Q136 514 164 486T237 455Q306 452 391 509T476 628ZM601 268Q601 204 563 150T460 58Q393 19 325 8T182 8Q127 15 79 59T26 152Q21 205 49 265T127 374Q20 437 44 567Q54 622 83 664T153 731T240 772T334 788T422
785L426 737L477 781Q516 764 549 732T585 658Q589 596 553 533T451 428Q516 409 558 369T601 268Z" />
<glyph unicode="9" glyph-name="nine" horiz-adv-x="643" d="M468 573Q457 600 444 620Q405 677 321 675T186 613Q156 576 146 538T145 473T177 424T232 399T302 405Q381 432 418 475T468 573ZM590 442Q581 235 420 84Q362 30 277 5T142 -6L153 37L134 56L151
96Q266 105 355 171T478 357Q485 381 488 416Q428 341 343 303Q268 266 176 291T52 390Q20 468 53 575T161 732Q196 756 222 767T291 786Q379 802 446 768T552 658Q572 619 582 558T590 442Z" />
<glyph unicode=":" glyph-name="colon" horiz-adv-x="264" d="M168 122L205 108Q214 64 197 33T133 -7L97 14L59 22L45 57Q65 102 85 123T144 145L168 122ZM177 459L215 445Q224 402 206 371T142 331L106 352L68 360L54 395Q68 426 78 441T107 469T153 483L177 459Z" />
<glyph unicode=";" glyph-name="semicolon" horiz-adv-x="299" d="M168 184L242 169L127 -86L87 -52L47 -62L106 168L149 156L168 184ZM197 459L235 445Q244 402 226 371T162 331L126 352L88 360L74 395Q88 426 98 441T127 469T173 483L197 459Z" />
<glyph unicode="&lt;" glyph-name="less" horiz-adv-x="415" d="M374 44L334 33L304 -24H288Q253 22 168 155T56 324L75 371L50 408Q147 595 240 793L285 800L302 757H344Q261 564 157 374Q188 320 273 194T374 44Z" />
<glyph unicode="=" glyph-name="equal" horiz-adv-x="406" d="M335 255L350 196Q323 196 212 189T87 181L59 230L90 245L74 304Q167 314 346 314L335 255ZM335 460L350 401Q322 401 210 394T87 387L59 435L90 450L74 509Q167 519 346 519L335 460Z" />
<glyph unicode="&gt;" glyph-name="greater" horiz-adv-x="415" d="M339 405L364 368Q271 189 174 -16L129 -24L112 19H70Q153 212 257 402Q226 457 141 583T40 732L80 744L110 800H126Q161 754 246 621T358 452L339 405Z" />
<glyph unicode="?" glyph-name="question" horiz-adv-x="598" d="M268 122L305 108Q314 64 297 33T233 -7L197 14L159 22L145 57Q165 102 185 123T244 145L268 122ZM547 553Q540 500 515 460T449 391T372 347T286 313L282 228L226 239L185 230Q172 325 169 394Q224
396 290 419T385 471Q434 520 440 570T407 651T292 682Q201 679 66 616L51 663L64 708L43 738Q92 772 200 787T370 789Q459 770 509 708T547 553Z" />
<glyph unicode="@" glyph-name="at" horiz-adv-x="798" d="M616 437Q591 454 535 459T441 449Q416 438 405 432T381 412T362 376Q355 349 366 323T399 288Q433 275 497 280T614 305Q614 307 615 336T617 389T616 437ZM728 412Q726 321 719 186L671 194L626 170Q623
202 624 223Q544 179 447 182Q358 184 305 230T253 363Q254 480 399 537Q443 552 503 550T618 532Q617 598 584 629T494 670Q430 682 353 653T224 569Q141 481 150 331Q153 274 175 231T229 163T308 120T397 96T493 85L466 30L471 -10Q228 -22 126 100Q39 204 38
327Q36 498 112 603Q178 694 276 738T491 777Q577 773 639 735T717 619Q730 553 728 412Z" />
<glyph unicode="A" glyph-name="A" horiz-adv-x="624" d="M417 294Q351 533 301 638Q282 603 265 539T230 381T208 273Q248 282 324 287T417 294ZM622 15L571 25L522 -3Q518 7 502 55T471 143T454 190Q432 189 309 170T176 146Q174 138 165 105T146 35T132 -14L95
14L33 2Q36 25 53 85Q77 175 79 186L53 229Q76 256 96 269L193 661L145 666L157 718L143 760Q166 774 252 781T403 786L391 743L409 700Q427 644 476 490T559 227T622 15Z" />
<glyph unicode="B" glyph-name="B" horiz-adv-x="619" d="M473 243Q478 278 445 304T374 339T307 350Q294 347 267 339T218 325T177 318Q177 154 180 96Q212 90 261 102Q463 155 473 243ZM448 628Q448 662 407 678T313 695Q283 695 261 692T225 686T175 670Q172
538 173 429Q214 432 278 463T395 541T448 628ZM585 266Q585 205 542 151T432 58Q367 21 307 6T157 -17L138 18L84 22V298Q79 300 71 306T56 318L51 324Q63 345 72 366Q72 406 71 457T67 564T64 644L27 636L32 692L9 729Q12 730 33 738T77 753T130 769T186 782Q367
811 463 771Q551 732 556 658Q560 598 521 539T415 437Q490 421 537 376T585 266Z" />
<glyph unicode="C" glyph-name="C" d="M479 723L508 667Q442 666 357 643T224 569Q141 481 150 331Q153 274 175 231T229 163T308 120T397 96T493 85L466 30L471 -10Q228 -22 126 100Q39 204 38 327Q36 493 112 603Q174 694 284 738T495 766L479 723Z" />
<glyph unicode="D" glyph-name="D" horiz-adv-x="656" d="M479 276Q513 345 511 438T465 583Q434 621 385 640T288 659T196 649Q191 579 187 446Q186 363 186 327T189 220T193 110Q276 112 362 159T479 276ZM616 358Q596 246 533 167T377 42Q277 -7 163 -8L147
40L93 48Q86 127 82 264Q76 547 82 615L43 603L54 676L33 715Q135 768 268 770Q389 770 466 734T594 603Q645 510 616 358Z" />
<glyph unicode="E" glyph-name="E" horiz-adv-x="560" d="M489 57L505 18Q349 -24 149 -34L138 11Q136 12 132 14T116 20T97 23Q85 214 85 640L58 639L67 702L52 757Q249 803 460 784L490 756L466 720L476 687Q264 677 205 664Q198 484 197 433Q369 463 469 456L454
401L462 348Q304 330 197 309Q197 295 196 258T194 197T194 142T201 89Q247 91 499 115L489 57Z" />
<glyph unicode="F" glyph-name="F" horiz-adv-x="519" d="M482 742L460 704L461 659Q263 655 189 642Q186 607 181 394Q301 416 421 414L424 353L402 310Q374 307 294 291T188 270Q186 113 191 23Q187 13 158 -6L126 15H96Q80 185 80 623L52 630L67 678L54 739Q144
761 252 769T451 767Q465 763 482 742Z" />
<glyph unicode="G" glyph-name="G" horiz-adv-x="643" d="M607 454L621 423L615 358Q590 354 579 347Q580 329 580 296T579 251Q580 223 580 1L545 -5L508 -33Q496 13 493 34Q456 18 430 13T354 3Q261 -5 190 35T78 154Q57 195 46 257T37 375Q46 592 218 726Q259
758 318 775T426 792T513 780L501 739L521 718L503 679Q381 681 287 623T157 448Q137 390 146 312T192 183Q219 144 276 125T392 112T482 150Q480 180 477 237T471 325Q420 324 366 310L330 318L336 362L302 383L315 413Q376 434 459 446T607 454Z" />
<glyph unicode="H" glyph-name="H" horiz-adv-x="645" d="M503 760L566 775Q564 631 563 371T560 0L509 22L461 14Q461 26 456 153T451 307Q433 305 409 303Q277 294 196 265Q190 158 190 -9L142 14L97 5Q94 45 91 143T83 301Q72 309 55 338Q79 370 87 377Q90
427 85 561T81 738L141 762L166 739L204 746Q202 677 202 448Q202 420 201 400Q330 426 450 417Q450 456 447 591T442 780L503 760Z" />
<glyph unicode="I" glyph-name="I" horiz-adv-x="244" d="M156 777L181 762Q177 426 177 8H135L109 -12L75 26Q73 95 69 355T59 756L112 740L156 777Z" />
<glyph unicode="J" glyph-name="J" horiz-adv-x="459" d="M354 768L385 736Q390 656 393 529T392 255T373 68Q359 32 321 5T237 -22Q189 -21 127 -2T33 43L55 91L33 119L54 151Q118 124 182 109Q243 93 264 115T287 201Q291 327 268 746L316 733L354 768Z" />
<glyph unicode="K" glyph-name="K" horiz-adv-x="645" d="M627 56L623 25L575 36L542 4L286 352Q250 309 183 242Q185 203 182 119T180 0L125 27L78 11Q75 140 72 393T67 755L105 742L152 771L186 740Q181 624 184 392Q309 533 399 644Q413 660 454 712T503 774L551
756L546 710L593 684Q565 644 530 603T447 511T377 435Q535 215 589 122Q610 89 627 56Z" />
<glyph unicode="L" glyph-name="L" horiz-adv-x="496" d="M454 111L433 48L437 10Q357 -6 133 -26L120 25L90 28Q76 146 72 382T71 714L100 751L147 744L180 782L199 762Q188 680 186 440T195 99Q243 99 291 101T387 107T454 111Z" />
<glyph unicode="M" glyph-name="M" horiz-adv-x="860" d="M816 27L770 33L709 2Q680 407 647 505Q635 484 620 449T595 385T568 313T547 255T514 159T471 40L439 52L402 35Q390 63 345 174T264 365T193 505Q187 477 181 428T169 315T161 201T153 86T148 6L109
18L72 0L45 18Q54 341 98 666L135 678L112 754L157 756L194 788Q232 731 273 643Q343 497 435 258Q446 290 487 417T563 638T624 782L668 768L706 786L732 762Q737 730 749 634T768 500Q803 254 816 27Z" />
<glyph unicode="N" glyph-name="N" horiz-adv-x="694" d="M582 754L628 772Q625 649 627 401T626 28L585 24L559 -8Q496 55 417 151Q398 174 345 240T255 350T185 441Q180 376 180 306T181 148T183 15L144 26L103 11L78 42Q70 470 59 605L80 631L53 691L104 759Q157
693 234 584T334 444Q367 399 393 367T462 285T520 216Q517 486 504 746L537 784L582 754Z" />
<glyph unicode="O" glyph-name="O" horiz-adv-x="649" d="M502 327Q507 412 488 491T417 608Q386 634 330 633T237 597Q140 509 140 351Q140 243 186 164T313 81Q362 79 399 101T457 162T489 242T502 327ZM607 284Q586 132 508 57T328 -22Q166 -27 99 96Q68 152
56 204T38 340Q34 397 45 458T82 583T164 694T295 758L321 707L376 776Q413 761 459 730T527 670Q639 526 607 284Z" />
<glyph unicode="P" glyph-name="P" horiz-adv-x="591" d="M423 642Q385 684 292 682Q243 680 187 664Q187 620 188 507T188 354Q297 375 395 471Q416 492 430 522T444 586T423 642ZM547 553Q532 445 428 357T187 238Q185 193 185 110T188 -10L122 11L91 -8Q87
35 84 140T81 257Q75 260 69 265T60 275L58 279Q67 297 78 313Q70 506 73 636L43 632L64 708L43 738Q92 772 200 787T370 789Q459 770 509 708T547 553Z" />
<glyph unicode="Q" glyph-name="Q" horiz-adv-x="673" d="M539 383Q539 435 530 480T500 566T440 632T348 660Q303 662 267 644T207 597T169 527T147 446T140 364Q140 258 195 182T339 105Q359 105 405 116Q394 131 380 154T349 205T326 241L364 262L382 300L405
308Q458 236 487 180Q511 220 525 276T539 383ZM640 431Q640 326 617 231T547 72Q552 64 562 47T582 11T597 -15H554L522 -52Q475 3 459 27Q384 -14 266 5Q170 20 108 116T37 351Q30 476 79 593T231 753Q303 784 377 778T495 725L523 751Q575 703 607 607T640 431Z"
/>
<glyph unicode="R" glyph-name="R" horiz-adv-x="650" d="M474 580Q473 626 434 649T339 677Q269 682 190 656Q185 621 184 568T183 469T182 371Q286 395 339 424Q476 500 474 580ZM622 70L605 29L570 30L546 0Q543 3 446 126T306 289Q294 283 273 277T222 264T183
255Q181 220 181 127T182 6L127 26L86 9Q74 349 76 640H47L56 699L31 734Q203 805 377 792Q466 786 531 729T595 585Q592 455 417 344Q529 203 622 70Z" />
<glyph unicode="S" glyph-name="S" horiz-adv-x="540" d="M511 267Q516 166 421 82T214 -35L202 1L161 8L147 56Q206 72 260 100Q362 153 388 220Q403 258 377 289T305 338T203 366Q135 377 92 405T38 492Q19 592 122 683Q169 725 257 758T406 799L397 744L430
718L413 680Q351 678 265 638T163 557Q150 520 175 501T276 460Q312 450 333 444T385 425T434 400T471 368T499 324T511 267Z" />
<glyph unicode="T" glyph-name="T" horiz-adv-x="620" d="M560 751L579 719L557 691Q530 690 462 682T366 668Q361 610 358 547T355 403T355 278T358 133T361 11L320 27L262 2Q248 179 246 650Q204 646 63 623L75 695L42 710L57 743Q311 797 570 791L560 751Z" />
<glyph unicode="U" glyph-name="U" horiz-adv-x="665" d="M620 183Q604 152 592 141Q592 120 591 67T590 3L553 12L498 -4L488 82Q339 18 266 5Q174 -11 133 17T78 141Q46 371 95 754L135 735L178 760L215 739Q190 663 180 482T182 219Q187 185 200 165T224 135T266
127T308 131T361 144Q370 146 374 147Q401 154 483 183Q484 258 479 464T475 756L536 753L573 791L596 768Q590 626 590 207L620 183Z" />
<glyph unicode="V" glyph-name="V" horiz-adv-x="599" d="M558 783L576 759Q544 586 491 374T388 20L348 -10L309 14L274 -6Q209 133 108 422Q43 612 21 726L46 770L93 738L146 751Q154 687 184 574T219 445Q228 404 265 305T328 157Q405 407 465 803L511 774L558 783Z" />
<glyph unicode="W" glyph-name="W" horiz-adv-x="866" d="M805 759L851 764Q845 739 818 618T780 451T747 312T706 146T664 0L626 24L588 1Q573 42 538 153L502 264Q501 267 479 338T439 449Q411 380 311 29L279 26L268 -4L244 -3Q200 83 117 368T25 736L68 735L100
787L130 772Q133 757 143 708T158 641T173 579T188 512T204 451T223 385T242 324T265 260Q290 330 331 466T397 669L435 672L453 720L506 691Q575 378 618 237Q623 261 637 314T656 389Q665 435 681 509T711 648T733 775L767 801L805 759Z" />
<glyph unicode="X" glyph-name="X" horiz-adv-x="575" d="M561 67L521 56L491 -1H475Q439 47 374 144T289 268L140 -1L108 -2L91 23L48 28Q67 80 91 131T160 263T215 363Q93 566 39 689L51 734H101L131 773Q219 581 286 479Q331 564 427 769L472 776L489 733H531Q446
533 358 374Q389 320 466 208T561 67Z" />
<glyph unicode="Y" glyph-name="Y" horiz-adv-x="575" d="M510 747L565 745Q523 670 466 541T373 320Q310 154 261 -4L226 13L188 0L168 36Q174 75 236 267Q207 308 124 457Q70 552 20 667L28 707L67 721L81 772L111 779Q154 663 218 532Q220 527 292 403Q363
597 445 771L488 775L510 747Z" />
<glyph unicode="Z" glyph-name="Z" horiz-adv-x="566" d="M490 74L521 61L504 18Q443 8 305 -7T106 -32L90 12L40 24Q61 89 104 184T178 334Q281 513 369 646Q258 650 111 635L85 666L103 713L66 756Q319 786 484 761L471 722L510 702L494 635Q427 544 312 360Q225
220 181 96Q338 110 493 113L490 74Z" />
<glyph unicode="[" glyph-name="bracketleft" horiz-adv-x="399" d="M336 126L358 93L339 55L340 8Q314 8 234 2T136 -6L133 36L101 42Q99 114 96 331T90 649H77L59 697L80 712L64 771Q157 781 336 781L325 722L340 663Q316 663 208 657Q205 384 205 124Q253 126
336 126Z" />
<glyph unicode="\" glyph-name="backslash" horiz-adv-x="575" d="M546 42L506 30L477 -31H461Q371 100 229 341Q83 592 34 717L46 765H95L124 808Q150 747 226 602T347 375Q379 319 452 198T546 42Z" />
<glyph unicode="]" glyph-name="bracketright" horiz-adv-x="399" d="M327 719L348 705L330 656H317Q314 556 311 338T306 48L274 40L271 -2Q249 -2 171 0T67 1L68 48L49 84L71 119Q131 123 202 124Q202 384 199 657Q91 657 67 655L82 715L71 774Q242 784 343
779L327 719Z" />
<glyph unicode="^" glyph-name="asciicircum" horiz-adv-x="536" d="M497 505L489 475L459 469L434 436Q400 474 338 547T266 632Q253 615 241 598T213 557T192 522T167 479T145 442L110 427L87 459L48 462Q61 484 98 551T165 666T226 755L273 723L305 755Q438
603 497 505Z" />
<glyph unicode="_" glyph-name="underscore" horiz-adv-x="516" d="M445 59L460 0Q439 0 350 -4T165 -13T55 -19L28 29L59 44L43 103Q88 108 241 113T456 118L445 59Z" />
<glyph unicode="`" glyph-name="grave" horiz-adv-x="299" d="M170 777L249 641L208 647L170 627L33 778L107 787L128 770L170 777Z" />
<glyph unicode="a" glyph-name="a" horiz-adv-x="558" d="M402 113Q402 184 394 245Q370 261 319 265T229 257Q195 245 177 230T150 184Q143 156 154 130T187 96Q221 83 285 88T402 113ZM507 -7L459 2L414 -23Q411 10 412 30Q332 -13 235 -11Q145 -9 88 38T31
171Q32 284 187 345Q230 359 286 357T396 339Q395 393 376 426T324 472T250 487T161 484L183 531L172 579Q203 588 279 585Q468 576 495 436Q508 370 506 220Q505 176 507 -7Z" />
<glyph unicode="b" glyph-name="b" horiz-adv-x="554" d="M429 267Q432 310 399 355T327 413Q249 437 160 396Q155 339 155 242T162 97Q264 54 359 126Q399 155 411 186T429 267ZM524 287Q525 198 483 128T368 15Q283 -35 129 26L90 -19L67 6Q41 288 49 753L112
750L163 788Q164 748 161 639T162 489Q215 524 286 522Q342 521 373 512T442 472Q480 442 501 393T524 287Z" />
<glyph unicode="c" glyph-name="c" horiz-adv-x="475" d="M398 81L417 52L383 25L376 -13Q333 -19 271 -6T159 33Q98 64 65 124T33 245Q35 291 52 344T99 440Q141 496 229 538T389 577L386 539L413 504L383 476Q297 463 220 404T141 271Q140 212 165 170T258 106Q314
88 398 81Z" />
<glyph unicode="d" glyph-name="d" horiz-adv-x="564" d="M401 146Q400 172 396 261T391 404Q357 420 335 425T283 425Q191 406 150 322Q127 273 140 217T195 125Q228 96 302 101T401 146ZM506 -9L487 -27L452 -8L411 -22Q407 23 406 51Q376 28 332 14T254 1Q155
7 108 52T39 196Q28 242 40 303T78 402Q98 431 112 448T152 486T211 521Q266 543 306 539T394 505Q394 525 394 621T392 762L423 784L463 746L506 744Q505 676 501 511T497 224T506 -9Z" />
<glyph unicode="e" glyph-name="e" horiz-adv-x="547" d="M414 338Q412 345 408 361T401 386T393 408T382 430Q347 487 287 485Q186 482 145 320Q212 317 295 320T414 338ZM510 286L480 270L466 237Q423 228 370 225T249 221T146 217Q145 188 167 159T215 113Q276
71 378 69L393 45L373 24V-15Q264 -28 168 20Q117 46 85 107T46 237Q35 367 100 474T289 588Q375 592 433 532T502 396Q511 328 510 286Z" />
<glyph unicode="f" glyph-name="f" horiz-adv-x="455" d="M395 746L412 711L388 696Q365 709 346 710T299 706Q209 691 189 594Q181 556 179 467Q198 467 285 471T390 471L389 441L371 409L367 371Q227 367 185 354Q179 201 200 7L178 -15L140 18L105 25Q89 169
86 342L52 336L31 370L51 411L32 449L83 462Q76 607 97 665Q146 803 299 808Q385 810 404 776L395 746Z" />
<glyph unicode="g" glyph-name="g" horiz-adv-x="558" d="M392 284Q391 363 383 440Q283 485 210 430Q178 405 159 358T144 255Q147 202 178 172T253 136Q325 127 386 157Q392 279 392 284ZM476 616L501 582Q500 505 501 441T500 295T493 150Q484 30 481 15Q467
-72 434 -113Q405 -151 345 -177T231 -204L211 -194L213 -162L191 -137Q202 -133 229 -126T275 -112T311 -96Q388 -53 388 67Q322 26 256 26Q201 26 163 43T90 96Q43 145 34 245Q25 351 72 436T209 557Q233 567 292 562T386 539L383 610L429 602L476 616Z" />
<glyph unicode="h" glyph-name="h" horiz-adv-x="555" d="M495 404Q510 337 506 210T486 17L465 -11L438 16L401 15Q406 46 407 141T405 278Q400 367 353 403T225 402Q196 388 166 350Q168 313 168 183T169 10L142 2L118 20L69 8Q69 76 64 179Q57 332 59 756L108
765L146 794L174 768Q166 687 172 473Q255 532 335 528Q405 524 442 497T495 404Z" />
<glyph unicode="i" glyph-name="i" horiz-adv-x="255" d="M158 543L192 535Q193 491 185 239Q181 153 183 14L132 25L112 -1L85 27Q83 97 81 268T77 510L124 511L158 543ZM172 754L210 740Q219 697 201 666T137 626L101 647L63 654L49 689Q70 735 90 756T149 778L172
754Z" />
<glyph unicode="j" glyph-name="j" horiz-adv-x="264" d="M204 92Q203 52 195 0T173 -76Q149 -119 97 -153T-12 -194L-27 -160L-49 -159Q-52 -140 -54 -132Q13 -115 60 -72T106 34Q103 249 86 475L103 502L153 487L203 514Q215 402 204 92ZM197 728L213 702Q183
637 173 631Q143 616 78 633L75 678L59 705Q88 755 104 765Q128 782 182 768L197 728Z" />
<glyph unicode="k" glyph-name="k" horiz-adv-x="519" d="M491 52L444 36L420 -6Q409 6 394 27T357 80T327 125T287 183T239 251Q175 195 163 174Q162 139 162 123T164 66T168 12L133 16L105 -9L72 19Q67 76 65 143T60 293T56 417V744L103 721L137 763L167 751Q157
605 161 309Q209 352 273 430T377 567L408 541L454 567L489 546Q472 521 447 488T402 430T354 372T316 326Q419 173 491 52Z" />
<glyph unicode="l" glyph-name="l" horiz-adv-x="279" d="M261 39L260 20L219 11L194 -18Q154 -7 126 20T83 86T62 159T52 237Q48 285 46 333T44 446T45 538T49 651T52 747L84 776L118 742L164 740Q162 713 158 657T151 565T146 481T144 385T148 292Q159 155 192
112Q227 67 261 39Z" />
<glyph unicode="m" glyph-name="m" horiz-adv-x="798" d="M755 379Q756 326 748 196T730 15L696 24L666 -6L645 13Q655 86 652 281Q652 286 652 303T652 329T650 355T647 381T642 404T634 425T621 439T604 450T581 452Q526 447 474 362Q478 245 453 28L415 31L383
15L358 50Q361 87 361 184T355 320Q335 451 279 451Q259 451 235 439T198 417T162 388Q149 204 155 10L121 -7L100 20L60 19Q57 57 55 112T51 238T48 346Q44 436 48 568L107 574L151 600L157 499Q194 529 239 550T315 573Q356 576 380 552T428 479Q531 572 606
579Q640 582 673 564T723 518Q755 465 755 379Z" />
<glyph unicode="n" glyph-name="n" horiz-adv-x="574" d="M523 291Q517 146 490 -4L451 13L425 3L400 30Q406 79 410 182T410 343Q401 434 345 444Q288 456 175 382Q169 346 168 286T168 139T170 33L131 26L108 3L74 19Q52 349 53 553L99 573L119 552L172 574V492Q239
537 297 552Q367 570 425 550T510 462Q527 417 523 291Z" />
<glyph unicode="o" glyph-name="o" horiz-adv-x="600" d="M457 272Q466 387 386 437Q360 458 312 456T221 423Q172 388 153 320T150 195Q164 143 207 107T303 70Q373 69 411 124T457 272ZM562 277Q564 213 542 151T483 51Q402 -33 264 -22Q162 -14 104 65T40 245T93
440Q113 472 152 503T255 556T387 570L385 515L436 534Q554 469 562 277Z" />
<glyph unicode="p" glyph-name="p" horiz-adv-x="581" d="M432 345Q422 385 385 425T301 465Q265 465 239 455T172 419Q170 381 173 270T177 118Q356 96 418 224Q447 284 432 345ZM530 361Q535 310 522 241T478 129Q430 62 344 32T172 33Q171 6 170 -61T169 -154L133
-144L101 -176L75 -162Q75 -22 71 134Q70 179 69 276T65 444T58 564L111 551L174 585L170 510Q219 545 257 559T343 569Q419 563 470 503T530 361Z" />
<glyph unicode="q" glyph-name="q" horiz-adv-x="554" d="M391 107Q386 162 386 265T381 417Q359 441 323 441T256 429T201 396Q171 372 153 331T137 248Q140 176 184 135T306 92Q336 91 391 107ZM466 587L499 567Q495 488 494 244T498 -169L473 -186L441 -180L402
-201Q392 -74 392 29Q346 7 297 0T211 3Q125 26 78 96T29 258Q28 366 89 441Q143 506 223 526T380 511L384 580L434 561L466 587Z" />
<glyph unicode="r" glyph-name="r" horiz-adv-x="460" d="M422 541L434 505L402 477L403 447Q318 472 268 441Q241 425 213 396T169 342Q165 298 163 236T160 98T159 1L123 15L96 1L67 30Q61 107 58 274T62 549L95 568L131 559L169 574L161 471Q192 516 239 545T310
578Q338 583 372 572T422 541Z" />
<glyph unicode="s" glyph-name="s" horiz-adv-x="498" d="M467 214Q470 181 446 136T386 61Q358 37 286 8T181 -26L162 -17L163 26L129 60Q222 77 292 118Q324 136 343 165T346 213Q322 239 282 249T191 263T115 275Q68 291 54 319T47 393Q62 474 163 542Q203
569 276 598T380 616V576L407 553L400 512Q303 512 225 463Q190 442 176 416Q166 399 176 385T210 363T258 351T310 342T345 336Q408 321 435 295T467 214Z" />
<glyph unicode="t" glyph-name="t" horiz-adv-x="483" d="M433 497L448 461L439 443Q428 442 399 441T355 438T316 433T274 424Q268 377 268 295T272 159Q279 91 309 66Q321 57 351 51T386 44L352 12L354 -32Q267 -46 216 6Q177 46 170 188Q164 296 167 421Q89
414 56 405L40 437L68 479L36 511Q131 539 169 536Q173 544 173 576T173 652T172 698L214 700L249 732L286 717Q281 681 281 630T280 542Q398 544 438 539L433 497Z" />
<glyph unicode="u" glyph-name="u" horiz-adv-x="578" d="M480 527L528 537Q530 404 523 176Q520 124 520 12L484 11L433 -4Q429 48 429 64Q373 36 299 14T178 0Q111 13 86 57T57 180Q47 403 68 535L114 524L153 550L183 541Q163 454 159 291Q156 240 164 181T201
114Q236 104 304 123T415 170Q427 208 423 357Q420 428 414 552L444 558L480 527Z" />
<glyph unicode="v" glyph-name="v" horiz-adv-x="555" d="M491 553L529 556Q515 510 480 412T436 291Q360 70 327 10L284 5L255 -26Q230 5 191 90Q143 195 97 311Q64 395 40 501L75 511L111 558L142 540Q215 260 279 137Q312 205 341 287T384 418T427 575L459
587L491 553Z" />
<glyph unicode="w" glyph-name="w" horiz-adv-x="746" d="M702 552L719 536Q671 372 644 261Q598 74 573 3L541 2L512 -13Q481 55 436 183T378 345Q359 307 342 261T315 185T288 96T263 14L231 20L189 -7Q169 34 136 138T97 254Q67 339 32 500L66 501L83 543L124
550Q130 522 143 458T163 362T187 279T226 186Q234 212 259 288T304 425T331 523L362 514L388 546L427 523Q430 512 442 468T459 408T475 353T494 293T513 241T537 186Q546 233 577 354T618 544L658 524L702 552Z" />
<glyph unicode="x" glyph-name="x" horiz-adv-x="515" d="M497 71L489 41L459 35L434 2Q400 40 338 113T266 198Q253 181 241 164T213 123T192 88T167 45T145 8L110 -7L87 25L48 28L199 282Q176 318 149 355T88 436T36 505L74 538L118 519L147 549Q250 385 269
367Q340 485 402 577L426 551L462 556L490 521Q471 484 425 421Q367 344 338 289Q360 250 418 178T497 71Z" />
<glyph unicode="y" glyph-name="y" horiz-adv-x="568" d="M503 556L534 525Q447 238 396 107Q395 103 386 79T374 49T362 22T349 -8T336 -35T320 -64T304 -88T284 -114T263 -136Q254 -145 246 -151T227 -162T211 -170T190 -179T169 -187L157 -149L121 -113Q217
-71 244 -10Q282 83 284 89Q136 284 22 494L76 510L83 551L123 555Q155 489 219 379T323 213Q337 246 374 374T423 555L464 532L503 556Z" />
<glyph unicode="z" glyph-name="z" horiz-adv-x="476" d="M416 540L450 514L258 232Q230 194 176 91Q197 91 247 92T331 93T403 88L391 50L404 8Q347 8 282 1Q257 -1 179 -6T80 -14L84 31L46 57Q95 156 200 320Q213 340 232 370T267 425T304 479Q187 484 92 467L61
486L79 519L52 561Q315 592 420 574L416 540Z" />
<glyph unicode="{" glyph-name="braceleft" horiz-adv-x="475" d="M408 72L427 39L393 18L386 -25Q342 -32 280 -12T169 45Q126 77 112 124T123 237Q136 265 107 295T46 324L30 355L57 388L48 421Q98 441 119 494T119 602Q106 634 121 666T170 724T245 768T328
797T399 805L396 758L423 724L393 689Q287 669 255 644Q227 621 237 589Q283 450 161 384Q178 374 190 365T216 338T236 300T241 248T229 179Q216 138 276 108T408 72Z" />
<glyph unicode="|" glyph-name="bar" horiz-adv-x="399" d="M336 126L358 93L339 55L340 8Q312 8 200 1T77 -6L84 36L56 71L64 116Q99 120 158 122Q157 173 154 360T147 653Q87 649 77 649L49 697L80 712L64 771Q157 781 336 781L325 722L340 663Q314 663 264
660Q262 296 262 126H336Z" />
<glyph unicode="}" glyph-name="braceright" horiz-adv-x="475" d="M435 455L451 424L424 391L433 358Q383 338 362 285T362 177Q382 125 331 75T207 -2T82 -27L85 21L58 55L87 90Q195 110 227 136Q254 159 244 190Q198 328 319 395Q303 405 291 414T265 441T245
479T240 531T252 600Q265 641 204 671T73 707L53 740L88 761L94 804Q138 811 200 791T311 734Q354 701 368 655T358 542Q345 513 374 483T435 455Z" />
<glyph unicode="~" glyph-name="asciitilde" horiz-adv-x="714" d="M624 458L657 448Q595 371 509 335Q462 311 414 323T298 397Q266 426 221 399T132 315L94 316L95 357L62 386Q80 427 121 462T218 519Q312 556 404 455Q435 424 487 443T576 512L611 499L624 458Z" />
</font>
</defs>
</svg>
