<?xml version="1.0" standalone="no"?>
<!DOCTYPE svg PUBLIC "-//W3C//DTD SVG 1.1//EN" "http://www.w3.org/Graphics/SVG/1.1/DTD/svg11.dtd" >
<svg xmlns="http://www.w3.org/2000/svg" width="100%" height="100%">
<metadata>
Created by FontXChange 20110222 at Tue Sep 25 10:21:23 2012
 By John Roshell
AngryBirdsPiggies is a trademark of Active Images.
</metadata>
<defs>
<font id="AngryBirdsPiggies-Bold" horiz-adv-x="448" >
  <font-face 
    font-family="AngryBirdsPiggies"
    font-weight="700"
    font-stretch="normal"
    units-per-em="1000"
    panose-1="0 0 0 0 0 0 0 0 0 0"
    ascent="800"
    descent="-200"
    x-height="792"
    cap-height="775"
    bbox="-42 -207.165 1479 976.477"
    underline-thickness="50"
    underline-position="-50"
    stemh="20"
    stemv="176"
    unicode-range="U+0020-FB02"
  />
<missing-glyph horiz-adv-x="530" 
d="M150 78h220v645h-220v-645zM463 815v-830h-405v830h405z" />
    <glyph glyph-name=".notdef" horiz-adv-x="530" 
d="M150 78h220v645h-220v-645zM463 815v-830h-405v830h405z" />
    <glyph glyph-name="space" unicode=" " horiz-adv-x="330" 
 />
    <glyph glyph-name="exclam" unicode="!" horiz-adv-x="376" 
d="M278 26c-11 -46 -76 -69 -109 -70c-63 -1 -110 14 -117 79c-4 36 11 124 96 135c21 2 65 -6 84 -13c47 -19 54 -95 46 -131zM323 768c-26 -172 -69 -355 -85 -522c-47 -13 -110 -20 -153 4c-19 142 -18 426 -2 547c75 8 186 11 240 -29z" />
    <glyph glyph-name="quotedbl" unicode="&#x22;" horiz-adv-x="460" 
d="M222 822c-15 -97 -42 -209 -49 -283c-19 -12 -82 1 -106 10c-11 52 -15 92 -17 131c-1 38 0 76 -1 126c28 18 133 23 173 16zM457 813c-40 -105 -95 -234 -132 -320c-19 -7 -36 -4 -50 -2c-15 3 -31 8 -55 15c6 94 32 213 56 293c30 16 136 24 181 14z" />
    <glyph glyph-name="numbersign" unicode="#" horiz-adv-x="566" 
d="M319 423c-4 0 -49 -4 -52 -4c-1 -21 -2 -54 -3 -77l52 3c1 22 2 55 3 78zM554 636c0 -62 -3 -129 -18 -173c-8 -8 -30 -15 -60 -21c-1 -25 -3 -65 -4 -92c24 2 40 3 63 6c0 -58 -3 -126 -18 -171c-9 -7 -31 -14 -63 -21c-4 -41 -7 -84 -12 -138c-32 -18 -121 -23 -149 -2
c4 46 8 87 10 123c-5 -1 -50 -4 -55 -5c-4 -38 -8 -78 -14 -127c-24 -22 -117 -33 -149 -2c2 43 3 81 6 116c-24 -2 -42 -3 -66 -3c0 0 -13 105 20 200c15 4 36 6 62 8c1 20 2 50 3 71c-24 -2 -42 -3 -66 -3c0 0 -12 106 21 199c12 5 34 8 64 10c4 36 6 73 11 121
c32 16 121 22 149 1c-4 -45 -6 -81 -9 -115l55 4c4 37 7 74 13 121c24 21 117 32 149 1c-2 -45 -4 -82 -6 -118c24 2 42 10 63 10z" />
    <glyph glyph-name="dollar" unicode="$" horiz-adv-x="479" 
d="M452 316c3 -110 -44 -159 -134 -177c-1 -27 -5 -49 -10 -71c-6 -24 -13 -47 -22 -85c-33 -3 -83 -1 -122 11c3 43 0 83 -5 137c-23 1 -40 3 -54 6c-17 4 -31 9 -56 17c-17 38 -12 85 0 125c50 -13 168 -46 183 1c2 8 13 41 4 47c-12 8 -26 13 -43 17s-34 6 -51 9
c-35 5 -73 15 -92 53c-39 76 -14 195 41 240c19 16 48 26 81 32c-3 37 -4 56 2 118c23 16 125 23 168 20c-8 -55 -10 -94 -16 -134c27 -2 51 -6 79 -12c9 -29 8 -44 6 -58c-1 -6 -2 -13 -2 -19c-1 -7 -1 -13 2 -39c-78 6 -121 8 -166 -12c-7 -3 -14 -53 -5 -60
c15 -11 39 -15 70 -18l45 -6c15 -3 30 -7 44 -15c50 -26 51 -55 53 -127z" />
    <glyph glyph-name="percent" unicode="%" horiz-adv-x="880" 
d="M196 662c0 3 -1 5 -1 8c-10 -17 -18 -54 -19 -95c-1 -29 2 -55 6 -70c1 -3 -1 -7 -2 -8l1 1c21 26 24 124 15 164zM676 296c0 3 -1 5 -1 7c-10 -16 -17 -53 -18 -94c-1 -29 1 -55 6 -71c0 -1 0 -3 -1 -4c21 28 22 122 14 162zM335 748c39 -78 38 -240 -6 -316
c-17 -31 -38 -62 -83 -74c-164 -40 -215 47 -224 156c-8 101 19 234 75 272c66 46 197 43 238 -38zM673 794c-105 -298 -214 -545 -321 -818c-56 -6 -120 -10 -167 29c37 86 164 413 195 490c31 75 100 260 112 295c22 11 134 15 181 4zM816 382c39 -77 37 -241 -6 -316
c-18 -32 -39 -64 -83 -75c-164 -40 -217 48 -225 157c-7 101 19 234 76 272c65 45 198 44 238 -38z" />
    <glyph glyph-name="ampersand" unicode="&#x26;" horiz-adv-x="510" 
d="M478 647c1 -19 0 -40 -11 -68c-45 1 -89 2 -127 1c-34 -1 -63 -3 -73 -13c-19 -20 -18 -49 2 -73c20 -23 60 -41 129 -25c14 -51 14 -97 -6 -132c-29 -7 -58 -9 -84 -12c-27 -4 -44 -10 -52 -19c-37 -44 -38 -90 68 -88c34 1 85 5 144 16c13 -48 10 -96 -9 -138
c-27 -3 -74 -11 -117 -16c-6 -43 -18 -85 -32 -137c-34 -3 -90 -1 -131 12c3 37 0 77 -3 118c-41 5 -76 15 -101 30c-60 38 -64 180 -39 235c14 30 50 51 84 65c-76 50 -92 133 -56 218c16 37 77 66 122 79c-2 33 -1 71 4 126c25 16 136 23 181 20c-6 -45 -9 -92 -12 -128
c34 -1 68 -4 111 -12c4 -23 7 -41 8 -59z" />
    <glyph glyph-name="quoteright" unicode="&#x2019;" horiz-adv-x="347" 
d="M337 783c-71 -106 -136 -192 -193 -275c-15 -6 -37 -4 -60 3c-18 5 -37 12 -63 20c31 97 67 181 112 260c29 13 156 2 204 -8z" />
    <glyph glyph-name="parenleft" unicode="(" horiz-adv-x="345" 
d="M337 71c-3 -37 -13 -64 -23 -85c-9 -22 -20 -40 -27 -54c-32 -15 -118 23 -158 55c-66 53 -96 195 -99 246c-6 87 2 192 3 233c1 67 37 235 79 287c35 44 75 75 135 92c46 -42 77 -88 77 -143c-39 -16 -59 -66 -71 -131c-11 -62 -13 -127 -15 -152
c-1 -12 -5 -194 11 -251c10 -31 40 -86 88 -97z" />
    <glyph glyph-name="parenright" unicode=")" horiz-adv-x="345" 
d="M316 528c6 -87 -1 -192 -2 -233c-2 -67 -38 -234 -80 -287c-35 -44 -75 -75 -135 -92c-46 42 -77 89 -77 143c39 15 59 66 71 131c11 62 13 127 15 152c1 12 5 194 -11 251c-10 31 -40 86 -88 97c3 39 17 67 31 89c7 11 14 22 20 31s10 15 14 23c24 12 106 -26 144 -59
c64 -55 95 -194 98 -246z" />
    <glyph glyph-name="asterisk" unicode="*" horiz-adv-x="514" 
d="M480 529c-4 -52 -33 -111 -68 -135c-30 22 -47 31 -61 39c-8 4 -15 8 -22 13c-1 -18 -2 -37 -3 -72c-36 -23 -109 -29 -152 -1c-1 28 -2 51 -3 71c-6 -6 -11 -11 -17 -16c-14 -12 -28 -23 -59 -42c-36 39 -59 74 -72 127c20 15 37 26 54 40c11 8 22 16 31 25
c-30 13 -68 36 -91 57c10 41 41 102 71 133c35 -22 50 -30 64 -38c7 -4 14 -8 21 -13c1 17 1 36 1 74c43 17 111 21 153 0c-1 -33 0 -54 0 -74c11 9 22 17 33 24c18 11 37 20 65 25c30 -35 45 -76 49 -129c-16 -9 -26 -18 -40 -30c-10 -8 -20 -17 -31 -26
c25 -17 58 -40 77 -52z" />
    <glyph glyph-name="plus" unicode="+" horiz-adv-x="464" 
d="M433 493c7 -56 11 -140 -5 -185c-18 -12 -59 -21 -105 -28c-2 -31 -4 -70 -7 -131c-30 -18 -123 -39 -167 -13c-2 54 -3 91 -4 121c-42 -4 -79 -6 -115 -7c0 0 -30 121 8 212c20 5 58 7 102 10c0 31 0 69 1 130c40 14 149 29 185 13v-132c20 1 38 2 53 3c18 1 31 2 54 7z
" />
    <glyph glyph-name="comma" unicode="," horiz-adv-x="273" 
d="M245 148c-28 -84 -94 -188 -138 -257c-36 3 -85 26 -110 64c27 60 66 207 85 280c33 -5 124 -41 163 -87z" />
    <glyph glyph-name="hyphen" unicode="-" horiz-adv-x="342" 
d="M290 476c5 -51 11 -136 -6 -181c-44 -28 -133 -43 -234 -45c0 0 -30 121 8 212c50 12 169 18 232 14z" />
    <glyph glyph-name="period" unicode="." horiz-adv-x="260" 
d="M193 175c39 -41 9 -148 -11 -166c-29 -26 -120 -50 -142 -10c-22 39 -10 136 18 162c33 30 97 54 135 14z" />
    <glyph glyph-name="slash" unicode="/" horiz-adv-x="369" 
d="M358 794c-51 -296 -116 -543 -177 -818c-57 -6 -118 -10 -171 27c24 86 91 413 109 490c18 74 37 183 43 218c2 9 3 22 5 36c2 13 5 29 13 42c22 12 133 16 178 5z" />
    <glyph glyph-name="zero" unicode="0" horiz-adv-x="612" 
d="M373 442c-1 37 -1 85 -8 125c-7 41 -21 61 -41 64c-8 1 -17 3 -25 2c-7 0 -11 -1 -14 -4c-23 -21 -38 -66 -46 -107c-21 -104 -29 -238 2 -332c16 -49 66 -45 85 -14c44 70 50 165 47 266zM567 581c28 -125 6 -379 -48 -483c-27 -53 -58 -111 -123 -127
c-93 -22 -226 -26 -292 40c-62 63 -89 161 -90 270c-2 116 -2 186 40 315c18 55 51 138 101 176c87 65 229 63 311 16c32 -18 51 -42 65 -75c6 -16 12 -35 18 -57s11 -46 18 -75z" />
    <glyph glyph-name="one" unicode="1" horiz-adv-x="486" 
d="M441 158c18 -58 -3 -132 -16 -163c-31 -10 -311 -14 -365 -9c-4 18 -7 27 -9 38s-4 24 -4 37c-1 27 4 58 29 91c45 6 51 6 93 7c2 0 -10 10 -9 30c3 27 4 65 6 109c3 81 5 179 7 264c-19 -9 -43 -20 -71 -34c-38 23 -71 55 -79 110c41 53 143 147 183 180
c55 1 115 -11 146 -47c8 -182 4 -432 1 -612c22 1 42 3 88 -1z" />
    <glyph glyph-name="two" unicode="2" horiz-adv-x="506" 
d="M469 575c-1 -48 -1 -91 -6 -130c-5 -41 -15 -80 -37 -120c-23 -43 -55 -83 -86 -116c-22 -24 -43 -44 -60 -62c21 -2 47 -3 75 -2c40 0 78 1 109 -1c10 -42 -2 -135 -27 -160c-75 -22 -330 -14 -396 -3c-7 39 -13 134 -6 172c71 55 171 146 197 204c43 93 40 212 27 277
c0 3 -19 16 -37 4c-8 -28 -12 -62 -14 -114c-45 -19 -117 -27 -168 -24c-10 72 -5 215 0 247c63 43 163 67 272 60c149 -9 158 -153 157 -232z" />
    <glyph glyph-name="three" unicode="3" horiz-adv-x="533" 
d="M483 287c26 -69 16 -181 -25 -245c-74 -114 -350 -74 -403 -55c-19 47 -22 82 -10 143c48 -7 90 -14 129 -16c40 -2 70 2 86 14c27 21 32 63 18 93c-4 9 -18 15 -46 18c-27 2 -58 1 -89 3c-19 44 -20 87 -7 150c52 -5 97 19 117 53c37 63 25 163 -3 195
c-9 10 -18 8 -40 4c-4 -32 -6 -55 -9 -95c-47 -16 -110 -25 -157 -25c-10 61 -2 209 3 250c52 23 99 30 141 31c42 2 82 -2 113 -4c46 -3 134 -30 154 -86c28 -78 36 -202 -3 -290c-9 -20 -23 -36 -37 -49c-7 -7 -14 -12 -21 -18c36 -12 75 -33 89 -71z" />
    <glyph glyph-name="four" unicode="4" horiz-adv-x="572" 
d="M487 381l54 7c16 -84 10 -134 -9 -213l-47 -5c-2 -79 -5 -109 -15 -181c-40 -21 -117 -37 -167 -20c2 83 2 121 0 183c-7 -1 -16 -2 -26 -3c-18 -3 -39 -7 -63 -11c-49 -8 -109 -15 -185 -14c-3 177 10 429 29 650c49 35 121 23 176 11c-6 -69 -13 -160 -18 -244
c-5 -73 -7 -138 -6 -174c30 5 66 9 96 10c7 122 -2 339 3 407c31 17 60 21 85 23c25 1 48 -1 77 1c9 -128 15 -306 16 -427z" />
    <glyph glyph-name="five" unicode="5" horiz-adv-x="494" 
d="M437 344c31 -74 22 -248 -29 -317c-36 -49 -152 -61 -204 -59c-34 1 -132 11 -174 24c-9 43 -7 85 0 138c98 -25 182 -10 191 2c19 25 21 43 16 66c-6 30 -28 45 -62 53c-18 5 -37 6 -56 7c-20 1 -40 1 -72 1c-11 127 -9 390 6 515c58 25 294 44 368 28
c8 -28 21 -125 0 -162c-28 6 -132 -3 -171 -7c-8 -55 -12 -178 -1 -223c26 -5 63 -8 96 -14c36 -7 78 -19 92 -52z" />
    <glyph glyph-name="six" unicode="6" horiz-adv-x="556" 
d="M341 228c0 30 -57 47 -91 35c-17 -6 -17 -41 -13 -69c3 -22 21 -63 34 -70c9 -4 51 7 53 11c6 10 17 36 17 93zM532 195c-4 -22 -8 -42 -12 -61s-9 -37 -16 -54c-14 -34 -35 -64 -73 -92c-34 -25 -230 -31 -291 0c-47 24 -90 161 -99 217c-13 79 -16 177 -7 263
c9 85 29 249 76 293c35 33 123 50 166 54c77 7 145 -8 200 -37c8 -29 13 -153 2 -229c-29 -14 -55 -18 -80 -20c-24 -2 -47 -3 -82 -7c-2 40 -3 67 -5 89c-2 15 -2 28 -8 32c-7 3 -21 0 -34 -12c-22 -20 -31 -145 -34 -217c28 4 65 9 100 12c42 3 87 3 111 -11
c91 -50 101 -135 86 -220z" />
    <glyph glyph-name="seven" unicode="7" horiz-adv-x="520" 
d="M492 653c-43 -159 -131 -419 -195 -653c-60 -37 -157 -26 -209 -1c25 90 156 533 183 636c-22 1 -53 -2 -77 -5c-7 -23 -9 -54 -8 -106c-51 -20 -124 -20 -164 -14c-8 98 -9 220 1 260c35 20 194 29 262 27c38 -1 145 -5 200 -9c10 -43 10 -112 7 -135z" />
    <glyph glyph-name="eight" unicode="8" horiz-adv-x="567" 
d="M328 198c0 32 -28 54 -68 46c-24 -4 -49 -39 -45 -90c4 -48 16 -79 77 -70c26 4 36 63 36 114zM310 613c-9 40 -39 45 -52 38c-29 -15 -26 -116 -24 -165c3 -66 20 -77 46 -74c43 5 42 157 30 201zM535 150c-17 -90 -55 -148 -110 -171c-82 -33 -304 -52 -362 40
c-45 71 -52 117 -44 199c4 38 18 66 38 88c13 15 28 27 44 39c-29 23 -55 60 -61 104c-15 108 25 231 60 283c45 68 192 76 293 55c115 -25 140 -210 116 -328c-9 -45 -30 -74 -52 -95c75 -51 92 -134 78 -214z" />
    <glyph glyph-name="nine" unicode="9" horiz-adv-x="556" 
d="M320 456c7 104 -24 186 -34 194c-16 6 -50 1 -53 -8c-18 -52 -30 -156 -17 -256c4 -32 51 -42 84 -30c18 6 17 54 20 100zM523 266c-17 -154 -54 -291 -243 -308c-77 -7 -145 9 -199 38c-9 28 -22 92 0 127c39 -3 75 -9 112 -10c36 -1 71 3 99 20c10 5 20 33 23 62
c-66 -10 -173 -22 -211 -1c-93 51 -94 305 -80 385c4 22 8 42 12 61s9 37 16 54c14 34 35 64 73 92c35 26 232 30 292 0c47 -23 90 -162 99 -218c13 -78 16 -216 7 -302z" />
    <glyph glyph-name="colon" unicode=":" horiz-adv-x="260" 
d="M193 175c39 -41 9 -148 -11 -166c-29 -26 -120 -50 -142 -10c-22 39 -10 136 18 162c33 30 97 54 135 14zM193 522c39 -41 9 -148 -11 -165c-29 -26 -120 -50 -142 -10c-22 39 -10 136 18 161c33 30 97 54 135 14z" />
    <glyph glyph-name="semicolon" unicode=";" horiz-adv-x="261" 
d="M245 148c-28 -84 -94 -188 -138 -257c-36 3 -85 26 -110 64c27 60 66 207 85 280c33 -5 124 -41 163 -87zM213 522c39 -41 9 -148 -11 -165c-29 -26 -120 -50 -142 -10c-22 39 -10 136 18 161c33 30 97 54 135 14z" />
    <glyph glyph-name="less" unicode="&#x3c;" horiz-adv-x="406" 
d="M392 -2c-37 -44 -132 -59 -174 -56c-17 15 -146 294 -201 416c8 21 48 127 87 232c39 102 80 208 90 221c25 8 145 -2 192 -31c-54 -149 -106 -274 -159 -395c62 -145 123 -286 165 -387z" />
    <glyph glyph-name="equal" unicode="=" horiz-adv-x="379" 
d="M329 323c7 -45 14 -116 -7 -155c-50 -21 -156 -33 -273 -35c0 0 -36 100 10 177c56 8 203 4 270 13zM331 554c7 -45 13 -116 -8 -154c-50 -22 -155 -34 -273 -35c0 0 -36 99 10 176c56 8 204 5 271 13z" />
    <glyph glyph-name="greater" unicode="&#x3e;" horiz-adv-x="403" 
d="M387 380c-31 -72 -152 -349 -184 -425c-49 -15 -139 -26 -190 24c29 63 107 246 164 381c-75 172 -146 342 -165 390c40 42 106 72 196 73c28 -72 143 -355 179 -443z" />
    <glyph glyph-name="question" unicode="?" horiz-adv-x="507" 
d="M276 -15c-33 -35 -137 -37 -174 -11c-30 21 -17 124 7 147c34 33 120 40 162 22c50 -22 32 -130 5 -158zM450 444c-15 -52 -44 -80 -77 -95c-26 -11 -54 -15 -81 -20c-10 -34 -13 -62 -14 -101c-23 -24 -126 -39 -173 -10c0 55 -5 129 4 198c35 6 111 13 125 49
c18 47 23 171 -18 175c-18 2 -43 -3 -71 -10c-28 -8 -58 -18 -100 -30c-9 41 -10 61 -9 82c1 19 3 38 4 74c51 17 96 33 142 45c46 11 94 17 139 12c53 -7 102 -48 126 -114c29 -82 28 -172 3 -255z" />
    <glyph glyph-name="at" unicode="@" horiz-adv-x="699" 
d="M357 284c-2 72 -1 141 -1 213c-2 0 -4 0 -5 -2c-15 -38 -18 -179 -6 -216c1 -4 6 0 12 5zM645 634c44 -132 16 -361 -29 -424c-64 -94 -139 -82 -256 -85v28c-39 -16 -83 -27 -107 -4c-28 27 -50 117 -51 149c-4 66 -3 234 40 289c13 16 30 40 50 47c23 7 73 5 113 -15
c19 4 58 9 77 -1c-1 -96 3 -193 5 -290c20 16 30 58 33 93c5 83 -4 140 -20 186c-6 14 -14 32 -30 39c-68 32 -159 31 -208 7c-56 -28 -85 -129 -88 -243c-3 -89 -2 -214 60 -294c24 -31 146 -17 222 -6c22 -61 -2 -122 -2 -122c-129 -34 -238 -31 -287 -9
c-69 31 -131 170 -138 258c-9 118 -19 267 27 397c24 69 99 156 201 167c69 7 117 8 187 0c102 -11 178 -97 201 -167z" />
    <glyph glyph-name="A" unicode="A" horiz-adv-x="562" 
d="M316 277c-6 76 -28 226 -36 259c-3 12 -10 -3 -12 -8c-7 -16 -14 -57 -24 -109c-8 -46 -16 -100 -25 -146c29 -5 76 -2 97 4zM552 19c-43 -28 -137 -41 -204 -31c-1 50 -3 72 -13 105c-33 -8 -78 -9 -117 -9c-8 11 -15 22 -22 32c-2 -11 -4 -23 -7 -35
c-4 -26 -8 -53 -14 -81c-47 -24 -124 -10 -168 1c19 169 66 442 139 732l89 9l-2 57c73 16 132 14 200 10c57 -255 87 -534 119 -790z" />
    <glyph glyph-name="B" unicode="B" horiz-adv-x="565" 
d="M336 231c-21 30 -65 34 -88 19c-16 -10 -15 -112 7 -124c10 -5 24 1 35 5c62 25 60 80 46 100zM327 623c-8 34 -43 38 -62 28c-14 -7 -15 -50 -17 -94c-3 -50 -3 -102 -3 -118c-1 -24 3 -30 42 -14c58 23 52 153 40 198zM532 197c-9 -133 -59 -184 -135 -218
c-28 -12 -157 -28 -244 -17c-20 3 -30 22 -35 37c-4 11 -7 25 -9 39h-58c-15 214 -10 457 13 603c-14 0 -32 -1 -49 -2c0 0 1 108 23 151c83 20 261 29 362 7c115 -25 140 -204 114 -318c-10 -43 -32 -76 -54 -99c48 -31 77 -107 72 -183z" />
    <glyph glyph-name="C" unicode="C" horiz-adv-x="526" 
d="M495 618c0 -48 -3 -96 -12 -142c-40 -14 -96 -24 -138 -24c-12 0 -24 1 -35 3c0 20 -2 128 -7 190c-55 0 -58 -197 -58 -236c0 -50 2 -221 35 -254c10 -10 31 -11 45 -11c47 0 94 21 134 44c21 -23 27 -71 27 -101c0 -20 -2 -41 -10 -60c-66 -37 -148 -54 -224 -54
c-32 0 -78 4 -108 19c-113 57 -111 307 -111 416c0 123 17 355 164 391c37 9 79 9 117 9c52 0 123 -5 168 -31c11 -52 13 -107 13 -159z" />
    <glyph glyph-name="D" unicode="D" horiz-adv-x="581" 
d="M339 562c-20 83 -62 77 -73 65c-4 -5 -8 -17 -9 -34c-2 -16 -2 -34 -2 -47c-2 -94 2 -192 2 -299c0 -38 4 -66 13 -80c6 -10 33 -9 54 9c44 39 32 315 15 386zM546 264c-8 -123 -65 -234 -165 -276c-36 -15 -161 -21 -209 -10c-18 5 -27 23 -32 36c-4 10 -7 21 -9 32
l-59 -1c-9 188 -15 358 -4 591l-56 -3c4 62 13 111 32 161c102 21 303 29 365 -2c61 -30 92 -52 116 -138c28 -106 28 -281 21 -390z" />
    <glyph glyph-name="E" unicode="E" horiz-adv-x="456" 
d="M419 174c4 -62 -1 -148 -22 -177c-88 -20 -182 -33 -293 -25l-13 60l-45 -3c-12 219 -8 438 9 600l-44 -3c5 48 17 120 39 164c85 13 276 18 335 5c8 -28 21 -135 -1 -171c-27 6 -102 6 -134 3c-8 -48 -12 -132 -3 -175c41 8 97 10 149 9c7 -48 5 -120 2 -167
c-44 -6 -120 -19 -154 -25c-2 -35 -1 -53 0 -92c0 -7 0 -15 4 -15c50 1 109 7 171 12z" />
    <glyph glyph-name="F" unicode="F" horiz-adv-x="470" 
d="M426 633c-34 7 -125 -1 -163 -5c-3 -37 -5 -140 -5 -196c44 -1 97 3 148 12c13 -50 14 -137 -3 -180c-29 -19 -72 -26 -112 -29c-17 11 -27 21 -35 31c-1 -88 -3 -163 3 -285c-41 -11 -71 -14 -100 -14c-28 0 -57 1 -97 4c-9 78 -12 224 -12 249c-2 139 2 309 11 413h-49
c1 54 19 110 37 162c88 11 306 22 362 10c12 -33 24 -116 15 -172z" />
    <glyph glyph-name="G" unicode="G" horiz-adv-x="543" 
d="M499 11c-33 -23 -128 -42 -171 -25c-2 18 -3 27 -4 35v2c-16 -7 -32 -14 -51 -20c-28 -10 -62 -16 -109 -15s-81 37 -100 100c-20 64 -37 191 -37 317c-1 135 25 269 70 328c33 44 111 77 189 82c66 4 133 -16 184 -46c7 -53 9 -142 1 -224c-25 -9 -52 -18 -79 -25
c-25 -7 -55 -13 -85 -6c-2 30 -4 55 -6 79c-1 18 -3 33 -6 44c-15 -1 -31 -12 -34 -19c-15 -30 -34 -99 -34 -206c0 -105 12 -214 34 -221c12 -4 54 8 62 17c1 31 0 65 0 95c0 32 -1 62 5 91c49 18 128 18 166 17c15 -114 16 -295 5 -400z" />
    <glyph glyph-name="H" unicode="H" horiz-adv-x="591" 
d="M537 484c0 -145 0 -348 -19 -486c-43 -23 -109 -25 -160 -9c2 84 -8 163 -12 232c-40 -2 -96 -12 -121 -24c-3 -57 -4 -134 -6 -200c-52 -18 -99 -27 -161 -18c-20 245 -11 574 9 798c37 12 122 16 183 9c-9 -117 -17 -242 -12 -307c33 7 77 15 111 18
c8 113 10 219 15 287c32 17 62 21 89 23c26 1 50 0 80 1c8 -118 4 -222 4 -324z" />
    <glyph glyph-name="I" unicode="I" horiz-adv-x="311" 
d="M250 775c-2 -268 15 -504 0 -769c-32 -22 -155 -29 -197 -4c-9 254 -1 510 2 771c43 15 161 19 195 2z" />
    <glyph glyph-name="J" unicode="J" horiz-adv-x="455" 
d="M408 225c-1 -60 -5 -120 -21 -166c-24 -68 -99 -100 -161 -103c-45 -2 -157 15 -210 50c-11 36 -13 65 -12 91c2 24 6 47 9 83c39 -10 64 -17 88 -22s46 -8 64 -7c17 1 37 16 37 70c0 189 -5 365 -10 569c66 18 156 15 214 -4c3 -102 5 -295 2 -392c-1 -48 1 -109 0 -169
z" />
    <glyph glyph-name="K" unicode="K" horiz-adv-x="548" 
d="M527 743c-10 -52 -29 -96 -51 -146c-23 -50 -50 -108 -78 -183c23 -64 70 -214 116 -382c-37 -27 -120 -68 -185 -66c-16 63 -28 114 -42 163c-10 38 -21 74 -34 107c-7 -11 -14 -23 -17 -30c-4 -66 -6 -116 -8 -200c-42 -27 -139 -21 -182 -7c-3 155 -4 348 4 547
c2 55 -2 181 7 254c44 11 132 15 194 2c-5 -36 -13 -166 -12 -275c50 112 93 248 105 294c70 0 140 -40 183 -78z" />
    <glyph glyph-name="L" unicode="L" horiz-adv-x="436" 
d="M395 177c12 -41 7 -160 -21 -178c-82 -19 -165 -22 -256 -20l-18 62l-57 3c-9 124 -7 239 -4 351c4 120 5 254 10 382c53 30 151 37 198 -6c-5 -126 -22 -391 -7 -603c5 -2 15 -1 31 0c25 0 62 4 124 9z" />
    <glyph glyph-name="M" unicode="M" horiz-adv-x="753" 
d="M692 808c6 -164 14 -570 -14 -815c-58 -16 -111 -16 -178 -6c0 149 8 216 1 322c-20 -44 -67 -157 -98 -237c-4 -10 -8 -23 -13 -34c-7 -16 -17 -28 -25 -31c-15 -5 -27 2 -34 12c-3 4 -6 10 -8 15s-5 11 -8 18c-30 72 -64 136 -98 230c-9 -96 -9 -192 -5 -291
c-31 -17 -123 -30 -158 -16c-20 61 -16 706 6 822c53 18 145 18 211 16c36 -100 79 -198 107 -293c1 -2 1 -5 3 -2c17 33 80 214 91 277c42 27 169 37 220 13z" />
    <glyph glyph-name="N" unicode="N" horiz-adv-x="569" 
d="M521 -15c-49 -17 -135 -22 -181 -9c-53 105 -82 183 -142 322c-5 -99 -1 -201 -1 -312c-33 -14 -122 -19 -155 -1c-15 189 -8 508 0 782c55 18 134 18 174 17c17 -30 47 -101 76 -171c30 -70 58 -140 69 -160c1 -3 1 -4 1 -4c1 0 -1 5 -1 11c0 106 5 225 3 341
c44 14 119 15 156 -6c3 -276 6 -530 1 -810z" />
    <glyph glyph-name="O" unicode="O" horiz-adv-x="603" 
d="M373 432c-1 37 -1 85 -8 125c-7 41 -21 61 -41 64c-8 1 -17 3 -25 2c-7 0 -11 -1 -14 -4c-23 -21 -38 -66 -46 -107c-21 -103 -19 -237 12 -332c13 -38 60 -36 76 -13c31 43 49 164 46 265zM557 581c24 -107 19 -363 -37 -482c-28 -59 -75 -102 -138 -118
c-95 -22 -198 -10 -251 37c-67 59 -106 174 -107 283c-2 116 7 221 30 294c17 56 51 140 107 182l65 -21l27 59c79 14 149 4 203 -27c32 -18 51 -42 65 -75c6 -16 12 -35 18 -57c5 -22 11 -46 18 -75z" />
    <glyph glyph-name="P" unicode="P" horiz-adv-x="579" 
d="M313 633c-16 8 -33 4 -47 -12c-6 -7 -17 -72 -18 -114c0 -10 -1 -46 1 -81c1 -30 1 -61 12 -67c12 -7 39 8 50 14c53 25 49 235 2 260zM552 447c-12 -92 -31 -178 -80 -224c-48 -46 -118 -59 -176 -64c-15 7 -32 19 -47 34c0 -56 -1 -134 -11 -203
c-51 -25 -151 -23 -193 -7c-6 20 1 432 16 645h-48c1 57 12 117 26 158c118 38 296 36 386 16c115 -27 142 -234 127 -355z" />
    <glyph glyph-name="Q" unicode="Q" horiz-adv-x="612" 
d="M379 453c-1 38 -2 171 -55 178c-64 9 -84 -78 -95 -131c-21 -104 -26 -209 5 -303c7 -20 25 -38 38 -42c-6 18 -21 53 -26 70c34 17 48 38 91 33l15 -24c20 61 29 144 27 219zM606 -28c-37 -42 -121 -80 -163 -67c-11 13 -36 50 -50 70c-83 -30 -207 -23 -273 43
c-124 126 -118 419 -66 578c18 55 51 139 108 181c18 -8 44 -17 59 -23c5 14 10 34 15 57c82 20 163 9 220 -23c63 -35 92 -92 111 -208c21 -129 9 -385 -61 -506c33 -33 57 -55 100 -102z" />
    <glyph glyph-name="R" unicode="R" horiz-adv-x="559" 
d="M305 614c-22 25 -58 16 -64 -1c-17 -50 -26 -227 -4 -236c16 -7 33 -2 51 15c37 36 55 177 17 222zM547 25c-51 -39 -102 -58 -172 -59c-25 51 -95 152 -141 199c-6 -53 -5 -138 -4 -169c-40 -28 -139 -27 -187 -6c-10 245 0 465 10 634l-48 4c0 43 14 133 33 171
c91 15 292 14 333 5c57 -13 120 -52 140 -124c23 -90 22 -194 7 -272c-15 -70 -53 -118 -102 -152c35 -44 96 -134 131 -231z" />
    <glyph glyph-name="S" unicode="S" horiz-adv-x="498" 
d="M467 197c3 -156 -69 -220 -215 -232c-78 -6 -142 3 -196 30c-17 50 -17 103 -11 165c43 -18 87 -27 109 -28c40 -2 100 -3 106 39c2 13 4 34 -5 43c-12 12 -27 20 -44 25s-36 8 -53 11c-38 8 -78 21 -99 77c-42 111 -31 332 16 401c66 100 291 89 368 52
c7 -54 9 -181 1 -265c-43 -14 -116 -32 -161 -21c-7 35 -11 93 -14 148c-11 -2 -20 -9 -30 -22c-9 -12 -11 -167 1 -181c15 -17 40 -22 72 -26c33 -4 67 -7 95 -28c48 -37 58 -75 60 -188z" />
    <glyph glyph-name="T" unicode="T" horiz-adv-x="507" 
d="M470 795c10 -76 10 -123 -35 -182c-39 -5 -66 -6 -99 -7c-4 -101 -22 -601 -22 -601c-52 -30 -130 -35 -177 -7c-7 171 -4 375 -1 550c11 16 24 32 40 48c-12 -1 -26 -3 -41 -4c-38 -4 -80 -8 -113 -5c-18 57 3 161 16 193c32 10 375 20 432 15z" />
    <glyph glyph-name="U" unicode="U" horiz-adv-x="573" 
d="M524 117c-1 -27 -4 -67 -13 -93c-26 -29 -108 -39 -162 -25v56c-24 -11 -56 -26 -91 -38c-46 -16 -99 -29 -148 -19c-31 7 -71 39 -74 104c-3 77 -17 400 19 688c68 24 143 20 188 -15c-6 -69 -13 -162 -17 -263c-3 -97 -4 -199 6 -286c31 -9 85 24 92 49
c5 70 12 258 15 501c45 29 124 31 177 9c13 -188 12 -445 8 -668z" />
    <glyph glyph-name="V" unicode="V" horiz-adv-x="515" 
d="M506 780c-11 -119 -117 -574 -174 -790c-41 -21 -140 -35 -189 -14c-26 21 -135 669 -142 800c33 26 131 39 183 26c12 -60 24 -155 35 -244c11 -90 21 -172 30 -200c1 -2 1 -5 2 -3c31 105 54 305 82 435c53 15 156 6 173 -10z" />
    <glyph glyph-name="W" unicode="W" horiz-adv-x="845" 
d="M816 767c-21 -220 -75 -593 -123 -775c-35 -20 -165 -25 -227 0c-13 73 -25 189 -30 215c-1 7 -5 26 -9 45c-3 11 1 25 -4 24c-4 0 -2 -11 -4 -21c-4 -15 -6 -32 -7 -38c-3 -17 -7 -62 -12 -106s-11 -91 -20 -113c-35 -26 -188 -38 -243 -8c-61 258 -97 534 -120 762
c42 32 135 44 181 38c20 -188 54 -435 58 -451c0 -4 9 -12 12 3c39 184 62 315 87 435c35 7 123 8 156 -7c16 -144 31 -279 59 -409c2 -12 -3 -17 0 -16c2 1 6 7 6 10c17 102 34 318 49 445c40 14 163 11 191 -33z" />
    <glyph glyph-name="X" unicode="X" horiz-adv-x="525" 
d="M509 2c-41 -23 -116 -36 -178 -30c-27 75 -50 173 -67 213c-4 9 -7 18 -10 25c-4 -9 -6 -35 -9 -53c-2 -8 -48 -157 -57 -181c-64 -7 -116 0 -181 12c38 161 89 277 134 392c-40 96 -108 280 -132 391c50 20 123 36 184 30c11 -41 22 -81 32 -118c11 -38 22 -71 31 -90
c5 -9 5 -15 9 -5c23 56 52 165 63 208c61 15 120 8 175 1c-37 -165 -77 -276 -127 -400c20 -48 52 -125 79 -199c29 -75 54 -151 54 -196z" />
    <glyph glyph-name="Y" unicode="Y" horiz-adv-x="519" 
d="M509 786c-38 -162 -115 -345 -161 -462c-2 -86 -4 -236 -6 -339c-54 -16 -127 -19 -190 -4c-7 114 -6 230 -2 360c-19 49 -54 135 -85 218c-32 83 -60 168 -60 213c41 24 119 27 179 20c18 -71 50 -173 67 -213c3 -9 7 -18 10 -24c-1 0 -1 -2 -2 -3c6 4 7 35 11 55
c2 10 48 157 59 181c59 7 113 11 180 -2z" />
    <glyph glyph-name="Z" unicode="Z" horiz-adv-x="506" 
d="M461 653c-11 -43 -57 -162 -102 -278c-22 -57 -44 -113 -61 -159c-12 -31 -22 -57 -27 -74c55 -2 134 0 183 -2c20 -43 14 -105 4 -143c-35 -19 -143 -29 -212 -27c-38 1 -145 5 -200 9c-10 43 -10 112 -7 135c42 155 128 294 189 514c-21 3 -50 3 -79 3
c-37 -1 -73 -3 -103 0c-10 38 -14 126 12 152c75 22 330 14 396 3c7 -38 15 -99 7 -133z" />
    <glyph glyph-name="bracketleft" unicode="[" horiz-adv-x="397" 
d="M352 826c17 -55 10 -148 -18 -193c-49 -8 -66 -6 -105 -13c-6 -64 -9 -248 -11 -296c-2 -43 -2 -110 -2 -157c31 1 73 3 117 -1c19 -58 -1 -172 -16 -203c-30 -11 -206 -20 -263 -16c-19 218 -28 557 0 860c116 15 182 13 298 19z" />
    <glyph glyph-name="backslash" unicode="\" horiz-adv-x="392" 
d="M379 18c-25 -20 -58 -29 -86 -36s-56 -13 -76 -18c-37 41 -186 714 -205 803c44 33 108 48 191 36c41 -218 134 -591 176 -785z" />
    <glyph glyph-name="bracketright" unicode="]" horiz-adv-x="391" 
d="M340 345c-3 -22 -4 -106 -7 -187c-2 -78 -5 -163 -15 -184c-30 -11 -221 -21 -278 -17c-9 77 -10 143 36 203c37 4 54 6 83 6c0 63 0 138 -1 194c0 31 3 193 1 265c-40 -2 -75 -8 -125 -13c-30 65 5 178 32 205c83 10 164 19 259 18c17 -54 20 -449 15 -490z" />
    <glyph glyph-name="asciicircum" unicode="^" horiz-adv-x="543" 
d="M529 418c-34 -42 -127 -56 -165 -53c-20 14 -57 89 -99 181c-23 -53 -46 -107 -71 -168c-47 -15 -134 -26 -183 23c28 61 104 240 162 375c78 26 192 27 192 27c65 -150 124 -286 164 -385z" />
    <glyph glyph-name="underscore" unicode="_" horiz-adv-x="541" 
d="M489 199c6 -55 11 -140 -5 -185c-44 -30 -336 -43 -434 -45c0 0 -30 120 8 212c30 7 124 8 214 9c45 0 91 1 128 2s64 2 89 7z" />
    <glyph glyph-name="quoteleft" unicode="&#x2018;" horiz-adv-x="353" 
d="M323 543c-26 -8 -45 -15 -63 -20c-23 -7 -44 -10 -60 -5c-58 85 -113 171 -183 276c44 10 171 24 203 8c23 -41 41 -81 57 -122c15 -41 28 -82 46 -137z" />
    <glyph glyph-name="a" unicode="a" horiz-adv-x="562" 
d="M316 277c-6 76 -28 226 -36 259c-3 12 -10 -3 -12 -8c-7 -16 -14 -57 -24 -109c-8 -46 -16 -100 -25 -146c29 -5 76 -2 97 4zM552 19c-43 -28 -137 -41 -204 -31c-1 50 -3 72 -13 105c-33 -8 -78 -9 -117 -9c-8 11 -15 22 -22 32c-2 -11 -4 -23 -7 -35
c-4 -26 -8 -53 -14 -81c-47 -24 -124 -10 -168 1c19 169 66 442 139 732l89 9l-2 57c73 16 132 14 200 10c57 -255 87 -534 119 -790z" />
    <glyph glyph-name="b" unicode="b" horiz-adv-x="565" 
d="M336 231c-21 30 -65 34 -88 19c-16 -10 -15 -112 7 -124c10 -5 24 1 35 5c62 25 60 80 46 100zM327 623c-8 34 -43 38 -62 28c-14 -7 -15 -50 -17 -94c-3 -50 -3 -102 -3 -118c-1 -24 3 -30 42 -14c58 23 52 153 40 198zM532 197c-9 -133 -59 -184 -135 -218
c-28 -12 -157 -28 -244 -17c-20 3 -30 22 -35 37c-4 11 -7 25 -9 39h-58c-15 214 -10 457 13 603c-14 0 -32 -1 -49 -2c0 0 1 108 23 151c83 20 261 29 362 7c115 -25 140 -204 114 -318c-10 -43 -32 -76 -54 -99c48 -31 77 -107 72 -183z" />
    <glyph glyph-name="c" unicode="c" horiz-adv-x="492" 
d="M450 521c-43 -39 -114 -60 -172 -43c2 21 3 47 3 73c1 27 1 54 -2 66c-2 11 -3 17 -6 14c-32 -33 -49 -161 -54 -267c-6 -117 12 -189 45 -204c23 -12 51 -13 81 -9c31 4 61 11 97 17c10 -38 -8 -142 -31 -163c-80 -26 -194 -40 -274 -10c-119 45 -121 328 -112 434
c5 60 38 226 69 282c34 63 122 98 190 94c16 -1 41 -2 68 -5c28 -3 58 -8 87 -24c13 -68 17 -189 11 -255z" />
    <glyph glyph-name="d" unicode="d" horiz-adv-x="581" 
d="M339 562c-20 83 -62 77 -73 65c-4 -5 -8 -17 -9 -34c-2 -16 -2 -34 -2 -47c-2 -94 2 -192 2 -299c0 -38 4 -66 13 -80c6 -10 33 -9 54 9c44 39 32 315 15 386zM546 264c-8 -123 -65 -234 -165 -276c-36 -15 -161 -21 -209 -10c-18 5 -27 23 -32 36c-4 10 -7 21 -9 32
l-59 -1c-9 188 -15 358 -4 591l-56 -3c4 62 13 111 32 161c102 21 303 29 365 -2c61 -30 92 -52 116 -138c28 -106 28 -281 21 -390z" />
    <glyph glyph-name="e" unicode="e" horiz-adv-x="456" 
d="M419 174c4 -62 -1 -148 -22 -177c-88 -20 -182 -33 -293 -25l-13 60l-45 -3c-12 219 -8 438 9 600l-44 -3c5 48 17 120 39 164c85 13 276 18 335 5c8 -28 21 -135 -1 -171c-27 6 -102 6 -134 3c-8 -48 -12 -132 -3 -175c41 8 97 10 149 9c7 -48 5 -120 2 -167
c-44 -6 -120 -19 -154 -25c-2 -35 -1 -53 0 -92c0 -7 0 -15 4 -15c50 1 109 7 171 12z" />
    <glyph glyph-name="f" unicode="f" horiz-adv-x="470" 
d="M426 633c-34 7 -125 -1 -163 -5c-3 -37 -5 -140 -5 -196c44 -1 97 3 148 12c13 -50 14 -137 -3 -180c-29 -19 -72 -26 -112 -29c-17 11 -27 21 -35 31c-1 -88 -3 -163 3 -285c-41 -11 -71 -14 -100 -14c-28 0 -57 1 -97 4c-9 78 -12 224 -12 249c-2 139 2 309 11 413h-49
c1 54 19 110 37 162c88 11 306 22 362 10c12 -33 24 -116 15 -172z" />
    <glyph glyph-name="g" unicode="g" horiz-adv-x="543" 
d="M499 11c-33 -23 -128 -42 -171 -25c-2 18 -3 27 -4 35v2c-16 -7 -32 -14 -51 -20c-28 -10 -62 -16 -109 -15s-81 37 -100 100c-20 64 -37 191 -37 317c-1 135 25 269 70 328c33 44 111 77 189 82c66 4 133 -16 184 -46c7 -53 9 -142 1 -224c-25 -9 -52 -18 -79 -25
c-25 -7 -55 -13 -85 -6c-2 30 -4 55 -6 79c-1 18 -3 33 -6 44c-15 -1 -31 -12 -34 -19c-15 -30 -34 -99 -34 -206c0 -105 12 -214 34 -221c12 -4 54 8 62 17c1 31 0 65 0 95c0 32 -1 62 5 91c49 18 128 18 166 17c15 -114 16 -295 5 -400z" />
    <glyph glyph-name="h" unicode="h" horiz-adv-x="584" 
d="M531 411c1 -158 0 -255 -6 -419c-23 -34 -158 -26 -183 -5c1 94 8 169 2 253c-26 10 -92 2 -130 -9c0 -95 1 -159 5 -246c-32 -24 -146 -15 -180 -1c-7 127 -12 295 -7 526c0 14 1 70 2 125c1 54 3 112 11 137c47 11 157 20 181 -8c-14 -105 -4 -179 -3 -277
c26 -6 90 -1 117 10c-1 101 4 166 6 276c17 20 158 41 182 5c4 -103 2 -266 3 -367z" />
    <glyph glyph-name="i" unicode="i" horiz-adv-x="311" 
d="M250 775c-2 -268 15 -504 0 -769c-32 -22 -155 -29 -197 -4c-9 254 -1 510 2 771c43 15 161 19 195 2z" />
    <glyph glyph-name="j" unicode="j" horiz-adv-x="455" 
d="M408 225c-1 -60 -5 -120 -21 -166c-24 -68 -99 -100 -161 -103c-45 -2 -157 15 -210 50c-11 36 -13 65 -12 91c2 24 6 47 9 83c39 -10 64 -17 88 -22s46 -8 64 -7c17 1 37 16 37 70c0 189 -5 365 -10 569c66 18 156 15 214 -4c3 -102 5 -295 2 -392c-1 -48 1 -109 0 -169
z" />
    <glyph glyph-name="k" unicode="k" horiz-adv-x="553" 
d="M545 15c-39 -35 -144 -71 -185 -54c-42 89 -80 199 -116 289l-1 -2c-5 -9 -12 -19 -18 -27c-8 -83 -4 -164 0 -225c-43 -28 -134 -27 -181 -18c-16 270 -13 534 -2 800c38 21 119 30 178 17c3 -46 2 -144 5 -243c19 31 37 65 54 100c25 50 49 101 75 151
c50 4 142 -10 188 -54c-56 -119 -107 -206 -155 -315c45 -152 112 -260 158 -419z" />
    <glyph glyph-name="l" unicode="l" horiz-adv-x="458" 
d="M424 146c4 -60 2 -98 -16 -154c-56 -26 -175 -32 -276 -25l-13 60l-58 4c-14 142 -14 323 -13 463c1 92 3 182 10 279c25 27 166 24 206 12c0 -70 -20 -419 0 -644c17 -3 37 -2 60 0c28 3 58 6 100 5z" />
    <glyph glyph-name="m" unicode="m" horiz-adv-x="753" 
d="M692 808c6 -164 14 -570 -14 -815c-58 -16 -111 -16 -178 -6c0 149 8 216 1 322c-20 -44 -67 -157 -98 -237c-4 -10 -8 -23 -13 -34c-7 -16 -17 -28 -25 -31c-15 -5 -27 2 -34 12c-3 4 -6 10 -8 15s-5 11 -8 18c-30 72 -64 136 -98 230c-9 -96 -9 -192 -5 -291
c-31 -17 -123 -30 -158 -16c-20 61 -16 706 6 822c53 18 145 18 211 16c36 -100 79 -198 107 -293c1 -2 1 -5 3 -2c17 33 80 214 91 277c42 27 169 37 220 13z" />
    <glyph glyph-name="n" unicode="n" horiz-adv-x="569" 
d="M521 -15c-49 -17 -135 -22 -181 -9c-53 105 -82 183 -142 322c-5 -99 -1 -201 -1 -312c-33 -14 -122 -19 -155 -1c-15 189 -8 508 0 782c55 18 134 18 174 17c17 -30 47 -101 76 -171c30 -70 58 -140 69 -160c1 -3 1 -4 1 -4c1 0 -1 5 -1 11c0 106 5 225 3 341
c44 14 119 15 156 -6c3 -276 6 -530 1 -810z" />
    <glyph glyph-name="o" unicode="o" horiz-adv-x="594" 
d="M367 416c0 43 -6 85 -11 127c-5 38 -8 95 -56 95c-11 0 -22 -5 -31 -14c-34 -35 -45 -235 -45 -289c0 -58 4 -210 70 -210c80 0 73 224 73 291zM563 419c0 -113 -2 -331 -122 -430c-58 -46 -235 -44 -292 0c-63 49 -92 123 -105 198c-14 73 -12 149 -12 205
c0 104 8 223 52 322c11 25 39 54 75 77c19 -12 33 -21 46 -29c7 -4 14 -8 18 -9c6 7 9 15 12 22c2 6 3 11 5 16s5 11 13 22c83 8 215 12 263 -99c38 -90 47 -199 47 -295z" />
    <glyph glyph-name="p" unicode="p" horiz-adv-x="579" 
d="M313 633c-16 8 -33 4 -47 -12c-6 -7 -17 -72 -18 -114c0 -10 -1 -46 1 -81c1 -30 1 -61 12 -67c12 -7 39 8 50 14c53 25 49 235 2 260zM552 447c-12 -92 -31 -178 -80 -224c-48 -46 -118 -59 -176 -64c-15 7 -32 19 -47 34c0 -56 -1 -134 -11 -203
c-51 -25 -151 -23 -193 -7c-6 20 1 432 16 645h-48c1 57 12 117 26 158c118 38 296 36 386 16c115 -27 142 -234 127 -355z" />
    <glyph glyph-name="q" unicode="q" horiz-adv-x="577" 
d="M350 410c-2 38 -1 77 -6 114c-4 37 -13 70 -33 97c-13 18 -43 18 -56 0c-20 -28 -31 -62 -37 -98c-7 -38 -8 -77 -12 -113c-4 -34 5 -128 17 -186c17 11 25 17 34 22c11 6 23 10 44 12c10 -5 26 -24 38 -40c9 57 13 148 11 192zM539 252c-4 -55 -34 -157 -73 -209
c8 -10 15 -19 22 -28c9 -12 17 -23 35 -48c-32 -37 -101 -67 -147 -55l-34 66c-71 -21 -150 -5 -200 23c-52 30 -103 150 -115 250c-18 149 -29 407 117 526c21 -9 45 -17 60 -22c6 14 16 37 25 61c93 25 218 -12 265 -104c62 -123 58 -290 45 -460z" />
    <glyph glyph-name="r" unicode="r" horiz-adv-x="559" 
d="M305 614c-22 25 -58 16 -64 -1c-17 -50 -26 -227 -4 -236c16 -7 33 -2 51 15c37 36 55 177 17 222zM547 25c-51 -39 -102 -58 -172 -59c-25 51 -95 152 -141 199c-6 -53 -5 -138 -4 -169c-40 -28 -139 -27 -187 -6c-10 245 0 465 10 634l-48 4c0 43 14 133 33 171
c91 15 292 14 333 5c57 -13 120 -52 140 -124c23 -90 22 -194 7 -272c-15 -70 -53 -118 -102 -152c35 -44 96 -134 131 -231z" />
    <glyph glyph-name="s" unicode="s" horiz-adv-x="491" 
d="M436 518c-31 -14 -107 -35 -158 -28c1 61 -1 98 -5 116c-1 8 -5 10 -12 8c-8 -2 -16 -10 -18 -21c-3 -15 -23 -122 -1 -157c9 -15 20 -23 35 -28c8 -3 16 -6 24 -7l27 -6c38 -7 81 -20 99 -76c37 -113 15 -233 -33 -299c-60 -81 -261 -66 -341 -37c-13 64 -10 98 -1 146
c72 -10 157 -12 197 17c9 7 16 54 3 70c-14 17 -36 23 -64 28c-15 3 -30 5 -44 10c-15 4 -30 11 -44 23c-44 37 -65 92 -69 206c-7 214 67 311 216 317c76 3 126 1 180 -28c13 -50 16 -205 9 -254z" />
    <glyph glyph-name="t" unicode="t" horiz-adv-x="507" 
d="M470 795c10 -76 10 -123 -35 -182c-39 -5 -66 -6 -99 -7c-4 -101 -22 -601 -22 -601c-52 -30 -130 -35 -177 -7c-7 171 -4 375 -1 550c11 16 24 32 40 48c-12 -1 -26 -3 -41 -4c-38 -4 -80 -8 -113 -5c-18 57 3 161 16 193c32 10 375 20 432 15z" />
    <glyph glyph-name="u" unicode="u" horiz-adv-x="608" 
d="M543 797c15 -277 4 -540 -9 -814c-33 -5 -99 -19 -181 -24c0 23 -1 30 -2 38c-1 3 -1 6 -2 10c-48 -19 -100 -35 -143 -41c-136 -18 -170 55 -172 187c-2 133 -1 266 6 399c4 68 5 147 14 223c30 13 62 17 93 19c30 1 62 1 101 1c-14 -213 -25 -385 -15 -581
c2 -32 29 -49 58 -48c36 2 54 27 54 63c0 113 -1 176 1 289c1 96 -1 170 2 278c43 7 81 7 113 6s60 -4 82 -5z" />
    <glyph glyph-name="v" unicode="v" horiz-adv-x="578" 
d="M567 794c-48 -296 -110 -533 -167 -804c-46 -23 -182 -36 -256 -15c-29 41 -115 714 -125 805c44 29 117 37 195 17c20 -221 43 -378 65 -565c0 -2 2 0 3 2c19 76 40 181 57 258c3 14 15 82 26 149c12 65 24 133 31 148c22 12 127 16 171 5z" />
    <glyph glyph-name="w" unicode="w" horiz-adv-x="807" 
d="M796 780c-11 -118 -110 -573 -165 -790c-40 -21 -135 -35 -186 -12c-18 81 -22 197 -40 291c-18 -77 -44 -225 -58 -289c-46 -23 -157 -32 -213 -15c-29 41 -114 724 -124 815c44 29 116 37 194 17c20 -215 32 -282 60 -439c6 27 9 42 12 57c4 19 7 39 15 77
c17 75 35 184 41 219c2 9 3 22 5 36c2 12 5 28 12 42c31 18 112 20 140 13c12 -60 23 -155 34 -244c11 -90 21 -172 29 -200c29 105 52 303 78 432c51 15 149 6 166 -10z" />
    <glyph glyph-name="x" unicode="x" horiz-adv-x="517" 
d="M504 16c-33 -42 -121 -57 -159 -54c-18 16 -53 88 -93 179c-21 -52 -43 -105 -67 -166c-45 -15 -128 -26 -175 23c27 60 97 235 149 364c-68 163 -132 325 -150 370c36 41 96 69 180 71c22 -58 45 -118 70 -182c15 40 27 75 33 92c3 9 7 23 11 37c5 13 10 28 20 41
c23 8 132 -2 175 -30c-48 -142 -95 -261 -144 -376c56 -138 112 -273 150 -369z" />
    <glyph glyph-name="y" unicode="y" horiz-adv-x="519" 
d="M509 786c-38 -162 -115 -345 -161 -462c-2 -86 -4 -236 -6 -339c-54 -16 -127 -19 -190 -4c-7 114 -6 230 -2 360c-19 49 -54 135 -85 218c-32 83 -60 168 -60 213c41 24 119 27 179 20c18 -71 50 -173 67 -213c3 -9 7 -18 10 -24c-1 0 -1 -2 -2 -3c6 4 7 35 11 55
c2 10 48 157 59 181c59 7 113 11 180 -2z" />
    <glyph glyph-name="z" unicode="z" horiz-adv-x="482" 
d="M440 135c10 -43 0 -126 -24 -151c-71 -22 -314 -14 -377 -3c-7 38 -15 99 -7 133c11 42 55 162 97 277c21 58 42 114 58 160c11 31 20 57 26 74c-52 2 -127 0 -174 3c-19 42 -13 104 -4 142c34 19 137 29 202 27c36 -1 138 -5 192 -9c8 -43 9 -111 6 -135
c-40 -155 -122 -294 -180 -514c21 -3 50 -4 81 -4c38 1 75 2 104 0z" />
    <glyph glyph-name="braceleft" unicode="{" horiz-adv-x="422" 
d="M400 40c-3 -37 -10 -58 -18 -75c-7 -16 -16 -28 -23 -43c-30 -13 -160 18 -199 59c-58 61 -57 147 -50 199c13 102 -84 166 -101 177c17 16 115 109 111 151c-5 57 -11 100 -11 135c0 37 7 67 29 95c37 47 125 82 182 98c16 -15 24 -21 30 -27c7 -6 13 -12 18 -18
c12 -14 16 -28 16 -59c-41 -21 -67 -49 -72 -83c-4 -24 0 -55 5 -85c2 -15 4 -30 6 -41c1 -12 3 -23 1 -32c-11 -51 -32 -84 -52 -107c-10 -11 -20 -19 -27 -26l-3 -2c53 -38 96 -106 66 -206c-21 -74 35 -97 92 -110z" />
    <glyph glyph-name="bar" unicode="|" horiz-adv-x="299" 
d="M240 547c-2 -268 10 -371 0 -541c-32 -22 -155 -29 -197 -4c-7 198 -1 283 2 542c43 17 161 21 195 3zM240 802c47 -41 12 -150 -13 -168c-37 -27 -135 -41 -162 -12c-52 55 -11 143 20 166c40 29 112 52 155 14z" />
    <glyph glyph-name="braceright" unicode="}" horiz-adv-x="383" 
d="M388 405c-17 -16 -115 -110 -111 -152c5 -57 11 -100 11 -135c0 -37 -7 -67 -29 -95c-38 -47 -136 -83 -191 -97c-16 14 -23 21 -28 26c-6 5 -10 10 -13 17c-3 6 -4 13 -4 19v31c41 21 67 49 72 84c4 24 0 55 -5 85c-2 15 -4 29 -6 41c-1 11 -2 23 -1 31
c12 51 33 84 53 107c9 11 19 19 26 26l3 2c-53 38 -96 106 -66 206c21 74 -35 98 -92 111c3 37 10 60 18 78c8 19 16 34 23 48c31 16 151 -18 189 -58c59 -61 57 -147 50 -199c-13 -101 84 -165 101 -176z" />
    <glyph glyph-name="asciitilde" unicode="~" horiz-adv-x="689" 
d="M663 717c-30 -68 -74 -134 -117 -182c-57 -65 -124 -81 -200 -27c-20 14 -43 37 -67 55c-24 19 -46 31 -67 31c-6 0 -21 -20 -37 -38c-19 -22 -38 -45 -47 -55c-46 9 -84 41 -115 75c58 93 158 232 260 213c24 -5 43 -15 60 -27c8 -6 15 -13 22 -20c7 -6 13 -13 20 -19
c26 -27 45 -46 75 -46c20 0 40 15 59 38c10 12 19 25 27 37c8 13 16 26 30 46c40 -18 85 -48 97 -81z" />
    <glyph glyph-name="exclamdown" unicode="&#xa1;" horiz-adv-x="321" 
d="M224 -10c-43 -30 -160 -17 -203 -5c14 124 40 235 56 345c4 26 21 130 31 178c26 0 40 2 54 3c15 1 33 1 56 -11c14 -172 17 -340 6 -510zM248 632c-5 -6 -10 -13 -15 -18c-5 -6 -11 -12 -17 -18c-13 -11 -30 -17 -52 -15c-56 6 -88 52 -90 109c-2 72 84 177 155 110
c40 -38 57 -124 19 -168z" />
    <glyph glyph-name="cent" unicode="&#xa2;" horiz-adv-x="458" 
d="M314 152v-1c8 -2 10 -2 0 1zM450 558c0 -33 -3 -67 -11 -99c-36 -10 -87 -17 -124 -17c-11 0 -22 1 -32 3c0 13 -2 88 -6 132c-50 0 -52 -137 -52 -165c0 -34 1 -153 31 -176c9 -7 28 -8 41 -8c42 0 84 15 120 31c19 -16 25 -49 25 -70c0 -14 -2 -29 -10 -42
c-36 -16 -78 -26 -121 -32c-5 -43 -17 -76 -27 -118c-21 -2 -69 0 -94 8c2 28 -1 62 -5 107c-18 2 -37 5 -51 10c-102 40 -100 214 -100 290c0 85 15 247 147 271l15 3c-2 32 -2 52 2 102c16 11 112 16 137 14c-6 -39 -7 -75 -13 -113c40 -1 85 -7 117 -21
c9 -36 11 -74 11 -110z" />
    <glyph glyph-name="sterling" unicode="&#xa3;" horiz-adv-x="514" 
d="M469 479c6 -54 12 -119 -5 -164c-21 -13 -67 -20 -119 -26c-29 -53 -59 -110 -76 -150c22 -3 53 -4 84 -4c40 1 79 2 109 0c11 -43 0 -126 -25 -151c-75 -22 -330 -14 -396 -3c-7 38 -15 99 -7 133c7 25 22 55 39 86c13 24 28 48 43 72c-21 -1 -39 -1 -65 -3
c0 0 -31 100 7 193c16 4 41 6 72 7c-61 70 -101 159 -70 246c19 54 85 82 134 86c31 2 70 6 112 4c42 -1 89 -8 141 -31c3 -25 7 -48 9 -72c2 -25 2 -52 -9 -86c-78 15 -169 31 -194 9c-21 -19 34 -101 102 -153c48 1 86 3 114 7z" />
    <glyph glyph-name="fraction" unicode="&#x2044;" horiz-adv-x="379" 
d="M358 794c-51 -296 -116 -543 -177 -818c-57 -6 -118 -10 -171 27c24 86 91 413 109 490c18 74 37 183 43 218c2 9 3 22 5 36c2 13 5 29 13 42c22 12 133 16 178 5z" />
    <glyph glyph-name="yen" unicode="&#xa5;" horiz-adv-x="458" 
d="M509 786c-24 -104 -65 -217 -103 -315c17 1 32 2 45 3c9 -44 19 -113 -12 -150c-23 -7 -54 -13 -91 -18c-1 -19 -1 -40 -2 -63c40 1 75 3 102 5c10 -44 20 -113 -10 -151c-24 -7 -56 -13 -94 -18c-1 -33 -2 -66 -2 -94c-54 -16 -127 -19 -190 -4c-2 28 -3 56 -4 84
c-31 -1 -63 -2 -95 -2c0 0 -51 98 14 173c20 1 48 3 80 4c1 17 1 34 2 51c-31 -1 -62 -1 -95 -2c0 0 -50 97 15 172c9 1 20 2 32 3c-12 30 -24 63 -36 95c-32 83 -60 168 -60 213c41 24 119 27 179 20c18 -71 50 -173 67 -213c3 -9 7 -18 10 -24c-1 0 -1 -2 -2 -3
c6 4 7 35 11 55c2 10 48 157 59 181c59 7 113 11 180 -2z" />
    <glyph glyph-name="florin" unicode="&#x192;" horiz-adv-x="547" 
d="M503 757c4 -32 2 -78 -16 -115c-23 0 -46 7 -70 8c-21 1 -41 -3 -56 -20c-11 -14 -21 -82 -20 -117c0 -8 1 -16 1 -25c6 0 12 1 17 1c27 0 48 2 74 7c6 -56 12 -131 -5 -175c-14 -9 -43 -17 -79 -23v-75c-1 -60 -18 -168 -57 -205c-16 -16 -45 -33 -71 -39
c-36 -8 -145 -4 -200 31c-4 32 -2 78 16 115c23 0 46 -7 70 -8c21 -1 41 3 56 20s20 86 20 118v25c-33 -3 -63 -4 -88 -4c0 0 -31 110 7 202c16 3 43 6 75 7c-1 21 -2 40 -2 59c-1 60 18 168 57 205c16 16 45 33 71 39c37 8 146 4 200 -31z" />
    <glyph glyph-name="section" unicode="&#xa7;" horiz-adv-x="504" 
d="M260 387c0 8 -1 16 -6 23c-14 -13 -23 -41 -23 -60c0 -5 1 -10 2 -16c22 6 27 33 27 53zM467 169c0 -47 -13 -126 -48 -160c-35 -33 -136 -45 -183 -45c-57 0 -118 17 -174 28c-2 24 -11 48 -11 72c0 10 1 20 3 30c28 -6 56 -8 84 -8c16 0 96 4 107 15c12 12 15 32 15 48
c0 103 -236 -39 -236 168c0 47 13 98 36 140c-28 25 -36 65 -36 101c0 75 39 180 112 213c28 12 76 14 107 14c66 0 133 -8 198 -21c1 -9 3 -18 3 -26c0 -28 -11 -53 -22 -78c-31 0 -61 2 -92 2c-54 0 -99 -2 -99 -70c0 -97 179 -37 220 -103c13 -22 16 -56 16 -81
c0 -46 -9 -103 -34 -142c31 -17 34 -65 34 -97z" />
    <glyph glyph-name="currency" unicode="&#xa4;" horiz-adv-x="1030" 
 />
    <glyph glyph-name="quotesingle" unicode="'" horiz-adv-x="252" 
d="M232 805c-12 -50 -24 -104 -38 -157s-29 -107 -45 -140c-17 -12 -76 -4 -104 2c-3 99 1 192 16 286c25 16 128 12 171 9z" />
    <glyph glyph-name="quotedblleft" unicode="&#x201c;" horiz-adv-x="502" 
d="M320 466c-39 -11 -88 -22 -113 -14c-58 83 -113 170 -184 276c47 10 163 13 194 -3c44 -77 72 -162 103 -259zM459 524c-27 -10 -85 -23 -104 -13c-19 32 -37 85 -52 137c-16 52 -30 104 -46 152c43 7 145 20 170 6c13 -49 19 -94 23 -139c4 -44 5 -88 9 -143z" />
    <glyph glyph-name="guillemotleft" unicode="&#xab;" horiz-adv-x="709" 
d="M392 93c-37 -33 -132 -44 -174 -42c-17 11 -146 221 -201 312l87 174c39 76 80 156 90 166c25 6 145 -2 192 -23c-54 -112 -106 -206 -159 -297c62 -108 123 -214 165 -290zM684 103c-40 -31 -107 -54 -197 -55c-28 54 -143 267 -179 333c31 53 152 261 184 318
c49 12 139 20 190 -17c-29 -48 -107 -185 -164 -286c76 -130 146 -257 166 -293z" />
    <glyph glyph-name="guilsinglleft" unicode="&#x2039;" horiz-adv-x="416" 
d="M392 93c-37 -33 -132 -44 -174 -42c-17 11 -146 221 -201 312l87 174c39 76 80 156 90 166c25 6 145 -2 192 -23c-54 -112 -106 -206 -159 -297c62 -108 123 -214 165 -290z" />
    <glyph glyph-name="guilsinglright" unicode="&#x203a;" horiz-adv-x="413" 
d="M387 380c-31 -53 -152 -261 -184 -318c-49 -12 -139 -20 -190 18c29 47 107 184 164 286c-75 129 -146 256 -165 292c40 31 106 54 196 55c28 -54 143 -267 179 -333z" />
    <glyph glyph-name="fi" unicode="&#xfb01;" horiz-adv-x="764" 
d="M426 633c-34 7 -125 -1 -163 -5c-3 -37 -5 -140 -5 -196c44 -1 97 3 148 12c13 -50 14 -137 -3 -180c-29 -19 -72 -26 -112 -29c-17 11 -27 21 -35 31c-1 -88 -3 -163 3 -285c-41 -11 -71 -14 -100 -14c-28 0 -57 1 -97 4c-9 78 -12 224 -12 249c-2 139 2 309 11 413h-49
c1 54 19 110 37 162c88 11 306 22 362 10c12 -33 24 -116 15 -172zM710 775c-2 -268 15 -504 0 -769c-32 -22 -155 -29 -197 -4c-9 254 -1 510 2 771c43 15 161 19 195 2z" />
    <glyph glyph-name="fl" unicode="&#xfb02;" horiz-adv-x="930" 
d="M426 633c-34 7 -125 -1 -163 -5c-3 -37 -5 -140 -5 -196c44 -1 97 3 148 12c13 -50 14 -137 -3 -180c-29 -19 -72 -26 -112 -29c-17 11 -27 21 -35 31c-1 -88 -3 -163 3 -285c-41 -11 -71 -14 -100 -14c-28 0 -57 1 -97 4c-9 78 -12 224 -12 249c-2 139 2 309 11 413h-49
c1 54 19 110 37 162c88 11 306 22 362 10c12 -33 24 -116 15 -172zM874 146c4 -60 2 -98 -16 -154c-56 -26 -175 -32 -276 -25l-13 60l-58 4c-14 142 -14 323 -13 463c1 92 3 182 10 279c25 27 166 24 206 12c0 -70 -20 -419 0 -644c17 -3 37 -2 60 0c28 3 58 6 100 5z" />
    <glyph glyph-name="endash" unicode="&#x2013;" horiz-adv-x="435" 
d="M389 480c6 -55 12 -130 -5 -175c-44 -29 -235 -43 -333 -45c0 0 -31 110 7 202c30 7 99 8 164 9c33 1 66 1 93 2s48 2 74 7z" />
    <glyph glyph-name="dagger" unicode="&#x2020;" horiz-adv-x="445" 
d="M389 480c6 -55 12 -130 -5 -175c-11 -7 -32 -14 -58 -19c0 -91 -1 -184 -6 -280c-32 -22 -155 -29 -197 -4c-3 87 -4 173 -4 261c-25 -2 -49 -3 -68 -3c0 0 -31 110 7 202c14 3 36 5 63 7c1 100 3 202 4 304c43 15 161 19 195 2c-1 -104 1 -204 3 -302c23 1 43 2 66 7z
" />
    <glyph glyph-name="daggerdbl" unicode="&#x2021;" horiz-adv-x="445" 
d="M389 368c6 -55 12 -130 -5 -175c-11 -7 -32 -13 -59 -19c0 -55 -2 -111 -5 -168c-32 -22 -155 -29 -197 -4c-2 50 -3 99 -3 149c-26 -2 -49 -3 -69 -3c0 0 -31 110 7 202c14 3 35 5 61 7v24c-25 -2 -49 -3 -68 -3c0 0 -31 110 7 202c14 3 37 5 64 7c1 62 2 123 3 186
c43 15 161 19 195 2c0 -63 0 -124 1 -184c24 1 44 2 68 7c6 -55 12 -130 -5 -175c-11 -7 -32 -14 -59 -19v-43c22 1 41 3 64 7z" />
    <glyph glyph-name="periodcentered" unicode="&#xb7;" horiz-adv-x="270" 
d="M213 475c39 -41 9 -148 -11 -166c-29 -26 -120 -50 -142 -10c-22 39 -10 136 18 162c33 30 97 54 135 14z" />
    <glyph glyph-name="paragraph" unicode="&#xb6;" horiz-adv-x="700" 
d="M270 354c3 90 -1 229 -2 271c-17 9 -61 -2 -68 -37c-16 -73 -22 -148 5 -203c14 -30 38 -38 65 -31zM484 617c-8 0 -15 2 -22 3s-13 2 -19 3c0 -42 0 -102 1 -139c0 -17 1 -63 1 -119c12 0 24 1 35 1c1 78 3 171 4 251zM649 4c-35 -28 -137 -20 -164 3
c-3 58 -4 111 -5 162c-11 -2 -23 -3 -35 -5c-1 -86 -4 -166 -14 -184c-23 -6 -88 -21 -156 -3c1 80 7 141 2 201c-50 0 -101 14 -145 44c-50 33 -78 93 -88 159c-22 150 2 296 68 378c39 47 209 50 301 49c46 0 188 -15 235 -36c2 -260 9 -516 1 -768z" />
    <glyph glyph-name="bullet" unicode="&#x2022;" horiz-adv-x="284" 
d="M225 478c49 -51 14 -172 -12 -194c-39 -34 -148 -50 -172 -5c-25 46 -15 153 22 186c34 31 111 66 162 13z" />
    <glyph glyph-name="quotesinglbase" unicode="&#x201a;" horiz-adv-x="347" 
d="M337 233c-71 -106 -136 -192 -193 -275c-15 -6 -37 -4 -60 3c-18 5 -37 12 -63 20c31 97 67 181 112 260c29 13 156 2 204 -8z" />
    <glyph glyph-name="quotedblbase" unicode="&#x201e;" horiz-adv-x="491" 
d="M236 237c-16 -48 -33 -101 -51 -153s-38 -104 -57 -136c-20 -10 -78 3 -103 13c4 98 17 190 40 282c26 14 128 1 171 -6zM481 261c-70 -105 -135 -191 -193 -276c-26 -8 -73 3 -112 15c30 95 67 182 112 259c31 16 147 13 193 2z" />
    <glyph glyph-name="quotedblright" unicode="&#x201d;" horiz-adv-x="511" 
d="M236 767c-16 -48 -33 -101 -51 -153s-38 -104 -57 -136c-20 -10 -78 3 -103 13c4 98 17 190 40 282c26 14 128 1 171 -6zM501 781c-70 -105 -135 -191 -193 -276c-26 -8 -73 3 -112 15c30 95 67 182 112 259c31 16 147 13 193 2z" />
    <glyph glyph-name="guillemotright" unicode="&#xbb;" horiz-adv-x="709" 
d="M398 385c-32 -54 -153 -261 -185 -319c-49 -11 -138 -19 -190 18c29 48 107 185 164 286c-75 129 -146 257 -165 293c40 31 106 54 196 55c28 -54 143 -267 180 -333zM689 403c-9 -16 -48 -96 -88 -174c-39 -76 -80 -156 -90 -166c-24 -6 -145 1 -192 23
c54 112 107 205 159 297c-62 108 -123 214 -165 290c37 32 133 44 174 41c17 -10 146 -220 202 -311z" />
    <glyph glyph-name="ellipsis" unicode="&#x2026;" horiz-adv-x="854" 
d="M222 94c-5 -60 -46 -115 -97 -115c-54 0 -85 58 -80 117c5 60 46 115 98 115c54 0 84 -58 79 -117zM437 100c-5 -60 -46 -115 -98 -115c-53 0 -85 58 -80 117c5 60 46 116 98 116c55 0 85 -59 80 -118zM649 93c-5 -60 -46 -115 -98 -115c-54 0 -84 58 -79 117
s44 116 97 116c55 0 85 -59 80 -118z" />
    <glyph glyph-name="perthousand" unicode="&#x2030;" horiz-adv-x="1096" 
d="M196 662c0 3 -1 5 -1 8c-10 -17 -18 -54 -19 -95c-1 -29 2 -55 6 -70c1 -3 -1 -7 -2 -8l1 1c21 26 24 124 15 164zM676 296c0 3 -1 5 -1 7c-10 -16 -17 -53 -18 -94c-1 -29 1 -55 6 -71c0 -1 0 -3 -1 -4c21 28 22 122 14 162zM895 301c-17 -29 -18 -55 -20 -94
c0 -28 7 -58 15 -72c31 28 29 137 5 166zM335 748c39 -78 38 -240 -6 -316c-17 -31 -38 -62 -83 -74c-164 -40 -215 47 -224 156c-8 101 19 234 75 272c66 46 197 43 238 -38zM673 794c-105 -298 -214 -545 -321 -818c-56 -6 -120 -10 -167 29c37 86 164 413 195 490
c31 75 100 260 112 295c22 11 134 15 181 4zM1037 377c39 -77 37 -240 -6 -316c-18 -31 -39 -63 -84 -74c-86 -21 -141 -7 -175 28c-12 -11 -27 -19 -45 -24c-164 -40 -217 48 -225 157c-7 101 19 234 76 272c56 38 161 43 215 -8c2 2 4 3 5 4c66 45 198 43 239 -39z" />
    <glyph glyph-name="questiondown" unicode="&#xbf;" horiz-adv-x="530" 
d="M492 96c-1 -20 -3 -39 -4 -75c-51 -17 -96 -33 -142 -45c-46 -11 -94 -17 -139 -12c-53 7 -102 48 -126 114c-29 82 -28 172 -3 255c15 52 44 80 77 95c17 7 33 11 49 14c11 3 22 4 32 6c10 34 13 72 14 111c23 24 126 39 173 11c0 -56 5 -140 -4 -209
c-20 -8 -33 -9 -45 -10c-11 -1 -23 -1 -35 -3c-20 -3 -36 -11 -45 -36c-17 -47 -23 -171 18 -175c18 -2 43 3 71 10c28 8 58 18 100 30c9 -41 10 -61 9 -81zM426 803c30 -21 17 -124 -6 -147c-35 -33 -121 -40 -163 -22c-50 22 -32 130 -5 158c33 35 137 37 174 11z" />
    <glyph glyph-name="grave" unicode="`" horiz-adv-x="278" 
d="M284 684c-25 -17 -69 -32 -89 -33c-23 9 -151 106 -187 135c46 20 135 53 167 56c42 -43 81 -99 109 -158z" />
    <glyph glyph-name="acute" unicode="&#xb4;" horiz-adv-x="278" 
d="M291 784c-33 -27 -161 -124 -184 -133c-20 1 -64 16 -89 33c28 59 67 115 109 157c25 -1 116 -29 164 -57z" />
    <glyph glyph-name="circumflex" unicode="&#x2c6;" horiz-adv-x="513" 
d="M475 629c-28 -20 -103 -26 -134 -25c-16 7 -45 41 -79 83c-19 -24 -37 -49 -58 -77c-38 -7 -108 -12 -148 10c23 29 84 110 131 172c63 12 155 13 155 13c53 -69 100 -131 133 -176z" />
    <glyph glyph-name="tilde" unicode="&#x2dc;" horiz-adv-x="497" 
d="M482 729c-20 -43 -48 -86 -76 -118c-37 -42 -80 -52 -129 -17c-14 9 -28 23 -44 36c-16 12 -30 20 -44 20c-4 0 -13 -13 -23 -25c-13 -14 -25 -29 -31 -36c-30 6 -54 27 -74 49c37 60 102 150 168 138c15 -3 28 -10 39 -18c5 -3 10 -8 14 -12c5 -4 9 -9 13 -13
c17 -17 29 -30 49 -30c13 0 26 10 38 25c6 8 12 16 17 24c6 9 11 17 20 30c26 -12 55 -31 63 -53z" />
    <glyph glyph-name="macron" unicode="&#xaf;" horiz-adv-x="511" 
d="M451 806c6 -44 10 -92 -4 -128c-38 -23 -276 -33 -357 -34c0 0 -26 77 6 149c26 6 103 6 176 7c37 0 74 0 104 1c29 1 51 1 75 5z" />
    <glyph glyph-name="breve" unicode="&#x2d8;" horiz-adv-x="543" 
d="M460 759c-23 -51 -59 -120 -124 -149c-42 -19 -113 -19 -144 -1c-70 38 -96 81 -116 143c36 19 99 25 127 24c14 -20 10 -59 61 -64c20 -2 42 23 56 58c38 7 97 10 140 -11z" />
    <glyph glyph-name="dotaccent" unicode="&#x2d9;" horiz-adv-x="260" 
d="M200 788c38 -39 9 -140 -10 -157c-28 -24 -116 -47 -136 -9c-21 36 -10 128 17 152c31 29 93 51 129 14z" />
    <glyph glyph-name="dieresis" unicode="&#xa8;" horiz-adv-x="487" 
d="M190 746c33 -35 9 -124 -9 -140c-24 -21 -102 -43 -121 -8c-18 33 -10 115 15 137c28 26 82 46 115 11zM383 754c33 -35 9 -124 -9 -140c-24 -21 -102 -43 -121 -8c-18 33 -10 115 15 137c28 26 82 46 115 11z" />
    <glyph glyph-name="ring" unicode="&#x2da;" horiz-adv-x="368" 
d="M211 743c-2 5 -6 12 -21 9c-22 -4 -27 -28 -28 -48c-2 -25 9 -48 30 -37c28 14 27 59 19 76zM323 775c36 -31 34 -98 -6 -129c-17 -13 -36 -24 -74 -28c-153 -16 -198 17 -206 61c-8 43 20 96 69 111c61 18 182 15 217 -15z" />
    <glyph glyph-name="cedilla" unicode="&#xb8;" horiz-adv-x="488" 
d="M362 -12c-2 -75 -42 -118 -113 -128c-31 -4 -124 -1 -173 17c-5 21 -4 77 16 101c61 -2 112 -26 113 56c1 49 -3 52 -7 104c39 14 125 13 160 1c4 -40 5 -104 4 -151z" />
    <glyph glyph-name="hungarumlaut" unicode="&#x2dd;" horiz-adv-x="491" 
d="M138 770l165 -4l-135 -184l-117 15zM358 772l189 -7l-180 -182l-127 15z" />
    <glyph glyph-name="ogonek" unicode="&#x2db;" horiz-adv-x="488" 
d="M398 -123c-49 -18 -142 -21 -173 -17c-70 10 -111 53 -112 128c-1 51 31 120 91 138c25 8 111 11 163 -11c-51 -39 -130 -106 -85 -131c14 -8 31 -10 48 -10c18 1 34 3 53 4c19 -24 20 -80 15 -101z" />
    <glyph glyph-name="caron" unicode="&#x2c7;" horiz-adv-x="513" 
d="M435 761c-20 -25 -74 -97 -114 -151c-56 -10 -137 -11 -137 -11c-46 60 -88 115 -116 155c24 16 90 22 117 21c14 -6 40 -36 70 -72c17 21 33 42 50 67c34 6 95 10 130 -9z" />
    <glyph glyph-name="emdash" unicode="&#x2014;" horiz-adv-x="541" 
d="M489 480c6 -55 12 -120 -5 -165c-45 -29 -336 -43 -433 -45c0 0 -31 100 7 192c30 7 124 8 214 9c45 1 91 1 128 2s64 2 89 7z" />
    <glyph glyph-name="AE" unicode="&#xc6;" horiz-adv-x="749" 
d="M323 526c-1 12 -11 -3 -13 -8c-9 -16 -23 -57 -40 -109c-15 -46 -32 -100 -48 -146c29 -5 76 -2 98 4c5 76 6 226 3 259zM719 174c4 -62 -1 -148 -22 -177c-88 -20 -182 -33 -293 -25l-1 5c-33 -3 -66 -3 -94 1c7 50 8 72 3 105c-35 -8 -79 -9 -119 -9
c-6 11 -12 22 -17 32c-4 -11 -8 -23 -12 -35c-8 -26 -16 -53 -26 -81c-51 -24 -126 -10 -169 0c45 170 133 443 249 733l90 9l7 57c63 14 115 12 170 12c80 1 164 2 200 -6c8 -28 21 -135 -1 -171c-27 6 -102 6 -134 3c-8 -48 -12 -132 -3 -175c41 8 97 10 149 9
c7 -48 5 -120 2 -167c-44 -6 -120 -19 -154 -25c-2 -35 -1 -53 0 -92c0 -7 0 -15 4 -15c50 1 109 7 171 12z" />
    <glyph glyph-name="ordfeminine" unicode="&#xaa;" horiz-adv-x="487" 
d="M281 559h-2c0 13 -2 84 -6 124c-49 0 -52 -129 -52 -154c0 -33 2 -145 31 -166c7 -5 18 -7 29 -8c-2 68 -1 135 0 204zM458 769c-2 -176 13 -330 -1 -504c-19 -10 -76 -15 -122 -12c-36 -7 -72 -10 -107 -10c-29 0 -70 3 -96 13c-100 37 -98 200 -98 272
c0 81 15 233 145 256c33 6 70 6 104 6c40 0 95 -2 134 -15c18 -1 32 -3 41 -6z" />
    <glyph glyph-name="Lslash" unicode="&#x141;" horiz-adv-x="496" 
d="M445 177c12 -41 7 -160 -21 -178c-82 -19 -165 -22 -256 -20l-18 62l-57 3c-5 67 -7 131 -7 194c-16 -4 -32 -7 -45 -9c0 0 -31 106 7 203c10 4 25 8 42 12c3 107 5 222 9 333c53 30 151 37 198 -6c-2 -67 -8 -173 -11 -291c6 2 13 3 19 4c27 5 48 10 74 19
c6 -55 12 -129 -5 -176c-15 -12 -48 -26 -89 -39c0 -41 2 -82 5 -120c5 -2 15 -1 31 0c25 0 62 4 124 9z" />
    <glyph glyph-name="Oslash" unicode="&#xd8;" horiz-adv-x="622" 
d="M373 432c-1 37 -1 85 -8 125c-7 41 -21 61 -41 64c-8 1 -17 3 -25 2c-7 0 -11 -1 -14 -4c-23 -21 -38 -66 -46 -107c-21 -103 -19 -238 12 -332c13 -38 60 -36 76 -13c31 43 49 164 46 265zM557 581c24 -107 19 -363 -37 -482c-28 -59 -75 -102 -138 -118
c-43 -10 -87 -13 -128 -9c-9 -32 -18 -63 -28 -96c-53 -4 -111 -6 -155 38c10 30 22 69 39 125c-54 63 -85 165 -86 262c-2 116 7 221 30 294c17 56 51 140 107 182l65 -21l27 59c27 5 54 7 78 6c10 33 22 64 32 81c21 13 124 13 165 -1c-12 -46 -27 -91 -42 -135
c15 -15 26 -32 35 -53c6 -16 12 -35 18 -57c5 -22 11 -46 18 -75z" />
    <glyph glyph-name="OE" unicode="&#x152;" horiz-adv-x="809" 
d="M373 432c-1 37 -1 85 -8 125c-7 41 -21 61 -41 64c-8 1 -17 3 -25 2c-7 0 -11 -1 -14 -4c-23 -21 -38 -66 -46 -107c-21 -103 -19 -238 12 -332c13 -38 60 -36 76 -13c31 43 49 164 46 265zM779 174c4 -62 -1 -148 -22 -177c-88 -20 -182 -33 -293 -25l-10 44
c-21 -16 -45 -28 -72 -35c-95 -22 -198 -10 -251 37c-67 59 -106 174 -107 283c-2 116 7 221 30 294c17 56 51 140 107 182l65 -21l27 59c74 13 139 5 192 -21c94 10 248 13 300 1c8 -28 21 -135 -1 -171c-27 6 -102 6 -134 3c-8 -48 -12 -132 -3 -175c41 8 97 10 149 9
c7 -48 5 -120 2 -167c-44 -6 -120 -19 -154 -25c-2 -35 -1 -53 0 -92c0 -7 0 -15 4 -15c50 1 109 7 171 12z" />
    <glyph glyph-name="ordmasculine" unicode="&#xba;" horiz-adv-x="502" 
d="M328 549c0 28 -4 54 -9 82c-4 24 -7 60 -47 60c-9 0 -18 -3 -26 -9c-28 -22 -37 -150 -37 -185c0 -37 3 -135 58 -135c67 0 61 144 61 187zM492 551c0 -73 -1 -213 -102 -276c-48 -30 -196 -29 -244 0c-53 31 -77 79 -88 127c-11 47 -10 95 -10 132c0 66 7 143 44 206
c9 16 33 35 62 49c16 -7 28 -13 39 -18c6 -2 11 -5 15 -6c5 5 8 10 10 14c1 4 3 7 4 10c2 4 4 7 11 15c70 5 180 7 220 -64c32 -58 39 -128 39 -189z" />
    <glyph glyph-name="ae" unicode="&#xe6;" horiz-adv-x="766" 
d="M336 527c-1 12 -11 -2 -14 -7c-9 -15 -24 -55 -41 -105c-16 -45 -33 -96 -50 -141c29 -4 76 -2 98 5c6 73 9 216 7 248zM729 174c4 -62 -1 -148 -22 -177c-88 -20 -182 -33 -293 -25l-6 28c-33 -4 -66 -3 -94 1c7 47 9 69 4 100c-35 -7 -79 -8 -118 -8
c-6 11 -12 21 -17 31c-4 -11 -8 -22 -12 -34c-9 -25 -18 -51 -28 -78c-51 -23 -126 -10 -168 1c47 163 138 425 258 704l90 8l8 55c9 2 18 4 27 5c1 2 1 3 2 5c85 13 276 18 335 5c8 -28 21 -135 -1 -171c-27 6 -102 6 -134 3c-8 -48 -12 -132 -3 -175c41 8 97 10 149 9
c7 -48 5 -120 2 -167c-44 -6 -120 -19 -154 -25c-2 -35 -1 -53 0 -92c0 -7 0 -15 4 -15c50 1 109 7 171 12z" />
    <glyph glyph-name="dotlessi" unicode="&#x131;" horiz-adv-x="389" 
d="M270 698c-2 -242 15 -454 0 -693c-32 -19 -155 -26 -197 -3c-9 228 -1 459 2 693c43 14 161 18 195 3z" />
    <glyph glyph-name="lslash" unicode="&#x142;" horiz-adv-x="518" 
d="M474 146c4 -60 2 -98 -16 -154c-56 -26 -175 -32 -276 -25l-13 60l-58 4c-6 64 -10 135 -12 207c-17 -3 -34 -6 -48 -9c0 0 -31 106 7 203c10 4 23 8 40 12v50c1 92 3 182 10 279c25 27 166 24 206 12c0 -38 -6 -162 -8 -303l9 2c27 5 48 10 74 19c6 -55 12 -129 -5 -176
c-14 -11 -42 -23 -78 -35c1 -53 4 -105 8 -151c17 -3 37 -2 60 0c28 3 58 6 100 5z" />
    <glyph glyph-name="oslash" unicode="&#xf8;" horiz-adv-x="594" 
d="M367 416c0 43 -6 85 -11 127c-5 38 -8 95 -56 95c-11 0 -22 -5 -31 -14c-34 -35 -45 -235 -45 -289c0 -58 4 -210 70 -210c80 0 73 224 73 291zM563 419c0 -113 -2 -331 -122 -430c-37 -29 -120 -39 -191 -32c-8 -26 -16 -53 -24 -81c-53 -4 -111 -6 -155 38
c10 28 21 65 36 117c-35 45 -53 100 -63 156c-14 73 -12 149 -12 205c0 104 8 223 52 322c11 25 39 54 75 77c19 -12 33 -21 46 -29c7 -4 14 -8 18 -9c6 7 9 15 12 22c2 6 3 11 5 16s5 11 13 22c23 2 49 4 77 3c10 34 22 68 33 86c21 13 124 13 165 -1
c-12 -48 -28 -94 -43 -140c12 -12 23 -28 31 -47c38 -90 47 -199 47 -295z" />
    <glyph glyph-name="oe" unicode="&#x153;" horiz-adv-x="806" 
d="M367 416c0 43 -6 85 -11 127c-5 38 -8 95 -56 95c-11 0 -22 -5 -31 -14c-34 -35 -45 -235 -45 -289c0 -58 4 -210 70 -210c80 0 73 224 73 291zM769 174c4 -62 -1 -148 -22 -177c-88 -20 -182 -33 -293 -25l-6 24c-2 -2 -5 -4 -7 -7c-58 -46 -235 -44 -292 0
c-63 49 -92 123 -105 198c-14 73 -12 149 -12 205c0 104 8 223 52 322c11 25 39 54 75 77c19 -12 33 -21 46 -29c7 -4 14 -8 18 -9c6 7 9 15 12 22c2 6 3 11 5 16s5 11 13 22c53 5 127 9 185 -19c94 10 245 13 297 1c8 -28 21 -135 -1 -171c-27 6 -102 6 -134 3
c-8 -48 -12 -132 -3 -175c41 8 97 10 149 9c7 -48 5 -120 2 -167c-44 -6 -120 -19 -154 -25c-2 -35 -1 -53 0 -92c0 -7 0 -15 4 -15c50 1 109 7 171 12z" />
    <glyph glyph-name="germandbls" unicode="&#xdf;" horiz-adv-x="594" 
d="M314 650c-24 28 -80 10 -99 -15c-14 -20 -17 -137 -17 -137c1 -31 -8 -102 34 -109c103 -16 133 202 82 261zM512 292c24 -65 17 -191 -34 -242c-36 -36 -119 -66 -189 -68l-20 98c26 8 51 14 64 42c26 58 18 107 -10 144c-24 31 -88 17 -116 1c-3 -32 -4 -260 -4 -299
c-61 -13 -101 -17 -162 -7c-7 193 -5 421 -5 620c0 110 65 160 93 178c64 39 162 32 224 27c46 -3 114 -30 131 -76c38 -108 25 -273 -69 -348c40 -10 82 -29 97 -70z" />
    <glyph glyph-name="onesuperior" unicode="&#xb9;" horiz-adv-x="1000" 
 />
    <glyph glyph-name="logicalnot" unicode="&#xac;" horiz-adv-x="714" 
d="M641 427l46 -13c5 -102 1 -222 -20 -278c-43 -18 -72 -20 -118 -16c-2 42 1 72 3 100c1 23 2 44 0 61c-174 20 -445 0 -500 0c-9 40 -11 182 10 207c75 8 144 10 216 11c109 1 249 1 359 -14z" />
    <glyph glyph-name="mu" unicode="&#xb5;" horiz-adv-x="608" 
d="M548 797c16 -178 5 -344 -8 -522c-50 -4 -208 -9 -294 -10c1 -83 -1 -167 -6 -259c-32 -22 -155 -29 -197 -4c-4 120 -6 228 -6 339c0 140 5 336 18 443c31 8 63 10 93 11c31 1 63 1 103 1c-5 -46 -11 -139 -11 -169c-1 -101 3 -139 5 -233c1 -1 3 -1 5 -1
c23 -7 82 -3 94 0c6 1 4 8 4 12c1 70 -1 141 1 213c2 60 0 106 4 179c71 7 164 2 195 0z" />
    <glyph glyph-name="trademark" unicode="&#x2122;" horiz-adv-x="620" 
d="M253 786c7 -25 6 -67 -7 -90c-20 -4 -39 -4 -59 -6c-7 -92 -2 -185 -5 -277c-26 -10 -61 -13 -89 -3c-8 91 -1 185 -2 277c-21 -2 -41 -4 -61 -7c-1 20 4 83 16 98c66 9 140 4 207 8zM574 782c2 -122 3 -244 -1 -366c-33 -13 -56 -11 -90 -3c-3 42 0 86 -2 129
c-12 -43 -20 -88 -34 -130c-14 -9 -28 -9 -42 1c-14 43 -20 89 -35 132c-1 -45 3 -89 3 -134c-28 -6 -54 -9 -83 -4c-6 74 -12 309 2 373c23 13 79 12 104 6c12 -47 20 -95 35 -141c11 46 24 93 39 138c26 12 77 8 104 -1z" />
    <glyph glyph-name="Eth" unicode="&#xd0;" horiz-adv-x="624" 
d="M379 562c-20 83 -62 77 -73 65c-4 -5 -8 -17 -9 -34c-2 -16 -2 -34 -2 -47c-1 -24 -1 -48 -1 -73h1c27 1 48 2 74 7c6 -55 12 -130 -5 -175c-12 -8 -37 -15 -67 -21v-37c0 -38 4 -66 13 -80c6 -10 33 -9 54 9c44 39 32 315 15 386zM586 264c-8 -123 -65 -234 -165 -276
c-36 -15 -161 -21 -209 -10c-18 5 -27 23 -32 36c-4 10 -7 21 -9 32l-59 -1c-4 74 -7 145 -8 218c-27 -2 -52 -3 -73 -3c0 0 -31 110 7 202c14 3 38 5 65 7c1 52 2 108 5 167l-56 -3c4 62 13 111 32 161c102 21 303 29 365 -2c61 -30 92 -52 116 -138
c28 -106 28 -281 21 -390z" />
    <glyph glyph-name="plusminus" unicode="&#xb1;" horiz-adv-x="509" 
d="M489 199c6 -55 11 -140 -5 -185c-44 -30 -336 -43 -434 -45c0 0 -30 120 8 212c30 7 124 8 214 9c45 0 91 1 128 2s64 2 89 7zM473 624c7 -56 12 -141 -4 -185c-18 -12 -60 -21 -106 -28c-1 -31 -4 -70 -7 -131c-30 -18 -122 -40 -166 -13c-2 54 -4 91 -5 120
c-42 -3 -79 -6 -114 -7c0 0 -30 121 8 212c20 5 57 8 101 11c0 30 1 69 2 129c39 15 149 30 184 13v-132c20 2 38 3 53 4c18 1 32 2 54 7z" />
    <glyph glyph-name="Thorn" unicode="&#xde;" horiz-adv-x="578" 
d="M314 537c-23 9 -64 4 -81 -12c-10 -10 -19 -91 -20 -123c0 -15 -5 -84 19 -96c14 -7 33 1 47 6c60 26 89 201 35 225zM421 250c-57 -46 -135 -71 -200 -76c-1 -53 -3 -120 -6 -174c-36 -15 -138 -17 -168 -8c-6 175 2 701 3 770c31 11 144 14 165 4v-113
c65 7 131 7 185 -3c167 -33 117 -322 21 -400z" />
    <glyph glyph-name="divide" unicode="&#xf7;" horiz-adv-x="495" 
d="M283 214c31 -33 6 -130 -10 -145c-30 -26 -106 -38 -119 -14c-19 34 -7 123 15 144c32 29 85 45 114 15zM415 452c4 -36 8 -109 -4 -141c-31 -21 -288 -34 -369 -36c0 0 -23 93 7 166c37 8 327 4 366 11zM293 676c31 -33 7 -130 -10 -145c-30 -26 -105 -38 -118 -14
c-19 34 -8 123 15 144c32 29 85 44 113 15z" />
    <glyph glyph-name="brokenbar" unicode="&#xa6;" horiz-adv-x="269" 
d="M221 338c1 -110 1 -210 -6 -324c-21 -14 -137 -21 -167 -3c-4 110 -5 212 -4 325c65 21 177 2 177 2zM218 461c0 0 -109 -16 -172 2c1 96 3 203 4 299c31 11 144 14 165 4c-1 -101 1 -208 3 -305z" />
    <glyph glyph-name="degree" unicode="&#xb0;" horiz-adv-x="408" 
d="M204 672c-17 -29 -19 -55 -20 -94c-1 -29 7 -58 15 -72c30 27 29 137 5 166zM346 748c38 -78 36 -240 -7 -316c-17 -31 -38 -63 -83 -74c-164 -40 -216 47 -224 156c-8 101 19 234 75 273c66 44 198 42 239 -39z" />
    <glyph glyph-name="thorn" unicode="&#xfe;" horiz-adv-x="594" 
d="M355 468c-13 37 -90 37 -120 17c0 -24 -7 -144 -2 -219c43 -12 90 -5 114 27c35 48 27 118 8 175zM508 297c-12 -50 -45 -93 -99 -117c-55 -23 -118 -34 -179 -32c-1 -53 -4 -107 -3 -160c-65 -12 -149 0 -170 3c-7 181 2 682 3 771c31 11 144 14 165 4
c0 -48 0 -94 1 -140c86 2 173 -6 202 -26c116 -80 107 -187 80 -303z" />
    <glyph glyph-name="twosuperior" unicode="&#xb2;" horiz-adv-x="1000" 
 />
    <glyph glyph-name="registered" unicode="&#xae;" horiz-adv-x="554" 
d="M420 409c-8 87 -14 204 -48 224c-54 31 -120 34 -161 8c-49 -32 -72 -124 -74 -232c-2 -84 -10 -204 39 -285c31 -51 165 -50 197 0c7 11 14 25 19 42c-21 -11 -43 -19 -70 -21c-15 29 -29 78 -49 121c-1 -1 -2 -2 -3 -2c0 -38 1 -78 -4 -124c-18 -3 -66 -9 -80 -2
c-6 22 -4 66 -3 92c0 83 -2 109 -2 184c0 59 3 115 3 180c53 18 129 25 156 19c55 -11 60 -130 52 -183c-9 -63 -8 -63 -37 -100c17 -37 34 -85 48 -129c16 66 23 151 17 208zM306 496c-2 10 -9 22 -29 12c-2 -19 -5 -102 -4 -124c16 6 22 17 29 36c11 25 9 48 4 76z
M532 231c-2 -58 -64 -210 -116 -238c-61 -33 -223 -33 -284 0c-52 28 -110 154 -112 238c-2 131 -12 269 26 398c19 66 67 146 146 157c56 7 117 7 174 0c80 -11 129 -91 147 -157c36 -129 24 -268 19 -398z" />
    <glyph glyph-name="minus" unicode="&#x2212;" horiz-adv-x="541" 
d="M489 480c6 -55 12 -120 -5 -165c-45 -29 -336 -43 -433 -45c0 0 -31 100 7 192c30 7 124 8 214 9c45 1 91 1 128 2s64 2 89 7z" />
    <glyph glyph-name="eth" unicode="&#xf0;" horiz-adv-x="638" 
d="M379 562c-20 83 -62 77 -73 65c-4 -5 -8 -17 -9 -34c-2 -16 -2 -34 -2 -47c-1 -24 -1 -48 -1 -73h1c27 1 48 2 74 7c6 -55 12 -130 -5 -175c-12 -8 -37 -15 -67 -21v-37c0 -38 4 -66 13 -80c6 -10 33 -9 54 9c44 39 32 315 15 386zM586 264c-8 -123 -65 -234 -165 -276
c-36 -15 -161 -21 -209 -10c-18 5 -27 23 -32 36c-4 10 -7 21 -9 32l-59 -1c-4 74 -7 145 -8 218c-27 -2 -52 -3 -73 -3c0 0 -31 110 7 202c14 3 38 5 65 7c1 52 2 108 5 167l-56 -3c4 62 13 111 32 161c102 21 303 29 365 -2c61 -30 92 -52 116 -138
c28 -106 28 -281 21 -390z" />
    <glyph glyph-name="multiply" unicode="&#xd7;" horiz-adv-x="553" 
d="M504 89c-33 -34 -121 -46 -159 -43c-18 12 -53 70 -93 142c-21 -41 -43 -84 -67 -132c-45 -12 -128 -21 -175 18c27 48 97 187 149 289c-68 130 -132 259 -150 295c36 32 96 55 180 57c22 -47 45 -95 70 -146c15 32 27 60 33 74c3 7 7 18 11 29c5 10 10 23 20 32
c23 7 132 -1 175 -23c-48 -113 -95 -207 -144 -299c56 -110 112 -217 150 -293z" />
    <glyph glyph-name="threesuperior" unicode="&#xb3;" horiz-adv-x="1000" 
 />
    <glyph glyph-name="copyright" unicode="&#xa9;" horiz-adv-x="584" 
d="M388 585c3 -37 -1 -56 -16 -100c-13 0 -60 11 -62 6c-16 -36 -18 -183 -6 -219c4 -14 58 3 69 10c30 -26 13 -95 3 -123c-36 -26 -123 -43 -162 -5c-27 26 -49 114 -50 145c-3 65 -2 229 39 283c12 15 31 30 50 36c25 8 92 4 135 -33zM446 410c-5 45 -9 98 -17 141
c-7 39 -14 71 -32 80c-61 30 -134 31 -176 8c-51 -28 -79 -115 -82 -228c-1 -43 -4 -96 1 -148c4 -51 17 -101 44 -140c30 -42 176 -42 208 1c41 53 64 200 54 286zM552 428c0 -64 -4 -129 -6 -192c-2 -57 -62 -210 -119 -240c-63 -34 -223 -34 -286 0
c-57 30 -113 157 -115 241c-2 63 -5 128 -3 192c2 65 10 130 28 194c19 64 67 150 152 161c55 7 115 7 171 0c86 -11 135 -96 153 -161c18 -64 24 -130 25 -195z" />
    <glyph glyph-name="Aacute" unicode="&#xc1;" horiz-adv-x="572" 
d="M316 250c-6 68 -28 202 -36 232c-3 12 -10 -2 -12 -6c-7 -15 -14 -52 -24 -99c-8 -42 -16 -90 -25 -132c29 -3 76 -1 97 5zM552 17c-43 -25 -137 -37 -204 -28c-1 45 -3 65 -13 94c-33 -7 -78 -7 -117 -7c-8 10 -15 20 -22 29c-2 -10 -4 -21 -7 -32
c-4 -24 -8 -48 -14 -73c-47 -22 -124 -9 -168 1c19 152 66 398 139 659l89 7l-2 52c73 15 132 13 200 9c57 -230 87 -480 119 -711zM496 901c-33 -27 -161 -124 -183 -133c-20 1 -65 16 -90 33c28 59 67 115 109 157c25 -1 116 -29 164 -57z" />
    <glyph glyph-name="Acircumflex" unicode="&#xc2;" horiz-adv-x="572" 
d="M316 250c-6 68 -28 202 -36 232c-3 12 -10 -2 -12 -6c-7 -15 -14 -52 -24 -99c-8 -42 -16 -90 -25 -132c29 -3 76 -1 97 5zM552 17c-43 -25 -137 -37 -204 -28c-1 45 -3 65 -13 94c-33 -7 -78 -7 -117 -7c-8 10 -15 20 -22 29c-2 -10 -4 -21 -7 -32
c-4 -24 -8 -48 -14 -73c-47 -22 -124 -9 -168 1c19 152 66 398 139 659l89 7l-2 52c73 15 132 13 200 9c57 -230 87 -480 119 -711zM500 789c-28 -19 -104 -26 -134 -24c-16 6 -46 41 -80 82c-19 -24 -37 -48 -57 -76c-39 -7 -109 -12 -148 10c22 28 84 110 130 172
c64 12 156 12 156 12c52 -68 100 -131 133 -176z" />
    <glyph glyph-name="Adieresis" unicode="&#xc4;" horiz-adv-x="572" 
d="M316 250c-6 68 -28 202 -36 232c-3 12 -10 -2 -12 -6c-7 -15 -14 -52 -24 -99c-8 -42 -16 -90 -25 -132c29 -3 76 -1 97 5zM552 17c-43 -25 -137 -37 -204 -28c-1 45 -3 65 -13 94c-33 -7 -78 -7 -117 -7c-8 10 -15 20 -22 29c-2 -10 -4 -21 -7 -32
c-4 -24 -8 -48 -14 -73c-47 -22 -124 -9 -168 1c19 152 66 398 139 659l89 7l-2 52c73 15 132 13 200 9c57 -230 87 -480 119 -711zM267 921c33 -36 9 -125 -9 -141c-24 -21 -102 -43 -121 -8c-18 34 -9 115 15 137c28 26 82 46 115 12zM460 929c33 -36 9 -125 -9 -141
c-24 -21 -102 -43 -121 -8c-18 34 -9 115 15 137c28 26 82 46 115 12z" />
    <glyph glyph-name="Agrave" unicode="&#xc0;" horiz-adv-x="572" 
d="M316 250c-6 68 -28 202 -36 232c-3 12 -10 -2 -12 -6c-7 -15 -14 -52 -24 -99c-8 -42 -16 -90 -25 -132c29 -3 76 -1 97 5zM552 17c-43 -25 -137 -37 -204 -28c-1 45 -3 65 -13 94c-33 -7 -78 -7 -117 -7c-8 10 -15 20 -22 29c-2 -10 -4 -21 -7 -32
c-4 -24 -8 -48 -14 -73c-47 -22 -124 -9 -168 1c19 152 66 398 139 659l89 7l-2 52c73 15 132 13 200 9c57 -230 87 -480 119 -711zM364 804c-25 -17 -69 -32 -89 -33c-23 9 -151 106 -187 135c46 20 135 53 167 56c42 -43 81 -99 109 -158z" />
    <glyph glyph-name="Aring" unicode="&#xc5;" horiz-adv-x="572" 
d="M316 250c-6 68 -28 202 -36 232c-3 12 -10 -2 -12 -6c-7 -15 -14 -52 -24 -99c-8 -42 -16 -90 -25 -132c29 -3 76 -1 97 5zM305 883c-2 6 -6 13 -21 10c-22 -5 -27 -28 -28 -48c-2 -25 9 -48 30 -37c28 14 27 59 19 75zM552 17c-43 -25 -137 -37 -204 -28
c-1 45 -3 65 -13 94c-33 -7 -78 -7 -117 -7c-8 10 -15 20 -22 29c-2 -10 -4 -21 -7 -32c-4 -24 -8 -48 -14 -73c-47 -22 -124 -9 -168 1c19 152 66 398 139 659l89 7l-2 52c73 15 132 13 200 9c57 -230 87 -480 119 -711zM417 916c36 -31 34 -99 -6 -129
c-17 -13 -36 -25 -74 -29c-153 -16 -198 17 -206 61c-8 43 20 97 69 111c61 18 182 16 217 -14z" />
    <glyph glyph-name="Atilde" unicode="&#xc3;" horiz-adv-x="572" 
d="M316 250c-6 68 -28 202 -36 232c-3 12 -10 -2 -12 -6c-7 -15 -14 -52 -24 -99c-8 -42 -16 -90 -25 -132c29 -3 76 -1 97 5zM552 17c-43 -25 -137 -37 -204 -28c-1 45 -3 65 -13 94c-33 -7 -78 -7 -117 -7c-8 10 -15 20 -22 29c-2 -10 -4 -21 -7 -32
c-4 -24 -8 -48 -14 -73c-47 -22 -124 -9 -168 1c19 152 66 398 139 659l89 7l-2 52c73 15 132 13 200 9c57 -230 87 -480 119 -711zM510 906c-19 -43 -48 -86 -76 -117c-37 -42 -80 -53 -129 -18c-14 9 -28 24 -44 36c-15 12 -30 20 -43 20c-4 0 -14 -13 -24 -25
c-13 -14 -25 -29 -31 -36c-30 7 -54 27 -74 49c37 61 102 151 168 138c15 -3 28 -9 39 -17c5 -4 10 -8 14 -13c5 -4 9 -8 13 -13c17 -17 30 -29 49 -29c13 0 26 9 38 25c7 7 12 16 18 24c5 8 10 16 19 29c26 -12 55 -31 63 -53z" />
    <glyph glyph-name="Ccedilla" unicode="&#xc7;" horiz-adv-x="498" 
d="M495 626c0 -43 -3 -86 -12 -128c-40 -12 -96 -21 -138 -21c-12 0 -24 0 -35 3c0 17 -2 115 -7 171c-55 0 -58 -178 -58 -213c0 -45 2 -199 35 -228c10 -10 31 -11 45 -11c47 0 94 20 134 40c21 -20 27 -64 27 -90c0 -18 -2 -38 -10 -54c-35 -18 -74 -30 -114 -38
c1 -24 1 -48 0 -69c-2 -75 -42 -118 -113 -128c-31 -4 -124 -1 -173 17c-5 21 -4 77 16 101c61 -2 112 -26 113 56v14c-22 2 -44 7 -61 14c-113 52 -111 277 -111 375c0 111 17 320 164 352c37 8 79 9 117 9c52 0 123 -5 168 -29c11 -47 13 -96 13 -143z" />
    <glyph glyph-name="Eacute" unicode="&#xc9;" 
d="M419 157c4 -56 -1 -133 -22 -160c-88 -18 -182 -29 -293 -22l-13 54l-45 -3c-12 197 -8 394 9 540l-44 -3c5 43 17 108 39 148c85 12 276 16 335 4c8 -25 21 -121 -1 -153c-27 5 -102 5 -134 3c-8 -44 -12 -119 -3 -158c41 7 97 9 149 8c7 -43 5 -108 2 -151
c-44 -5 -120 -17 -154 -22c-2 -31 -1 -48 0 -83c0 -6 0 -13 4 -13c50 1 109 6 171 11zM416 881c-33 -27 -161 -124 -183 -133c-20 1 -65 16 -90 33c28 59 67 115 109 157c25 -1 116 -29 164 -57z" />
    <glyph glyph-name="Ecircumflex" unicode="&#xca;" 
d="M419 157c4 -56 -1 -133 -22 -160c-88 -18 -182 -29 -293 -22l-13 54l-45 -3c-12 197 -8 394 9 540l-44 -3c5 43 17 108 39 148c85 12 276 16 335 4c8 -25 21 -121 -1 -153c-27 5 -102 5 -134 3c-8 -44 -12 -119 -3 -158c41 7 97 9 149 8c7 -43 5 -108 2 -151
c-44 -5 -120 -17 -154 -22c-2 -31 -1 -48 0 -83c0 -6 0 -13 4 -13c50 1 109 6 171 11zM430 779c-28 -19 -104 -26 -134 -24c-16 6 -46 41 -80 82c-19 -24 -37 -48 -57 -76c-39 -7 -109 -12 -148 10c22 28 84 110 130 172c64 12 156 12 156 12c52 -68 100 -131 133 -176z" />
    <glyph glyph-name="Edieresis" unicode="&#xcb;" 
d="M419 157c4 -56 -1 -133 -22 -160c-88 -18 -182 -29 -293 -22l-13 54l-45 -3c-12 197 -8 394 9 540l-44 -3c5 43 17 108 39 148c85 12 276 16 335 4c8 -25 21 -121 -1 -153c-27 5 -102 5 -134 3c-8 -44 -12 -119 -3 -158c41 7 97 9 149 8c7 -43 5 -108 2 -151
c-44 -5 -120 -17 -154 -22c-2 -31 -1 -48 0 -83c0 -6 0 -13 4 -13c50 1 109 6 171 11zM187 921c33 -36 9 -125 -9 -141c-24 -21 -102 -43 -121 -8c-18 34 -9 115 15 137c28 26 82 46 115 12zM380 929c33 -36 9 -125 -9 -141c-24 -21 -102 -43 -121 -8c-18 34 -9 115 15 137
c28 26 82 46 115 12z" />
    <glyph glyph-name="Egrave" unicode="&#xc8;" 
d="M419 157c4 -56 -1 -133 -22 -160c-88 -18 -182 -29 -293 -22l-13 54l-45 -3c-12 197 -8 394 9 540l-44 -3c5 43 17 108 39 148c85 12 276 16 335 4c8 -25 21 -121 -1 -153c-27 5 -102 5 -134 3c-8 -44 -12 -119 -3 -158c41 7 97 9 149 8c7 -43 5 -108 2 -151
c-44 -5 -120 -17 -154 -22c-2 -31 -1 -48 0 -83c0 -6 0 -13 4 -13c50 1 109 6 171 11zM304 784c-25 -17 -69 -32 -89 -33c-23 9 -151 106 -187 135c46 20 135 53 167 56c42 -43 81 -99 109 -158z" />
    <glyph glyph-name="Iacute" unicode="&#xcd;" horiz-adv-x="321" 
d="M250 698c-2 -242 15 -454 0 -693c-32 -19 -155 -26 -197 -3c-9 228 -1 459 2 693c43 14 161 18 195 3zM351 881c-33 -27 -161 -124 -184 -133c-20 1 -64 16 -89 33c28 59 67 115 109 157c25 -1 116 -29 164 -57z" />
    <glyph glyph-name="Icircumflex" unicode="&#xce;" horiz-adv-x="321" 
d="M250 698c-2 -242 15 -454 0 -693c-32 -19 -155 -26 -197 -3c-9 228 -1 459 2 693c43 14 161 18 195 3zM318 780c-22 -19 -79 -26 -103 -24c-12 6 -35 40 -61 82c-15 -24 -29 -48 -44 -77c-30 -6 -84 -12 -114 11c18 28 65 109 101 171c48 12 119 12 119 12
c40 -68 77 -130 102 -175z" />
    <glyph glyph-name="Idieresis" unicode="&#xcf;" horiz-adv-x="321" 
d="M250 698c-2 -242 15 -454 0 -693c-32 -19 -155 -26 -197 -3c-9 228 -1 459 2 693c43 14 161 18 195 3zM135 921c33 -36 9 -125 -9 -141c-25 -21 -102 -43 -121 -8c-19 34 -10 115 15 137c27 26 82 46 115 12zM328 929c33 -36 9 -125 -9 -141c-25 -21 -102 -43 -121 -8
c-19 34 -10 115 15 137c27 26 82 46 115 12z" />
    <glyph glyph-name="Igrave" unicode="&#xcc;" horiz-adv-x="321" 
d="M250 698c-2 -242 15 -454 0 -693c-32 -19 -155 -26 -197 -3c-9 228 -1 459 2 693c43 14 161 18 195 3zM234 783c-25 -16 -70 -31 -90 -33c-23 10 -151 107 -186 136c46 19 134 52 166 55c43 -42 82 -99 110 -158z" />
    <glyph glyph-name="Ntilde" unicode="&#xd1;" horiz-adv-x="608" 
d="M521 -13c-49 -16 -135 -21 -181 -8c-53 94 -82 164 -142 289c-5 -89 -1 -181 -1 -281c-33 -12 -122 -17 -155 -1c-15 171 -8 458 0 704c55 17 134 17 174 15c17 -26 47 -90 76 -153c30 -63 58 -126 69 -145c1 -2 1 -3 1 -3c1 0 -1 5 -1 10c0 95 5 202 3 307
c44 12 119 13 156 -6c3 -248 6 -477 1 -728zM510 906c-19 -43 -48 -86 -76 -117c-37 -42 -80 -53 -129 -18c-14 9 -28 24 -44 36c-15 12 -30 20 -43 20c-4 0 -14 -13 -24 -25c-13 -14 -25 -29 -31 -36c-30 7 -54 27 -74 49c37 61 102 151 168 138c15 -3 28 -9 39 -17
c5 -4 10 -8 14 -13c5 -4 9 -8 13 -13c17 -17 30 -29 49 -29c13 0 26 9 38 25c7 7 12 16 18 24c5 8 10 16 19 29c26 -12 55 -31 63 -53z" />
    <glyph glyph-name="Oacute" unicode="&#xd3;" horiz-adv-x="622" 
d="M373 388c-1 34 -1 78 -8 113c-7 37 -21 56 -41 58c-8 1 -17 2 -25 2c-7 0 -11 -2 -14 -4c-23 -19 -38 -59 -46 -96c-21 -93 -19 -214 12 -299c13 -34 60 -32 76 -12c31 39 49 147 46 238zM557 523c24 -96 19 -327 -37 -434c-28 -53 -75 -92 -138 -106
c-95 -20 -198 -9 -251 33c-67 53 -106 156 -107 255c-2 105 7 199 30 265c17 50 51 125 107 163l65 -19l27 54c79 12 149 3 203 -25c32 -16 51 -37 65 -68c6 -14 12 -31 18 -51c5 -19 11 -41 18 -67zM516 901c-33 -27 -161 -124 -183 -133c-20 1 -65 16 -90 33
c28 59 67 115 109 157c25 -1 116 -29 164 -57z" />
    <glyph glyph-name="Ocircumflex" unicode="&#xd4;" horiz-adv-x="622" 
d="M373 388c-1 34 -1 78 -8 113c-7 37 -21 56 -41 58c-8 1 -17 2 -25 2c-7 0 -11 -2 -14 -4c-23 -19 -38 -59 -46 -96c-21 -93 -19 -214 12 -299c13 -34 60 -32 76 -12c31 39 49 147 46 238zM557 523c24 -96 19 -327 -37 -434c-28 -53 -75 -92 -138 -106
c-95 -20 -198 -9 -251 33c-67 53 -106 156 -107 255c-2 105 7 199 30 265c17 50 51 125 107 163l65 -19l27 54c79 12 149 3 203 -25c32 -16 51 -37 65 -68c6 -14 12 -31 18 -51c5 -19 11 -41 18 -67zM520 789c-28 -19 -104 -26 -134 -24c-16 6 -46 41 -80 82
c-19 -24 -37 -48 -57 -76c-39 -7 -109 -12 -148 10c22 28 84 110 130 172c64 12 156 12 156 12c52 -68 100 -131 133 -176z" />
    <glyph glyph-name="Odieresis" unicode="&#xd6;" horiz-adv-x="622" 
d="M373 388c-1 34 -1 78 -8 113c-7 37 -21 56 -41 58c-8 1 -17 2 -25 2c-7 0 -11 -2 -14 -4c-23 -19 -38 -59 -46 -96c-21 -93 -19 -214 12 -299c13 -34 60 -32 76 -12c31 39 49 147 46 238zM557 523c24 -96 19 -327 -37 -434c-28 -53 -75 -92 -138 -106
c-95 -20 -198 -9 -251 33c-67 53 -106 156 -107 255c-2 105 7 199 30 265c17 50 51 125 107 163l65 -19l27 54c79 12 149 3 203 -25c32 -16 51 -37 65 -68c6 -14 12 -31 18 -51c5 -19 11 -41 18 -67zM287 921c33 -36 9 -125 -9 -141c-24 -21 -102 -43 -121 -8
c-18 34 -9 115 15 137c28 26 82 46 115 12zM480 929c33 -36 9 -125 -9 -141c-24 -21 -102 -43 -121 -8c-18 34 -9 115 15 137c28 26 82 46 115 12z" />
    <glyph glyph-name="Ograve" unicode="&#xd2;" horiz-adv-x="622" 
d="M373 388c-1 34 -1 78 -8 113c-7 37 -21 56 -41 58c-8 1 -17 2 -25 2c-7 0 -11 -2 -14 -4c-23 -19 -38 -59 -46 -96c-21 -93 -19 -214 12 -299c13 -34 60 -32 76 -12c31 39 49 147 46 238zM557 523c24 -96 19 -327 -37 -434c-28 -53 -75 -92 -138 -106
c-95 -20 -198 -9 -251 33c-67 53 -106 156 -107 255c-2 105 7 199 30 265c17 50 51 125 107 163l65 -19l27 54c79 12 149 3 203 -25c32 -16 51 -37 65 -68c6 -14 12 -31 18 -51c5 -19 11 -41 18 -67zM374 804c-25 -17 -69 -32 -89 -33c-23 9 -151 106 -187 135
c46 20 135 53 167 56c42 -43 81 -99 109 -158z" />
    <glyph glyph-name="Otilde" unicode="&#xd5;" horiz-adv-x="622" 
d="M373 388c-1 34 -1 78 -8 113c-7 37 -21 56 -41 58c-8 1 -17 2 -25 2c-7 0 -11 -2 -14 -4c-23 -19 -38 -59 -46 -96c-21 -93 -19 -214 12 -299c13 -34 60 -32 76 -12c31 39 49 147 46 238zM557 523c24 -96 19 -327 -37 -434c-28 -53 -75 -92 -138 -106
c-95 -20 -198 -9 -251 33c-67 53 -106 156 -107 255c-2 105 7 199 30 265c17 50 51 125 107 163l65 -19l27 54c79 12 149 3 203 -25c32 -16 51 -37 65 -68c6 -14 12 -31 18 -51c5 -19 11 -41 18 -67zM530 916c-19 -43 -48 -86 -76 -117c-37 -42 -80 -53 -129 -18
c-14 9 -28 24 -44 36c-15 12 -30 20 -43 20c-4 0 -14 -13 -24 -25c-13 -14 -25 -29 -31 -36c-30 7 -54 27 -74 49c37 61 102 151 168 138c15 -3 28 -9 39 -17c5 -4 10 -8 14 -13c5 -4 9 -8 13 -13c17 -17 30 -29 49 -29c13 0 26 9 38 25c7 7 12 16 18 24c5 8 10 16 19 29
c26 -12 55 -31 63 -53z" />
    <glyph glyph-name="Scaron" unicode="&#x160;" horiz-adv-x="514" 
d="M467 178c3 -141 -69 -199 -215 -210c-78 -5 -142 3 -196 28c-17 45 -17 92 -11 148c43 -17 87 -24 109 -25c40 -2 100 -3 106 35c2 12 4 30 -5 38c-12 12 -27 18 -44 23s-36 7 -53 10c-38 7 -78 19 -99 69c-42 100 -31 299 16 362c66 89 291 80 368 46
c7 -49 9 -163 1 -239c-43 -12 -116 -28 -161 -19c-7 32 -11 84 -14 134c-11 -2 -20 -8 -30 -20c-9 -11 -11 -150 1 -163c15 -15 40 -19 72 -23c33 -4 67 -7 95 -25c48 -33 58 -68 60 -169zM425 929c-20 -25 -74 -97 -115 -151c-55 -10 -136 -11 -136 -11
c-46 61 -88 115 -116 155c24 17 90 22 117 21c14 -6 40 -36 70 -72c16 21 32 42 50 67c34 6 95 11 130 -9z" />
    <glyph glyph-name="Uacute" unicode="&#xda;" horiz-adv-x="583" 
d="M524 105c-1 -24 -4 -60 -13 -83c-26 -27 -108 -36 -162 -23v51c-24 -10 -56 -24 -91 -35c-46 -15 -99 -25 -148 -17c-31 6 -71 35 -74 94c-3 69 -17 360 19 619c68 22 143 18 188 -14c-6 -62 -13 -146 -17 -236c-3 -87 -4 -180 6 -257c31 -8 85 21 92 43
c5 64 12 233 15 452c45 25 124 28 177 8c13 -170 12 -401 8 -602zM486 881c-33 -27 -161 -124 -183 -133c-20 1 -65 16 -90 33c28 59 67 115 109 157c25 -1 116 -29 164 -57z" />
    <glyph glyph-name="Ucircumflex" unicode="&#xdb;" horiz-adv-x="583" 
d="M524 105c-1 -24 -4 -60 -13 -83c-26 -27 -108 -36 -162 -23v51c-24 -10 -56 -24 -91 -35c-46 -15 -99 -25 -148 -17c-31 6 -71 35 -74 94c-3 69 -17 360 19 619c68 22 143 18 188 -14c-6 -62 -13 -146 -17 -236c-3 -87 -4 -180 6 -257c31 -8 85 21 92 43
c5 64 12 233 15 452c45 25 124 28 177 8c13 -170 12 -401 8 -602zM500 779c-28 -19 -104 -26 -134 -24c-16 6 -46 41 -80 82c-19 -24 -37 -48 -57 -76c-39 -7 -109 -12 -148 10c22 28 84 110 130 172c64 12 156 12 156 12c52 -68 100 -131 133 -176z" />
    <glyph glyph-name="Udieresis" unicode="&#xdc;" horiz-adv-x="583" 
d="M524 105c-1 -24 -4 -60 -13 -83c-26 -27 -108 -36 -162 -23v51c-24 -10 -56 -24 -91 -35c-46 -15 -99 -25 -148 -17c-31 6 -71 35 -74 94c-3 69 -17 360 19 619c68 22 143 18 188 -14c-6 -62 -13 -146 -17 -236c-3 -87 -4 -180 6 -257c31 -8 85 21 92 43
c5 64 12 233 15 452c45 25 124 28 177 8c13 -170 12 -401 8 -602zM267 921c33 -36 9 -125 -9 -141c-24 -21 -102 -43 -121 -8c-18 34 -9 115 15 137c28 26 82 46 115 12zM460 929c33 -36 9 -125 -9 -141c-24 -21 -102 -43 -121 -8c-18 34 -9 115 15 137c28 26 82 46 115 12z
" />
    <glyph glyph-name="Ugrave" unicode="&#xd9;" horiz-adv-x="583" 
d="M524 105c-1 -24 -4 -60 -13 -83c-26 -27 -108 -36 -162 -23v51c-24 -10 -56 -24 -91 -35c-46 -15 -99 -25 -148 -17c-31 6 -71 35 -74 94c-3 69 -17 360 19 619c68 22 143 18 188 -14c-6 -62 -13 -146 -17 -236c-3 -87 -4 -180 6 -257c31 -8 85 21 92 43
c5 64 12 233 15 452c45 25 124 28 177 8c13 -170 12 -401 8 -602zM364 784c-25 -17 -69 -32 -89 -33c-23 9 -151 106 -187 135c46 20 135 53 167 56c42 -43 81 -99 109 -158z" />
    <glyph glyph-name="Yacute" unicode="&#xdd;" horiz-adv-x="498" 
d="M509 707c-38 -146 -115 -310 -161 -415c-2 -78 -4 -213 -6 -306c-54 -14 -127 -17 -190 -3c-7 102 -6 207 -2 324c-19 44 -54 121 -85 196c-32 75 -60 151 -60 191c41 22 119 25 179 19c18 -64 50 -156 67 -192c3 -8 7 -16 10 -22c-1 0 -1 -1 -2 -2c6 4 7 31 11 49
c2 9 48 142 59 163c59 6 113 10 180 -2zM446 881c-33 -27 -161 -124 -183 -133c-20 1 -65 16 -90 33c28 59 67 115 109 157c25 -1 116 -29 164 -57z" />
    <glyph glyph-name="Ydieresis" unicode="&#x178;" horiz-adv-x="528" 
d="M509 707c-38 -146 -115 -310 -161 -415c-2 -78 -4 -213 -6 -306c-54 -14 -127 -17 -190 -3c-7 102 -6 207 -2 324c-19 44 -54 121 -85 196c-32 75 -60 151 -60 191c41 22 119 25 179 19c18 -64 50 -156 67 -192c3 -8 7 -16 10 -22c-1 0 -1 -1 -2 -2c6 4 7 31 11 49
c2 9 48 142 59 163c59 6 113 10 180 -2zM217 921c33 -36 9 -125 -9 -141c-24 -21 -102 -43 -121 -8c-18 34 -9 115 15 137c28 26 82 46 115 12zM410 929c33 -36 9 -125 -9 -141c-24 -21 -102 -43 -121 -8c-18 34 -9 115 15 137c28 26 82 46 115 12z" />
    <glyph glyph-name="Zcaron" unicode="&#x17d;" horiz-adv-x="516" 
d="M461 588c-11 -39 -57 -146 -102 -250c-22 -52 -44 -103 -61 -143c-12 -29 -22 -52 -27 -67c55 -2 134 0 183 -2c20 -38 14 -95 4 -129c-35 -17 -143 -26 -212 -24c-38 1 -145 5 -200 8c-10 39 -10 101 -7 122c42 139 128 264 189 462c-21 3 -50 3 -79 3
c-37 -1 -73 -3 -103 0c-10 34 -14 113 12 137c75 20 330 12 396 3c7 -35 15 -90 7 -120zM425 919c-20 -25 -74 -97 -115 -151c-55 -10 -136 -11 -136 -11c-46 61 -88 115 -116 155c24 17 90 22 117 21c14 -6 40 -36 70 -72c16 21 32 42 50 67c34 6 95 11 130 -9z" />
    <glyph glyph-name="aacute" unicode="&#xe1;" horiz-adv-x="582" 
d="M316 250c-6 68 -28 202 -36 232c-3 12 -10 -2 -12 -6c-7 -15 -14 -52 -24 -99c-8 -42 -16 -90 -25 -132c29 -3 76 -1 97 5zM552 17c-43 -25 -137 -37 -204 -28c-1 45 -3 65 -13 94c-33 -7 -78 -7 -117 -7c-8 10 -15 20 -22 29c-2 -10 -4 -21 -7 -32
c-4 -24 -8 -48 -14 -73c-47 -22 -124 -9 -168 1c19 152 66 398 139 659l89 7l-2 52c73 15 132 13 200 9c57 -230 87 -480 119 -711zM486 891c-33 -27 -161 -124 -183 -133c-20 1 -65 16 -90 33c28 59 67 115 109 157c25 -1 116 -29 164 -57z" />
    <glyph glyph-name="acircumflex" unicode="&#xe2;" horiz-adv-x="582" 
d="M316 250c-6 68 -28 202 -36 232c-3 12 -10 -2 -12 -6c-7 -15 -14 -52 -24 -99c-8 -42 -16 -90 -25 -132c29 -3 76 -1 97 5zM552 17c-43 -25 -137 -37 -204 -28c-1 45 -3 65 -13 94c-33 -7 -78 -7 -117 -7c-8 10 -15 20 -22 29c-2 -10 -4 -21 -7 -32
c-4 -24 -8 -48 -14 -73c-47 -22 -124 -9 -168 1c19 152 66 398 139 659l89 7l-2 52c73 15 132 13 200 9c57 -230 87 -480 119 -711zM500 779c-28 -19 -104 -26 -134 -24c-16 6 -46 41 -80 82c-19 -24 -37 -48 -57 -76c-39 -7 -109 -12 -148 10c22 28 84 110 130 172
c64 12 156 12 156 12c52 -68 100 -131 133 -176z" />
    <glyph glyph-name="adieresis" unicode="&#xe4;" horiz-adv-x="582" 
d="M316 250c-6 68 -28 202 -36 232c-3 12 -10 -2 -12 -6c-7 -15 -14 -52 -24 -99c-8 -42 -16 -90 -25 -132c29 -3 76 -1 97 5zM552 17c-43 -25 -137 -37 -204 -28c-1 45 -3 65 -13 94c-33 -7 -78 -7 -117 -7c-8 10 -15 20 -22 29c-2 -10 -4 -21 -7 -32
c-4 -24 -8 -48 -14 -73c-47 -22 -124 -9 -168 1c19 152 66 398 139 659l89 7l-2 52c73 15 132 13 200 9c57 -230 87 -480 119 -711zM267 921c33 -36 9 -125 -9 -141c-24 -21 -102 -43 -121 -8c-18 34 -9 115 15 137c28 26 82 46 115 12zM460 929c33 -36 9 -125 -9 -141
c-24 -21 -102 -43 -121 -8c-18 34 -9 115 15 137c28 26 82 46 115 12z" />
    <glyph glyph-name="agrave" unicode="&#xe0;" horiz-adv-x="582" 
d="M316 250c-6 68 -28 202 -36 232c-3 12 -10 -2 -12 -6c-7 -15 -14 -52 -24 -99c-8 -42 -16 -90 -25 -132c29 -3 76 -1 97 5zM552 17c-43 -25 -137 -37 -204 -28c-1 45 -3 65 -13 94c-33 -7 -78 -7 -117 -7c-8 10 -15 20 -22 29c-2 -10 -4 -21 -7 -32
c-4 -24 -8 -48 -14 -73c-47 -22 -124 -9 -168 1c19 152 66 398 139 659l89 7l-2 52c73 15 132 13 200 9c57 -230 87 -480 119 -711zM364 784c-25 -17 -69 -32 -89 -33c-23 9 -151 106 -187 135c46 20 135 53 167 56c42 -43 81 -99 109 -158z" />
    <glyph glyph-name="aring" unicode="&#xe5;" horiz-adv-x="582" 
d="M316 250c-6 68 -28 202 -36 232c-3 12 -10 -2 -12 -6c-7 -15 -14 -52 -24 -99c-8 -42 -16 -90 -25 -132c29 -3 76 -1 97 5zM295 873c-2 6 -6 13 -21 10c-22 -5 -27 -28 -28 -48c-2 -25 9 -48 30 -37c28 14 27 59 19 75zM552 17c-43 -25 -137 -37 -204 -28
c-1 45 -3 65 -13 94c-33 -7 -78 -7 -117 -7c-8 10 -15 20 -22 29c-2 -10 -4 -21 -7 -32c-4 -24 -8 -48 -14 -73c-47 -22 -124 -9 -168 1c19 152 66 398 139 659l89 7l-2 52c73 15 132 13 200 9c57 -230 87 -480 119 -711zM407 906c36 -31 34 -99 -6 -129
c-17 -13 -36 -25 -74 -29c-153 -16 -198 17 -206 61c-8 43 20 97 69 111c61 18 182 16 217 -14z" />
    <glyph glyph-name="atilde" unicode="&#xe3;" horiz-adv-x="582" 
d="M316 250c-6 68 -28 202 -36 232c-3 12 -10 -2 -12 -6c-7 -15 -14 -52 -24 -99c-8 -42 -16 -90 -25 -132c29 -3 76 -1 97 5zM552 17c-43 -25 -137 -37 -204 -28c-1 45 -3 65 -13 94c-33 -7 -78 -7 -117 -7c-8 10 -15 20 -22 29c-2 -10 -4 -21 -7 -32
c-4 -24 -8 -48 -14 -73c-47 -22 -124 -9 -168 1c19 152 66 398 139 659l89 7l-2 52c73 15 132 13 200 9c57 -230 87 -480 119 -711zM510 906c-19 -43 -48 -86 -76 -117c-37 -42 -80 -53 -129 -18c-14 9 -28 24 -44 36c-15 12 -30 20 -43 20c-4 0 -14 -13 -24 -25
c-13 -14 -25 -29 -31 -36c-30 7 -54 27 -74 49c37 61 102 151 168 138c15 -3 28 -9 39 -17c5 -4 10 -8 14 -13c5 -4 9 -8 13 -13c17 -17 30 -29 49 -29c13 0 26 9 38 25c7 7 12 16 18 24c5 8 10 16 19 29c26 -12 55 -31 63 -53z" />
    <glyph glyph-name="ccedilla" unicode="&#xe7;" horiz-adv-x="527" 
d="M450 539c-43 -35 -114 -54 -172 -39c2 19 3 42 3 66c1 24 1 48 -2 60c-2 10 -3 14 -6 12c-32 -30 -49 -145 -54 -240c-6 -106 12 -170 45 -184c23 -11 51 -11 81 -8c31 3 61 10 97 15c10 -34 -8 -128 -31 -147c-15 -4 -32 -8 -49 -12c1 -25 1 -52 0 -74
c-2 -75 -42 -118 -113 -128c-31 -4 -124 -1 -173 17c-5 21 -4 77 16 101c61 -2 112 -26 113 56v18c-24 2 -47 6 -68 14c-119 40 -121 295 -112 390c5 54 38 204 69 254c34 56 122 88 190 85c16 -1 41 -2 68 -5c28 -2 58 -8 87 -22c13 -61 17 -170 11 -229z" />
    <glyph glyph-name="eacute" unicode="&#xe9;" 
d="M419 157c4 -56 -1 -133 -22 -160c-88 -18 -182 -29 -293 -22l-13 54l-45 -3c-12 197 -8 394 9 540l-44 -3c5 43 17 108 39 148c85 12 276 16 335 4c8 -25 21 -121 -1 -153c-27 5 -102 5 -134 3c-8 -44 -12 -119 -3 -158c41 7 97 9 149 8c7 -43 5 -108 2 -151
c-44 -5 -120 -17 -154 -22c-2 -31 -1 -48 0 -83c0 -6 0 -13 4 -13c50 1 109 6 171 11zM416 881c-33 -27 -161 -124 -183 -133c-20 1 -65 16 -90 33c28 59 67 115 109 157c25 -1 116 -29 164 -57z" />
    <glyph glyph-name="ecircumflex" unicode="&#xea;" 
d="M419 157c4 -56 -1 -133 -22 -160c-88 -18 -182 -29 -293 -22l-13 54l-45 -3c-12 197 -8 394 9 540l-44 -3c5 43 17 108 39 148c85 12 276 16 335 4c8 -25 21 -121 -1 -153c-27 5 -102 5 -134 3c-8 -44 -12 -119 -3 -158c41 7 97 9 149 8c7 -43 5 -108 2 -151
c-44 -5 -120 -17 -154 -22c-2 -31 -1 -48 0 -83c0 -6 0 -13 4 -13c50 1 109 6 171 11zM450 779c-28 -19 -104 -26 -134 -24c-16 6 -46 41 -80 82c-19 -24 -37 -48 -57 -76c-39 -7 -109 -12 -148 10c22 28 84 110 130 172c64 12 156 12 156 12c52 -68 100 -131 133 -176z" />
    <glyph glyph-name="edieresis" unicode="&#xeb;" 
d="M419 157c4 -56 -1 -133 -22 -160c-88 -18 -182 -29 -293 -22l-13 54l-45 -3c-12 197 -8 394 9 540l-44 -3c5 43 17 108 39 148c85 12 276 16 335 4c8 -25 21 -121 -1 -153c-27 5 -102 5 -134 3c-8 -44 -12 -119 -3 -158c41 7 97 9 149 8c7 -43 5 -108 2 -151
c-44 -5 -120 -17 -154 -22c-2 -31 -1 -48 0 -83c0 -6 0 -13 4 -13c50 1 109 6 171 11zM207 911c33 -36 9 -125 -9 -141c-24 -21 -102 -43 -121 -8c-18 34 -9 115 15 137c28 26 82 46 115 12zM400 919c33 -36 9 -125 -9 -141c-24 -21 -102 -43 -121 -8c-18 34 -9 115 15 137
c28 26 82 46 115 12z" />
    <glyph glyph-name="egrave" unicode="&#xe8;" 
d="M419 157c4 -56 -1 -133 -22 -160c-88 -18 -182 -29 -293 -22l-13 54l-45 -3c-12 197 -8 394 9 540l-44 -3c5 43 17 108 39 148c85 12 276 16 335 4c8 -25 21 -121 -1 -153c-27 5 -102 5 -134 3c-8 -44 -12 -119 -3 -158c41 7 97 9 149 8c7 -43 5 -108 2 -151
c-44 -5 -120 -17 -154 -22c-2 -31 -1 -48 0 -83c0 -6 0 -13 4 -13c50 1 109 6 171 11zM314 784c-25 -17 -69 -32 -89 -33c-23 9 -151 106 -187 135c46 20 135 53 167 56c42 -43 81 -99 109 -158z" />
    <glyph glyph-name="iacute" unicode="&#xed;" horiz-adv-x="349" 
d="M270 698c-2 -242 15 -454 0 -693c-32 -19 -155 -26 -197 -3c-9 228 -1 459 2 693c43 14 161 18 195 3zM374 881c-33 -27 -161 -124 -184 -133c-20 1 -64 16 -89 33c28 59 67 115 109 157c25 -1 116 -29 164 -57z" />
    <glyph glyph-name="icircumflex" unicode="&#xee;" horiz-adv-x="349" 
d="M270 698c-2 -242 15 -454 0 -693c-32 -19 -155 -26 -197 -3c-9 228 -1 459 2 693c43 14 161 18 195 3zM319 779c-21 -18 -78 -24 -101 -23c-12 6 -35 39 -60 78c-15 -23 -28 -46 -44 -72c-29 -7 -82 -12 -112 10c17 26 64 103 99 162c48 11 118 11 118 11
c39 -65 75 -123 100 -166z" />
    <glyph glyph-name="idieresis" unicode="&#xef;" horiz-adv-x="349" 
d="M270 698c-2 -242 15 -454 0 -693c-32 -19 -155 -26 -197 -3c-9 228 -1 459 2 693c43 14 161 18 195 3zM148 911c33 -36 9 -125 -9 -141c-24 -21 -102 -43 -121 -8c-18 34 -10 115 15 137c28 26 82 46 115 12zM341 919c33 -36 9 -125 -9 -141c-24 -21 -102 -43 -121 -8
c-18 34 -10 115 15 137c28 26 82 46 115 12z" />
    <glyph glyph-name="igrave" unicode="&#xec;" horiz-adv-x="349" 
d="M270 698c-2 -242 15 -454 0 -693c-32 -19 -155 -26 -197 -3c-9 228 -1 459 2 693c43 14 161 18 195 3zM244 784c-25 -17 -69 -32 -89 -33c-23 9 -151 106 -187 135c46 20 135 53 167 56c42 -43 81 -99 109 -158z" />
    <glyph glyph-name="ntilde" unicode="&#xf1;" horiz-adv-x="649" 
d="M521 -13c-49 -16 -135 -21 -181 -8c-53 94 -82 164 -142 289c-5 -89 -1 -181 -1 -281c-33 -12 -122 -17 -155 -1c-15 171 -8 458 0 704c55 17 134 17 174 15c17 -26 47 -90 76 -153c30 -63 58 -126 69 -145c1 -2 1 -3 1 -3c1 0 -1 5 -1 10c0 95 5 202 3 307
c44 12 119 13 156 -6c3 -248 6 -477 1 -728zM530 906c-19 -43 -48 -86 -76 -117c-37 -42 -80 -53 -129 -18c-14 9 -28 24 -44 36c-15 12 -30 20 -43 20c-4 0 -14 -13 -24 -25c-13 -14 -25 -29 -31 -36c-30 7 -54 27 -74 49c37 61 102 151 168 138c15 -3 28 -9 39 -17
c5 -4 10 -8 14 -13c5 -4 9 -8 13 -13c17 -17 30 -29 49 -29c13 0 26 9 38 25c7 7 12 16 18 24c5 8 10 16 19 29c26 -12 55 -31 63 -53z" />
    <glyph glyph-name="oacute" unicode="&#xf3;" horiz-adv-x="594" 
d="M367 374c0 39 -6 77 -11 115c-5 34 -8 85 -56 85c-11 0 -22 -4 -31 -13c-34 -31 -45 -211 -45 -259c0 -53 4 -189 70 -189c80 0 73 201 73 261zM563 377c0 -102 -2 -298 -122 -387c-58 -42 -235 -40 -292 0c-63 44 -92 111 -105 178c-14 66 -12 134 -12 185
c0 94 8 201 52 290c11 22 39 48 75 69c19 -10 33 -19 46 -26c7 -3 14 -7 18 -9c6 7 9 14 12 21c2 4 3 9 5 13c2 5 5 10 13 21c83 7 215 11 263 -89c38 -81 47 -180 47 -266zM496 891c-33 -27 -161 -124 -183 -133c-20 1 -65 16 -90 33c28 59 67 115 109 157
c25 -1 116 -29 164 -57z" />
    <glyph glyph-name="ocircumflex" unicode="&#xf4;" horiz-adv-x="594" 
d="M367 374c0 39 -6 77 -11 115c-5 34 -8 85 -56 85c-11 0 -22 -4 -31 -13c-34 -31 -45 -211 -45 -259c0 -53 4 -189 70 -189c80 0 73 201 73 261zM563 377c0 -102 -2 -298 -122 -387c-58 -42 -235 -40 -292 0c-63 44 -92 111 -105 178c-14 66 -12 134 -12 185
c0 94 8 201 52 290c11 22 39 48 75 69c19 -10 33 -19 46 -26c7 -3 14 -7 18 -9c6 7 9 14 12 21c2 4 3 9 5 13c2 5 5 10 13 21c83 7 215 11 263 -89c38 -81 47 -180 47 -266zM500 779c-28 -19 -104 -26 -134 -24c-16 6 -46 41 -80 82c-19 -24 -37 -48 -57 -76
c-39 -7 -109 -12 -148 10c22 28 84 110 130 172c64 12 156 12 156 12c52 -68 100 -131 133 -176z" />
    <glyph glyph-name="odieresis" unicode="&#xf6;" horiz-adv-x="594" 
d="M367 374c0 39 -6 77 -11 115c-5 34 -8 85 -56 85c-11 0 -22 -4 -31 -13c-34 -31 -45 -211 -45 -259c0 -53 4 -189 70 -189c80 0 73 201 73 261zM563 377c0 -102 -2 -298 -122 -387c-58 -42 -235 -40 -292 0c-63 44 -92 111 -105 178c-14 66 -12 134 -12 185
c0 94 8 201 52 290c11 22 39 48 75 69c19 -10 33 -19 46 -26c7 -3 14 -7 18 -9c6 7 9 14 12 21c2 4 3 9 5 13c2 5 5 10 13 21c83 7 215 11 263 -89c38 -81 47 -180 47 -266zM267 921c33 -36 9 -125 -9 -141c-24 -21 -102 -43 -121 -8c-18 34 -9 115 15 137
c28 26 82 46 115 12zM460 929c33 -36 9 -125 -9 -141c-24 -21 -102 -43 -121 -8c-18 34 -9 115 15 137c28 26 82 46 115 12z" />
    <glyph glyph-name="ograve" unicode="&#xf2;" horiz-adv-x="594" 
d="M367 374c0 39 -6 77 -11 115c-5 34 -8 85 -56 85c-11 0 -22 -4 -31 -13c-34 -31 -45 -211 -45 -259c0 -53 4 -189 70 -189c80 0 73 201 73 261zM563 377c0 -102 -2 -298 -122 -387c-58 -42 -235 -40 -292 0c-63 44 -92 111 -105 178c-14 66 -12 134 -12 185
c0 94 8 201 52 290c11 22 39 48 75 69c19 -10 33 -19 46 -26c7 -3 14 -7 18 -9c6 7 9 14 12 21c2 4 3 9 5 13c2 5 5 10 13 21c83 7 215 11 263 -89c38 -81 47 -180 47 -266zM364 794c-25 -17 -69 -32 -89 -33c-23 9 -151 106 -187 135c46 20 135 53 167 56
c42 -43 81 -99 109 -158z" />
    <glyph glyph-name="otilde" unicode="&#xf5;" horiz-adv-x="594" 
d="M367 374c0 39 -6 77 -11 115c-5 34 -8 85 -56 85c-11 0 -22 -4 -31 -13c-34 -31 -45 -211 -45 -259c0 -53 4 -189 70 -189c80 0 73 201 73 261zM563 377c0 -102 -2 -298 -122 -387c-58 -42 -235 -40 -292 0c-63 44 -92 111 -105 178c-14 66 -12 134 -12 185
c0 94 8 201 52 290c11 22 39 48 75 69c19 -10 33 -19 46 -26c7 -3 14 -7 18 -9c6 7 9 14 12 21c2 4 3 9 5 13c2 5 5 10 13 21c83 7 215 11 263 -89c38 -81 47 -180 47 -266zM510 906c-19 -43 -48 -86 -76 -117c-37 -42 -80 -53 -129 -18c-14 9 -28 24 -44 36
c-15 12 -30 20 -43 20c-4 0 -14 -13 -24 -25c-13 -14 -25 -29 -31 -36c-30 7 -54 27 -74 49c37 61 102 151 168 138c15 -3 28 -9 39 -17c5 -4 10 -8 14 -13c5 -4 9 -8 13 -13c17 -17 30 -29 49 -29c13 0 26 9 38 25c7 7 12 16 18 24c5 8 10 16 19 29c26 -12 55 -31 63 -53z
" />
    <glyph glyph-name="scaron" unicode="&#x161;" horiz-adv-x="528" 
d="M436 466c-31 -13 -107 -32 -158 -25c1 55 -1 88 -5 105c-1 7 -5 8 -12 7c-8 -2 -16 -9 -18 -19c-3 -14 -23 -110 -1 -142c9 -13 20 -20 35 -25c8 -3 16 -5 24 -6c9 -2 18 -4 27 -5c38 -7 81 -18 99 -69c37 -102 15 -210 -33 -269c-60 -73 -261 -59 -341 -34
c-13 58 -10 89 -1 132c72 -9 157 -11 197 16c9 6 16 48 3 62c-14 16 -36 21 -64 26c-15 2 -30 4 -44 8c-15 5 -30 11 -44 21c-44 34 -65 83 -69 185c-7 193 67 281 216 286c76 3 126 1 180 -25c13 -45 16 -185 9 -229zM425 929c-20 -25 -74 -97 -115 -151
c-55 -10 -136 -11 -136 -11c-46 61 -88 115 -116 155c24 17 90 22 117 21c14 -6 40 -36 70 -72c16 21 32 42 50 67c34 6 95 11 130 -9z" />
    <glyph glyph-name="uacute" unicode="&#xfa;" horiz-adv-x="618" 
d="M543 718c15 -250 4 -487 -9 -733c-33 -5 -99 -17 -181 -22c0 21 -1 27 -2 34c-1 3 -1 6 -2 9c-48 -17 -100 -31 -143 -37c-136 -15 -170 49 -172 169c-2 119 -1 240 6 359c4 61 5 133 14 201c30 11 62 15 93 16c30 2 62 2 101 2c-14 -193 -25 -347 -15 -524
c2 -28 29 -44 58 -43c36 2 54 25 54 57c0 102 -1 159 1 260c1 87 -1 154 2 250c43 7 81 7 113 6s60 -3 82 -4zM506 881c-33 -27 -161 -124 -183 -133c-20 1 -65 16 -90 33c28 59 67 115 109 157c25 -1 116 -29 164 -57z" />
    <glyph glyph-name="ucircumflex" unicode="&#xfb;" horiz-adv-x="618" 
d="M543 718c15 -250 4 -487 -9 -733c-33 -5 -99 -17 -181 -22c0 21 -1 27 -2 34c-1 3 -1 6 -2 9c-48 -17 -100 -31 -143 -37c-136 -15 -170 49 -172 169c-2 119 -1 240 6 359c4 61 5 133 14 201c30 11 62 15 93 16c30 2 62 2 101 2c-14 -193 -25 -347 -15 -524
c2 -28 29 -44 58 -43c36 2 54 25 54 57c0 102 -1 159 1 260c1 87 -1 154 2 250c43 7 81 7 113 6s60 -3 82 -4zM510 779c-28 -19 -104 -26 -134 -24c-16 6 -46 41 -80 82c-19 -24 -37 -48 -57 -76c-39 -7 -109 -12 -148 10c22 28 84 110 130 172c64 12 156 12 156 12
c52 -68 100 -131 133 -176z" />
    <glyph glyph-name="udieresis" unicode="&#xfc;" horiz-adv-x="618" 
d="M543 718c15 -250 4 -487 -9 -733c-33 -5 -99 -17 -181 -22c0 21 -1 27 -2 34c-1 3 -1 6 -2 9c-48 -17 -100 -31 -143 -37c-136 -15 -170 49 -172 169c-2 119 -1 240 6 359c4 61 5 133 14 201c30 11 62 15 93 16c30 2 62 2 101 2c-14 -193 -25 -347 -15 -524
c2 -28 29 -44 58 -43c36 2 54 25 54 57c0 102 -1 159 1 260c1 87 -1 154 2 250c43 7 81 7 113 6s60 -3 82 -4zM277 921c33 -36 9 -125 -9 -141c-24 -21 -102 -43 -121 -8c-18 34 -9 115 15 137c28 26 82 46 115 12zM470 929c33 -36 9 -125 -9 -141c-24 -21 -102 -43 -121 -8
c-18 34 -9 115 15 137c28 26 82 46 115 12z" />
    <glyph glyph-name="ugrave" unicode="&#xf9;" horiz-adv-x="618" 
d="M543 718c15 -250 4 -487 -9 -733c-33 -5 -99 -17 -181 -22c0 21 -1 27 -2 34c-1 3 -1 6 -2 9c-48 -17 -100 -31 -143 -37c-136 -15 -170 49 -172 169c-2 119 -1 240 6 359c4 61 5 133 14 201c30 11 62 15 93 16c30 2 62 2 101 2c-14 -193 -25 -347 -15 -524
c2 -28 29 -44 58 -43c36 2 54 25 54 57c0 102 -1 159 1 260c1 87 -1 154 2 250c43 7 81 7 113 6s60 -3 82 -4zM364 784c-25 -17 -69 -32 -89 -33c-23 9 -151 106 -187 135c46 20 135 53 167 56c42 -43 81 -99 109 -158z" />
    <glyph glyph-name="yacute" unicode="&#xfd;" horiz-adv-x="555" 
d="M509 707c-38 -146 -115 -310 -161 -415c-2 -78 -4 -213 -6 -306c-54 -14 -127 -17 -190 -3c-7 102 -6 207 -2 324c-19 44 -54 121 -85 196c-32 75 -60 151 -60 191c41 22 119 25 179 19c18 -64 50 -156 67 -192c3 -8 7 -16 10 -22c-1 0 -1 -1 -2 -2c6 4 7 31 11 49
c2 9 48 142 59 163c59 6 113 10 180 -2zM466 881c-33 -27 -161 -124 -183 -133c-20 1 -65 16 -90 33c28 59 67 115 109 157c25 -1 116 -29 164 -57z" />
    <glyph glyph-name="ydieresis" unicode="&#xff;" horiz-adv-x="529" 
d="M509 707c-38 -146 -115 -310 -161 -415c-2 -78 -4 -213 -6 -306c-54 -14 -127 -17 -190 -3c-7 102 -6 207 -2 324c-19 44 -54 121 -85 196c-32 75 -60 151 -60 191c41 22 119 25 179 19c18 -64 50 -156 67 -192c3 -8 7 -16 10 -22c-1 0 -1 -1 -2 -2c6 4 7 31 11 49
c2 9 48 142 59 163c59 6 113 10 180 -2zM247 921c33 -36 9 -125 -9 -141c-24 -21 -102 -43 -121 -8c-18 34 -9 115 15 137c28 26 82 46 115 12zM440 929c33 -36 9 -125 -9 -141c-24 -21 -102 -43 -121 -8c-18 34 -9 115 15 137c28 26 82 46 115 12z" />
    <glyph glyph-name="zcaron" unicode="&#x17e;" horiz-adv-x="516" 
d="M440 122c10 -39 0 -114 -24 -137c-71 -20 -314 -12 -377 -2c-7 34 -15 89 -7 119c11 39 55 146 97 250c21 52 42 103 58 144c11 28 20 51 26 66c-52 2 -127 1 -174 3c-19 38 -13 94 -4 128c34 18 137 26 202 24c36 -1 138 -4 192 -8c8 -38 9 -100 6 -121
c-40 -140 -122 -264 -180 -463c21 -3 50 -3 81 -3c38 0 75 2 104 0zM425 919c-20 -25 -74 -97 -115 -151c-55 -10 -136 -11 -136 -11c-46 61 -88 115 -116 155c24 17 90 22 117 21c14 -6 40 -36 70 -72c16 21 32 42 50 67c34 6 95 11 130 -9z" />
    <glyph glyph-name="uni00A0" unicode="&#xa0;" horiz-adv-x="330" 
 />
    <glyph glyph-name="uni00AD" unicode="&#xad;" horiz-adv-x="1000" 
 />
    <glyph glyph-name="Amacron" unicode="&#x100;" horiz-adv-x="572" 
d="M316 250c-6 68 -28 202 -36 232c-3 12 -10 -2 -12 -6c-7 -15 -14 -52 -24 -99c-8 -42 -16 -90 -25 -132c29 -3 76 -1 97 5zM552 17c-43 -25 -137 -37 -204 -28c-1 45 -3 65 -13 94c-33 -7 -78 -7 -117 -7c-8 10 -15 20 -22 29c-2 -10 -4 -21 -7 -32
c-4 -24 -8 -48 -14 -73c-47 -22 -124 -9 -168 1c19 152 66 398 139 659l89 7l-2 52c73 15 132 13 200 9c57 -230 87 -480 119 -711zM482 934c6 -44 10 -93 -4 -129c-38 -22 -276 -32 -356 -34c0 0 -27 77 6 150c25 5 102 6 175 6c37 1 74 1 104 2c29 0 51 1 75 5z" />
    <glyph glyph-name="amacron" unicode="&#x101;" horiz-adv-x="582" 
d="M316 250c-6 68 -28 202 -36 232c-3 12 -10 -2 -12 -6c-7 -15 -14 -52 -24 -99c-8 -42 -16 -90 -25 -132c29 -3 76 -1 97 5zM552 17c-43 -25 -137 -37 -204 -28c-1 45 -3 65 -13 94c-33 -7 -78 -7 -117 -7c-8 10 -15 20 -22 29c-2 -10 -4 -21 -7 -32
c-4 -24 -8 -48 -14 -73c-47 -22 -124 -9 -168 1c19 152 66 398 139 659l89 7l-2 52c73 15 132 13 200 9c57 -230 87 -480 119 -711zM482 924c6 -44 10 -93 -4 -129c-38 -22 -276 -32 -356 -34c0 0 -27 77 6 150c25 5 102 6 175 6c37 1 74 1 104 2c29 0 51 1 75 5z" />
    <glyph glyph-name="Abreve" unicode="&#x102;" horiz-adv-x="572" 
d="M316 250c-6 68 -28 202 -36 232c-3 12 -10 -2 -12 -6c-7 -15 -14 -52 -24 -99c-8 -42 -16 -90 -25 -132c29 -3 76 -1 97 5zM552 17c-43 -25 -137 -37 -204 -28c-1 45 -3 65 -13 94c-33 -7 -78 -7 -117 -7c-8 10 -15 20 -22 29c-2 -10 -4 -21 -7 -32
c-4 -24 -8 -48 -14 -73c-47 -22 -124 -9 -168 1c19 152 66 398 139 659l89 7l-2 52c73 15 132 13 200 9c57 -230 87 -480 119 -711zM497 927c-23 -51 -59 -120 -123 -149c-43 -19 -113 -18 -145 -1c-69 38 -96 81 -115 143c35 19 99 25 126 24c14 -20 10 -59 61 -64
c20 -2 42 23 57 58c37 7 96 10 139 -11z" />
    <glyph glyph-name="abreve" unicode="&#x103;" horiz-adv-x="582" 
d="M316 250c-6 68 -28 202 -36 232c-3 12 -10 -2 -12 -6c-7 -15 -14 -52 -24 -99c-8 -42 -16 -90 -25 -132c29 -3 76 -1 97 5zM552 17c-43 -25 -137 -37 -204 -28c-1 45 -3 65 -13 94c-33 -7 -78 -7 -117 -7c-8 10 -15 20 -22 29c-2 -10 -4 -21 -7 -32
c-4 -24 -8 -48 -14 -73c-47 -22 -124 -9 -168 1c19 152 66 398 139 659l89 7l-2 52c73 15 132 13 200 9c57 -230 87 -480 119 -711zM497 927c-23 -51 -59 -120 -123 -149c-43 -19 -113 -18 -145 -1c-69 38 -96 81 -115 143c35 19 99 25 126 24c14 -20 10 -59 61 -64
c20 -2 42 23 57 58c37 7 96 10 139 -11z" />
    <glyph glyph-name="Aogonek" unicode="&#x104;" horiz-adv-x="572" 
d="M316 290c-6 68 -28 202 -36 232c-3 12 -10 -2 -12 -6c-7 -15 -14 -52 -24 -99c-8 -42 -16 -90 -25 -132c29 -3 76 -1 97 5zM552 57c-23 -13 -60 -23 -99 -28c-28 -29 -45 -58 -18 -73c14 -7 31 -9 48 -9c18 0 34 3 53 4c19 -25 20 -81 15 -102c-49 -18 -142 -21 -173 -17
c-70 10 -111 54 -112 128c-1 47 27 109 77 133c-2 10 -4 20 -8 30c-33 -7 -78 -7 -117 -7c-8 10 -15 20 -22 29c-2 -10 -4 -21 -7 -32c-4 -24 -8 -48 -14 -73c-47 -22 -124 -9 -168 1c19 152 66 398 139 659l89 7l-2 52c73 15 132 13 200 9c57 -230 87 -480 119 -711z" />
    <glyph glyph-name="aogonek" unicode="&#x105;" horiz-adv-x="572" 
d="M316 300c-6 68 -28 202 -36 232c-3 12 -10 -2 -12 -6c-7 -15 -14 -52 -24 -99c-8 -42 -16 -90 -25 -132c29 -3 76 -1 97 5zM552 67c-20 -12 -52 -21 -87 -26c-35 -33 -60 -68 -30 -85c14 -7 31 -9 48 -9c18 0 34 3 53 4c19 -25 20 -81 15 -102c-49 -18 -142 -21 -173 -17
c-70 10 -111 54 -112 128c-1 48 27 111 79 134c-2 14 -5 25 -10 39c-33 -7 -78 -7 -117 -7c-8 10 -15 20 -22 29c-2 -10 -4 -21 -7 -32c-4 -24 -8 -48 -14 -73c-47 -22 -124 -9 -168 1c19 152 66 398 139 659l89 7l-2 52c73 15 132 13 200 9c57 -230 87 -480 119 -711z" />
    <glyph glyph-name="Cacute" unicode="&#x106;" horiz-adv-x="498" 
d="M495 556c0 -43 -3 -86 -12 -128c-40 -12 -96 -21 -138 -21c-12 0 -24 0 -35 3c0 17 -2 115 -7 171c-55 0 -58 -178 -58 -213c0 -45 2 -199 35 -228c10 -10 31 -11 45 -11c47 0 94 20 134 40c21 -20 27 -64 27 -90c0 -18 -2 -38 -10 -54c-66 -34 -148 -49 -224 -49
c-32 0 -78 3 -108 16c-113 52 -111 277 -111 375c0 111 17 320 164 352c37 8 79 9 117 9c52 0 123 -5 168 -29c11 -47 13 -96 13 -143zM466 901c-33 -27 -161 -124 -183 -133c-20 1 -65 16 -90 33c28 59 67 115 109 157c25 -1 116 -29 164 -57z" />
    <glyph glyph-name="cacute" unicode="&#x107;" horiz-adv-x="527" 
d="M450 469c-43 -35 -114 -54 -172 -39c2 19 3 42 3 66c1 24 1 48 -2 60c-2 10 -3 14 -6 12c-32 -30 -49 -145 -54 -240c-6 -106 12 -170 45 -184c23 -11 51 -11 81 -8c31 3 61 10 97 15c10 -34 -8 -128 -31 -147c-80 -23 -194 -36 -274 -9c-119 41 -121 296 -112 391
c5 54 38 204 69 254c34 56 122 88 190 85c16 -1 41 -2 68 -5c28 -2 58 -8 87 -22c13 -61 17 -170 11 -229zM466 901c-33 -27 -161 -124 -183 -133c-20 1 -65 16 -90 33c28 59 67 115 109 157c25 -1 116 -29 164 -57z" />
    <glyph glyph-name="Ccircumflex" unicode="&#x108;" horiz-adv-x="498" 
d="M495 556c0 -43 -3 -86 -12 -128c-40 -12 -96 -21 -138 -21c-12 0 -24 0 -35 3c0 17 -2 115 -7 171c-55 0 -58 -178 -58 -213c0 -45 2 -199 35 -228c10 -10 31 -11 45 -11c47 0 94 20 134 40c21 -20 27 -64 27 -90c0 -18 -2 -38 -10 -54c-66 -34 -148 -49 -224 -49
c-32 0 -78 3 -108 16c-113 52 -111 277 -111 375c0 111 17 320 164 352c37 8 79 9 117 9c52 0 123 -5 168 -29c11 -47 13 -96 13 -143zM470 799c-28 -19 -104 -26 -134 -24c-16 6 -46 41 -80 82c-19 -24 -37 -48 -57 -76c-39 -7 -109 -12 -148 10c22 28 84 110 130 172
c64 12 156 12 156 12c52 -68 100 -131 133 -176z" />
    <glyph glyph-name="ccircumflex" unicode="&#x109;" horiz-adv-x="527" 
d="M450 469c-43 -35 -114 -54 -172 -39c2 19 3 42 3 66c1 24 1 48 -2 60c-2 10 -3 14 -6 12c-32 -30 -49 -145 -54 -240c-6 -106 12 -170 45 -184c23 -11 51 -11 81 -8c31 3 61 10 97 15c10 -34 -8 -128 -31 -147c-80 -23 -194 -36 -274 -9c-119 41 -121 296 -112 391
c5 54 38 204 69 254c34 56 122 88 190 85c16 -1 41 -2 68 -5c28 -2 58 -8 87 -22c13 -61 17 -170 11 -229zM480 799c-28 -19 -104 -26 -134 -24c-16 6 -46 41 -80 82c-19 -24 -37 -48 -57 -76c-39 -7 -109 -12 -148 10c22 28 84 110 130 172c64 12 156 12 156 12
c52 -68 100 -131 133 -176z" />
    <glyph glyph-name="Cdotaccent" unicode="&#x10a;" horiz-adv-x="498" 
d="M495 556c0 -43 -3 -86 -12 -128c-40 -12 -96 -21 -138 -21c-12 0 -24 0 -35 3c0 17 -2 115 -7 171c-55 0 -58 -178 -58 -213c0 -45 2 -199 35 -228c10 -10 31 -11 45 -11c47 0 94 20 134 40c21 -20 27 -64 27 -90c0 -18 -2 -38 -10 -54c-66 -34 -148 -49 -224 -49
c-32 0 -78 3 -108 16c-113 52 -111 277 -111 375c0 111 17 320 164 352c37 8 79 9 117 9c52 0 123 -5 168 -29c11 -47 13 -96 13 -143zM350 957c38 -39 9 -140 -10 -157c-28 -24 -116 -47 -137 -9c-20 36 -10 127 18 152c31 29 93 51 129 14z" />
    <glyph glyph-name="cdotaccent" unicode="&#x10b;" horiz-adv-x="527" 
d="M450 469c-43 -35 -114 -54 -172 -39c2 19 3 42 3 66c1 24 1 48 -2 60c-2 10 -3 14 -6 12c-32 -30 -49 -145 -54 -240c-6 -106 12 -170 45 -184c23 -11 51 -11 81 -8c31 3 61 10 97 15c10 -34 -8 -128 -31 -147c-80 -23 -194 -36 -274 -9c-119 41 -121 296 -112 391
c5 54 38 204 69 254c34 56 122 88 190 85c16 -1 41 -2 68 -5c28 -2 58 -8 87 -22c13 -61 17 -170 11 -229zM370 957c38 -39 9 -140 -10 -157c-28 -24 -116 -47 -137 -9c-20 36 -10 127 18 152c31 29 93 51 129 14z" />
    <glyph glyph-name="Ccaron" unicode="&#x10c;" horiz-adv-x="498" 
d="M495 556c0 -43 -3 -86 -12 -128c-40 -12 -96 -21 -138 -21c-12 0 -24 0 -35 3c0 17 -2 115 -7 171c-55 0 -58 -178 -58 -213c0 -45 2 -199 35 -228c10 -10 31 -11 45 -11c47 0 94 20 134 40c21 -20 27 -64 27 -90c0 -18 -2 -38 -10 -54c-66 -34 -148 -49 -224 -49
c-32 0 -78 3 -108 16c-113 52 -111 277 -111 375c0 111 17 320 164 352c37 8 79 9 117 9c52 0 123 -5 168 -29c11 -47 13 -96 13 -143zM425 929c-20 -25 -74 -97 -115 -151c-55 -10 -136 -11 -136 -11c-46 61 -88 115 -116 155c24 17 90 22 117 21c14 -6 40 -36 70 -72
c16 21 32 42 50 67c34 6 95 11 130 -9z" />
    <glyph glyph-name="ccaron" unicode="&#x10d;" horiz-adv-x="527" 
d="M450 469c-43 -35 -114 -54 -172 -39c2 19 3 42 3 66c1 24 1 48 -2 60c-2 10 -3 14 -6 12c-32 -30 -49 -145 -54 -240c-6 -106 12 -170 45 -184c23 -11 51 -11 81 -8c31 3 61 10 97 15c10 -34 -8 -128 -31 -147c-80 -23 -194 -36 -274 -9c-119 41 -121 296 -112 391
c5 54 38 204 69 254c34 56 122 88 190 85c16 -1 41 -2 68 -5c28 -2 58 -8 87 -22c13 -61 17 -170 11 -229zM445 929c-20 -25 -74 -97 -115 -151c-55 -10 -136 -11 -136 -11c-46 61 -88 115 -116 155c24 17 90 22 117 21c14 -6 40 -36 70 -72c16 21 32 42 50 67
c34 6 95 11 130 -9z" />
    <glyph glyph-name="Dcaron" unicode="&#x10e;" horiz-adv-x="564" 
d="M339 505c-20 76 -62 70 -73 59c-4 -4 -8 -15 -9 -30c-2 -15 -2 -31 -2 -43c-2 -84 2 -173 2 -269c0 -34 4 -59 13 -72c6 -8 33 -8 54 9c44 35 32 282 15 346zM546 238c-8 -111 -65 -211 -165 -249c-36 -13 -161 -19 -209 -8c-18 4 -27 20 -32 31c-4 9 -7 20 -9 29l-59 -1
c-9 170 -15 323 -4 533l-56 -3c4 56 13 99 32 145c102 18 303 26 365 -2c61 -27 92 -47 116 -124c28 -96 28 -253 21 -351zM425 929c-20 -25 -74 -97 -115 -151c-55 -10 -136 -11 -136 -11c-46 61 -88 115 -116 155c24 17 90 22 117 21c14 -6 40 -36 70 -72
c16 21 32 42 50 67c34 6 95 11 130 -9z" />
    <glyph glyph-name="dcaron" unicode="&#x10f;" horiz-adv-x="598" 
d="M339 505c-20 76 -62 70 -73 59c-4 -4 -8 -15 -9 -30c-2 -15 -2 -31 -2 -43c-2 -84 2 -173 2 -269c0 -34 4 -59 13 -72c6 -8 33 -8 54 9c44 35 32 282 15 346zM546 238c-8 -111 -65 -211 -165 -249c-36 -13 -161 -19 -209 -8c-18 4 -27 20 -32 31c-4 9 -7 20 -9 29l-59 -1
c-9 170 -15 323 -4 533l-56 -3c4 56 13 99 32 145c102 18 303 26 365 -2c61 -27 92 -47 116 -124c28 -96 28 -253 21 -351zM425 929c-20 -25 -74 -97 -115 -151c-55 -10 -136 -11 -136 -11c-46 61 -88 115 -116 155c24 17 90 22 117 21c14 -6 40 -36 70 -72
c16 21 32 42 50 67c34 6 95 11 130 -9z" />
    <glyph glyph-name="Dcroat" unicode="&#x110;" horiz-adv-x="624" 
d="M379 562c-20 83 -62 77 -73 65c-4 -5 -8 -17 -9 -34c-2 -16 -2 -34 -2 -47c-1 -24 -1 -48 -1 -73h1c27 1 48 2 74 7c6 -55 12 -130 -5 -175c-12 -8 -37 -15 -67 -21v-37c0 -38 4 -66 13 -80c6 -10 33 -9 54 9c44 39 32 315 15 386zM586 264c-8 -123 -65 -234 -165 -276
c-36 -15 -161 -21 -209 -10c-18 5 -27 23 -32 36c-4 10 -7 21 -9 32l-59 -1c-4 74 -7 145 -8 218c-27 -2 -52 -3 -73 -3c0 0 -31 110 7 202c14 3 38 5 65 7c1 52 2 108 5 167l-56 -3c4 62 13 111 32 161c102 21 303 29 365 -2c61 -30 92 -52 116 -138
c28 -106 28 -281 21 -390z" />
    <glyph glyph-name="dcroat" unicode="&#x111;" horiz-adv-x="658" 
d="M379 562c-20 83 -62 77 -73 65c-4 -5 -8 -17 -9 -34c-2 -16 -2 -34 -2 -47c-1 -24 -1 -48 -1 -73h1c27 1 48 2 74 7c6 -55 12 -130 -5 -175c-12 -8 -37 -15 -67 -21v-37c0 -38 4 -66 13 -80c6 -10 33 -9 54 9c44 39 32 315 15 386zM586 264c-8 -123 -65 -234 -165 -276
c-36 -15 -161 -21 -209 -10c-18 5 -27 23 -32 36c-4 10 -7 21 -9 32l-59 -1c-4 74 -7 145 -8 218c-27 -2 -52 -3 -73 -3c0 0 -31 110 7 202c14 3 38 5 65 7c1 52 2 108 5 167l-56 -3c4 62 13 111 32 161c102 21 303 29 365 -2c61 -30 92 -52 116 -138
c28 -106 28 -281 21 -390z" />
    <glyph glyph-name="Emacron" unicode="&#x112;" 
d="M419 157c4 -56 -1 -133 -22 -160c-88 -18 -182 -29 -293 -22l-13 54l-45 -3c-12 197 -8 394 9 540l-44 -3c5 43 17 108 39 148c85 12 276 16 335 4c8 -25 21 -121 -1 -153c-27 5 -102 5 -134 3c-8 -44 -12 -119 -3 -158c41 7 97 9 149 8c7 -43 5 -108 2 -151
c-44 -5 -120 -17 -154 -22c-2 -31 -1 -48 0 -83c0 -6 0 -13 4 -13c50 1 109 6 171 11zM360 923c5 -43 8 -89 -3 -124c-32 -21 -234 -31 -302 -32c0 0 -23 73 5 143c22 5 87 6 148 6c32 0 63 1 89 1c24 1 43 2 63 6z" />
    <glyph glyph-name="emacron" unicode="&#x113;" 
d="M419 157c4 -56 -1 -133 -22 -160c-88 -18 -182 -29 -293 -22l-13 54l-45 -3c-12 197 -8 394 9 540l-44 -3c5 43 17 108 39 148c85 12 276 16 335 4c8 -25 21 -121 -1 -153c-27 5 -102 5 -134 3c-8 -44 -12 -119 -3 -158c41 7 97 9 149 8c7 -43 5 -108 2 -151
c-44 -5 -120 -17 -154 -22c-2 -31 -1 -48 0 -83c0 -6 0 -13 4 -13c50 1 109 6 171 11zM380 923c5 -41 9 -86 -3 -119c-35 -20 -249 -30 -322 -31c0 0 -24 71 5 137c24 5 93 6 158 7c34 0 67 0 95 1c26 0 46 1 67 5z" />
    <glyph glyph-name="Ebreve" unicode="&#x114;" 
d="M419 157c4 -56 -1 -133 -22 -160c-88 -18 -182 -29 -293 -22l-13 54l-45 -3c-12 197 -8 394 9 540l-44 -3c5 43 17 108 39 148c85 12 276 16 335 4c8 -25 21 -121 -1 -153c-27 5 -102 5 -134 3c-8 -44 -12 -119 -3 -158c41 7 97 9 149 8c7 -43 5 -108 2 -151
c-44 -5 -120 -17 -154 -22c-2 -31 -1 -48 0 -83c0 -6 0 -13 4 -13c50 1 109 6 171 11zM413 927c-24 -51 -60 -120 -124 -149c-43 -19 -113 -18 -144 -1c-70 38 -96 81 -116 143c36 19 99 25 126 24c15 -20 10 -59 61 -64c21 -2 43 23 57 58c37 7 97 10 140 -11z" />
    <glyph glyph-name="ebreve" unicode="&#x115;" 
d="M419 157c4 -56 -1 -133 -22 -160c-88 -18 -182 -29 -293 -22l-13 54l-45 -3c-12 197 -8 394 9 540l-44 -3c5 43 17 108 39 148c85 12 276 16 335 4c8 -25 21 -121 -1 -153c-27 5 -102 5 -134 3c-8 -44 -12 -119 -3 -158c41 7 97 9 149 8c7 -43 5 -108 2 -151
c-44 -5 -120 -17 -154 -22c-2 -31 -1 -48 0 -83c0 -6 0 -13 4 -13c50 1 109 6 171 11zM437 917c-23 -51 -59 -120 -123 -149c-43 -19 -113 -18 -145 -1c-69 38 -96 81 -115 143c35 19 99 25 126 24c14 -20 10 -59 61 -64c20 -2 42 23 57 58c37 7 96 10 139 -11z" />
    <glyph glyph-name="Edotaccent" unicode="&#x116;" 
d="M419 157c4 -56 -1 -133 -22 -160c-88 -18 -182 -29 -293 -22l-13 54l-45 -3c-12 197 -8 394 9 540l-44 -3c5 43 17 108 39 148c85 12 276 16 335 4c8 -25 21 -121 -1 -153c-27 5 -102 5 -134 3c-8 -44 -12 -119 -3 -158c41 7 97 9 149 8c7 -43 5 -108 2 -151
c-44 -5 -120 -17 -154 -22c-2 -31 -1 -48 0 -83c0 -6 0 -13 4 -13c50 1 109 6 171 11zM300 947c38 -39 9 -140 -10 -157c-28 -24 -116 -47 -137 -9c-20 36 -10 127 18 152c31 29 93 51 129 14z" />
    <glyph glyph-name="edotaccent" unicode="&#x117;" 
d="M419 157c4 -56 -1 -133 -22 -160c-88 -18 -182 -29 -293 -22l-13 54l-45 -3c-12 197 -8 394 9 540l-44 -3c5 43 17 108 39 148c85 12 276 16 335 4c8 -25 21 -121 -1 -153c-27 5 -102 5 -134 3c-8 -44 -12 -119 -3 -158c41 7 97 9 149 8c7 -43 5 -108 2 -151
c-44 -5 -120 -17 -154 -22c-2 -31 -1 -48 0 -83c0 -6 0 -13 4 -13c50 1 109 6 171 11zM320 937c38 -39 9 -140 -10 -157c-28 -24 -116 -47 -137 -9c-20 36 -10 127 18 152c31 29 93 51 129 14z" />
    <glyph glyph-name="Eogonek" unicode="&#x118;" 
d="M427 -156c-48 -17 -141 -21 -173 -16c-70 10 -110 53 -111 127c-1 25 6 53 20 78c-19 0 -39 0 -59 2l-13 54l-45 -3c-12 197 -8 394 9 540l-44 -3c5 43 17 108 39 148c85 12 276 16 335 4c8 -25 21 -121 -1 -153c-27 5 -102 5 -134 3c-8 -44 -12 -119 -3 -158
c41 7 97 9 149 8c7 -43 5 -108 2 -151c-44 -5 -120 -17 -154 -22c-2 -31 -1 -48 0 -83c0 -6 0 -13 4 -13c50 1 109 6 171 11c4 -56 -1 -133 -22 -160c-14 -3 -28 -5 -42 -8c-41 -36 -77 -78 -43 -97c14 -8 31 -10 47 -10c18 0 35 3 54 4c19 -25 19 -80 14 -102z" />
    <glyph glyph-name="eogonek" unicode="&#x119;" 
d="M435 -154c-49 -18 -142 -21 -173 -17c-70 10 -111 53 -112 128c0 24 6 51 19 76c-21 0 -43 0 -65 2l-13 54l-45 -3c-12 197 -8 394 9 540l-44 -3c5 43 17 108 39 148c85 12 276 16 335 4c8 -25 21 -121 -1 -153c-27 5 -102 5 -134 3c-8 -44 -12 -119 -3 -158
c41 7 97 9 149 8c7 -43 5 -108 2 -151c-44 -5 -120 -17 -154 -22c-2 -31 -1 -48 0 -83c0 -6 0 -13 4 -13c50 1 109 6 171 11c4 -56 -1 -133 -22 -160c-11 -2 -23 -4 -35 -7c-41 -36 -77 -78 -43 -97c14 -7 31 -10 48 -9c18 0 34 3 53 3c19 -24 20 -80 15 -101z" />
    <glyph glyph-name="Ecaron" unicode="&#x11a;" 
d="M419 157c4 -56 -1 -133 -22 -160c-88 -18 -182 -29 -293 -22l-13 54l-45 -3c-12 197 -8 394 9 540l-44 -3c5 43 17 108 39 148c85 12 276 16 335 4c8 -25 21 -121 -1 -153c-27 5 -102 5 -134 3c-8 -44 -12 -119 -3 -158c41 7 97 9 149 8c7 -43 5 -108 2 -151
c-44 -5 -120 -17 -154 -22c-2 -31 -1 -48 0 -83c0 -6 0 -13 4 -13c50 1 109 6 171 11zM385 919c-20 -25 -74 -97 -115 -151c-55 -10 -136 -11 -136 -11c-46 61 -88 115 -116 155c24 17 90 22 117 21c14 -6 40 -36 70 -72c16 21 32 42 50 67c34 6 95 11 130 -9z" />
    <glyph glyph-name="ecaron" unicode="&#x11b;" 
d="M419 157c4 -56 -1 -133 -22 -160c-88 -18 -182 -29 -293 -22l-13 54l-45 -3c-12 197 -8 394 9 540l-44 -3c5 43 17 108 39 148c85 12 276 16 335 4c8 -25 21 -121 -1 -153c-27 5 -102 5 -134 3c-8 -44 -12 -119 -3 -158c41 7 97 9 149 8c7 -43 5 -108 2 -151
c-44 -5 -120 -17 -154 -22c-2 -31 -1 -48 0 -83c0 -6 0 -13 4 -13c50 1 109 6 171 11zM405 919c-20 -25 -74 -97 -115 -151c-55 -10 -136 -11 -136 -11c-46 61 -88 115 -116 155c24 17 90 22 117 21c14 -6 40 -36 70 -72c16 21 32 42 50 67c34 6 95 11 130 -9z" />
    <glyph glyph-name="Gcircumflex" unicode="&#x11c;" horiz-adv-x="566" 
d="M499 10c-33 -21 -128 -38 -171 -22c-2 16 -3 24 -4 31v2c-16 -7 -32 -13 -51 -19c-28 -8 -62 -14 -109 -13c-47 2 -81 33 -100 90c-20 58 -37 172 -37 285c-1 122 25 242 70 296c33 39 111 69 189 74c66 3 133 -15 184 -42c7 -48 9 -127 1 -201c-25 -8 -52 -17 -79 -23
c-25 -6 -55 -12 -85 -5c-2 27 -4 49 -6 70c-1 16 -3 30 -6 40c-15 0 -31 -10 -34 -16c-15 -28 -34 -90 -34 -186c0 -94 12 -193 34 -199c12 -4 54 7 62 16c1 27 0 57 0 85s-1 55 5 82c49 16 128 16 166 14c15 -102 16 -264 5 -359zM500 799c-28 -19 -104 -26 -134 -24
c-16 6 -46 41 -80 82c-19 -24 -37 -48 -57 -76c-39 -7 -109 -12 -148 10c22 28 84 110 130 172c64 12 156 12 156 12c52 -68 100 -131 133 -176z" />
    <glyph glyph-name="gcircumflex" unicode="&#x11d;" horiz-adv-x="588" 
d="M499 10c-33 -21 -128 -38 -171 -22c-2 16 -3 24 -4 31v2c-16 -7 -32 -13 -51 -19c-28 -8 -62 -14 -109 -13c-47 2 -81 33 -100 90c-20 58 -37 172 -37 285c-1 122 25 242 70 296c33 39 111 69 189 74c66 3 133 -15 184 -42c7 -48 9 -127 1 -201c-25 -8 -52 -17 -79 -23
c-25 -6 -55 -12 -85 -5c-2 27 -4 49 -6 70c-1 16 -3 30 -6 40c-15 0 -31 -10 -34 -16c-15 -28 -34 -90 -34 -186c0 -94 12 -193 34 -199c12 -4 54 7 62 16c1 27 0 57 0 85s-1 55 5 82c49 16 128 16 166 14c15 -102 16 -264 5 -359zM500 789c-28 -19 -104 -26 -134 -24
c-16 6 -46 41 -80 82c-19 -24 -37 -48 -57 -76c-39 -7 -109 -12 -148 10c22 28 84 110 130 172c64 12 156 12 156 12c52 -68 100 -131 133 -176z" />
    <glyph glyph-name="Gbreve" unicode="&#x11e;" horiz-adv-x="566" 
d="M499 10c-33 -21 -128 -38 -171 -22c-2 16 -3 24 -4 31v2c-16 -7 -32 -13 -51 -19c-28 -8 -62 -14 -109 -13c-47 2 -81 33 -100 90c-20 58 -37 172 -37 285c-1 122 25 242 70 296c33 39 111 69 189 74c66 3 133 -15 184 -42c7 -48 9 -127 1 -201c-25 -8 -52 -17 -79 -23
c-25 -6 -55 -12 -85 -5c-2 27 -4 49 -6 70c-1 16 -3 30 -6 40c-15 0 -31 -10 -34 -16c-15 -28 -34 -90 -34 -186c0 -94 12 -193 34 -199c12 -4 54 7 62 16c1 27 0 57 0 85s-1 55 5 82c49 16 128 16 166 14c15 -102 16 -264 5 -359zM497 927c-23 -51 -59 -120 -123 -149
c-43 -19 -113 -18 -145 -1c-69 38 -96 81 -115 143c35 19 99 25 126 24c14 -20 10 -59 61 -64c20 -2 42 23 57 58c37 7 96 10 139 -11z" />
    <glyph glyph-name="gbreve" unicode="&#x11f;" horiz-adv-x="588" 
d="M499 10c-33 -21 -128 -38 -171 -22c-2 16 -3 24 -4 31v2c-16 -7 -32 -13 -51 -19c-28 -8 -62 -14 -109 -13c-47 2 -81 33 -100 90c-20 58 -37 172 -37 285c-1 122 25 242 70 296c33 39 111 69 189 74c66 3 133 -15 184 -42c7 -48 9 -127 1 -201c-25 -8 -52 -17 -79 -23
c-25 -6 -55 -12 -85 -5c-2 27 -4 49 -6 70c-1 16 -3 30 -6 40c-15 0 -31 -10 -34 -16c-15 -28 -34 -90 -34 -186c0 -94 12 -193 34 -199c12 -4 54 7 62 16c1 27 0 57 0 85s-1 55 5 82c49 16 128 16 166 14c15 -102 16 -264 5 -359zM477 927c-23 -51 -59 -120 -123 -149
c-43 -19 -113 -18 -145 -1c-69 38 -96 81 -115 143c35 19 99 25 126 24c14 -20 10 -59 61 -64c20 -2 42 23 57 58c37 7 96 10 139 -11z" />
    <glyph glyph-name="Gdotaccent" unicode="&#x120;" horiz-adv-x="566" 
d="M499 10c-33 -21 -128 -38 -171 -22c-2 16 -3 24 -4 31v2c-16 -7 -32 -13 -51 -19c-28 -8 -62 -14 -109 -13c-47 2 -81 33 -100 90c-20 58 -37 172 -37 285c-1 122 25 242 70 296c33 39 111 69 189 74c66 3 133 -15 184 -42c7 -48 9 -127 1 -201c-25 -8 -52 -17 -79 -23
c-25 -6 -55 -12 -85 -5c-2 27 -4 49 -6 70c-1 16 -3 30 -6 40c-15 0 -31 -10 -34 -16c-15 -28 -34 -90 -34 -186c0 -94 12 -193 34 -199c12 -4 54 7 62 16c1 27 0 57 0 85s-1 55 5 82c49 16 128 16 166 14c15 -102 16 -264 5 -359zM370 957c38 -39 9 -140 -10 -157
c-28 -24 -116 -47 -137 -9c-20 36 -10 127 18 152c31 29 93 51 129 14z" />
    <glyph glyph-name="gdotaccent" unicode="&#x121;" horiz-adv-x="588" 
d="M499 10c-33 -21 -128 -38 -171 -22c-2 16 -3 24 -4 31v2c-16 -7 -32 -13 -51 -19c-28 -8 -62 -14 -109 -13c-47 2 -81 33 -100 90c-20 58 -37 172 -37 285c-1 122 25 242 70 296c33 39 111 69 189 74c66 3 133 -15 184 -42c7 -48 9 -127 1 -201c-25 -8 -52 -17 -79 -23
c-25 -6 -55 -12 -85 -5c-2 27 -4 49 -6 70c-1 16 -3 30 -6 40c-15 0 -31 -10 -34 -16c-15 -28 -34 -90 -34 -186c0 -94 12 -193 34 -199c12 -4 54 7 62 16c1 27 0 57 0 85s-1 55 5 82c49 16 128 16 166 14c15 -102 16 -264 5 -359zM380 957c38 -39 9 -140 -10 -157
c-28 -24 -116 -47 -137 -9c-20 36 -10 127 18 152c31 29 93 51 129 14z" />
    <glyph glyph-name="uni0122" unicode="&#x122;" horiz-adv-x="566" 
d="M499 70c-20 -13 -66 -25 -107 -28v-64c-2 -75 -42 -118 -113 -128c-32 -4 -124 -1 -173 17c-5 21 -5 77 16 101c61 -2 111 -26 113 56c0 12 0 21 -1 29c-20 -3 -43 -5 -70 -4c-47 2 -81 33 -100 90c-20 58 -37 172 -37 285c-1 122 25 242 70 296c33 39 111 69 189 74
c66 3 133 -15 184 -42c7 -48 9 -127 1 -201c-25 -8 -52 -17 -79 -23c-25 -6 -55 -12 -85 -5c-2 27 -4 49 -6 70c-1 16 -3 30 -6 40c-15 0 -31 -10 -34 -16c-15 -28 -34 -90 -34 -186c0 -94 12 -193 34 -199c12 -4 54 7 62 16c1 27 0 57 0 85s-1 55 5 82c49 16 128 16 166 14
c15 -102 16 -264 5 -359z" />
    <glyph glyph-name="uni0123" unicode="&#x123;" horiz-adv-x="588" 
d="M499 70c-20 -13 -63 -24 -104 -28c1 -22 1 -43 0 -63c-2 -80 -42 -128 -113 -138c-32 -5 -124 -2 -173 18c-5 23 -4 84 16 110c61 -3 112 -28 113 61v24c-21 -4 -45 -6 -74 -5c-47 2 -81 33 -100 90c-20 58 -37 172 -37 285c-1 122 25 242 70 296c33 39 111 69 189 74
c66 3 133 -15 184 -42c7 -48 9 -127 1 -201c-25 -8 -52 -17 -79 -23c-25 -6 -55 -12 -85 -5c-2 27 -4 49 -6 70c-1 16 -3 30 -6 40c-15 0 -31 -10 -34 -16c-15 -28 -34 -90 -34 -186c0 -94 12 -193 34 -199c12 -4 54 7 62 16c1 27 0 57 0 85s-1 55 5 82c49 16 128 16 166 14
c15 -102 16 -264 5 -359z" />
    <glyph glyph-name="Hcircumflex" unicode="&#x124;" horiz-adv-x="571" 
d="M537 436c0 -131 0 -313 -19 -438c-43 -20 -109 -23 -160 -8c2 76 -8 147 -12 209c-40 -2 -96 -11 -121 -22c-3 -51 -4 -121 -6 -180c-52 -16 -99 -24 -161 -16c-20 220 -11 516 9 719c37 10 122 14 183 8c-9 -106 -17 -218 -12 -277c33 6 77 14 111 16
c8 102 10 198 15 259c32 15 62 19 89 20c26 1 50 0 80 1c8 -106 4 -199 4 -291zM505 787c-28 -20 -103 -26 -134 -25c-16 7 -46 41 -80 83c-19 -24 -37 -49 -57 -77c-39 -7 -108 -12 -148 11c23 28 84 110 131 172c63 11 155 12 155 12c52 -69 100 -131 133 -176z" />
    <glyph glyph-name="hcircumflex" unicode="&#x125;" horiz-adv-x="608" 
d="M531 370c1 -142 0 -230 -6 -377c-23 -31 -158 -24 -183 -5c1 85 8 153 2 228c-26 9 -92 2 -130 -8c0 -86 1 -143 5 -222c-32 -21 -146 -13 -180 -1c-7 115 -12 266 -7 474c0 13 1 63 2 112s3 101 11 123c47 11 157 19 181 -7c-14 -94 -4 -161 -3 -248c26 -6 90 -1 117 8
c-1 91 4 150 6 248c17 19 158 38 182 5c4 -92 2 -239 3 -330zM510 789c-28 -19 -104 -26 -134 -24c-16 6 -46 41 -80 82c-19 -24 -37 -48 -57 -76c-39 -7 -109 -12 -148 10c22 28 84 110 130 172c64 12 156 12 156 12c52 -68 100 -131 133 -176z" />
    <glyph glyph-name="Hbar" unicode="&#x126;" horiz-adv-x="571" 
d="M354 584c-35 -5 -77 -8 -117 -11c-1 -37 -1 -70 1 -94c33 7 77 15 111 18c2 29 4 59 5 87zM537 484c0 -145 0 -348 -19 -486c-43 -23 -109 -25 -160 -9c2 84 -8 163 -12 232c-40 -2 -96 -12 -121 -24c-3 -57 -4 -134 -6 -200c-52 -18 -99 -27 -161 -18
c-20 245 -11 574 9 798c37 12 122 16 183 9c-2 -22 -4 -46 -5 -68h32c30 0 59 0 83 1c1 24 2 46 4 65c32 17 62 21 89 23c26 1 50 0 80 1c8 -118 4 -222 4 -324z" />
    <glyph glyph-name="hbar" unicode="&#x127;" horiz-adv-x="608" 
d="M340 572c-37 -4 -80 -8 -119 -10c1 -24 2 -48 2 -75c26 -6 90 -1 117 10v75zM531 411c1 -158 0 -255 -6 -419c-23 -34 -158 -26 -183 -5c1 94 8 169 2 253c-26 10 -92 2 -130 -9c0 -95 1 -159 5 -246c-32 -24 -146 -15 -180 -1c-7 127 -12 295 -7 526c0 14 1 70 2 125
c1 54 3 112 11 137c47 11 157 20 181 -8c-3 -20 -4 -38 -6 -56c21 0 42 0 64 1h61c0 20 1 41 1 64c17 20 158 41 182 5c4 -103 2 -266 3 -367z" />
    <glyph glyph-name="Itilde" unicode="&#x128;" horiz-adv-x="321" 
d="M250 698c-2 -242 15 -454 0 -693c-32 -19 -155 -26 -197 -3c-9 228 -1 459 2 693c43 14 161 18 195 3zM349 883c-17 -41 -41 -82 -65 -111c-32 -39 -68 -49 -110 -17c-11 9 -24 23 -37 34s-26 19 -37 19c-4 0 -12 -12 -20 -23c-11 -14 -22 -28 -27 -34
c-25 6 -46 25 -63 46c32 57 87 141 143 130c14 -3 24 -9 33 -17c5 -4 9 -8 13 -12c3 -4 7 -8 11 -12c14 -16 25 -28 41 -28c11 0 22 9 33 24c5 7 10 15 14 22c5 8 9 16 17 28c22 -11 47 -29 54 -49z" />
    <glyph glyph-name="itilde" unicode="&#x129;" horiz-adv-x="309" 
d="M250 698c-2 -242 15 -454 0 -693c-32 -19 -155 -26 -197 -3c-9 228 -1 459 2 693c43 14 161 18 195 3zM349 883c-17 -41 -41 -82 -65 -111c-32 -39 -68 -49 -110 -17c-11 9 -24 23 -37 34s-26 19 -37 19c-4 0 -12 -12 -20 -23c-11 -14 -22 -28 -27 -34
c-25 6 -46 25 -63 46c32 57 87 141 143 130c14 -3 24 -9 33 -17c5 -4 9 -8 13 -12c3 -4 7 -8 11 -12c14 -16 25 -28 41 -28c11 0 22 9 33 24c5 7 10 15 14 22c5 8 9 16 17 28c22 -11 47 -29 54 -49z" />
    <glyph glyph-name="Imacron" unicode="&#x12a;" horiz-adv-x="321" 
d="M250 698c-2 -242 15 -454 0 -693c-32 -19 -155 -26 -197 -3c-9 228 -1 459 2 693c43 14 161 18 195 3zM302 913c6 -43 9 -89 -3 -124c-32 -21 -233 -31 -302 -32c0 0 -22 73 5 143c22 5 87 6 149 6c31 0 63 1 88 1c25 1 43 2 63 6z" />
    <glyph glyph-name="imacron" unicode="&#x12b;" horiz-adv-x="309" 
d="M250 698c-2 -242 15 -454 0 -693c-32 -19 -155 -26 -197 -3c-9 228 -1 459 2 693c43 14 161 18 195 3zM302 913c6 -43 9 -89 -3 -124c-32 -21 -233 -31 -302 -32c0 0 -22 73 5 143c22 5 87 6 149 6c31 0 63 1 88 1c25 1 43 2 63 6z" />
    <glyph glyph-name="Iogonek" unicode="&#x12e;" horiz-adv-x="321" 
d="M285 -154c-49 -18 -141 -21 -173 -17c-70 10 -110 53 -112 128c0 39 18 88 53 117c-9 224 -1 451 2 681c43 14 161 18 195 3c-2 -235 14 -442 1 -673c1 0 2 0 3 -1l-3 -3c-1 -5 -1 -10 -1 -16c-7 -4 -19 -8 -33 -10c-43 -38 -83 -82 -47 -102c14 -7 30 -10 47 -9
c18 0 34 3 54 3c18 -24 19 -80 14 -101z" />
    <glyph glyph-name="iogonek" unicode="&#x12f;" horiz-adv-x="309" 
d="M275 -154c-49 -18 -142 -21 -173 -17c-70 10 -111 53 -112 128c-1 42 21 97 63 125c-9 222 -1 446 2 673c43 14 161 18 195 3c-2 -242 15 -454 0 -693c-10 -5 -26 -10 -46 -13c-42 -37 -79 -80 -45 -99c14 -7 31 -10 48 -9c18 0 34 3 53 3c19 -24 20 -80 15 -101z" />
    <glyph glyph-name="Idotaccent" unicode="&#x130;" horiz-adv-x="321" 
d="M250 698c-2 -242 15 -454 0 -693c-32 -19 -155 -26 -197 -3c-9 228 -1 459 2 693c43 14 161 18 195 3zM227 957c37 -39 9 -140 -11 -157c-27 -24 -115 -47 -136 -9c-21 36 -10 127 17 152c32 29 93 51 130 14z" />
    <glyph glyph-name="IJ" unicode="&#x132;" horiz-adv-x="755" 
d="M250 775c-2 -268 15 -504 0 -769c-32 -22 -155 -29 -197 -4c-9 254 -1 510 2 771c43 15 161 19 195 2zM708 225c-1 -60 -5 -120 -21 -166c-24 -68 -99 -100 -161 -103c-45 -2 -157 15 -210 50c-11 36 -13 65 -12 91c2 24 6 47 9 83c39 -10 64 -17 88 -22s46 -8 64 -7
c17 1 37 16 37 70c0 189 -5 365 -10 569c66 18 156 15 214 -4c3 -102 5 -295 2 -392c-1 -48 1 -109 0 -169z" />
    <glyph glyph-name="ij" unicode="&#x133;" horiz-adv-x="767" 
d="M250 775c-2 -268 15 -504 0 -769c-32 -22 -155 -29 -197 -4c-9 254 -1 510 2 771c43 15 161 19 195 2zM708 225c-1 -60 -5 -120 -21 -166c-24 -68 -99 -100 -161 -103c-45 -2 -157 15 -210 50c-11 36 -13 65 -12 91c2 24 6 47 9 83c39 -10 64 -17 88 -22s46 -8 64 -7
c17 1 37 16 37 70c0 189 -5 365 -10 569c66 18 156 15 214 -4c3 -102 5 -295 2 -392c-1 -48 1 -109 0 -169z" />
    <glyph glyph-name="Jcircumflex" unicode="&#x134;" horiz-adv-x="498" 
d="M408 203c-1 -54 -5 -109 -21 -150c-24 -61 -99 -90 -161 -93c-45 -2 -157 14 -210 46c-11 32 -13 58 -12 81c2 22 6 42 9 75c39 -9 64 -16 88 -20s46 -7 64 -6c17 1 37 14 37 63c0 170 -5 328 -10 512c66 16 156 14 214 -4c3 -91 5 -265 2 -353c-1 -43 1 -98 0 -151z
M505 799c-28 -19 -104 -26 -134 -24c-16 6 -46 41 -80 82c-19 -24 -37 -48 -57 -76c-39 -7 -109 -12 -148 10c22 28 84 110 131 172c63 12 155 12 155 12c52 -68 100 -131 133 -176z" />
    <glyph glyph-name="jcircumflex" unicode="&#x135;" horiz-adv-x="465" 
d="M408 203c-1 -54 -5 -109 -21 -150c-24 -61 -99 -90 -161 -93c-45 -2 -157 14 -210 46c-11 32 -13 58 -12 81c2 22 6 42 9 75c39 -9 64 -16 88 -20s46 -7 64 -6c17 1 37 14 37 63c0 170 -5 328 -10 512c66 16 156 14 214 -4c3 -91 5 -265 2 -353c-1 -43 1 -98 0 -151z
M500 789c-28 -19 -104 -26 -134 -24c-16 6 -46 41 -80 82c-19 -24 -37 -48 -57 -76c-39 -7 -109 -12 -148 10c22 28 84 110 130 172c64 12 156 12 156 12c52 -68 100 -131 133 -176z" />
    <glyph glyph-name="uni0136" unicode="&#x136;" horiz-adv-x="541" 
d="M527 728c-10 -46 -29 -85 -51 -131c-23 -45 -50 -97 -78 -164c23 -58 70 -193 116 -344c-17 -11 -43 -25 -73 -36c1 -33 1 -68 1 -97c-2 -75 -42 -118 -113 -128c-32 -4 -124 -1 -173 17c-5 21 -5 77 16 101c61 -2 111 -26 113 56c0 49 -3 53 -7 104c8 3 17 5 28 7
c-6 22 -12 43 -19 63c-10 34 -21 67 -34 96c-7 -10 -14 -20 -17 -27c-4 -59 -6 -104 -8 -180c-42 -24 -139 -18 -182 -6c-3 140 -4 313 4 492c2 50 -2 163 7 229c44 10 132 14 194 2c-5 -32 -13 -150 -12 -247c50 100 93 222 105 264c70 0 140 -36 183 -71z" />
    <glyph glyph-name="uni0137" unicode="&#x137;" horiz-adv-x="611" 
d="M545 74c-19 -15 -52 -31 -87 -41c1 -29 1 -59 0 -84c-2 -74 -41 -118 -113 -127c-31 -5 -124 -2 -172 16c-6 21 -5 77 16 102c60 -3 111 -27 112 56c1 48 -3 52 -7 104c8 2 17 5 27 6c-27 60 -52 124 -77 179l-1 -2c-5 -8 -12 -17 -18 -24c-8 -75 -4 -148 0 -202
c-43 -26 -134 -25 -181 -16c-16 242 -13 480 -2 719c38 19 119 27 178 16c3 -42 2 -130 5 -219c19 28 37 58 54 90c25 45 49 91 75 136c50 3 142 -9 188 -48c-56 -108 -107 -186 -155 -284c45 -137 112 -234 158 -377z" />
    <glyph glyph-name="kgreenlandic" unicode="&#x138;" horiz-adv-x="577" 
d="M482 7c-34 -28 -126 -58 -162 -44c-37 72 -70 162 -101 235l-1 -2c-5 -8 -10 -16 -16 -22c-7 -67 -3 -133 0 -183c-38 -23 -117 -22 -158 -14c-14 219 -12 433 -2 649c33 18 104 25 156 14c3 -37 2 -117 4 -197c17 25 32 53 48 81c21 41 42 82 64 123
c45 3 125 -8 166 -44c-50 -96 -94 -167 -136 -256c39 -124 98 -211 138 -340z" />
    <glyph glyph-name="Lacute" unicode="&#x139;" horiz-adv-x="446" 
d="M395 159c12 -36 7 -143 -21 -160c-82 -17 -165 -20 -256 -18l-18 56l-57 2c-9 113 -7 216 -4 316c4 108 5 229 10 344c53 27 151 34 198 -5c-5 -113 -22 -352 -7 -543c5 -2 15 -1 31 0c25 1 62 4 124 8zM401 891c-33 -28 -161 -124 -184 -134c-20 2 -65 16 -90 33
c29 59 68 116 110 158c24 -2 115 -30 164 -57z" />
    <glyph glyph-name="lacute" unicode="&#x13a;" horiz-adv-x="468" 
d="M424 131c4 -54 2 -88 -16 -138c-56 -24 -175 -29 -276 -23l-13 54l-58 4c-14 128 -14 290 -13 417c1 83 3 163 10 251c25 24 166 21 206 11c0 -63 -20 -378 0 -580c17 -3 37 -2 60 0c28 2 58 5 100 4zM406 891c-33 -27 -161 -124 -183 -133c-20 1 -65 16 -90 33
c28 59 67 115 109 157c25 -1 116 -29 164 -57z" />
    <glyph glyph-name="uni013B" unicode="&#x13b;" horiz-adv-x="446" 
d="M395 219c12 -36 7 -143 -21 -160c-19 -4 -37 -7 -56 -9v-66c-2 -74 -42 -118 -113 -128c-32 -4 -125 -1 -173 17c-5 21 -5 77 16 102c61 -3 111 -27 113 56v10h-43l-18 56l-57 2c-9 113 -7 216 -4 316c4 108 5 229 10 344c53 27 151 34 198 -5c-5 -113 -22 -352 -7 -543
c5 -2 15 -1 31 0c25 1 62 4 124 8z" />
    <glyph glyph-name="uni013C" unicode="&#x13c;" horiz-adv-x="468" 
d="M424 191c4 -54 2 -88 -16 -138c-20 -9 -48 -15 -80 -19c0 -19 0 -39 -1 -56c-2 -74 -42 -118 -113 -127c-31 -5 -124 -2 -172 16c-6 21 -5 77 16 102c60 -3 111 -27 112 56v3c-13 1 -26 1 -38 2l-13 54l-58 4c-14 128 -14 290 -13 417c1 83 3 163 10 251
c25 24 166 21 206 11c0 -63 -20 -378 0 -580c17 -3 37 -2 60 0c28 2 58 5 100 4z" />
    <glyph glyph-name="Lcaron" unicode="&#x13d;" horiz-adv-x="446" 
d="M395 159c12 -36 7 -143 -21 -160c-82 -17 -165 -20 -256 -18l-18 56l-57 2c-9 113 -7 216 -4 316c4 108 5 229 10 344c53 27 151 34 198 -5c-5 -113 -22 -352 -7 -543c5 -2 15 -1 31 0c25 1 62 4 124 8zM370 929c-21 -25 -74 -97 -115 -151c-56 -10 -136 -11 -136 -11
c-46 61 -88 115 -117 155c25 17 91 22 118 21c13 -6 40 -36 69 -72c17 21 33 42 51 67c33 6 95 11 130 -9z" />
    <glyph glyph-name="lcaron" unicode="&#x13e;" horiz-adv-x="468" 
d="M424 131c4 -54 2 -88 -16 -138c-56 -24 -175 -29 -276 -23l-13 54l-58 4c-14 128 -14 290 -13 417c1 83 3 163 10 251c25 24 166 21 206 11c0 -63 -20 -378 0 -580c17 -3 37 -2 60 0c28 2 58 5 100 4zM370 929c-21 -25 -74 -97 -115 -151c-56 -10 -136 -11 -136 -11
c-46 61 -88 115 -117 155c25 17 91 22 118 21c13 -6 40 -36 69 -72c17 21 33 42 51 67c33 6 95 11 130 -9z" />
    <glyph glyph-name="Ldot" unicode="&#x13f;" horiz-adv-x="466" 
d="M395 177c12 -41 7 -160 -21 -178c-82 -19 -165 -22 -256 -20l-18 62l-57 3c-9 124 -7 239 -4 351c4 120 5 254 10 382c53 30 151 37 198 -6c-5 -126 -22 -391 -7 -603c5 -2 15 -1 31 0c25 0 62 4 124 9zM436 696c37 -38 9 -139 -10 -156c-28 -24 -116 -47 -137 -10
s-10 128 17 153c32 29 93 51 130 13z" />
    <glyph glyph-name="ldot" unicode="&#x140;" horiz-adv-x="488" 
d="M424 146c4 -60 2 -98 -16 -154c-56 -26 -175 -32 -276 -25l-13 60l-58 4c-14 142 -14 323 -13 463c1 92 3 182 10 279c25 27 166 24 206 12c0 -70 -20 -419 0 -644c17 -3 37 -2 60 0c28 3 58 6 100 5zM450 697c38 -39 9 -140 -10 -157c-28 -24 -116 -47 -137 -9
c-20 36 -10 127 18 152c31 29 93 51 129 14z" />
    <glyph glyph-name="Nacute" unicode="&#x143;" horiz-adv-x="608" 
d="M521 -13c-49 -16 -135 -21 -181 -8c-53 94 -82 164 -142 289c-5 -89 -1 -181 -1 -281c-33 -12 -122 -17 -155 -1c-15 171 -8 458 0 704c55 17 134 17 174 15c17 -26 47 -90 76 -153c30 -63 58 -126 69 -145c1 -2 1 -3 1 -3c1 0 -1 5 -1 10c0 95 5 202 3 307
c44 12 119 13 156 -6c3 -248 6 -477 1 -728zM516 891c-33 -27 -161 -124 -183 -133c-20 1 -65 16 -90 33c28 59 67 115 109 157c25 -1 116 -29 164 -57z" />
    <glyph glyph-name="nacute" unicode="&#x144;" horiz-adv-x="649" 
d="M521 -13c-49 -16 -135 -21 -181 -8c-53 94 -82 164 -142 289c-5 -89 -1 -181 -1 -281c-33 -12 -122 -17 -155 -1c-15 171 -8 458 0 704c55 17 134 17 174 15c17 -26 47 -90 76 -153c30 -63 58 -126 69 -145c1 -2 1 -3 1 -3c1 0 -1 5 -1 10c0 95 5 202 3 307
c44 12 119 13 156 -6c3 -248 6 -477 1 -728zM516 891c-33 -27 -161 -124 -183 -133c-20 1 -65 16 -90 33c28 59 67 115 109 157c25 -1 116 -29 164 -57z" />
    <glyph glyph-name="uni0145" unicode="&#x145;" horiz-adv-x="608" 
d="M521 -13c-15 -5 -34 -9 -54 -11v-32c-2 -74 -42 -117 -113 -127c-32 -4 -124 -1 -173 16c-5 22 -5 78 16 102c61 -2 111 -26 113 56c0 21 0 34 -1 46c-36 68 -64 133 -111 231c-5 -89 -1 -181 -1 -281c-33 -12 -122 -17 -155 -1c-15 171 -8 458 0 704
c55 17 134 17 174 15c17 -26 47 -90 76 -153c30 -63 58 -126 69 -145c1 -2 1 -3 1 -3c1 0 -1 5 -1 10c0 95 5 202 3 307c44 12 119 13 156 -6c3 -248 6 -477 1 -728z" />
    <glyph glyph-name="uni0146" unicode="&#x146;" horiz-adv-x="649" 
d="M521 -13c-12 -4 -25 -7 -40 -9v-56c-2 -74 -42 -117 -113 -127c-32 -5 -124 -2 -173 16c-5 21 -5 78 16 102c61 -3 111 -26 113 56c0 18 0 30 -1 40c-43 80 -72 148 -125 259c-5 -89 -1 -181 -1 -281c-33 -12 -122 -17 -155 -1c-15 171 -8 458 0 704c55 17 134 17 174 15
c17 -26 47 -90 76 -153c30 -63 58 -126 69 -145c1 -2 1 -3 1 -3c1 0 -1 5 -1 10c0 95 5 202 3 307c44 12 119 13 156 -6c3 -248 6 -477 1 -728z" />
    <glyph glyph-name="Ncaron" unicode="&#x147;" horiz-adv-x="608" 
d="M521 -13c-49 -16 -135 -21 -181 -8c-53 94 -82 164 -142 289c-5 -89 -1 -181 -1 -281c-33 -12 -122 -17 -155 -1c-15 171 -8 458 0 704c55 17 134 17 174 15c17 -26 47 -90 76 -153c30 -63 58 -126 69 -145c1 -2 1 -3 1 -3c1 0 -1 5 -1 10c0 95 5 202 3 307
c44 12 119 13 156 -6c3 -248 6 -477 1 -728zM475 929c-20 -25 -74 -97 -115 -151c-55 -10 -136 -11 -136 -11c-46 61 -88 115 -116 155c24 17 90 22 117 21c14 -6 40 -36 70 -72c16 21 32 42 50 67c34 6 95 11 130 -9z" />
    <glyph glyph-name="ncaron" unicode="&#x148;" horiz-adv-x="649" 
d="M521 -13c-49 -16 -135 -21 -181 -8c-53 94 -82 164 -142 289c-5 -89 -1 -181 -1 -281c-33 -12 -122 -17 -155 -1c-15 171 -8 458 0 704c55 17 134 17 174 15c17 -26 47 -90 76 -153c30 -63 58 -126 69 -145c1 -2 1 -3 1 -3c1 0 -1 5 -1 10c0 95 5 202 3 307
c44 12 119 13 156 -6c3 -248 6 -477 1 -728zM475 929c-20 -25 -74 -97 -115 -151c-55 -10 -136 -11 -136 -11c-46 61 -88 115 -116 155c24 17 90 22 117 21c14 -6 40 -36 70 -72c16 21 32 42 50 67c34 6 95 11 130 -9z" />
    <glyph glyph-name="napostrophe" unicode="&#x149;" horiz-adv-x="688" 
d="M601 -13c-49 -16 -135 -21 -181 -8c-53 94 -82 164 -142 289c-5 -89 -1 -181 -1 -281c-33 -12 -122 -17 -155 -1c-13 145 -10 374 -3 591c-5 -6 -10 -12 -14 -18c-34 3 -81 20 -104 50c25 46 63 162 80 219c32 -5 118 -32 154 -68c-7 -18 -17 -37 -28 -56c34 2 67 2 89 1
c17 -26 47 -90 76 -153c30 -63 58 -126 69 -145c1 -2 1 -3 1 -3c1 0 -1 5 -1 10c0 95 5 202 3 307c44 12 119 13 156 -6c3 -248 6 -477 1 -728z" />
    <glyph glyph-name="Omacron" unicode="&#x14c;" horiz-adv-x="622" 
d="M373 388c-1 34 -1 78 -8 113c-7 37 -21 56 -41 58c-8 1 -17 2 -25 2c-7 0 -11 -2 -14 -4c-23 -19 -38 -59 -46 -96c-21 -93 -19 -214 12 -299c13 -34 60 -32 76 -12c31 39 49 147 46 238zM557 523c24 -96 19 -327 -37 -434c-28 -53 -75 -92 -138 -106
c-95 -20 -198 -9 -251 33c-67 53 -106 156 -107 255c-2 105 7 199 30 265c17 50 51 125 107 163l65 -19l27 54c79 12 149 3 203 -25c32 -16 51 -37 65 -68c6 -14 12 -31 18 -51c5 -19 11 -41 18 -67zM462 923c5 -43 8 -89 -3 -124c-32 -21 -234 -31 -302 -32
c0 0 -22 73 5 143c22 5 87 6 149 6c31 0 62 1 88 1c24 1 43 2 63 6z" />
    <glyph glyph-name="omacron" unicode="&#x14d;" horiz-adv-x="594" 
d="M367 374c0 39 -6 77 -11 115c-5 34 -8 85 -56 85c-11 0 -22 -4 -31 -13c-34 -31 -45 -211 -45 -259c0 -53 4 -189 70 -189c80 0 73 201 73 261zM563 377c0 -102 -2 -298 -122 -387c-58 -42 -235 -40 -292 0c-63 44 -92 111 -105 178c-14 66 -12 134 -12 185
c0 94 8 201 52 290c11 22 39 48 75 69c19 -10 33 -19 46 -26c7 -3 14 -7 18 -9c6 7 9 14 12 21c2 4 3 9 5 13c2 5 5 10 13 21c83 7 215 11 263 -89c38 -81 47 -180 47 -266zM442 923c5 -43 8 -89 -3 -124c-32 -21 -234 -31 -302 -32c0 0 -22 73 5 143c22 5 87 6 149 6
c31 0 62 1 88 1c24 1 43 2 63 6z" />
    <glyph glyph-name="Obreve" unicode="&#x14e;" horiz-adv-x="622" 
d="M373 388c-1 34 -1 78 -8 113c-7 37 -21 56 -41 58c-8 1 -17 2 -25 2c-7 0 -11 -2 -14 -4c-23 -19 -38 -59 -46 -96c-21 -93 -19 -214 12 -299c13 -34 60 -32 76 -12c31 39 49 147 46 238zM557 523c24 -96 19 -327 -37 -434c-28 -53 -75 -92 -138 -106
c-95 -20 -198 -9 -251 33c-67 53 -106 156 -107 255c-2 105 7 199 30 265c17 50 51 125 107 163l65 -19l27 54c79 12 149 3 203 -25c32 -16 51 -37 65 -68c6 -14 12 -31 18 -51c5 -19 11 -41 18 -67zM507 927c-23 -51 -59 -120 -123 -149c-43 -19 -113 -18 -145 -1
c-69 38 -96 81 -115 143c35 19 99 25 126 24c14 -20 10 -59 61 -64c20 -2 42 23 57 58c37 7 96 10 139 -11z" />
    <glyph glyph-name="obreve" unicode="&#x14f;" horiz-adv-x="594" 
d="M367 374c0 39 -6 77 -11 115c-5 34 -8 85 -56 85c-11 0 -22 -4 -31 -13c-34 -31 -45 -211 -45 -259c0 -53 4 -189 70 -189c80 0 73 201 73 261zM563 377c0 -102 -2 -298 -122 -387c-58 -42 -235 -40 -292 0c-63 44 -92 111 -105 178c-14 66 -12 134 -12 185
c0 94 8 201 52 290c11 22 39 48 75 69c19 -10 33 -19 46 -26c7 -3 14 -7 18 -9c6 7 9 14 12 21c2 4 3 9 5 13c2 5 5 10 13 21c83 7 215 11 263 -89c38 -81 47 -180 47 -266zM497 927c-23 -51 -59 -120 -123 -149c-43 -19 -113 -18 -145 -1c-69 38 -96 81 -115 143
c35 19 99 25 126 24c14 -20 10 -59 61 -64c20 -2 42 23 57 58c37 7 96 10 139 -11z" />
    <glyph glyph-name="Ohungarumlaut" unicode="&#x150;" horiz-adv-x="622" 
d="M373 388c-1 34 -1 78 -8 113c-7 37 -21 56 -41 58c-8 1 -17 2 -25 2c-7 0 -11 -2 -14 -4c-23 -19 -38 -59 -46 -96c-21 -93 -19 -214 12 -299c13 -34 60 -32 76 -12c31 39 49 147 46 238zM557 523c24 -96 19 -327 -37 -434c-28 -53 -75 -92 -138 -106
c-95 -20 -198 -9 -251 33c-67 53 -106 156 -107 255c-2 105 7 199 30 265c17 50 51 125 107 163l65 -19l27 54c79 12 149 3 203 -25c32 -16 51 -37 65 -68c6 -14 12 -31 18 -51c5 -19 11 -41 18 -67zM247 965l165 -4l-135 -184l-117 15zM467 967l188 -7l-180 -182l-127 15z
" />
    <glyph glyph-name="ohungarumlaut" unicode="&#x151;" horiz-adv-x="594" 
d="M367 374c0 39 -6 77 -11 115c-5 34 -8 85 -56 85c-11 0 -22 -4 -31 -13c-34 -31 -45 -211 -45 -259c0 -53 4 -189 70 -189c80 0 73 201 73 261zM563 377c0 -102 -2 -298 -122 -387c-58 -42 -235 -40 -292 0c-63 44 -92 111 -105 178c-14 66 -12 134 -12 185
c0 94 8 201 52 290c11 22 39 48 75 69c19 -10 33 -19 46 -26c7 -3 14 -7 18 -9c6 7 9 14 12 21c2 4 3 9 5 13c2 5 5 10 13 21c83 7 215 11 263 -89c38 -81 47 -180 47 -266zM227 955l165 -4l-135 -184l-117 15zM447 957l188 -7l-180 -182l-127 15z" />
    <glyph glyph-name="Racute" unicode="&#x154;" horiz-adv-x="584" 
d="M305 553c-22 22 -58 14 -64 -1c-17 -45 -26 -204 -4 -213c16 -6 33 -1 51 14c37 32 55 159 17 200zM547 22c-51 -34 -102 -52 -172 -53c-25 47 -95 137 -141 180c-6 -48 -5 -125 -4 -152c-40 -26 -139 -25 -187 -6c-10 220 0 418 10 571l-48 3c0 39 14 120 33 154
c91 14 292 12 333 4c57 -11 120 -46 140 -111c23 -81 22 -175 7 -245c-15 -63 -53 -106 -102 -136c35 -40 96 -121 131 -209zM499 908c-33 -28 -161 -124 -184 -134c-20 2 -65 16 -90 33c28 59 67 116 110 158c24 -2 115 -30 164 -57z" />
    <glyph glyph-name="racute" unicode="&#x155;" horiz-adv-x="617" 
d="M305 553c-22 22 -58 14 -64 -1c-17 -45 -26 -204 -4 -213c16 -6 33 -1 51 14c37 32 55 159 17 200zM547 22c-51 -34 -102 -52 -172 -53c-25 47 -95 137 -141 180c-6 -48 -5 -125 -4 -152c-40 -26 -139 -25 -187 -6c-10 220 0 418 10 571l-48 3c0 39 14 120 33 154
c91 14 292 12 333 4c57 -11 120 -46 140 -111c23 -81 22 -175 7 -245c-15 -63 -53 -106 -102 -136c35 -40 96 -121 131 -209zM506 901c-33 -27 -161 -124 -183 -133c-20 1 -65 16 -90 33c28 59 67 115 109 157c25 -1 116 -29 164 -57z" />
    <glyph glyph-name="uni0156" unicode="&#x156;" horiz-adv-x="584" 
d="M305 613c-22 22 -58 14 -64 -1c-17 -45 -26 -204 -4 -213c16 -6 33 -1 51 14c37 32 55 159 17 200zM547 82c-38 -25 -76 -42 -121 -49c1 -28 1 -57 0 -82c-2 -74 -42 -117 -113 -127c-32 -4 -124 -1 -173 16c-5 22 -4 78 16 102c61 -2 112 -26 113 56c1 49 -3 52 -7 104
c14 5 35 8 57 10c-28 36 -60 74 -85 97c-6 -48 -5 -125 -4 -152c-40 -26 -139 -25 -187 -6c-10 220 0 418 10 571l-48 3c0 39 14 120 33 154c91 14 292 12 333 4c57 -11 120 -46 140 -111c23 -81 22 -175 7 -245c-15 -63 -53 -106 -102 -136c35 -40 96 -121 131 -209z" />
    <glyph glyph-name="uni0157" unicode="&#x157;" horiz-adv-x="617" 
d="M305 613c-22 22 -58 14 -64 -1c-17 -45 -26 -204 -4 -213c16 -6 33 -1 51 14c37 32 55 159 17 200zM547 82c-34 -22 -67 -38 -105 -46v-74c-2 -74 -42 -117 -113 -127c-32 -4 -125 -1 -173 16c-5 22 -5 78 16 102c61 -3 111 -26 113 56c0 49 -4 52 -7 104c9 3 21 6 34 8
c-26 33 -55 67 -78 88c-6 -48 -5 -125 -4 -152c-40 -26 -139 -25 -187 -6c-10 220 0 418 10 571l-48 3c0 39 14 120 33 154c91 14 292 12 333 4c57 -11 120 -46 140 -111c23 -81 22 -175 7 -245c-15 -63 -53 -106 -102 -136c35 -40 96 -121 131 -209z" />
    <glyph glyph-name="Rcaron" unicode="&#x158;" horiz-adv-x="584" 
d="M305 553c-22 22 -58 14 -64 -1c-17 -45 -26 -204 -4 -213c16 -6 33 -1 51 14c37 32 55 159 17 200zM547 22c-51 -34 -102 -52 -172 -53c-25 47 -95 137 -141 180c-6 -48 -5 -125 -4 -152c-40 -26 -139 -25 -187 -6c-10 220 0 418 10 571l-48 3c0 39 14 120 33 154
c91 14 292 12 333 4c57 -11 120 -46 140 -111c23 -81 22 -175 7 -245c-15 -63 -53 -106 -102 -136c35 -40 96 -121 131 -209zM455 929c-20 -25 -74 -97 -115 -151c-55 -10 -136 -11 -136 -11c-46 61 -88 115 -116 155c24 17 90 22 117 21c14 -6 40 -36 70 -72
c16 21 32 42 50 67c34 6 95 11 130 -9z" />
    <glyph glyph-name="rcaron" unicode="&#x159;" horiz-adv-x="617" 
d="M305 553c-22 22 -58 14 -64 -1c-17 -45 -26 -204 -4 -213c16 -6 33 -1 51 14c37 32 55 159 17 200zM547 22c-51 -34 -102 -52 -172 -53c-25 47 -95 137 -141 180c-6 -48 -5 -125 -4 -152c-40 -26 -139 -25 -187 -6c-10 220 0 418 10 571l-48 3c0 39 14 120 33 154
c91 14 292 12 333 4c57 -11 120 -46 140 -111c23 -81 22 -175 7 -245c-15 -63 -53 -106 -102 -136c35 -40 96 -121 131 -209zM465 929c-20 -25 -74 -97 -115 -151c-55 -10 -136 -11 -136 -11c-46 61 -88 115 -116 155c24 17 90 22 117 21c14 -6 40 -36 70 -72
c16 21 32 42 50 67c34 6 95 11 130 -9z" />
    <glyph glyph-name="Sacute" unicode="&#x15a;" horiz-adv-x="514" 
d="M467 178c3 -141 -69 -199 -215 -210c-78 -5 -142 3 -196 28c-17 45 -17 92 -11 148c43 -17 87 -24 109 -25c40 -2 100 -3 106 35c2 12 4 30 -5 38c-12 12 -27 18 -44 23s-36 7 -53 10c-38 7 -78 19 -99 69c-42 100 -31 299 16 362c66 89 291 80 368 46
c7 -49 9 -163 1 -239c-43 -12 -116 -28 -161 -19c-7 32 -11 84 -14 134c-11 -2 -20 -8 -30 -20c-9 -11 -11 -150 1 -163c15 -15 40 -19 72 -23c33 -4 67 -7 95 -25c48 -33 58 -68 60 -169zM456 901c-33 -27 -161 -124 -183 -133c-20 1 -65 16 -90 33c28 59 67 115 109 157
c25 -1 116 -29 164 -57z" />
    <glyph glyph-name="sacute" unicode="&#x15b;" horiz-adv-x="528" 
d="M436 466c-31 -13 -107 -32 -158 -25c1 55 -1 88 -5 105c-1 7 -5 8 -12 7c-8 -2 -16 -9 -18 -19c-3 -14 -23 -110 -1 -142c9 -13 20 -20 35 -25c8 -3 16 -5 24 -6c9 -2 18 -4 27 -5c38 -7 81 -18 99 -69c37 -102 15 -210 -33 -269c-60 -73 -261 -59 -341 -34
c-13 58 -10 89 -1 132c72 -9 157 -11 197 16c9 6 16 48 3 62c-14 16 -36 21 -64 26c-15 2 -30 4 -44 8c-15 5 -30 11 -44 21c-44 34 -65 83 -69 185c-7 193 67 281 216 286c76 3 126 1 180 -25c13 -45 16 -185 9 -229zM466 901c-33 -27 -161 -124 -183 -133
c-20 1 -65 16 -90 33c28 59 67 115 109 157c25 -1 116 -29 164 -57z" />
    <glyph glyph-name="Scircumflex" unicode="&#x15c;" horiz-adv-x="514" 
d="M467 178c3 -141 -69 -199 -215 -210c-78 -5 -142 3 -196 28c-17 45 -17 92 -11 148c43 -17 87 -24 109 -25c40 -2 100 -3 106 35c2 12 4 30 -5 38c-12 12 -27 18 -44 23s-36 7 -53 10c-38 7 -78 19 -99 69c-42 100 -31 299 16 362c66 89 291 80 368 46
c7 -49 9 -163 1 -239c-43 -12 -116 -28 -161 -19c-7 32 -11 84 -14 134c-11 -2 -20 -8 -30 -20c-9 -11 -11 -150 1 -163c15 -15 40 -19 72 -23c33 -4 67 -7 95 -25c48 -33 58 -68 60 -169zM460 799c-28 -19 -104 -26 -134 -24c-16 6 -46 41 -80 82c-19 -24 -37 -48 -57 -76
c-39 -7 -109 -12 -148 10c22 28 84 110 130 172c64 12 156 12 156 12c52 -68 100 -131 133 -176z" />
    <glyph glyph-name="scircumflex" unicode="&#x15d;" horiz-adv-x="528" 
d="M436 466c-31 -13 -107 -32 -158 -25c1 55 -1 88 -5 105c-1 7 -5 8 -12 7c-8 -2 -16 -9 -18 -19c-3 -14 -23 -110 -1 -142c9 -13 20 -20 35 -25c8 -3 16 -5 24 -6c9 -2 18 -4 27 -5c38 -7 81 -18 99 -69c37 -102 15 -210 -33 -269c-60 -73 -261 -59 -341 -34
c-13 58 -10 89 -1 132c72 -9 157 -11 197 16c9 6 16 48 3 62c-14 16 -36 21 -64 26c-15 2 -30 4 -44 8c-15 5 -30 11 -44 21c-44 34 -65 83 -69 185c-7 193 67 281 216 286c76 3 126 1 180 -25c13 -45 16 -185 9 -229zM460 799c-28 -19 -104 -26 -134 -24
c-16 6 -46 41 -80 82c-19 -24 -37 -48 -57 -76c-39 -7 -109 -12 -148 10c22 28 84 110 130 172c64 12 156 12 156 12c52 -68 100 -131 133 -176z" />
    <glyph glyph-name="Scedilla" unicode="&#x15e;" horiz-adv-x="514" 
d="M467 238c2 -108 -39 -167 -125 -194c1 -26 1 -53 0 -76c-2 -74 -41 -117 -113 -127c-31 -4 -124 -1 -172 17c-6 21 -5 77 16 101c60 -2 111 -26 112 56v12c-49 2 -92 12 -129 29c-17 45 -17 92 -11 148c43 -17 87 -24 109 -25c40 -2 100 -3 106 35c2 12 4 30 -5 38
c-12 12 -27 18 -44 23s-36 7 -53 10c-38 7 -78 19 -99 69c-42 100 -31 299 16 362c66 89 291 80 368 46c7 -49 9 -163 1 -239c-43 -12 -116 -28 -161 -19c-7 32 -11 84 -14 134c-11 -2 -20 -8 -30 -20c-9 -11 -11 -150 1 -163c15 -15 40 -19 72 -23c33 -4 67 -7 95 -25
c48 -33 58 -68 60 -169z" />
    <glyph glyph-name="scedilla" unicode="&#x15f;" horiz-adv-x="528" 
d="M436 526c-31 -13 -107 -32 -158 -25c1 55 -1 88 -5 105c-1 7 -5 8 -12 7c-8 -2 -16 -9 -18 -19c-3 -14 -23 -110 -1 -142c9 -13 20 -20 35 -25c8 -3 16 -5 24 -6c9 -2 18 -4 27 -5c38 -7 81 -18 99 -69c37 -102 15 -210 -33 -269c-12 -15 -30 -26 -52 -34
c1 -25 1 -50 0 -72c-2 -75 -42 -118 -113 -128c-31 -4 -124 -1 -173 17c-5 21 -4 77 16 101c61 -2 112 -26 113 57v5c-52 2 -101 10 -132 20c-13 58 -10 89 -1 132c72 -9 157 -11 197 16c9 6 16 48 3 62c-14 16 -36 21 -64 26c-15 2 -30 4 -44 8c-15 5 -30 11 -44 21
c-44 34 -65 83 -69 185c-7 193 67 281 216 286c76 3 126 1 180 -25c13 -45 16 -185 9 -229z" />
    <glyph glyph-name="uni0162" unicode="&#x162;" horiz-adv-x="517" 
d="M470 775c10 -68 10 -111 -35 -163c-39 -5 -66 -6 -99 -6c-4 -92 -22 -541 -22 -541c-13 -7 -28 -13 -44 -17c-40 -35 -74 -76 -41 -95c14 -7 31 -10 48 -9c18 0 34 3 53 3c19 -24 20 -80 15 -101c-49 -18 -142 -21 -173 -17c-70 10 -111 53 -112 128c-1 47 26 109 76 133
c-6 146 -3 316 0 463c11 14 24 29 40 44c-12 -2 -26 -3 -41 -5c-38 -3 -80 -6 -113 -4c-18 52 3 145 16 174c32 9 375 18 432 13z" />
    <glyph glyph-name="uni0163" unicode="&#x163;" horiz-adv-x="517" 
d="M470 775c10 -68 10 -111 -35 -163c-39 -5 -66 -6 -99 -6c-4 -80 -18 -433 -22 -521l2 -1l-2 -1v-18c-13 -7 -26 -12 -41 -16c-41 -36 -75 -77 -42 -96c15 -7 31 -10 48 -9c18 0 34 3 53 3c19 -24 20 -80 15 -101c-49 -18 -142 -21 -173 -17c-70 10 -111 53 -112 128
c-1 46 26 107 74 132c-6 146 -3 317 0 464c11 14 24 29 40 44c-12 -2 -26 -3 -41 -5c-38 -3 -80 -6 -113 -4c-18 52 3 145 16 174c32 9 375 18 432 13z" />
    <glyph glyph-name="Tcaron" unicode="&#x164;" horiz-adv-x="517" 
d="M470 715c10 -68 10 -111 -35 -163c-39 -5 -66 -6 -99 -6c-4 -92 -22 -541 -22 -541c-52 -27 -130 -32 -177 -6c-7 153 -4 337 -1 494c11 14 24 29 40 44c-12 -2 -26 -3 -41 -5c-38 -3 -80 -6 -113 -4c-18 52 3 145 16 174c32 9 375 18 432 13zM415 919
c-20 -25 -74 -97 -115 -151c-55 -10 -136 -11 -136 -11c-46 61 -88 115 -116 155c24 17 90 22 117 21c14 -6 40 -36 70 -72c16 21 32 42 50 67c34 6 95 11 130 -9z" />
    <glyph glyph-name="tcaron" unicode="&#x165;" horiz-adv-x="517" 
d="M470 715c10 -68 10 -111 -35 -163c-39 -5 -66 -6 -99 -6c-4 -92 -22 -541 -22 -541c-52 -27 -130 -32 -177 -6c-7 153 -4 337 -1 494c11 14 24 29 40 44c-12 -2 -26 -3 -41 -5c-38 -3 -80 -6 -113 -4c-18 52 3 145 16 174c32 9 375 18 432 13zM435 919
c-20 -25 -74 -97 -115 -151c-55 -10 -136 -11 -136 -11c-46 61 -88 115 -116 155c24 17 90 22 117 21c14 -6 40 -36 70 -72c16 21 32 42 50 67c34 6 95 11 130 -9z" />
    <glyph glyph-name="Tbar" unicode="&#x166;" horiz-adv-x="517" 
d="M470 795c10 -76 10 -123 -35 -182c-39 -5 -66 -6 -99 -7l-4 -86h8c29 1 50 2 73 6c6 -47 10 -98 -3 -136c-12 -7 -43 -13 -83 -18c-6 -171 -13 -367 -13 -367c-52 -30 -130 -35 -177 -7c-4 111 -5 237 -4 359c-28 -1 -53 -2 -70 -2c0 0 -26 81 6 157c12 3 37 4 67 5v31
c11 16 24 32 40 48c-12 -1 -26 -3 -41 -4c-38 -4 -80 -8 -113 -5c-18 57 3 161 16 193c32 10 375 20 432 15z" />
    <glyph glyph-name="tbar" unicode="&#x167;" horiz-adv-x="517" 
d="M470 795c10 -76 10 -123 -35 -182c-39 -5 -66 -6 -99 -7l-4 -108h17c28 1 49 1 72 6c6 -47 10 -98 -3 -136c-13 -8 -48 -14 -92 -20c-6 -165 -12 -343 -12 -343c-52 -30 -130 -35 -177 -7c-4 104 -5 221 -4 336c-25 -1 -46 -1 -62 -1c0 0 -26 80 6 157c11 2 32 4 58 5
c0 18 1 35 1 53c11 16 24 32 40 48c-12 -1 -26 -3 -41 -4c-38 -4 -80 -8 -113 -5c-18 57 3 161 16 193c32 10 375 20 432 15z" />
    <glyph glyph-name="Utilde" unicode="&#x168;" horiz-adv-x="583" 
d="M524 105c-1 -24 -4 -60 -13 -83c-26 -27 -108 -36 -162 -23v51c-24 -10 -56 -24 -91 -35c-46 -15 -99 -25 -148 -17c-31 6 -71 35 -74 94c-3 69 -17 360 19 619c68 22 143 18 188 -14c-6 -62 -13 -146 -17 -236c-3 -87 -4 -180 6 -257c31 -8 85 21 92 43
c5 64 12 233 15 452c45 25 124 28 177 8c13 -170 12 -401 8 -602zM510 906c-19 -43 -48 -86 -76 -117c-37 -42 -80 -53 -129 -18c-14 9 -28 24 -44 36c-15 12 -30 20 -43 20c-4 0 -14 -13 -24 -25c-13 -14 -25 -29 -31 -36c-30 7 -54 27 -74 49c37 61 102 151 168 138
c15 -3 28 -9 39 -17c5 -4 10 -8 14 -13c5 -4 9 -8 13 -13c17 -17 30 -29 49 -29c13 0 26 9 38 25c7 7 12 16 18 24c5 8 10 16 19 29c26 -12 55 -31 63 -53z" />
    <glyph glyph-name="utilde" unicode="&#x169;" horiz-adv-x="618" 
d="M543 718c15 -250 4 -487 -9 -733c-33 -5 -99 -17 -181 -22c0 21 -1 27 -2 34c-1 3 -1 6 -2 9c-48 -17 -100 -31 -143 -37c-136 -15 -170 49 -172 169c-2 119 -1 240 6 359c4 61 5 133 14 201c30 11 62 15 93 16c30 2 62 2 101 2c-14 -193 -25 -347 -15 -524
c2 -28 29 -44 58 -43c36 2 54 25 54 57c0 102 -1 159 1 260c1 87 -1 154 2 250c43 7 81 7 113 6s60 -3 82 -4zM510 906c-19 -43 -48 -86 -76 -117c-37 -42 -80 -53 -129 -18c-14 9 -28 24 -44 36c-15 12 -30 20 -43 20c-4 0 -14 -13 -24 -25c-13 -14 -25 -29 -31 -36
c-30 7 -54 27 -74 49c37 61 102 151 168 138c15 -3 28 -9 39 -17c5 -4 10 -8 14 -13c5 -4 9 -8 13 -13c17 -17 30 -29 49 -29c13 0 26 9 38 25c7 7 12 16 18 24c5 8 10 16 19 29c26 -12 55 -31 63 -53z" />
    <glyph glyph-name="Umacron" unicode="&#x16a;" horiz-adv-x="583" 
d="M524 105c-1 -24 -4 -60 -13 -83c-26 -27 -108 -36 -162 -23v51c-24 -10 -56 -24 -91 -35c-46 -15 -99 -25 -148 -17c-31 6 -71 35 -74 94c-3 69 -17 360 19 619c68 22 143 18 188 -14c-6 -62 -13 -146 -17 -236c-3 -87 -4 -180 6 -257c31 -8 85 21 92 43
c5 64 12 233 15 452c45 25 124 28 177 8c13 -170 12 -401 8 -602zM472 934c6 -47 10 -98 -3 -136c-37 -23 -269 -34 -347 -36c0 0 -26 81 6 158c25 5 99 6 170 7c36 0 72 0 102 1c28 1 49 1 72 6z" />
    <glyph glyph-name="umacron" unicode="&#x16b;" horiz-adv-x="618" 
d="M543 718c15 -250 4 -487 -9 -733c-33 -5 -99 -17 -181 -22c0 21 -1 27 -2 34c-1 3 -1 6 -2 9c-48 -17 -100 -31 -143 -37c-136 -15 -170 49 -172 169c-2 119 -1 240 6 359c4 61 5 133 14 201c30 11 62 15 93 16c30 2 62 2 101 2c-14 -193 -25 -347 -15 -524
c2 -28 29 -44 58 -43c36 2 54 25 54 57c0 102 -1 159 1 260c1 87 -1 154 2 250c43 7 81 7 113 6s60 -3 82 -4zM482 934c6 -47 10 -98 -3 -136c-37 -23 -269 -34 -347 -36c0 0 -26 81 6 158c25 5 99 6 170 7c36 0 72 0 102 1c28 1 49 1 72 6z" />
    <glyph glyph-name="Ubreve" unicode="&#x16c;" horiz-adv-x="583" 
d="M524 105c-1 -24 -4 -60 -13 -83c-26 -27 -108 -36 -162 -23v51c-24 -10 -56 -24 -91 -35c-46 -15 -99 -25 -148 -17c-31 6 -71 35 -74 94c-3 69 -17 360 19 619c68 22 143 18 188 -14c-6 -62 -13 -146 -17 -236c-3 -87 -4 -180 6 -257c31 -8 85 21 92 43
c5 64 12 233 15 452c45 25 124 28 177 8c13 -170 12 -401 8 -602zM487 927c-23 -51 -59 -120 -123 -149c-43 -19 -113 -18 -145 -1c-69 38 -96 81 -115 143c35 19 99 25 126 24c14 -20 10 -59 61 -64c20 -2 42 23 57 58c37 7 96 10 139 -11z" />
    <glyph glyph-name="ubreve" unicode="&#x16d;" horiz-adv-x="618" 
d="M543 718c15 -250 4 -487 -9 -733c-33 -5 -99 -17 -181 -22c0 21 -1 27 -2 34c-1 3 -1 6 -2 9c-48 -17 -100 -31 -143 -37c-136 -15 -170 49 -172 169c-2 119 -1 240 6 359c4 61 5 133 14 201c30 11 62 15 93 16c30 2 62 2 101 2c-14 -193 -25 -347 -15 -524
c2 -28 29 -44 58 -43c36 2 54 25 54 57c0 102 -1 159 1 260c1 87 -1 154 2 250c43 7 81 7 113 6s60 -3 82 -4zM487 927c-23 -51 -59 -120 -123 -149c-43 -19 -113 -18 -145 -1c-69 38 -96 81 -115 143c35 19 99 25 126 24c14 -20 10 -59 61 -64c20 -2 42 23 57 58
c37 7 96 10 139 -11z" />
    <glyph glyph-name="Uring" unicode="&#x16e;" horiz-adv-x="583" 
d="M295 873c-2 6 -6 13 -21 10c-22 -5 -27 -28 -28 -48c-2 -25 9 -48 30 -37c28 14 27 59 19 75zM524 105c-1 -24 -4 -60 -13 -83c-26 -27 -108 -36 -162 -23v51c-24 -10 -56 -24 -91 -35c-46 -15 -99 -25 -148 -17c-31 6 -71 35 -74 94c-3 69 -17 360 19 619
c68 22 143 18 188 -14c-6 -62 -13 -146 -17 -236c-3 -87 -4 -180 6 -257c31 -8 85 21 92 43c5 64 12 233 15 452c45 25 124 28 177 8c13 -170 12 -401 8 -602zM407 906c36 -31 34 -99 -6 -129c-17 -13 -36 -25 -74 -29c-153 -16 -198 17 -206 61c-8 43 20 97 69 111
c61 18 182 16 217 -14z" />
    <glyph glyph-name="uring" unicode="&#x16f;" horiz-adv-x="618" 
d="M325 883c-2 6 -6 13 -21 10c-22 -5 -27 -28 -28 -48c-2 -25 9 -48 30 -37c28 14 27 59 19 75zM543 718c15 -250 4 -487 -9 -733c-33 -5 -99 -17 -181 -22c0 21 -1 27 -2 34c-1 3 -1 6 -2 9c-48 -17 -100 -31 -143 -37c-136 -15 -170 49 -172 169c-2 119 -1 240 6 359
c4 61 5 133 14 201c30 11 62 15 93 16c30 2 62 2 101 2c-14 -193 -25 -347 -15 -524c2 -28 29 -44 58 -43c36 2 54 25 54 57c0 102 -1 159 1 260c1 87 -1 154 2 250c43 7 81 7 113 6s60 -3 82 -4zM437 916c36 -31 34 -99 -6 -129c-17 -13 -36 -25 -74 -29
c-153 -16 -198 17 -206 61c-8 43 20 97 69 111c61 18 182 16 217 -14z" />
    <glyph glyph-name="Uhungarumlaut" unicode="&#x170;" horiz-adv-x="583" 
d="M524 105c-1 -24 -4 -60 -13 -83c-26 -27 -108 -36 -162 -23v51c-24 -10 -56 -24 -91 -35c-46 -15 -99 -25 -148 -17c-31 6 -71 35 -74 94c-3 69 -17 360 19 619c68 22 143 18 188 -14c-6 -62 -13 -146 -17 -236c-3 -87 -4 -180 6 -257c31 -8 85 21 92 43
c5 64 12 233 15 452c45 25 124 28 177 8c13 -170 12 -401 8 -602zM197 960l165 -3l-135 -185l-117 15zM417 963l189 -8l-180 -181l-127 14z" />
    <glyph glyph-name="uhungarumlaut" unicode="&#x171;" horiz-adv-x="618" 
d="M543 718c15 -250 4 -487 -9 -733c-33 -5 -99 -17 -181 -22c0 21 -1 27 -2 34c-1 3 -1 6 -2 9c-48 -17 -100 -31 -143 -37c-136 -15 -170 49 -172 169c-2 119 -1 240 6 359c4 61 5 133 14 201c30 11 62 15 93 16c30 2 62 2 101 2c-14 -193 -25 -347 -15 -524
c2 -28 29 -44 58 -43c36 2 54 25 54 57c0 102 -1 159 1 260c1 87 -1 154 2 250c43 7 81 7 113 6s60 -3 82 -4zM218 950l165 -4l-135 -184l-117 15zM438 952l189 -7l-180 -182l-127 15z" />
    <glyph glyph-name="Uogonek" unicode="&#x172;" horiz-adv-x="583" 
d="M545 -142c-49 -18 -142 -21 -173 -17c-70 10 -111 53 -112 128c-1 51 31 119 89 138v3c-24 -10 -56 -24 -91 -35c-46 -15 -99 -25 -148 -16c-31 5 -71 34 -74 93c-3 69 -17 360 19 619c68 22 143 18 188 -14c-6 -62 -13 -146 -17 -236c-3 -87 -4 -180 6 -257
c31 -8 85 21 92 43c5 64 12 233 15 452c45 25 124 28 177 8c13 -170 12 -401 8 -602c-1 -24 -4 -60 -13 -83c-8 -9 -22 -15 -39 -20c-41 -36 -77 -78 -43 -97c14 -8 31 -10 48 -10c18 1 34 4 53 4c19 -24 20 -80 15 -101z" />
    <glyph glyph-name="uogonek" unicode="&#x173;" horiz-adv-x="618" 
d="M563 -172c-48 -18 -141 -21 -172 -17c-71 10 -111 53 -112 128c-1 42 21 96 61 124c-45 -16 -93 -29 -134 -33c-136 -16 -170 48 -172 168c-2 119 -1 240 6 359c4 61 5 133 14 201c30 11 62 15 93 16c30 2 62 2 101 2c-14 -193 -25 -347 -15 -524c2 -28 29 -44 58 -43
c36 2 54 25 54 57c0 102 -1 159 1 260c1 87 -1 154 2 250c43 7 81 7 113 6s60 -3 82 -4c15 -250 4 -487 -9 -733c-9 -2 -21 -3 -35 -6c-45 -37 -87 -84 -51 -104c14 -7 31 -10 47 -9c18 0 35 3 54 3c19 -24 20 -80 14 -101z" />
    <glyph glyph-name="Wcircumflex" unicode="&#x174;" horiz-adv-x="855" 
d="M816 690c-21 -198 -75 -534 -123 -697c-35 -18 -165 -23 -227 0c-13 65 -25 170 -30 193c-1 6 -5 24 -9 40c-3 11 1 23 -4 23c-4 -1 -2 -11 -4 -19c-4 -14 -6 -30 -7 -35c-3 -15 -7 -55 -12 -95c-5 -39 -11 -82 -20 -101c-35 -24 -188 -35 -243 -8
c-61 232 -97 481 -120 686c42 29 135 40 181 34c20 -169 54 -392 58 -406c0 -3 9 -10 12 3c39 165 62 283 87 391c35 7 123 7 156 -6c16 -129 31 -251 59 -368c2 -11 -3 -16 0 -14c2 1 6 6 6 8c17 93 34 287 49 401c40 13 163 10 191 -30zM630 779
c-28 -19 -104 -26 -134 -24c-16 6 -46 41 -80 82c-19 -24 -37 -48 -57 -76c-39 -7 -109 -12 -148 10c22 28 84 110 130 172c64 12 156 12 156 12c52 -68 100 -131 133 -176z" />
    <glyph glyph-name="wcircumflex" unicode="&#x175;" horiz-adv-x="858" 
d="M796 702c-11 -106 -110 -516 -165 -711c-40 -19 -135 -32 -186 -10c-18 72 -22 177 -40 261c-18 -69 -44 -202 -58 -260c-46 -21 -157 -29 -213 -13c-29 36 -114 651 -124 733c44 26 116 33 194 15c20 -193 32 -253 60 -394c6 23 9 37 12 51c4 17 7 34 15 69
c17 67 35 165 41 197c2 8 3 20 5 32s5 26 12 38c31 16 112 18 140 12c12 -54 23 -140 34 -220c11 -81 21 -154 29 -180c29 95 52 273 78 389c51 13 149 5 166 -9zM640 799c-28 -19 -104 -26 -134 -24c-16 6 -46 41 -80 82c-19 -24 -37 -48 -57 -76c-39 -7 -109 -12 -148 10
c22 28 84 110 130 172c64 12 156 12 156 12c52 -68 100 -131 133 -176z" />
    <glyph glyph-name="Ycircumflex" unicode="&#x176;" horiz-adv-x="529" 
d="M509 707c-38 -146 -115 -310 -161 -415c-2 -78 -4 -213 -6 -306c-54 -14 -127 -17 -190 -3c-7 102 -6 207 -2 324c-19 44 -54 121 -85 196c-32 75 -60 151 -60 191c41 22 119 25 179 19c18 -64 50 -156 67 -192c3 -8 7 -16 10 -22c-1 0 -1 -1 -2 -2c6 4 7 31 11 49
c2 9 48 142 59 163c59 6 113 10 180 -2zM450 799c-28 -19 -104 -26 -134 -24c-16 6 -46 41 -80 82c-19 -24 -37 -48 -57 -76c-39 -7 -109 -12 -148 10c22 28 84 110 130 172c64 12 156 12 156 12c52 -68 100 -131 133 -176z" />
    <glyph glyph-name="ycircumflex" unicode="&#x177;" horiz-adv-x="555" 
d="M509 707c-38 -146 -115 -310 -161 -415c-2 -78 -4 -213 -6 -306c-54 -14 -127 -17 -190 -3c-7 102 -6 207 -2 324c-19 44 -54 121 -85 196c-32 75 -60 151 -60 191c41 22 119 25 179 19c18 -64 50 -156 67 -192c3 -8 7 -16 10 -22c-1 0 -1 -1 -2 -2c6 4 7 31 11 49
c2 9 48 142 59 163c59 6 113 10 180 -2zM470 789c-28 -19 -104 -26 -134 -24c-16 6 -46 41 -80 82c-19 -24 -37 -48 -57 -76c-39 -7 -109 -12 -148 10c22 28 84 110 130 172c64 12 156 12 156 12c52 -68 100 -131 133 -176z" />
    <glyph glyph-name="Zacute" unicode="&#x179;" horiz-adv-x="516" 
d="M461 588c-11 -39 -57 -146 -102 -250c-22 -52 -44 -103 -61 -143c-12 -29 -22 -52 -27 -67c55 -2 134 0 183 -2c20 -38 14 -95 4 -129c-35 -17 -143 -26 -212 -24c-38 1 -145 5 -200 8c-10 39 -10 101 -7 122c42 139 128 264 189 462c-21 3 -50 3 -79 3
c-37 -1 -73 -3 -103 0c-10 34 -14 113 12 137c75 20 330 12 396 3c7 -35 15 -90 7 -120zM473 881c-33 -27 -161 -124 -183 -133c-21 1 -65 16 -90 33c28 59 67 115 109 157c25 -1 116 -29 164 -57z" />
    <glyph glyph-name="zacute" unicode="&#x17a;" horiz-adv-x="516" 
d="M440 122c10 -39 0 -114 -24 -137c-71 -20 -314 -12 -377 -2c-7 34 -15 89 -7 119c11 39 55 146 97 250c21 52 42 103 58 144c11 28 20 51 26 66c-52 2 -127 1 -174 3c-19 38 -13 94 -4 128c34 18 137 26 202 24c36 -1 138 -4 192 -8c8 -38 9 -100 6 -121
c-40 -140 -122 -264 -180 -463c21 -3 50 -3 81 -3c38 0 75 2 104 0zM456 881c-33 -27 -161 -124 -183 -133c-20 1 -65 16 -90 33c28 59 67 115 109 157c25 -1 116 -29 164 -57z" />
    <glyph glyph-name="Zdotaccent" unicode="&#x17b;" horiz-adv-x="516" 
d="M461 588c-11 -39 -57 -146 -102 -250c-22 -52 -44 -103 -61 -143c-12 -29 -22 -52 -27 -67c55 -2 134 0 183 -2c20 -38 14 -95 4 -129c-35 -17 -143 -26 -212 -24c-38 1 -145 5 -200 8c-10 39 -10 101 -7 122c42 139 128 264 189 462c-21 3 -50 3 -79 3
c-37 -1 -73 -3 -103 0c-10 34 -14 113 12 137c75 20 330 12 396 3c7 -35 15 -90 7 -120zM350 947c38 -39 9 -140 -10 -157c-28 -24 -116 -47 -137 -9c-20 36 -10 127 18 152c31 29 93 51 129 14z" />
    <glyph glyph-name="zdotaccent" unicode="&#x17c;" horiz-adv-x="516" 
d="M440 122c10 -39 0 -114 -24 -137c-71 -20 -314 -12 -377 -2c-7 34 -15 89 -7 119c11 39 55 146 97 250c21 52 42 103 58 144c11 28 20 51 26 66c-52 2 -127 1 -174 3c-19 38 -13 94 -4 128c34 18 137 26 202 24c36 -1 138 -4 192 -8c8 -38 9 -100 6 -121
c-40 -140 -122 -264 -180 -463c21 -3 50 -3 81 -3c38 0 75 2 104 0zM350 937c38 -39 9 -140 -10 -157c-28 -24 -116 -47 -137 -9c-20 36 -10 127 18 152c31 29 93 51 129 14z" />
    <glyph glyph-name="longs" unicode="&#x17f;" horiz-adv-x="547" 
d="M503 757c4 -32 2 -78 -16 -115c-23 0 -46 7 -70 8c-21 1 -41 -3 -56 -20c-11 -14 -21 -82 -20 -117c3 -62 9 -195 8 -290c-1 -60 -18 -168 -57 -205c-16 -16 -45 -33 -71 -39c-36 -8 -145 -4 -200 31c-4 32 -2 78 16 115c23 0 46 -7 70 -8c21 -1 41 3 56 20s20 86 20 118
v7c-39 -7 -85 -11 -133 -12c0 0 -30 121 8 212c27 6 73 11 119 13c-1 25 -2 47 -2 69c-1 60 18 168 57 205c16 16 45 33 71 39c37 8 146 4 200 -31z" />
    <glyph glyph-name="uni0218" unicode="&#x218;" horiz-adv-x="514" 
d="M371 -60c-33 -27 -161 -124 -184 -134c-20 2 -64 17 -89 33c28 60 67 116 109 158c25 -2 116 -29 164 -57zM467 238c3 -141 -69 -199 -215 -209c-78 -6 -142 2 -196 27c-17 45 -17 92 -11 148c43 -17 87 -24 109 -25c40 -2 100 -3 106 35c2 12 4 30 -5 38
c-12 12 -27 18 -44 23s-36 7 -53 10c-38 7 -78 19 -99 69c-42 100 -31 299 16 362c66 89 291 80 368 46c7 -49 9 -163 1 -239c-43 -12 -116 -28 -161 -19c-7 32 -11 84 -14 134c-11 -2 -20 -8 -30 -20c-9 -11 -11 -150 1 -163c15 -15 40 -19 72 -23c33 -4 67 -7 95 -25
c48 -33 58 -68 60 -169z" />
    <glyph glyph-name="uni0219" unicode="&#x219;" horiz-adv-x="528" 
d="M371 -60c-33 -27 -161 -124 -184 -134c-20 2 -64 17 -89 33c28 60 67 116 109 158c25 -2 116 -29 164 -57zM436 526c-31 -13 -107 -32 -158 -25c1 55 -1 88 -5 105c-1 7 -5 8 -12 7c-8 -2 -16 -9 -18 -19c-3 -14 -23 -110 -1 -142c9 -13 20 -20 35 -25c8 -3 16 -5 24 -6
c9 -2 18 -4 27 -5c38 -7 81 -18 99 -69c37 -102 15 -210 -33 -269c-60 -73 -261 -59 -341 -34c-13 58 -10 89 -1 132c72 -9 157 -11 197 16c9 6 16 48 3 62c-14 16 -36 21 -64 26c-15 2 -30 4 -44 8c-15 5 -30 11 -44 21c-44 34 -65 83 -69 185c-7 193 67 281 216 286
c76 3 126 1 180 -25c13 -45 16 -185 9 -229z" />
    <glyph glyph-name="uni021A" unicode="&#x21a;" horiz-adv-x="517" 
d="M363 -50c-33 -27 -161 -124 -184 -134c-20 2 -64 17 -89 33c28 60 67 116 109 158c25 -2 116 -29 164 -57zM470 775c10 -68 10 -111 -35 -163c-39 -5 -66 -6 -99 -6c-4 -92 -22 -541 -22 -541c-52 -27 -130 -32 -177 -6c-7 153 -4 337 -1 494c11 14 24 29 40 44
c-12 -2 -26 -3 -41 -5c-38 -3 -80 -6 -113 -4c-18 52 3 145 16 174c32 9 375 18 432 13z" />
    <glyph glyph-name="uni021B" unicode="&#x21b;" horiz-adv-x="517" 
d="M363 -50c-33 -27 -161 -124 -184 -134c-20 2 -64 17 -89 33c28 60 67 116 109 158c25 -2 116 -29 164 -57zM470 775c10 -68 10 -111 -35 -163c-39 -5 -66 -6 -99 -6c-4 -92 -22 -541 -22 -541c-52 -27 -130 -32 -177 -6c-7 153 -4 337 -1 494c11 14 24 29 40 44
c-12 -2 -26 -3 -41 -5c-38 -3 -80 -6 -113 -4c-18 52 3 145 16 174c32 9 375 18 432 13z" />
    <glyph glyph-name="uni0237" unicode="&#x237;" horiz-adv-x="465" 
d="M408 225c-1 -60 -5 -120 -21 -166c-24 -68 -99 -100 -161 -103c-45 -2 -157 15 -210 50c-11 36 -13 65 -12 91c2 24 6 47 9 83c39 -10 64 -17 88 -22s46 -8 64 -7c17 1 37 16 37 70c0 189 -5 365 -10 569c66 18 156 15 214 -4c3 -102 5 -295 2 -392c-1 -48 1 -109 0 -169
z" />
    <glyph glyph-name="uni02C9" unicode="&#x2c9;" horiz-adv-x="541" 
d="M451 806c6 -44 10 -92 -4 -128c-38 -23 -276 -33 -357 -34c0 0 -26 77 6 149c26 6 103 6 176 7c37 0 74 0 104 1c29 1 51 1 75 5z" />
    <glyph glyph-name="uni0394" unicode="&#x394;" horiz-adv-x="617" 
d="M355 197c-14 120 -29 228 -42 347c-1 2 -3 0 -3 -2c-20 -76 -41 -181 -58 -258c-2 -10 -8 -45 -16 -88c21 0 42 0 63 1h56zM572 -3c-44 -30 -117 -38 -195 -18l-1 15c-74 -8 -163 -13 -229 -16c-18 -1 -39 -2 -58 -2c-4 0 -8 0 -11 -1v1c-21 1 -40 3 -54 6
c49 296 111 533 167 804c46 23 183 36 257 15c29 -40 114 -713 124 -804z" />
    <glyph glyph-name="uni03A9" unicode="&#x3a9;" horiz-adv-x="613" 
d="M561 207c7 -51 11 -136 -5 -181c-43 -28 -133 -43 -235 -45c0 0 -19 138 -10 212c12 28 26 58 37 93s19 73 19 115c0 49 -16 187 -45 217c-18 18 -46 18 -65 -1c-12 -11 -22 -48 -29 -95c-7 -45 -11 -92 -13 -114c-8 -77 20 -180 57 -220c5 -44 11 -129 -7 -174
c-43 -29 -132 -43 -234 -45c0 0 -29 120 9 212c12 3 24 4 36 6c-78 100 -69 329 -34 446c5 20 16 56 24 75c16 36 79 88 121 94c56 7 150 7 208 0c42 -6 103 -58 119 -94c8 -20 18 -56 24 -75c27 -102 34 -318 -25 -424c14 0 27 0 48 -2z" />
    <glyph glyph-name="uni03BC" unicode="&#x3bc;" horiz-adv-x="618" 
d="M548 797c16 -178 5 -344 -8 -522c-50 -4 -208 -9 -294 -10c1 -83 -1 -167 -6 -259c-32 -22 -155 -29 -197 -4c-4 120 -6 228 -6 339c0 140 5 336 18 443c31 8 63 10 93 11c31 1 63 1 103 1c-5 -46 -11 -139 -11 -169c-1 -101 3 -139 5 -233c1 -1 3 -1 5 -1
c23 -7 82 -3 94 0c6 1 4 8 4 12c1 70 -1 141 1 213c2 60 0 106 4 179c71 7 164 2 195 0z" />
    <glyph glyph-name="pi" unicode="&#x3c0;" horiz-adv-x="832" 
d="M750 805c10 -76 10 -123 -35 -182c-39 -5 -66 -6 -99 -7c-4 -101 -22 -601 -22 -601c-52 -30 -130 -35 -177 -7c-7 171 -4 375 -1 550c11 16 24 32 40 48c-12 -1 -26 -3 -41 -4c-26 -3 -54 -6 -80 -6c-4 -121 -21 -591 -21 -591c-52 -30 -130 -35 -177 -7
c-7 171 -4 375 -1 550c11 16 24 32 40 48c-12 -1 -26 -3 -41 -4c-38 -4 -80 -8 -113 -5c-18 57 3 161 16 193c23 7 207 11 330 16c106 4 337 13 382 9z" />
    <glyph glyph-name="Wgrave" unicode="&#x1e80;" horiz-adv-x="855" 
d="M816 690c-21 -198 -75 -534 -123 -697c-35 -18 -165 -23 -227 0c-13 65 -25 170 -30 193c-1 6 -5 24 -9 40c-3 11 1 23 -4 23c-4 -1 -2 -11 -4 -19c-4 -14 -6 -30 -7 -35c-3 -15 -7 -55 -12 -95c-5 -39 -11 -82 -20 -101c-35 -24 -188 -35 -243 -8
c-61 232 -97 481 -120 686c42 29 135 40 181 34c20 -169 54 -392 58 -406c0 -3 9 -10 12 3c39 165 62 283 87 391c35 7 123 7 156 -6c16 -129 31 -251 59 -368c2 -11 -3 -16 0 -14c2 1 6 6 6 8c17 93 34 287 49 401c40 13 163 10 191 -30zM500 784c-25 -17 -70 -32 -90 -33
c-23 9 -151 106 -186 135c46 20 134 53 166 56c42 -43 82 -99 110 -158z" />
    <glyph glyph-name="wgrave" unicode="&#x1e81;" horiz-adv-x="858" 
d="M796 702c-11 -106 -110 -516 -165 -711c-40 -19 -135 -32 -186 -10c-18 72 -22 177 -40 261c-18 -69 -44 -202 -58 -260c-46 -21 -157 -29 -213 -13c-29 36 -114 651 -124 733c44 26 116 33 194 15c20 -193 32 -253 60 -394c6 23 9 37 12 51c4 17 7 34 15 69
c17 67 35 165 41 197c2 8 3 20 5 32s5 26 12 38c31 16 112 18 140 12c12 -54 23 -140 34 -220c11 -81 21 -154 29 -180c29 95 52 273 78 389c51 13 149 5 166 -9zM504 794c-25 -17 -69 -32 -89 -33c-23 9 -151 106 -187 135c46 20 135 53 167 56c42 -43 81 -99 109 -158z
" />
    <glyph glyph-name="Wacute" unicode="&#x1e82;" horiz-adv-x="855" 
d="M816 690c-21 -198 -75 -534 -123 -697c-35 -18 -165 -23 -227 0c-13 65 -25 170 -30 193c-1 6 -5 24 -9 40c-3 11 1 23 -4 23c-4 -1 -2 -11 -4 -19c-4 -14 -6 -30 -7 -35c-3 -15 -7 -55 -12 -95c-5 -39 -11 -82 -20 -101c-35 -24 -188 -35 -243 -8
c-61 232 -97 481 -120 686c42 29 135 40 181 34c20 -169 54 -392 58 -406c0 -3 9 -10 12 3c39 165 62 283 87 391c35 7 123 7 156 -6c16 -129 31 -251 59 -368c2 -11 -3 -16 0 -14c2 1 6 6 6 8c17 93 34 287 49 401c40 13 163 10 191 -30zM650 881
c-33 -27 -161 -124 -184 -133c-20 1 -65 16 -90 33c29 59 68 115 110 157c24 -1 115 -29 164 -57z" />
    <glyph glyph-name="wacute" unicode="&#x1e83;" horiz-adv-x="858" 
d="M796 702c-11 -106 -110 -516 -165 -711c-40 -19 -135 -32 -186 -10c-18 72 -22 177 -40 261c-18 -69 -44 -202 -58 -260c-46 -21 -157 -29 -213 -13c-29 36 -114 651 -124 733c44 26 116 33 194 15c20 -193 32 -253 60 -394c6 23 9 37 12 51c4 17 7 34 15 69
c17 67 35 165 41 197c2 8 3 20 5 32s5 26 12 38c31 16 112 18 140 12c12 -54 23 -140 34 -220c11 -81 21 -154 29 -180c29 95 52 273 78 389c51 13 149 5 166 -9zM646 891c-33 -27 -161 -124 -183 -133c-20 1 -65 16 -90 33c28 59 67 115 109 157c25 -1 116 -29 164 -57z
" />
    <glyph glyph-name="Wdieresis" unicode="&#x1e84;" horiz-adv-x="855" 
d="M816 690c-21 -198 -75 -534 -123 -697c-35 -18 -165 -23 -227 0c-13 65 -25 170 -30 193c-1 6 -5 24 -9 40c-3 11 1 23 -4 23c-4 -1 -2 -11 -4 -19c-4 -14 -6 -30 -7 -35c-3 -15 -7 -55 -12 -95c-5 -39 -11 -82 -20 -101c-35 -24 -188 -35 -243 -8
c-61 232 -97 481 -120 686c42 29 135 40 181 34c20 -169 54 -392 58 -406c0 -3 9 -10 12 3c39 165 62 283 87 391c35 7 123 7 156 -6c16 -129 31 -251 59 -368c2 -11 -3 -16 0 -14c2 1 6 6 6 8c17 93 34 287 49 401c40 13 163 10 191 -30zM409 917c33 -35 9 -124 -9 -140
c-24 -21 -102 -43 -121 -8c-18 33 -10 115 15 137c28 26 82 46 115 11zM602 925c33 -35 9 -124 -9 -140c-24 -21 -102 -43 -121 -8c-18 33 -10 115 15 137c28 26 82 46 115 11z" />
    <glyph glyph-name="wdieresis" unicode="&#x1e85;" horiz-adv-x="858" 
d="M796 702c-11 -106 -110 -516 -165 -711c-40 -19 -135 -32 -186 -10c-18 72 -22 177 -40 261c-18 -69 -44 -202 -58 -260c-46 -21 -157 -29 -213 -13c-29 36 -114 651 -124 733c44 26 116 33 194 15c20 -193 32 -253 60 -394c6 23 9 37 12 51c4 17 7 34 15 69
c17 67 35 165 41 197c2 8 3 20 5 32s5 26 12 38c31 16 112 18 140 12c12 -54 23 -140 34 -220c11 -81 21 -154 29 -180c29 95 52 273 78 389c51 13 149 5 166 -9zM397 921c33 -36 9 -125 -9 -141c-24 -21 -102 -43 -121 -8c-18 34 -9 115 15 137c28 26 82 46 115 12z
M590 929c33 -36 9 -125 -9 -141c-24 -21 -102 -43 -121 -8c-18 34 -9 115 15 137c28 26 82 46 115 12z" />
    <glyph glyph-name="franc" unicode="&#x20a3;" horiz-adv-x="1000" 
 />
    <glyph glyph-name="lira" unicode="&#x20a4;" horiz-adv-x="514" 
d="M469 479c6 -54 12 -119 -5 -164c-21 -13 -67 -20 -119 -26c-29 -53 -59 -110 -76 -150c22 -3 53 -4 84 -4c40 1 79 2 109 0c11 -43 0 -126 -25 -151c-75 -22 -330 -14 -396 -3c-7 38 -15 99 -7 133c7 25 22 55 39 86c13 24 28 48 43 72c-21 -1 -39 -1 -65 -3
c0 0 -31 100 7 193c16 4 41 6 72 7c-61 70 -101 159 -70 246c19 54 85 82 134 86c31 2 70 6 112 4c42 -1 89 -8 141 -31c3 -25 7 -48 9 -72c2 -25 2 -52 -9 -86c-78 15 -169 31 -194 9c-21 -19 34 -101 102 -153c48 1 86 3 114 7z" />
    <glyph glyph-name="peseta" unicode="&#x20a7;" horiz-adv-x="1000" 
 />
    <glyph glyph-name="Euro" unicode="&#x20ac;" horiz-adv-x="582" 
d="M540 521c-43 -39 -114 -60 -172 -43c2 21 3 47 3 73c1 27 1 54 -2 66c-2 11 -3 17 -6 14c-24 -24 -39 -99 -47 -178c20 0 37 1 52 2c7 -32 14 -83 -9 -110c-13 -4 -31 -8 -51 -11c0 -17 0 -33 1 -48c21 1 41 2 57 3c7 -32 15 -83 -8 -111c-6 -1 -13 -3 -21 -5
c5 -6 11 -11 17 -13c23 -12 51 -13 81 -9c31 4 61 11 97 17c10 -38 -8 -142 -31 -163c-80 -26 -194 -40 -274 -10c-52 20 -81 84 -98 160c-21 -1 -44 -2 -67 -2c0 0 -38 72 12 127c10 1 24 2 39 2c0 13 -1 26 -1 38h-49c0 0 -38 71 12 126c11 1 25 2 42 2
c9 71 39 213 67 263c34 63 122 98 190 94c16 -1 41 -2 68 -5c28 -3 58 -8 87 -24c13 -68 17 -189 11 -255z" />
    <glyph glyph-name="uni2113" unicode="&#x2113;" horiz-adv-x="1000" 
 />
    <glyph glyph-name="Omega" unicode="&#x2126;" horiz-adv-x="603" 
d="M561 207c7 -51 11 -136 -5 -181c-43 -28 -133 -43 -235 -45c0 0 -19 138 -10 212c12 28 26 58 37 93s19 73 19 115c0 49 -16 187 -45 217c-18 18 -46 18 -65 -1c-12 -11 -22 -48 -29 -95c-7 -45 -11 -92 -13 -114c-8 -77 20 -180 57 -220c5 -44 11 -129 -7 -174
c-43 -29 -132 -43 -234 -45c0 0 -29 120 9 212c12 3 24 4 36 6c-78 100 -69 329 -34 446c5 20 16 56 24 75c16 36 79 88 121 94c56 7 150 7 208 0c42 -6 103 -58 119 -94c8 -20 18 -56 24 -75c27 -102 34 -318 -25 -424c14 0 27 0 48 -2z" />
    <glyph glyph-name="estimated" unicode="&#x212e;" horiz-adv-x="1000" 
 />
    <glyph glyph-name="partialdiff" unicode="&#x2202;" horiz-adv-x="566" 
d="M297 194c4 28 4 63 -13 69c-34 12 -91 -5 -91 -35c0 -57 11 -83 17 -93c3 -4 45 -15 54 -11c12 7 31 48 33 70zM500 468c9 -86 6 -184 -7 -263c-9 -56 -52 -193 -99 -217c-60 -31 -257 -25 -291 0c-37 28 -59 58 -73 92c-6 17 -11 35 -16 54c-4 19 -7 39 -11 61
c-16 85 -5 170 85 220c25 14 70 14 111 11c35 -3 72 -8 101 -12c-4 72 -13 197 -35 217c-13 12 -27 15 -33 12c-7 -4 -6 -17 -8 -32c-3 -22 -3 -49 -6 -89c-34 4 -58 5 -82 7s-51 6 -79 20c-12 76 -7 200 2 229c54 29 122 44 200 37c42 -4 130 -21 166 -54
c47 -44 66 -208 75 -293z" />
    <glyph glyph-name="Delta" unicode="&#x2206;" horiz-adv-x="617" 
d="M312 194l43 1c-14 121 -28 229 -42 349c-1 2 -3 0 -3 -2c-20 -76 -41 -181 -58 -258c-2 -10 -8 -47 -16 -91c25 1 50 1 76 1zM572 -3c-44 -30 -117 -38 -195 -18l-1 11c-102 -10 -228 -16 -285 -17c0 0 0 1 -1 3c-25 0 -50 2 -66 6c49 296 111 533 167 804
c46 23 183 36 257 15c29 -40 114 -713 124 -804z" />
    <glyph glyph-name="product" unicode="&#x220f;" horiz-adv-x="832" 
d="M750 805c10 -76 10 -123 -35 -182c-39 -5 -66 -6 -99 -7c-4 -101 -22 -601 -22 -601c-52 -30 -130 -35 -177 -7c-7 171 -4 375 -1 550c11 16 24 32 40 48c-12 -1 -26 -3 -41 -4c-26 -3 -54 -6 -80 -6c-4 -121 -21 -591 -21 -591c-52 -30 -130 -35 -177 -7
c-7 171 -4 375 -1 550c11 16 24 32 40 48c-12 -1 -26 -3 -41 -4c-38 -4 -80 -8 -113 -5c-18 57 3 161 16 193c23 7 207 11 330 16c106 4 337 13 382 9z" />
    <glyph glyph-name="summation" unicode="&#x2211;" horiz-adv-x="506" 
d="M462 135c11 -43 0 -126 -25 -151c-75 -22 -330 -14 -396 -3c-7 38 -15 99 -7 133c5 21 21 61 40 109c18 46 41 101 61 154c-41 99 -81 184 -105 276c-3 23 -3 92 7 135c55 4 162 8 200 9c69 2 177 -8 212 -27c10 -38 16 -100 -4 -143c-48 -2 -128 0 -183 -2
c13 -44 48 -141 89 -248c-30 -74 -59 -149 -84 -238c22 -3 54 -4 86 -4c40 1 79 2 109 0z" />
    <glyph glyph-name="uni2215" unicode="&#x2215;" horiz-adv-x="369" 
d="M358 794c-51 -296 -116 -543 -177 -818c-57 -6 -118 -10 -171 27c24 86 91 413 109 490c18 74 37 183 43 218c2 9 3 22 5 36c2 13 5 29 13 42c22 12 133 16 178 5z" />
    <glyph glyph-name="uni2219" unicode="&#x2219;" horiz-adv-x="1000" 
 />
    <glyph glyph-name="radical" unicode="&#x221a;" horiz-adv-x="775" 
d="M751 608c-120 -211 -242 -457 -324 -599c-14 -19 -63 -68 -100 -91c-42 36 -121 110 -148 135c-49 47 -155 166 -166 205c21 35 108 120 183 184c32 -24 84 -75 106 -126c-38 -36 -58 -60 -69 -79c15 -20 35 -44 51 -60c53 93 274 499 320 580c55 -19 131 -80 147 -149z
" />
    <glyph glyph-name="infinity" unicode="&#x221e;" horiz-adv-x="647" 
d="M205 466c-1 5 5 14 -1 11c-18 -8 -18 -57 -19 -98c-1 -29 2 -55 6 -70c1 -3 -1 -7 -2 -8l1 1c21 26 24 124 15 164zM401 466c-1 5 5 14 -1 11c-18 -8 -18 -57 -19 -98c-1 -29 2 -55 6 -70c1 -3 -1 -7 -2 -8l1 1c21 26 24 124 15 164zM540 552c39 -78 38 -240 -6 -316
c-17 -31 -38 -62 -83 -74c-76 -18 -127 -10 -162 15c-10 -6 -21 -11 -34 -15c-164 -40 -215 47 -224 156c-8 101 19 234 75 272c51 36 144 42 201 4c67 42 193 37 233 -42z" />
    <glyph glyph-name="integral" unicode="&#x222b;" horiz-adv-x="577" 
d="M503 757c4 -32 2 -78 -16 -115c-23 0 -46 7 -70 8c-21 1 -41 -3 -56 -20c-11 -14 -21 -82 -20 -117c3 -62 9 -195 8 -290c-1 -60 -18 -168 -57 -205c-16 -16 -45 -33 -71 -39c-36 -8 -145 -4 -200 31c-4 32 -2 78 16 115c23 0 46 -7 70 -8c21 -1 41 3 56 20s20 86 20 118
c1 100 -6 207 -8 289c-1 60 18 168 57 205c16 16 45 33 71 39c37 8 146 4 200 -31z" />
    <glyph glyph-name="approxequal" unicode="&#x2248;" horiz-adv-x="711" 
d="M668 302c-31 -67 -75 -133 -118 -181c-57 -65 -124 -81 -199 -28c-21 15 -44 37 -68 56c-24 18 -46 31 -67 31c-6 0 -20 -20 -37 -38c-19 -22 -38 -45 -47 -56c-46 10 -83 42 -114 76c57 93 157 231 259 212c24 -4 43 -14 60 -27c8 -6 15 -12 22 -19s14 -13 20 -20
c26 -27 45 -45 75 -45c20 0 40 14 60 38c9 12 18 25 26 37c9 13 16 25 30 45c41 -18 85 -48 98 -81zM668 596c-31 -67 -75 -133 -118 -181c-57 -65 -124 -81 -199 -28c-21 15 -44 37 -68 56c-24 18 -46 31 -67 31c-6 0 -20 -20 -37 -38c-19 -22 -38 -45 -47 -56
c-46 10 -83 42 -114 76c57 93 157 231 259 212c24 -4 43 -14 60 -27c8 -6 15 -12 22 -19s14 -13 20 -20c26 -27 45 -45 75 -45c20 0 40 14 60 38c9 12 18 25 26 37c9 13 16 25 30 45c41 -18 85 -48 98 -81z" />
    <glyph glyph-name="notequal" unicode="&#x2260;" horiz-adv-x="389" 
d="M331 554c7 -45 13 -116 -8 -154c-15 -6 -35 -12 -59 -17c-5 -22 -9 -44 -14 -65c30 1 58 2 79 5c7 -45 14 -116 -7 -155c-25 -10 -63 -18 -109 -24c-9 -43 -18 -85 -26 -128c-43 -5 -89 -9 -129 21c5 20 13 55 21 97c-10 -1 -20 -1 -30 -1c0 0 -36 100 10 177
c14 2 34 3 57 4c3 19 7 37 10 53c-24 -1 -50 -2 -76 -2c0 0 -36 99 10 176c22 3 60 4 101 6c5 29 9 54 11 66c1 8 3 19 4 30c2 10 4 23 10 34c16 10 99 13 133 5c-7 -45 -15 -89 -23 -131c13 1 25 1 35 3z" />
    <glyph glyph-name="lessequal" unicode="&#x2264;" horiz-adv-x="551" 
d="M489 199c6 -55 11 -140 -5 -185c-44 -30 -336 -43 -434 -45c0 0 -30 120 8 212c30 7 124 8 214 9c45 0 91 1 128 2s64 2 89 7zM462 282c-42 -28 -151 -38 -198 -35c-19 9 -166 186 -229 262c9 14 54 81 100 147c44 65 90 132 102 141c27 4 164 -2 218 -20
c-62 -94 -121 -173 -181 -250c71 -92 140 -181 188 -245z" />
    <glyph glyph-name="greaterequal" unicode="&#x2265;" horiz-adv-x="551" 
d="M489 199c6 -55 11 -140 -5 -185c-44 -30 -336 -43 -434 -45c0 0 -30 120 8 212c30 7 124 8 214 9c45 0 91 1 128 2s64 2 89 7zM476 523c-35 -47 -172 -230 -208 -281c-56 -10 -157 -17 -215 16c33 42 121 163 185 252c-85 114 -164 226 -186 258c45 27 120 47 222 48
c31 -47 161 -235 202 -293z" />
    <glyph glyph-name="lozenge" unicode="&#x25ca;" horiz-adv-x="654" 
d="M397 366c-33 55 -64 110 -91 158c-26 -49 -53 -95 -79 -141c31 -54 62 -108 91 -157c26 46 54 96 79 140zM607 380c-31 -53 -152 -261 -184 -318c-34 -8 -86 -14 -132 -6c-28 -4 -55 -6 -73 -5c-17 11 -146 221 -201 312l87 174c39 76 80 156 90 166c16 3 70 2 120 -5
c32 9 70 14 114 15c28 -54 143 -267 179 -333z" />
    <glyph glyph-name="f_f" unicode="&#xfb00;" horiz-adv-x="1000" 
 />
    <glyph glyph-name="uniF8FF" unicode="&#xf8ff;" horiz-adv-x="1495" 
d="M319 364c0 38 -5 68 -14 68c-10 0 -14 -43 -15 -69c0 -21 7 -66 15 -65c9 0 14 29 14 66zM830 558v-41c12 9 14 34 0 41zM970 488l11 1l-6 27zM341 365c0 -54 -12 -95 -35 -96s-38 65 -38 94c1 37 13 99 37 99s36 -44 36 -97zM859 544c3 -39 -46 -70 -46 -70v116
s43 -7 46 -46zM973 598l26 -123l-48 -4zM300 85v53c-69 24 -150 104 -148 214c4 160 133 198 133 198v54s-183 -57 -181 -254c1 -192 196 -265 196 -265zM378 354c0 51 -15 142 -72 142s-75 -97 -74 -136c2 -46 26 -131 75 -131c39 0 71 73 71 125zM112 613
c-1 10 -11 17 -19 17c-6 0 -20 -4 -20 -20c-1 -23 32 -38 32 -38c-7 6 -11 14 -10 20c10 1 18 10 17 21zM163 614c-1 10 -11 17 -18 17s-20 -4 -21 -21c-1 -22 33 -37 33 -37c-8 5 -12 13 -11 20c10 1 18 9 17 21zM509 306l36 12v247l-39 -14l-36 -95l-41 73l-32 -12v-252
l36 13v161l39 -61l38 91zM575 326l36 12v248l-36 -12v-248zM1215 405c0 1 -1 2 -1 4h-40v149c-9 16 -21 32 -33 46l-21 -1v-69l37 2v-73l-40 -3v-56l-114 -10l-11 31l-25 -3l-8 -31c-26 -2 -80 -12 -110 -18l-12 10v-13s-36 -7 -63 -12c-53 -11 -116 14 -141 56v-87
l-144 -47v79l-17 -39l-18 36v-89l-76 -31l1 38c-17 -36 -42 -66 -72 -66c-64 0 -90 90 -92 151c-2 46 18 157 91 157c36 0 59 -25 71 -58v74l62 21l30 -48l20 61l143 52v-52c22 48 77 82 135 88c79 9 129 -18 146 -82l15 93l85 5l26 -108v110s7 0 18 1
c-92 57 -220 87 -370 87c-190 0 -346 -51 -438 -144c-3 -2 -6 -6 -8 -8c20 10 42 20 63 24v-98c-83 -16 -131 -102 -131 -182c0 -104 84 -174 146 -199v-17c92 -57 219 -87 368 -87c108 0 203 15 284 45c5 2 9 0 12 -4c10 -15 13 -35 9 -55c-3 -9 -6 -17 -10 -25
c51 27 69 79 63 112c0 4 2 8 5 10c108 63 165 158 165 273zM762 378v34s-87 -5 -90 83c-2 79 85 101 85 101v37s-127 -25 -124 -143c3 -106 108 -115 129 -112zM756 430v144c-39 -12 -65 -40 -66 -80c-1 -36 29 -63 66 -64zM852 395l40 7l-47 49s50 39 47 99
c-5 100 -113 84 -113 84v-253l35 7l-1 43zM888 437l13 59c-5 -16 -15 -32 -28 -44zM1014 418l37 3l-54 229l-52 -4l-43 -243l37 6l6 33l60 5zM1101 625l39 2v31l-79 -3v-233l36 2v57l40 2v34l-40 -3zM1233 629h36v30h-111v-30h36v-201l39 -1v202zM1174 592v14l-9 -1
c3 -4 7 -9 9 -13zM1304 664c-6 3 -11 8 -14 13v-30c8 7 11 10 14 17zM1345 690c0 17 -15 21 -22 21c-6 0 -17 -7 -18 -17c0 -12 8 -20 17 -21c1 -7 -3 -15 -11 -20c0 0 35 15 34 37zM1396 690c-1 16 -15 20 -21 20c-7 0 -18 -7 -18 -17c-1 -11 7 -20 16 -20
c1 -7 -3 -15 -10 -21c0 0 34 15 33 38zM1407 713c15 -19 6 -48 -10 -61c-20 -18 -38 -21 -68 -22c5 3 14 14 15 20c-7 -10 -31 -20 -54 -26v-15h-36v-200h-21v-4c0 -121 -58 -219 -168 -287c4 -47 -27 -120 -112 -139c-4 -1 -9 2 -11 6c-2 5 -1 9 3 12c13 8 24 25 28 42
c2 9 3 23 -3 35c-81 -29 -177 -44 -283 -44c-147 0 -274 29 -368 84v-62c-120 46 -234 139 -235 305c-1 82 41 161 82 195c-9 2 -26 10 -37 17c4 -7 8 -11 15 -15c-15 -2 -52 -2 -76 23s-14 53 0 64c11 9 35 13 52 0c15 11 34 11 49 2c26 -14 8 -49 0 -54c2 -9 7 -19 13 -21
c3 2 6 6 10 8c82 126 261 203 495 203c166 0 306 -37 402 -104c26 1 57 3 81 3c51 0 103 2 118 2c-7 12 -3 31 10 40c18 12 38 8 51 -4c10 11 40 20 58 -3zM1444 721v-3h-10v-28h-4v28h-9v3h23zM1479 721v-31h-4v27l-10 -27h-3l-10 27h-1v-27h-3v31h6l10 -25l9 25h6z" />
    </font>
</defs>
</svg>
