<svg xmlns="http://www.w3.org/2000/svg" width="276.05px" height="364.7px" xmlns:xlink="http://www.w3.org/1999/xlink">
  <g transform="matrix(1.0, 0.0, 0.0, 1.0, 103.45, 183.15)">
    <path stroke="none" fill-rule="evenodd" fill="#61441e" d="M115.25 -117.95 L116.8 -111.25 Q131.95 -99.85 143.95 -80.95 157.5 -59.55 164.95 -31.8 172.6 -3.05 172.6 28.4 172.6 59.9 164.95 88.6 157.5 116.35 143.95 137.75 137.7 147.65 130.55 155.45 122.25 164.05 112.75 170.05 97.2 179.85 80.45 181.3 L76.45 181.55 43.4 181.55 37.4 181.55 18.4 181.55 -5.65 181.55 -7.8 181.55 Q-26.45 180.85 -43.55 170.05 -53.1 164.05 -61.35 155.45 -68.5 147.65 -74.75 137.75 -88.35 116.35 -95.75 88.6 -103.45 59.9 -103.45 28.4 -103.45 -3.05 -95.75 -31.8 -88.35 -59.55 -74.75 -80.95 -63.7 -98.45 -49.9 -109.5 -62.1 -111.75 -67.0 -119.75 -69.75 -124.15 -69.45 -129.35 -69.15 -134.55 -65.95 -139.6 -60.5 -148.1 -51.45 -150.65 -43.55 -152.8 -31.8 -150.85 -35.1 -161.85 -31.0 -173.0 -28.65 -179.35 -23.6 -181.8 -21.3 -182.95 -18.6 -183.1 L-16.6 -183.1 13.4 -183.1 18.4 -183.1 37.4 -183.1 51.05 -183.1 61.4 -183.1 63.4 -183.1 67.7 -182.35 Q74.25 -180.55 80.45 -175.4 87.6 -169.5 94.25 -159.2 109.95 -137.75 115.25 -117.95"></path>
    <path stroke="none" fill-rule="evenodd" fill="#dd8300" d="M78.75 -160.05 Q89.85 -146.0 96.8 -128.8 101.15 -118.35 103.9 -106.75 L104.15 -105.95 18.4 -104.15 13.4 -119.65 0.4 -160.05 78.75 -160.05 M-5.65 -119.45 L-6.7 -119.3 -39.7 -143.75 -5.65 -143.3 -5.65 -119.45"></path>
    <path stroke="none" fill-rule="evenodd" fill="#ffc000" d="M78.75 -160.05 L0.4 -160.05 -5.65 -160.05 -10.85 -160.05 -11.3 -161.5 -11.55 -162.4 -12.1 -164.2 -12.85 -166.6 -13.1 -167.4 -14.25 -171.15 -14.7 -172.45 -8.55 -175.35 -7.55 -175.45 -5.65 -175.45 18.4 -175.5 37.4 -175.5 54.25 -175.4 56.1 -175.4 Q58.05 -175.25 64.35 -172.95 67.7 -171.75 70.8 -169.15 L72.8 -167.05 78.15 -160.75 78.75 -160.05 M18.4 -104.15 L104.15 -105.95 Q117.05 -94.35 126.75 -80.8 L131.75 -73.5 137.55 -63.5 18.4 -63.5 18.4 -104.15"></path>
    <path stroke="none" fill-rule="evenodd" fill="#fce17a" d="M149.05 -35.65 L151.4 -27.4 Q154.7 -15.25 156.45 -2.6 L18.4 -2.6 18.4 -35.65 149.05 -35.65"></path>
    <path stroke="none" fill-rule="evenodd" fill="#ffd03c" d="M137.55 -63.5 L140.0 -58.55 Q145.15 -47.8 149.05 -35.65 L18.4 -35.65 18.4 -63.5 137.55 -63.5"></path>
    <path stroke="none" fill-rule="evenodd" fill="#fff5b0" d="M156.45 -2.6 Q157.55 5.05 158.1 12.85 L18.4 12.85 18.4 -2.6 156.45 -2.6"></path>
    <path stroke="none" fill-rule="evenodd" fill="#fcf9ac" d="M158.65 29.4 L158.2 43.85 18.4 43.85 18.4 29.4 158.65 29.4"></path>
    <path stroke="none" fill-rule="evenodd" fill="#fffff7" d="M158.1 12.85 Q158.65 20.9 158.65 29.1 L158.65 29.4 18.4 29.4 18.4 12.85 158.1 12.85"></path>
    <path stroke="none" fill-rule="evenodd" fill="#f4a637" d="M153.15 78.95 L151.4 85.6 Q149.65 92.25 147.45 98.55 L18.4 98.55 18.4 78.95 153.15 78.95"></path>
    <path stroke="none" fill-rule="evenodd" fill="#fecb00" d="M158.2 43.85 Q157.1 61.95 153.15 78.95 L18.4 78.95 18.4 43.85 158.2 43.85"></path>
    <path stroke="none" fill-rule="evenodd" fill="#dd8102" d="M139.85 117.1 Q136.1 124.8 131.75 131.75 127.2 138.95 122.15 144.95 116.2 151.45 109.7 156.45 L102.5 161.8 102.3 161.95 Q88.05 171.0 72.8 172.45 L69.65 172.7 56.9 172.7 51.25 172.7 48.95 172.7 42.2 172.7 40.25 172.7 38.25 172.7 37.4 172.7 18.4 172.7 18.4 117.1 139.85 117.1"></path>
    <path stroke="none" fill-rule="evenodd" fill="#f08e13" d="M147.45 98.55 Q144.05 108.3 139.85 117.1 L18.4 117.1 18.4 98.55 147.45 98.55"></path>
    <path stroke="none" fill-rule="evenodd" fill="#61441e" d="M13.4 -119.65 L18.4 -104.15 18.4 -63.5 18.4 -35.65 18.4 -2.6 18.4 12.85 18.4 29.4 18.4 43.85 18.4 78.95 18.4 98.55 18.4 117.1 18.4 172.7 13.4 172.7 13.4 -119.65 M-7.55 -175.45 L-8.55 -175.35 -5.65 -175.65 -5.65 -175.5 -7.55 -175.45 M-12.1 -164.2 L-11.55 -162.4 -11.65 -162.55 -12.1 -164.2 M-10.85 -160.05 L-5.65 -160.05 -5.65 -143.3 -39.7 -143.75 -6.7 -119.3 -5.65 -119.45 -5.65 -96.85 -15.7 -106.45 Q-24.3 -114.75 -30.35 -121.7 L-35.1 -127.45 -40.25 -134.85 Q-43.05 -139.45 -44.1 -143.05 -44.25 -143.5 -42.2 -143.8 L-40.05 -144.0 -39.55 -144.05 Q-34.9 -144.4 -25.3 -144.4 L-19.5 -144.4 -11.75 -144.6 Q-6.4 -144.95 -6.6 -145.65 L-8.95 -153.7 -10.85 -160.05 M-9.45 -58.5 L-5.65 -65.45 -5.65 122.95 -38.4 122.95 -38.4 107.95 -11.85 107.95 Q-16.15 97.4 -19.3 85.6 -26.6 58.7 -26.6 29.1 -26.6 -0.4 -20.7 -24.2 -14.85 -48.05 -9.45 -58.5"></path>
    <path stroke="none" fill-rule="evenodd" fill="#fef4b2" d="M91.5 -27.95 Q99.05 -1.15 99.05 28.25 99.05 57.6 91.5 84.45 84.2 110.35 70.9 130.3 57.6 150.3 40.4 161.25 22.5 172.6 2.95 172.6 -16.6 172.6 -34.45 161.25 -51.65 150.3 -64.95 130.3 -78.3 110.35 -85.55 84.45 -93.1 57.6 -93.1 28.25 -93.1 -1.1 -85.55 -27.95 -78.3 -53.85 -64.95 -73.85 -51.65 -93.85 -34.45 -104.8 -16.6 -116.15 2.95 -116.15 22.5 -116.15 40.4 -104.8 57.6 -93.85 70.9 -73.85 84.2 -53.85 91.5 -27.95"></path>
    <path stroke="none" fill-rule="evenodd" fill="#fecb01" d="M87.3 -24.5 Q94.45 0.95 94.45 28.8 94.45 56.65 87.3 82.1 80.4 106.65 67.75 125.6 55.15 144.55 38.8 154.95 21.9 165.7 3.35 165.7 -15.2 165.7 -32.1 154.95 -48.45 144.55 -61.1 125.6 -73.7 106.65 -80.6 82.1 -87.8 56.65 -87.8 28.8 -87.8 0.95 -80.6 -24.5 -73.7 -49.05 -61.1 -68.0 -48.45 -86.95 -32.1 -97.35 -15.2 -108.1 3.35 -108.1 21.9 -108.1 38.8 -97.35 55.15 -86.95 67.75 -68.0 80.4 -49.05 87.3 -24.5"></path>
    <path stroke="none" fill-rule="evenodd" fill="#fef4b2" d="M80.9 -21.25 Q87.55 2.35 87.55 28.25 87.55 54.1 80.9 77.75 74.5 100.55 62.75 118.15 51.05 135.7 35.9 145.35 20.15 155.35 2.95 155.35 -14.25 155.35 -30.0 145.35 -45.2 135.7 -56.85 118.15 -68.6 100.55 -75.0 77.75 -81.65 54.1 -81.65 28.25 -81.65 2.35 -75.0 -21.25 -68.6 -44.05 -56.85 -61.65 -45.2 -79.25 -30.0 -88.9 -14.25 -98.9 2.95 -98.9 20.15 -98.9 35.9 -88.9 51.05 -79.25 62.75 -61.65 74.5 -44.05 80.9 -21.25"></path>
    <path stroke="none" fill-rule="evenodd" fill="#f8a300" d="M80.9 -21.25 Q87.55 2.35 87.55 28.25 87.55 48.75 83.35 67.9 L-8.8 66.9 Q-71.45 66.2 -77.7 66.85 -81.65 48.05 -81.65 28.25 -81.65 2.35 -75.0 -21.25 -68.6 -44.05 -56.85 -61.65 -45.2 -79.25 -30.0 -88.9 -14.25 -98.9 2.95 -98.9 20.15 -98.9 35.9 -88.9 51.05 -79.25 62.75 -61.65 74.5 -44.05 80.9 -21.25"></path>
    <path stroke="none" fill-rule="evenodd" fill="#ffc000" d="M-18.85 -168.75 Q-14.5 -177.5 -2.95 -172.25 8.85 -166.9 20.2 -150.35 31.35 -135.85 37.65 -118.05 41.9 -106.2 43.4 -94.65 L52.35 -86.55 Q51.35 -85.35 49.45 -84.75 45.55 -83.5 40.85 -86.55 27.95 -94.9 19.15 -98.25 5.3 -103.6 -5.1 -100.35 -23.1 -94.75 -28.1 -96.4 -29.7 -96.95 -29.8 -98.1 L-29.6 -99.2 -24.0 -103.0 Q-17.15 -106.9 -10.45 -107.25 L-10.25 -107.3 -23.9 -110.75 -41.1 -114.65 Q-53.05 -117.6 -57.25 -123.2 -61.55 -129.05 -55.65 -135.4 -49.3 -142.15 -43.45 -143.45 -36.9 -144.85 -25.0 -141.15 -16.7 -138.55 -5.75 -132.55 -18.1 -143.65 -20.7 -153.45 -22.7 -161.05 -18.85 -168.75"></path>
    <path stroke="none" fill-rule="evenodd" fill="#feffba" d="M-21.7 -133.15 Q-32.65 -136.75 -41.85 -135.4 -48.25 -134.45 -51.75 -131.0 L-53.85 -128.6 Q-54.85 -127.5 -55.65 -127.35 -57.3 -126.95 -57.4 -128.85 L-57.15 -130.8 Q-56.9 -132.85 -56.3 -134.6 L-55.65 -135.4 Q-51.25 -140.1 -47.55 -141.95 -42.0 -143.5 -31.9 -143.0 L-25.0 -141.15 Q-17.9 -138.9 -8.4 -133.95 1.25 -128.95 9.25 -123.35 11.5 -120.3 12.55 -118.1 L10.0 -118.2 Q5.85 -119.2 -2.05 -123.9 -12.9 -130.3 -21.7 -133.15 M-19.6 -156.1 Q-20.7 -159.0 -21.05 -162.5 -20.4 -165.7 -18.85 -168.75 -14.45 -177.55 -2.85 -172.45 9.15 -167.2 20.4 -150.65 30.1 -138.05 37.3 -119.9 42.7 -106.05 45.55 -92.35 L42.7 -94.9 41.2 -95.95 Q38.3 -106.25 32.9 -118.75 22.15 -143.8 9.45 -154.95 0.15 -163.15 -5.85 -164.45 -9.75 -165.3 -13.55 -163.0 -15.9 -161.55 -18.0 -158.7 L-19.6 -156.1"></path>
    <path stroke="none" fill-rule="evenodd" fill="#773f00" d="M76.65 -18.55 Q82.95 3.8 82.95 28.25 82.95 52.7 76.65 75.0 70.6 96.6 59.55 113.25 48.45 129.85 34.1 139.0 19.25 148.45 2.95 148.45 -13.35 148.45 -28.2 139.0 -42.55 129.85 -53.65 113.25 -64.7 96.6 -70.75 75.0 -77.05 52.7 -77.05 28.25 -77.05 3.8 -70.75 -18.55 -64.7 -40.15 -53.65 -56.75 -42.55 -73.4 -28.2 -82.55 -13.35 -92.0 2.95 -92.0 19.2 -92.0 34.1 -82.55 48.45 -73.4 59.55 -56.75 70.6 -40.15 76.65 -18.55"></path>
    <path stroke="none" fill-rule="evenodd" fill="#a76a00" d="M72.4 -16.55 Q78.35 4.3 78.35 27.1 78.35 49.9 72.4 70.75 66.65 90.85 56.15 106.4 45.65 121.9 32.1 130.45 18.0 139.25 2.55 139.25 -12.85 139.25 -26.95 130.45 -40.55 121.9 -51.05 106.4 -61.55 90.85 -67.25 70.75 -73.25 49.9 -73.25 27.1 -73.25 4.3 -67.25 -16.55 -61.55 -36.7 -51.05 -52.25 -40.55 -67.75 -26.95 -76.3 -12.85 -85.1 2.55 -85.1 18.0 -85.1 32.1 -76.3 45.65 -67.75 56.15 -52.25 66.65 -36.7 72.4 -16.55"></path>
    <path stroke="none" fill-rule="evenodd" fill="#dc8100" d="M72.4 -12.65 Q78.35 7.65 78.35 29.9 78.35 52.15 72.4 72.45 66.65 92.1 56.15 107.25 45.65 122.35 32.1 130.65 18.0 139.25 2.55 139.25 -12.85 139.25 -26.95 130.65 -40.55 122.35 -51.05 107.25 -61.55 92.1 -67.25 72.45 -73.25 52.15 -73.25 29.9 -73.25 7.65 -67.25 -12.65 -61.55 -32.25 -51.05 -47.4 -40.55 -62.5 -26.95 -70.8 -12.85 -79.4 2.55 -79.4 18.0 -79.4 32.1 -70.8 45.65 -62.5 56.15 -47.4 66.65 -32.25 72.4 -12.65"></path>
    <path stroke="none" fill-rule="evenodd" fill="#fecb01" d="M71.75 -9.5 Q77.6 10.4 77.6 32.15 77.6 53.95 71.75 73.85 66.05 93.05 55.65 107.9 45.25 122.7 31.8 130.85 17.8 139.25 2.55 139.25 -12.7 139.25 -26.65 130.85 -40.1 122.7 -50.5 107.9 -60.9 93.05 -66.6 73.85 -72.5 53.95 -72.5 32.15 -72.5 10.4 -66.6 -9.5 -60.9 -28.7 -50.5 -43.55 -40.1 -58.35 -26.65 -66.5 -12.7 -74.9 2.55 -74.9 17.8 -74.9 31.8 -66.5 45.25 -58.35 55.65 -43.55 66.05 -28.7 71.75 -9.5"></path>
    <path stroke="none" fill-rule="evenodd" fill="#fab300" d="M76.05 57.55 L72.65 71.05 Q67.8 87.3 60.9 100.7 38.8 143.65 4.1 142.7 -30.3 141.7 -51.95 106.4 -59.1 94.7 -64.55 79.6 L-70.15 62.15 -67.65 55.8 Q-63.85 48.2 -57.85 41.95 -38.5 21.95 -3.55 23.05 35.45 24.25 59.65 41.05 71.75 49.4 76.05 57.55"></path>
    <path stroke="none" fill-rule="evenodd" fill="#d29001" d="M-72.45 16.15 L-70.55 17.9 Q-68.2 20.3 -66.4 23.55 -60.55 34.05 -61.75 49.5 -62.85 63.3 -65.85 67.0 -66.75 68.15 -67.8 68.15 L-68.65 67.9 Q-70.45 60.0 -71.85 49.6 -74.65 28.75 -72.45 16.15 M66.15 44.9 Q66.15 31.25 71.85 22.35 74.75 17.9 77.6 16.15 79.5 35.2 76.45 54.6 74.95 64.3 73.05 70.2 71.3 69.35 69.6 65.75 66.15 58.6 66.15 44.9 M64.6 -22.95 L65.45 -12.75 Q66.05 -2.1 64.6 0.05 L52.7 5.4 Q56.55 13.75 57.55 24.65 59.35 44.4 52.95 58.85 46.15 74.1 32.9 76.5 23.3 78.2 14.85 70.75 6.55 63.45 2.45 50.0 -1.65 63.05 -9.9 70.15 -18.2 77.3 -27.65 75.6 -40.65 73.2 -47.5 58.0 -54.05 43.45 -52.25 23.85 -51.25 12.9 -47.4 4.55 -56.35 0.85 -57.15 -1.1 -57.85 -2.9 -57.6 -9.65 L-57.15 -16.05 -37.25 -12.6 -38.2 -7.7 Q-30.1 -14.2 -20.05 -12.15 -16.05 -1.95 -7.7 2.45 -1.8 5.55 -1.75 5.6 1.35 7.6 2.85 10.75 4.4 8.0 7.45 6.1 9.25 5.0 13.35 3.05 21.35 -1.3 25.3 -11.35 30.95 -12.5 36.2 -10.85 41.35 -9.25 45.6 -5.05 L64.6 -22.95"></path>
    <path stroke="none" fill-rule="evenodd" fill="#fef2b0" d="M-18.1 84.5 Q-1.55 90.75 4.25 91.0 8.75 91.2 20.5 88.15 L38.55 83.35 Q38.35 87.55 34.65 96.0 31.05 104.35 25.7 113.2 12.6 134.85 3.4 138.1 -17.3 122.2 -27.45 98.65 -30.6 91.3 -32.3 84.0 L-33.4 78.25 -18.1 84.5"></path>
    <path stroke="none" fill-rule="evenodd" fill="#fef2b0" d="M-10.5 33.25 Q-2.45 26.5 4.2 26.5 16.85 26.5 30.9 49.55 36.25 58.35 40.05 67.85 43.6 76.75 43.9 81.4 44.3 87.05 25.5 93.5 18.6 95.8 11.4 97.45 4.8 99.0 2.6 98.95 -4.6 98.85 -19.7 92.25 -36.3 85.0 -37.2 79.3 -37.8 75.25 -34.05 66.5 -30.3 57.7 -24.2 48.85 -17.5 39.1 -10.5 33.25"></path>
    <path stroke="none" fill-rule="evenodd" fill="#ffffa8" d="M-18.75 -64.8 Q-10.65 -67.25 -4.15 -63.0 2.35 -58.75 3.45 -50.35 4.6 -41.95 -0.35 -34.3 -5.3 -26.65 -13.35 -24.2 -21.45 -21.8 -27.95 -26.0 -34.5 -30.25 -35.6 -38.65 -36.7 -47.1 -31.8 -54.75 -26.85 -62.4 -18.75 -64.8"></path>
    <path stroke="none" fill-rule="evenodd" fill="#82380d" d="M12.35 -7.65 Q16.8 -8.85 19.3 -10.4 23.3 -13.0 26.3 -18.35 37.45 -18.35 44.8 -8.45 52.35 1.7 52.35 17.85 52.35 34.3 44.6 45.95 36.9 57.55 25.9 57.55 14.95 57.55 7.25 45.95 -0.5 34.3 -0.5 17.85 -0.5 9.0 2.0 1.05 3.4 -3.45 6.3 -5.4 7.95 -6.55 12.35 -7.65"></path>
    <path stroke="none" fill-rule="evenodd" fill="#ffefaf" d="M10.75 -3.8 Q17.35 -13.75 26.7 -13.75 36.05 -13.75 42.7 -3.8 49.25 6.1 49.25 20.15 49.25 34.2 42.7 44.15 36.05 54.1 26.7 54.1 17.3 54.1 10.75 44.15 4.1 34.2 4.1 20.15 4.1 6.15 10.75 -3.8"></path>
    <path stroke="none" fill-rule="evenodd" fill="#fbd600" d="M47.5 7.0 Q49.25 13.25 49.25 20.15 49.25 29.55 46.05 37.6 L45.45 38.0 47.05 28.85 Q48.45 18.95 47.75 15.0 47.05 11.05 45.75 6.85 L44.7 3.5 5.65 17.3 4.65 12.8 5.15 10.0 42.7 -3.8 Q45.8 0.9 47.5 7.0"></path>
    <path stroke="none" fill-rule="evenodd" fill="#82380d" d="M-14.9 -11.6 Q-12.45 -10.0 -7.95 -8.85 -3.6 -7.7 -1.95 -6.6 0.95 -4.65 2.35 -0.15 4.85 7.9 4.85 16.7 4.85 33.15 -2.85 44.8 -10.6 56.4 -21.55 56.4 -32.5 56.4 -40.25 44.8 -47.95 33.15 -47.95 16.7 -47.95 0.55 -40.4 -9.6 -33.1 -19.5 -21.9 -19.5 -18.9 -14.15 -14.9 -11.6"></path>
    <path stroke="none" fill-rule="evenodd" fill="#ffefaf" d="M-37.5 -7.25 Q-30.9 -17.2 -21.55 -17.2 -12.2 -17.2 -5.55 -7.25 1.05 2.65 1.05 16.7 1.05 30.75 -5.55 40.7 -12.2 50.65 -21.55 50.65 -30.9 50.65 -37.5 40.7 -44.15 30.75 -44.15 16.7 -44.15 2.7 -37.5 -7.25"></path>
    <path stroke="none" fill-rule="evenodd" fill="#fbd600" d="M-41.2 5.7 Q-43.65 11.7 -44.1 19.35 L-44.15 16.7 Q-44.15 10.35 -42.65 4.5 -41.2 -1.15 -38.5 -5.7 L0.75 11.55 1.05 16.7 1.05 17.5 -38.8 1.2 Q-39.9 2.7 -41.2 5.7"></path>
    <path stroke="none" fill-rule="evenodd" fill="#82380d" d="M-19.0 25.6 Q-21.15 22.4 -21.15 17.85 -21.15 13.35 -19.0 10.15 -16.9 6.95 -13.9 6.95 -10.85 6.95 -8.75 10.15 -6.65 13.35 -6.65 17.85 -6.65 22.4 -8.75 25.6 -10.85 28.8 -13.9 28.8 -16.9 28.8 -19.0 25.6"></path>
    <path stroke="none" fill-rule="evenodd" fill="#64220a" d="M-19.6 14.65 Q-20.75 16.65 -21.05 19.65 L-21.15 18.7 Q-20.95 15.45 -20.45 13.2 -19.55 10.4 -17.8 8.7 -16.05 6.95 -13.9 6.95 -12.05 6.95 -10.45 8.25 -8.85 9.55 -7.85 11.75 -6.85 14.8 -6.65 18.7 L-6.7 19.3 Q-7.35 16.75 -8.85 14.7 -11.35 11.25 -15.05 11.55 -18.05 11.8 -19.6 14.65"></path>
    <path stroke="none" fill-rule="evenodd" fill="#82380d" d="M18.25 6.95 Q21.3 6.95 23.4 10.15 25.55 13.35 25.55 17.85 25.55 22.4 23.4 25.6 21.3 28.8 18.25 28.8 15.25 28.8 13.15 25.6 11.0 22.4 11.0 17.85 11.0 13.35 13.15 10.15 15.25 6.95 18.25 6.95"></path>
    <path stroke="none" fill-rule="evenodd" fill="#64220a" d="M23.5 10.25 Q25.55 13.45 25.55 17.85 L25.5 18.45 Q24.5 15.95 22.9 14.45 20.75 12.45 17.9 12.7 14.15 13.0 12.65 17.25 11.75 19.7 11.75 22.7 11.65 18.0 12.55 14.05 14.15 7.1 18.45 6.95 21.4 7.05 23.5 10.25"></path>
    <path stroke="none" fill-rule="evenodd" fill="#8e4216" d="M63.95 -28.9 Q66.35 -14.7 66.15 -11.45 65.9 -8.25 34.6 3.7 L3.35 15.0 -28.05 2.7 Q-59.45 -10.1 -59.45 -12.6 -59.45 -15.15 -57.15 -29.05 L-54.85 -42.5 3.35 -6.85 61.55 -42.5 63.95 -28.9"></path>
    <path stroke="none" fill-rule="evenodd" fill="#6f280d" d="M-51.8 -33.3 L-56.35 -10.0 Q-59.45 -11.85 -59.45 -12.6 -59.45 -15.15 -57.15 -29.05 L-54.85 -42.5 3.35 -6.85 61.55 -42.5 62.6 -36.65 2.55 1.2 -51.8 -33.3"></path>
    <path stroke="none" fill-rule="evenodd" fill="#82380d" d="M-16.3 86.15 Q-1.25 91.85 4.1 92.05 8.2 92.25 18.95 89.5 L35.5 85.15 Q35.3 88.95 31.9 96.6 28.6 104.15 23.7 112.15 11.75 131.7 3.35 134.65 -15.65 120.3 -24.9 99.0 -27.8 92.3 -29.35 85.75 L-30.35 80.55 -16.3 86.15"></path>
    <path stroke="none" fill-rule="evenodd" fill="#fecb01" d="M-13.2 92.5 Q-0.45 97.6 4.1 97.8 7.35 97.95 16.0 94.55 26.5 90.4 29.35 89.75 29.05 92.05 26.2 98.25 23.2 104.85 19.4 111.25 9.25 128.3 3.35 127.75 -6.3 124.9 -16.6 105.9 -19.8 99.95 -22.7 93.1 L-25.0 87.45 -13.2 92.5"></path>
    <path stroke="none" fill-rule="evenodd" fill="#82380d" d="M-9.75 35.1 Q-2.2 28.8 4.1 28.8 16.05 28.8 29.3 50.35 34.35 58.6 37.9 67.5 41.3 75.85 41.6 80.2 41.95 85.5 24.2 91.5 8.65 96.75 2.55 96.65 -4.25 96.55 -18.5 90.4 -34.15 83.6 -34.95 78.25 -35.5 74.45 -32.0 66.25 -28.5 58.05 -22.7 49.75 -16.35 40.6 -9.75 35.1"></path>
    <path stroke="none" fill-rule="evenodd" fill="#fecb01" d="M3.35 93.2 Q-2.1 93.2 -16.55 86.3 -31.3 79.25 -31.9 75.95 -32.2 74.1 -29.1 67.3 -25.7 60.0 -20.8 52.75 -7.5 32.85 4.1 32.25 14.8 33.8 27.2 53.65 31.95 61.25 35.3 68.95 38.4 76.2 38.55 79.4 38.2 82.85 22.45 88.25 8.0 93.2 3.35 93.2"></path>
    <path stroke="none" fill-rule="evenodd" fill="#fef4b2" d="M24.2 49.8 Q20.5 45.2 13.4 40.5 6.05 35.65 5.65 38.0 4.65 44.15 4.3 68.15 L4.1 90.9 2.15 66.8 Q-0.05 42.5 -1.25 41.45 -2.5 40.45 -6.65 44.0 -10.45 47.3 -15.15 53.05 -26.5 66.9 -27.3 73.65 -27.7 77.0 -13.35 84.4 L-4.15 89.0 Q-0.35 90.9 -1.25 90.9 -3.6 90.9 -21.4 83.9 -31.45 78.55 -31.9 75.95 -32.2 74.1 -29.1 67.3 -25.7 60.0 -20.85 52.75 -7.55 32.9 4.05 32.25 L4.15 32.25 Q11.75 33.35 20.75 44.55 L24.2 49.8 25.55 51.8 Q26.0 52.75 25.7 52.3 L24.2 49.8"></path>
  </g>
</svg>
