<svg xmlns="http://www.w3.org/2000/svg" width="319.65px" height="366.15px" xmlns:xlink="http://www.w3.org/1999/xlink">
  <g transform="matrix(1.0, 0.0, 0.0, 1.0, 158.6, 183.1)">
    <path stroke="none" fill-rule="evenodd" fill="#502f04" d="M71.65 -56.1 L71.65 -109.2 68.15 -118.65 Q64.0 -129.45 47.25 -148.15 35.75 -160.6 24.1 -167.7 11.55 -175.25 2.1 -174.55 L-3.8 -174.55 -3.8 -174.6 -14.1 -174.6 -16.0 -174.6 Q-28.25 -174.5 -32.6 -172.65 -35.95 -171.2 -38.3 -168.3 -41.45 -164.35 -41.4 -158.7 L-41.4 -158.3 Q-41.3 -153.4 -39.15 -150.3 L-33.8 -144.3 -33.05 -143.5 Q-58.1 -144.55 -68.75 -142.5 -75.05 -141.25 -80.85 -137.55 -86.95 -133.7 -88.3 -129.7 L-88.85 -129.1 Q-89.2 -127.65 -88.9 -126.25 -87.15 -116.8 -58.95 -110.15 L-59.3 -109.95 Q-84.85 -95.9 -100.0 -82.4 -104.5 -78.4 -108.1 -74.45 -115.9 -65.8 -122.2 -56.1 -130.35 -43.5 -135.9 -29.1 L-136.25 -28.2 Q-142.1 -13.05 -144.65 2.9 -145.85 10.3 -146.35 17.9 -146.7 23.15 -146.7 28.5 L-146.6 33.9 Q-146.35 41.0 -145.5 47.9 -143.45 65.4 -137.5 81.9 L-136.25 85.2 Q-133.15 93.35 -129.25 100.9 -124.4 110.3 -118.25 118.85 -113.55 125.45 -108.1 131.5 L-100.0 139.75 Q-84.75 154.05 -66.15 162.7 -42.2 173.9 -16.0 174.15 L-14.8 174.15 -8.05 174.15 -4.45 174.15 -3.8 174.15 3.7 174.15 25.25 174.1 Q49.45 173.5 71.65 163.6 L71.65 118.85 71.65 100.9 71.65 81.9 71.65 47.9 71.65 33.9 71.65 17.9 71.65 2.9 71.65 -29.1 71.65 -56.1 M77.6 -117.95 L79.55 -112.1 Q102.2 -100.6 120.0 -80.95 139.4 -59.55 150.05 -31.8 161.05 -3.05 161.05 28.4 161.05 59.9 150.05 88.6 139.4 116.35 120.0 137.75 100.65 159.15 75.5 170.9 51.0 182.35 24.25 183.0 L1.35 183.05 -5.3 183.05 -9.55 183.05 -18.6 183.05 Q-47.1 183.05 -73.1 170.9 -98.25 159.15 -117.6 137.75 -136.95 116.35 -147.55 88.6 -158.6 59.9 -158.6 28.4 -158.6 -3.05 -147.55 -31.8 -136.95 -59.55 -117.6 -80.95 -101.0 -99.35 -80.0 -110.6 -92.5 -113.3 -98.15 -119.75 -101.95 -124.15 -101.6 -129.35 -101.1 -134.55 -96.6 -139.6 -88.85 -148.1 -75.85 -150.65 -64.7 -152.8 -47.85 -150.85 -49.65 -155.0 -49.9 -159.2 -50.3 -166.05 -46.65 -173.0 -44.0 -178.1 -38.65 -180.65 -33.6 -183.1 -26.6 -183.1 L-17.5 -183.05 -9.55 -183.05 -5.95 -183.05 -5.3 -183.05 -0.35 -183.0 9.65 -182.35 Q29.75 -178.45 47.6 -159.2 70.0 -137.75 77.6 -117.95"></path>
    <path stroke="none" fill-rule="evenodd" fill="#ffc000" d="M-41.4 -158.7 Q-41.45 -164.35 -38.3 -168.3 -35.95 -171.2 -32.6 -172.65 -28.25 -174.5 -16.0 -174.6 L-14.1 -174.6 -3.8 -174.6 -3.8 -174.55 2.1 -174.55 Q11.55 -175.25 24.1 -167.7 35.75 -160.6 47.25 -148.15 64.0 -129.45 68.15 -118.65 L71.65 -109.2 71.65 -56.1 -122.2 -56.1 Q-115.9 -65.8 -108.1 -74.45 -104.5 -78.4 -100.0 -82.4 -84.85 -95.9 -59.3 -109.95 L-52.75 -109.15 Q-36.35 -107.2 -16.0 -106.7 L-14.6 -106.65 -8.05 -106.4 -3.8 -106.25 -3.8 -106.15 Q3.95 -106.05 10.3 -106.35 20.2 -106.8 -3.8 -112.6 L-3.8 -113.6 -8.05 -114.55 -12.25 -115.5 Q-14.75 -116.15 -12.15 -120.2 -9.75 -123.85 -16.0 -122.85 L-17.5 -122.55 -22.6 -121.55 -29.6 -122.3 Q-44.05 -123.8 -46.4 -124.65 -48.9 -125.55 -49.85 -126.4 -51.0 -127.45 -51.8 -128.8 -53.4 -127.2 -56.95 -125.95 -60.5 -124.75 -69.5 -124.85 L-88.9 -126.25 Q-89.2 -127.65 -88.85 -129.1 L-88.3 -129.7 Q-86.95 -133.7 -80.85 -137.55 -75.05 -141.25 -68.75 -142.5 -58.1 -144.55 -33.05 -143.5 L-33.8 -144.3 -29.0 -143.4 Q-24.2 -139.55 -16.0 -135.1 L-8.05 -131.05 -3.85 -129.05 -3.8 -129.0 -3.8 -127.1 Q6.25 -122.65 16.15 -119.3 27.75 -115.35 31.9 -115.35 L32.8 -115.35 Q20.65 -128.25 12.7 -135.7 L10.5 -137.7 Q4.6 -143.0 -0.25 -146.55 L-0.5 -156.4 -41.4 -158.7"></path>
    <path stroke="none" fill-rule="evenodd" fill="#dd8007" d="M-41.4 -158.7 L-0.5 -156.4 -0.25 -146.55 Q4.6 -143.0 10.5 -137.7 L12.7 -135.7 Q20.65 -128.25 32.8 -115.35 L31.9 -115.35 Q27.75 -115.35 16.15 -119.3 6.25 -122.65 -3.8 -127.1 L-3.8 -129.0 -3.85 -129.05 -8.05 -131.05 -16.0 -135.1 Q-24.2 -139.55 -29.0 -143.4 L-33.8 -144.3 -39.15 -150.3 Q-41.3 -153.4 -41.4 -158.3 L-41.4 -158.7 M-88.9 -126.25 L-69.5 -124.85 Q-60.5 -124.75 -56.95 -125.95 -53.4 -127.2 -51.8 -128.8 -51.0 -127.45 -49.85 -126.4 -48.9 -125.55 -46.4 -124.65 -44.05 -123.8 -29.6 -122.3 L-22.6 -121.55 -17.5 -122.55 -16.0 -122.85 Q-9.75 -123.85 -12.15 -120.2 -14.75 -116.15 -12.25 -115.5 L-8.05 -114.55 -3.8 -113.6 -3.8 -112.6 Q20.2 -106.8 10.3 -106.35 3.95 -106.05 -3.8 -106.15 L-3.8 -106.25 -8.05 -106.4 -14.6 -106.65 -16.0 -106.7 Q-36.35 -107.2 -52.75 -109.15 L-59.3 -109.95 -58.95 -110.15 Q-87.15 -116.8 -88.9 -126.25"></path>
    <path stroke="none" fill-rule="evenodd" fill="#ffd03c" d="M-122.2 -56.1 L71.65 -56.1 71.65 -29.1 -135.9 -29.1 Q-130.35 -43.5 -122.2 -56.1"></path>
    <path stroke="none" fill-rule="evenodd" fill="#fffff7" d="M71.65 17.9 L71.65 33.9 -146.6 33.9 -146.7 28.5 Q-146.7 23.15 -146.35 17.9 L71.65 17.9"></path>
    <path stroke="none" fill-rule="evenodd" fill="#fcf9ac" d="M71.65 33.9 L71.65 47.9 -145.5 47.9 Q-146.35 41.0 -146.6 33.9 L71.65 33.9"></path>
    <path stroke="none" fill-rule="evenodd" fill="#fff5b0" d="M71.65 2.9 L71.65 17.9 -146.35 17.9 Q-145.85 10.3 -144.65 2.9 L71.65 2.9"></path>
    <path stroke="none" fill-rule="evenodd" fill="#fecb00" d="M71.65 47.9 L71.65 81.9 -137.5 81.9 Q-143.45 65.4 -145.5 47.9 L71.65 47.9"></path>
    <path stroke="none" fill-rule="evenodd" fill="#f08e13" d="M71.65 100.9 L71.65 118.85 -118.25 118.85 Q-124.4 110.3 -129.25 100.9 L71.65 100.9"></path>
    <path stroke="none" fill-rule="evenodd" fill="#dd8102" d="M71.65 118.85 L71.65 163.6 Q49.45 173.5 25.25 174.1 L3.7 174.15 -3.8 174.15 -4.45 174.15 -8.05 174.15 -14.8 174.15 -16.0 174.15 Q-42.2 173.9 -66.15 162.7 -84.75 154.05 -100.0 139.75 L-108.1 131.5 Q-113.55 125.45 -118.25 118.85 L71.65 118.85"></path>
    <path stroke="none" fill-rule="evenodd" fill="#f4a637" d="M71.65 81.9 L71.65 100.9 -129.25 100.9 Q-133.15 93.35 -136.25 85.2 L-137.5 81.9 71.65 81.9"></path>
    <path stroke="none" fill-rule="evenodd" fill="#fce17a" d="M71.65 -29.1 L71.65 2.9 -144.65 2.9 Q-142.1 -13.05 -136.25 -28.2 L-135.9 -29.1 71.65 -29.1"></path>
    <path stroke="none" fill-rule="evenodd" fill="#fef4b2" d="M140.4 -28.0 Q150.65 -1.2 150.65 28.2 150.65 57.55 140.4 84.4 130.55 110.3 112.6 130.25 94.65 150.25 71.4 161.2 47.3 172.55 20.9 172.55 -5.55 172.55 -29.65 161.2 -52.9 150.25 -70.85 130.25 -88.85 110.3 -98.65 84.4 -108.85 57.55 -108.85 28.2 -108.85 -1.15 -98.65 -28.0 -88.85 -53.9 -70.85 -73.9 -52.9 -93.9 -29.65 -104.85 -5.55 -116.2 20.9 -116.2 47.3 -116.2 71.4 -104.85 94.65 -93.9 112.6 -73.9 130.55 -53.9 140.4 -28.0"></path>
    <path stroke="none" fill-rule="evenodd" fill="#fecb01" d="M134.75 -24.55 Q144.4 0.9 144.4 28.75 144.4 56.6 134.75 82.05 125.45 106.6 108.4 125.55 91.4 144.5 69.3 154.9 46.45 165.65 21.4 165.65 -3.65 165.65 -26.5 154.9 -48.6 144.5 -65.65 125.55 -82.65 106.6 -92.0 82.05 -101.65 56.6 -101.65 28.75 -101.65 0.9 -92.0 -24.55 -82.65 -49.1 -65.65 -68.05 -48.6 -87.0 -26.5 -97.4 -3.65 -108.15 21.4 -108.15 46.45 -108.15 69.3 -97.4 91.4 -87.0 108.4 -68.05 125.45 -49.1 134.75 -24.55"></path>
    <path stroke="none" fill-rule="evenodd" fill="#fef4b2" d="M126.1 -21.3 Q135.1 2.3 135.1 28.2 135.1 54.05 126.1 77.7 117.45 100.5 101.65 118.1 85.85 135.65 65.35 145.3 44.1 155.3 20.9 155.3 -2.4 155.3 -23.6 145.3 -44.15 135.65 -59.9 118.1 -75.75 100.5 -84.4 77.7 -93.4 54.05 -93.4 28.2 -93.4 2.3 -84.4 -21.3 -75.75 -44.1 -59.9 -61.7 -44.15 -79.3 -23.6 -88.95 -2.4 -98.95 20.9 -98.95 44.1 -98.95 65.35 -88.95 85.85 -79.3 101.65 -61.7 117.45 -44.1 126.1 -21.3"></path>
    <path stroke="none" fill-rule="evenodd" fill="#f8a300" d="M126.1 -21.3 Q135.1 2.3 135.1 28.2 135.1 48.7 129.45 67.85 L5.0 66.85 Q-79.6 66.15 -88.05 66.8 -93.4 48.0 -93.4 28.2 -93.4 2.3 -84.4 -21.3 -75.75 -44.1 -59.9 -61.7 -44.15 -79.3 -23.6 -88.95 -2.4 -98.95 20.9 -98.95 44.1 -98.95 65.35 -88.95 85.85 -79.3 101.65 -61.7 117.45 -44.1 126.1 -21.3"></path>
    <path stroke="none" fill-rule="evenodd" fill="#ffc000" d="M-8.6 -168.8 Q-2.7 -177.55 12.9 -172.3 28.85 -166.95 44.15 -150.4 59.2 -135.9 67.7 -118.1 73.45 -106.25 75.5 -94.7 81.1 -91.25 87.55 -86.6 86.25 -85.4 83.65 -84.8 78.4 -83.55 72.05 -86.6 54.6 -94.95 42.75 -98.3 24.05 -103.65 10.0 -100.4 -14.3 -94.8 -21.1 -96.45 -23.25 -97.0 -23.4 -98.15 L-23.05 -99.25 -15.55 -103.05 Q-6.3 -106.95 2.75 -107.3 L3.0 -107.35 -15.4 -110.8 -38.6 -114.7 Q-54.8 -117.65 -60.4 -123.25 -66.2 -129.1 -58.25 -135.45 -49.7 -142.2 -41.8 -143.5 -32.9 -144.9 -16.85 -141.2 -5.7 -138.6 9.1 -132.6 -7.6 -143.7 -11.1 -153.5 -13.8 -161.1 -8.6 -168.8"></path>
    <path stroke="none" fill-rule="evenodd" fill="#feffba" d="M-12.4 -133.2 Q-27.2 -136.8 -39.65 -135.45 -48.25 -134.5 -53.0 -131.05 L-55.8 -128.65 Q-57.15 -127.55 -58.25 -127.4 -60.5 -127.0 -60.65 -128.9 L-60.3 -130.85 Q-59.95 -132.9 -59.15 -134.65 L-58.25 -135.45 Q-52.3 -140.15 -47.3 -142.0 -39.8 -143.55 -26.2 -143.05 L-16.85 -141.2 Q-7.3 -138.95 5.55 -134.0 18.55 -129.0 29.4 -123.4 32.4 -120.35 33.8 -118.15 L30.35 -118.25 Q24.8 -119.25 14.15 -123.95 -0.55 -130.35 -12.4 -133.2 M-9.6 -156.15 Q-11.1 -159.05 -11.55 -162.55 -10.7 -165.75 -8.6 -168.8 -2.65 -177.6 13.05 -172.5 29.2 -167.25 44.4 -150.7 57.5 -138.1 67.2 -119.95 74.55 -106.1 78.4 -92.4 76.9 -93.65 74.5 -94.95 L72.5 -96.0 Q68.6 -106.3 61.35 -118.8 46.8 -143.85 29.65 -155.0 17.05 -163.2 9.0 -164.5 3.75 -165.35 -1.4 -163.05 -4.6 -161.6 -7.4 -158.75 L-9.6 -156.15"></path>
    <path stroke="none" fill-rule="evenodd" fill="#773f00" d="M120.4 -18.6 Q128.9 3.75 128.9 28.2 128.9 52.65 120.4 74.95 112.2 96.55 97.25 113.2 82.3 129.8 62.95 138.95 42.9 148.4 20.9 148.4 -1.1 148.4 -21.2 138.95 -40.55 129.8 -55.55 113.2 -70.5 96.55 -78.7 74.95 -87.2 52.65 -87.2 28.2 -87.2 3.75 -78.7 -18.6 -70.5 -40.2 -55.55 -56.8 -40.55 -73.45 -21.2 -82.6 -1.1 -92.05 20.9 -92.05 42.85 -92.05 62.95 -82.6 82.3 -73.45 97.25 -56.8 112.2 -40.2 120.4 -18.6"></path>
    <path stroke="none" fill-rule="evenodd" fill="#a76a00" d="M114.65 -16.6 Q122.7 4.25 122.7 27.05 122.7 49.85 114.65 70.7 106.9 90.8 92.75 106.35 78.55 121.85 60.2 130.4 41.15 139.2 20.35 139.2 -0.5 139.2 -19.5 130.4 -37.85 121.85 -52.05 106.35 -66.2 90.8 -73.95 70.7 -82.0 49.85 -82.0 27.05 -82.0 4.25 -73.95 -16.6 -66.2 -36.75 -52.05 -52.3 -37.85 -67.8 -19.5 -76.35 -0.5 -85.15 20.35 -85.15 41.15 -85.15 60.2 -76.35 78.55 -67.8 92.75 -52.3 106.9 -36.75 114.65 -16.6"></path>
    <path stroke="none" fill-rule="evenodd" fill="#dc8100" d="M114.65 -12.7 Q122.7 7.6 122.7 29.85 122.7 52.1 114.65 72.4 106.9 92.05 92.75 107.2 78.55 122.3 60.2 130.6 41.15 139.2 20.35 139.2 -0.5 139.2 -19.5 130.6 -37.85 122.3 -52.05 107.2 -66.2 92.05 -73.95 72.4 -82.0 52.1 -82.0 29.85 -82.0 7.6 -73.95 -12.7 -66.2 -32.3 -52.05 -47.45 -37.85 -62.55 -19.5 -70.85 -0.5 -79.45 20.35 -79.45 41.15 -79.45 60.2 -70.85 78.55 -62.55 92.75 -47.45 106.9 -32.3 114.65 -12.7"></path>
    <path stroke="none" fill-rule="evenodd" fill="#fecb01" d="M113.75 -9.55 Q121.7 10.35 121.7 32.1 121.7 53.9 113.75 73.8 106.05 93.0 92.0 107.85 77.95 122.65 59.8 130.8 40.95 139.2 20.35 139.2 -0.25 139.2 -19.1 130.8 -37.3 122.65 -51.35 107.85 -65.35 93.0 -73.05 73.8 -81.0 53.9 -81.0 32.1 -81.0 10.35 -73.05 -9.55 -65.35 -28.75 -51.35 -43.6 -37.3 -58.4 -19.1 -66.55 -0.25 -74.95 20.35 -74.95 40.95 -74.95 59.8 -66.55 77.95 -58.4 92.0 -43.6 106.05 -28.75 113.75 -9.55"></path>
    <path stroke="none" fill-rule="evenodd" fill="#fab300" d="M119.6 57.5 L114.95 71.0 Q108.45 87.25 99.1 100.65 69.25 143.6 22.4 142.65 -24.0 141.65 -53.3 106.35 -62.95 94.65 -70.3 79.55 L-77.85 62.1 -74.45 55.75 Q-69.35 48.15 -61.2 41.9 -35.15 21.9 12.05 23.0 64.75 24.2 97.45 41.0 113.8 49.35 119.6 57.5"></path>
    <path stroke="none" fill-rule="evenodd" fill="#d29001" d="M-80.95 16.1 L-78.35 17.85 Q-75.2 20.25 -72.8 23.5 -64.9 34.0 -66.55 49.45 -67.95 63.25 -72.0 66.95 -73.3 68.1 -74.65 68.1 L-75.8 67.85 Q-78.25 59.95 -80.1 49.55 -83.9 28.7 -80.95 16.1 M106.2 44.85 Q106.2 31.2 113.9 22.3 117.8 17.85 121.65 16.1 124.25 35.15 120.15 54.55 118.05 64.25 115.5 70.15 113.15 69.3 110.85 65.7 106.2 58.55 106.2 44.85 M104.1 -23.0 L105.3 -12.8 Q106.05 -2.15 104.1 0.0 L88.05 5.35 Q93.2 13.7 94.6 24.6 97.05 44.35 88.35 58.8 79.2 74.05 61.35 76.45 48.35 78.15 36.95 70.7 25.7 63.4 20.2 49.95 14.65 63.0 3.5 70.1 -7.75 77.25 -20.45 75.55 -38.0 73.15 -47.3 57.95 -56.1 43.4 -53.7 23.8 -52.3 12.85 -47.15 4.5 -59.25 0.8 -60.3 -1.15 -61.25 -2.95 -60.9 -9.7 L-60.3 -16.1 -33.4 -12.65 -34.7 -7.75 Q-23.75 -14.25 -10.2 -12.2 -4.75 -2.0 6.5 2.4 L14.55 5.55 Q18.7 7.55 20.7 10.7 22.8 7.95 26.95 6.05 29.35 4.95 34.85 3.0 45.7 -1.35 51.05 -11.4 L65.75 -10.9 Q72.7 -9.3 78.45 -5.1 L104.1 -23.0"></path>
    <path stroke="none" fill-rule="evenodd" fill="#fef2b0" d="M-7.55 84.45 Q14.75 90.7 22.6 90.95 28.65 91.15 44.55 88.1 L68.95 83.3 Q68.65 87.5 63.65 95.95 58.8 104.3 51.55 113.15 33.9 134.8 21.45 138.05 -6.5 122.15 -20.2 98.6 -24.45 91.25 -26.75 83.95 L-28.25 78.2 -7.55 84.45"></path>
    <path stroke="none" fill-rule="evenodd" fill="#fef2b0" d="M2.7 33.2 Q13.55 26.45 22.55 26.45 39.65 26.45 58.6 49.5 65.85 58.3 70.95 67.8 75.75 76.7 76.15 81.35 76.7 87.0 51.3 93.45 42.05 95.75 32.25 97.4 23.35 98.95 20.4 98.9 10.65 98.8 -9.75 92.2 -32.15 84.95 -33.35 79.25 -34.15 75.2 -29.1 66.45 -24.05 57.65 -15.85 48.8 -6.75 39.05 2.7 33.2"></path>
    <path stroke="none" fill-rule="evenodd" fill="#ffffa8" d="M-8.45 -64.85 Q2.5 -67.3 11.25 -63.05 20.05 -58.8 21.55 -50.4 23.1 -42.0 16.45 -34.35 9.7 -26.7 -1.15 -24.25 -12.1 -21.85 -20.85 -26.05 -29.7 -30.3 -31.15 -38.7 -32.7 -47.15 -26.05 -54.8 -19.4 -62.45 -8.45 -64.85"></path>
    <path stroke="none" fill-rule="evenodd" fill="#82380d" d="M33.55 -7.7 Q39.55 -8.9 42.95 -10.45 48.35 -13.05 52.4 -18.4 67.45 -18.4 77.35 -8.5 87.55 1.65 87.55 17.8 87.55 34.25 77.1 45.9 66.7 57.5 51.9 57.5 37.1 57.5 26.65 45.9 16.2 34.25 16.2 17.8 16.2 8.95 19.6 1.0 21.45 -3.5 25.4 -5.45 27.65 -6.6 33.55 -7.7"></path>
    <path stroke="none" fill-rule="evenodd" fill="#ffefaf" d="M31.35 -3.85 Q40.3 -13.8 52.9 -13.8 65.55 -13.8 74.5 -3.85 83.4 6.05 83.4 20.1 83.4 34.15 74.5 44.1 65.55 54.05 52.9 54.05 40.25 54.05 31.35 44.1 22.4 34.15 22.4 20.1 22.4 6.1 31.35 -3.85"></path>
    <path stroke="none" fill-rule="evenodd" fill="#fbd600" d="M81.05 6.95 Q83.4 13.2 83.4 20.1 83.4 29.5 79.1 37.55 L78.25 37.95 80.4 28.8 Q82.35 18.9 81.35 14.95 80.4 11.0 78.7 6.8 L77.2 3.45 24.5 17.25 23.15 12.75 23.8 9.95 74.5 -3.85 Q78.75 0.85 81.05 6.95"></path>
    <path stroke="none" fill-rule="evenodd" fill="#82380d" d="M-3.25 -11.65 Q0.1 -10.05 6.15 -8.9 12.0 -7.75 14.25 -6.65 18.2 -4.7 20.05 -0.2 23.45 7.85 23.45 16.65 23.45 33.1 13.0 44.75 2.55 56.35 -12.25 56.35 -27.05 56.35 -37.45 44.75 -47.9 33.1 -47.9 16.65 -47.9 0.5 -37.7 -9.65 -27.8 -19.55 -12.7 -19.55 -8.7 -14.2 -3.25 -11.65"></path>
    <path stroke="none" fill-rule="evenodd" fill="#ffefaf" d="M-33.8 -7.3 Q-24.85 -17.25 -12.25 -17.25 0.4 -17.25 9.35 -7.3 18.25 2.6 18.25 16.65 18.25 30.7 9.35 40.65 0.4 50.6 -12.25 50.6 -24.85 50.6 -33.8 40.65 -42.75 30.7 -42.75 16.65 -42.75 2.65 -33.8 -7.3"></path>
    <path stroke="none" fill-rule="evenodd" fill="#fbd600" d="M-38.75 5.65 Q-42.05 11.65 -42.65 19.3 L-42.75 16.65 Q-42.75 10.3 -40.7 4.45 -38.75 -1.2 -35.1 -5.75 L17.9 11.5 18.25 16.65 18.25 17.45 -35.5 1.15 Q-37.0 2.65 -38.75 5.65"></path>
    <path stroke="none" fill-rule="evenodd" fill="#82380d" d="M-8.8 25.55 Q-11.7 22.35 -11.7 17.8 -11.7 13.3 -8.8 10.1 -6.0 6.9 -1.9 6.9 2.2 6.9 5.05 10.1 7.95 13.3 7.95 17.8 7.95 22.35 5.05 25.55 2.2 28.75 -1.9 28.75 -6.0 28.75 -8.8 25.55"></path>
    <path stroke="none" fill-rule="evenodd" fill="#64220a" d="M-9.6 14.6 Q-11.15 16.6 -11.55 19.6 L-11.7 18.65 Q-11.4 15.4 -10.75 13.15 -9.55 10.35 -7.2 8.65 -4.75 6.9 -1.9 6.9 0.6 6.9 2.8 8.2 4.9 9.5 6.25 11.7 7.6 14.75 7.9 18.65 L7.85 19.25 Q6.95 16.7 4.95 14.65 1.6 11.2 -3.45 11.5 -7.5 11.75 -9.6 14.6"></path>
    <path stroke="none" fill-rule="evenodd" fill="#82380d" d="M41.55 6.9 Q45.65 6.9 48.5 10.1 51.4 13.3 51.4 17.8 51.4 22.35 48.5 25.55 45.65 28.75 41.55 28.75 37.5 28.75 34.6 25.55 31.7 22.35 31.7 17.8 31.7 13.3 34.6 10.1 37.5 6.9 41.55 6.9"></path>
    <path stroke="none" fill-rule="evenodd" fill="#64220a" d="M48.6 10.2 Q51.4 13.4 51.4 17.8 L51.35 18.4 Q49.95 15.9 47.85 14.4 44.9 12.4 41.05 12.65 36.0 12.95 33.95 17.2 32.75 19.65 32.75 22.65 32.6 17.95 33.8 14.0 35.95 7.05 41.8 6.9 45.8 7.0 48.6 10.2"></path>
    <path stroke="none" fill-rule="evenodd" fill="#8e4216" d="M103.25 -28.95 Q106.5 -14.75 106.2 -11.5 105.85 -8.3 63.6 3.65 L21.4 14.95 Q0.2 9.05 -21.0 2.65 -63.45 -10.15 -63.45 -12.65 -63.45 -15.2 -60.3 -29.1 L-57.2 -42.55 21.4 -6.9 99.95 -42.55 103.25 -28.95"></path>
    <path stroke="none" fill-rule="evenodd" fill="#6f280d" d="M-53.1 -33.35 L-59.2 -10.05 Q-63.45 -11.9 -63.45 -12.65 -63.45 -15.2 -60.3 -29.1 L-57.2 -42.55 21.4 -6.9 99.95 -42.55 101.4 -36.7 20.35 1.15 -53.1 -33.35"></path>
    <path stroke="none" fill-rule="evenodd" fill="#82380d" d="M-5.15 86.1 Q15.2 91.8 22.4 92.0 27.95 92.2 42.5 89.45 L64.8 85.1 Q64.5 88.9 60.0 96.55 55.5 104.1 48.9 112.1 32.7 131.65 21.4 134.6 -4.2 120.25 -16.75 98.95 -20.65 92.25 -22.75 85.7 L-24.1 80.5 -5.15 86.1"></path>
    <path stroke="none" fill-rule="evenodd" fill="#fecb01" d="M-0.95 92.45 Q16.25 97.55 22.4 97.75 26.8 97.9 38.5 94.5 52.65 90.35 56.5 89.7 56.1 92.0 52.3 98.2 48.25 104.8 43.1 111.2 29.4 128.25 21.4 127.7 8.4 124.85 -5.55 105.85 -9.9 99.9 -13.8 93.05 L-16.85 87.4 -0.95 92.45"></path>
    <path stroke="none" fill-rule="evenodd" fill="#82380d" d="M3.7 35.05 Q13.9 28.75 22.4 28.75 38.55 28.75 56.4 50.3 63.25 58.55 68.1 67.45 72.6 75.8 73.0 80.15 73.5 85.45 49.55 91.45 28.55 96.7 20.35 96.6 11.15 96.5 -8.1 90.35 -29.25 83.55 -30.3 78.2 -31.1 74.4 -26.35 66.2 -21.6 58.0 -13.8 49.7 -5.2 40.55 3.7 35.05"></path>
    <path stroke="none" fill-rule="evenodd" fill="#fecb01" d="M21.4 93.15 Q14.05 93.15 -5.5 86.25 -25.4 79.2 -26.2 75.9 -26.6 74.05 -22.4 67.25 -17.85 59.95 -11.25 52.7 6.75 32.8 22.4 32.2 36.85 33.75 53.65 53.6 60.0 61.2 64.5 68.9 68.75 76.15 68.95 79.35 68.45 82.8 47.2 88.2 27.7 93.15 21.4 93.15"></path>
    <path stroke="none" fill-rule="evenodd" fill="#fef4b2" d="M49.6 49.75 Q44.6 45.15 34.95 40.45 25.0 35.6 24.5 37.95 23.2 44.1 22.7 68.1 22.4 80.1 22.4 90.85 21.3 78.9 19.8 66.75 16.85 42.45 15.15 41.4 13.5 40.4 7.95 43.95 2.8 47.25 -3.6 53.0 -18.9 66.85 -19.95 73.6 -20.5 76.95 -1.15 84.35 3.5 86.15 11.3 88.95 16.45 90.85 15.15 90.85 12.0 90.85 -12.0 83.85 -25.6 78.5 -26.2 75.9 -26.6 74.05 -22.4 67.25 -17.85 59.95 -11.3 52.7 6.7 32.85 22.35 32.2 L22.45 32.2 Q32.7 33.3 44.9 44.5 L49.6 49.75 51.4 51.75 Q51.95 52.7 51.55 52.25 L49.6 49.75"></path>
  </g>
</svg>
