<svg xmlns="http://www.w3.org/2000/svg" width="238.0px" height="364.7px" xmlns:xlink="http://www.w3.org/1999/xlink">
  <g transform="matrix(1.0, 0.0, 0.0, 1.0, 80.45, 183.15)">
    <path stroke="none" fill-rule="evenodd" fill="#61441e" d="M85.4 -175.4 Q91.0 -169.5 96.2 -159.2 108.5 -137.75 112.65 -117.95 L113.85 -111.25 Q125.7 -99.85 135.1 -80.95 145.7 -59.55 151.55 -31.8 157.55 -3.05 157.55 28.4 157.55 59.9 151.55 88.6 145.7 116.35 135.1 137.75 130.2 147.65 124.6 155.45 118.1 164.05 110.7 170.05 98.5 179.85 85.4 181.3 L82.25 181.55 56.4 181.55 -5.6 181.55 Q-20.2 180.85 -33.6 170.05 -41.05 164.05 -47.5 155.45 -53.1 147.65 -58.0 137.75 -68.65 116.35 -74.45 88.6 -80.45 59.9 -80.45 28.4 -80.45 -3.05 -74.45 -31.8 -68.65 -59.55 -58.0 -80.95 -49.35 -98.45 -38.55 -109.5 -48.1 -111.75 -51.95 -119.75 -54.1 -124.15 -53.85 -129.35 -53.6 -134.55 -51.1 -139.6 -46.85 -148.1 -39.75 -150.65 -33.6 -152.8 -24.4 -150.85 -26.95 -161.85 -23.75 -173.0 -21.9 -179.35 -17.95 -181.8 -16.15 -182.95 -14.05 -183.1 L-12.5 -183.1 62.4 -183.1 70.5 -183.1 72.05 -183.1 75.4 -182.35 Q80.55 -180.55 85.4 -175.4"></path>
    <path stroke="none" fill-rule="evenodd" fill="#dd8300" d="M-6.5 -153.7 L10.55 -119.35 -31.0 -134.85 Q-33.2 -139.45 -34.0 -143.05 -34.15 -143.75 -30.45 -144.05 L-19.3 -144.4 -14.75 -144.4 -8.7 -144.6 Q-4.5 -144.95 -4.65 -145.65 L-6.5 -153.7 M103.95 -105.95 L26.15 -103.6 1.9 -159.6 84.05 -160.05 Q92.75 -146.0 98.2 -128.8 101.6 -118.35 103.75 -106.75 L103.95 -105.95"></path>
    <path stroke="none" fill-rule="evenodd" fill="#ffc000" d="M-6.5 -153.7 L-8.55 -162.4 -8.6 -162.55 -9.75 -167.4 -10.65 -171.15 -11.5 -174.55 Q-11.3 -175.45 0.25 -175.8 9.75 -176.05 26.9 -175.95 L39.9 -175.85 64.9 -175.4 66.35 -175.4 Q67.85 -175.25 72.8 -172.95 75.4 -171.75 77.85 -169.15 L79.4 -167.05 83.6 -160.75 84.05 -160.05 1.9 -159.6 26.15 -103.6 103.95 -105.95 Q114.05 -94.35 121.65 -80.8 L125.55 -73.5 130.1 -63.5 41.4 -63.5 41.4 -35.65 41.4 -2.6 41.4 12.85 41.4 29.4 41.4 43.85 41.4 78.95 41.4 98.55 41.4 107.95 -3.5 107.95 -3.5 117.1 -3.5 122.95 -29.55 122.95 -29.55 107.95 -8.75 107.95 Q-12.15 97.4 -14.6 85.6 -20.3 58.7 -20.3 29.1 -20.3 -0.4 -15.7 -24.2 -11.1 -48.05 -6.9 -58.5 -2.7 -69.0 5.05 -83.15 5.8 -84.55 0.6 -91.2 L-11.8 -106.45 Q-18.5 -114.75 -23.25 -121.7 L-26.95 -127.45 -31.0 -134.85 10.55 -119.35 -6.5 -153.7"></path>
    <path stroke="none" fill-rule="evenodd" fill="#fce17a" d="M41.4 -2.6 L41.4 -35.65 139.1 -35.65 140.95 -27.4 Q143.5 -15.25 144.9 -2.6 L41.4 -2.6"></path>
    <path stroke="none" fill-rule="evenodd" fill="#ffd03c" d="M41.4 -35.65 L41.4 -63.5 130.1 -63.5 132.0 -58.55 Q136.05 -47.8 139.1 -35.65 L41.4 -35.65"></path>
    <path stroke="none" fill-rule="evenodd" fill="#fff5b0" d="M41.4 12.85 L41.4 -2.6 144.9 -2.6 Q145.75 5.05 146.2 12.85 L41.4 12.85"></path>
    <path stroke="none" fill-rule="evenodd" fill="#fcf9ac" d="M41.4 43.85 L41.4 29.4 146.6 29.4 Q146.6 36.7 146.25 43.85 L41.4 43.85"></path>
    <path stroke="none" fill-rule="evenodd" fill="#fffff7" d="M41.4 29.4 L41.4 12.85 146.2 12.85 Q146.6 20.9 146.6 29.1 L146.6 29.4 41.4 29.4"></path>
    <path stroke="none" fill-rule="evenodd" fill="#f4a637" d="M41.4 98.55 L41.4 78.95 142.3 78.95 140.95 85.6 137.85 98.55 41.4 98.55"></path>
    <path stroke="none" fill-rule="evenodd" fill="#fecb00" d="M41.4 78.95 L41.4 43.85 146.25 43.85 Q145.4 61.95 142.3 78.95 L41.4 78.95"></path>
    <path stroke="none" fill-rule="evenodd" fill="#dd8102" d="M-3.5 122.95 L-3.5 117.1 131.9 117.1 Q128.95 124.8 125.55 131.75 122.0 138.95 118.05 144.95 113.4 151.45 108.3 156.45 L102.65 161.8 102.5 161.95 Q91.35 171.0 79.4 172.45 L76.95 172.7 66.95 172.7 62.55 172.7 60.75 172.7 55.45 172.7 53.95 172.7 52.35 172.7 26.6 172.7 11.55 172.7 -1.95 172.7 -1.95 151.35 15.95 151.35 15.95 137.95 20.05 137.95 20.05 122.95 -3.5 122.95"></path>
    <path stroke="none" fill-rule="evenodd" fill="#f08e13" d="M-3.5 117.1 L-3.5 107.95 41.4 107.95 41.4 98.55 137.85 98.55 Q135.2 108.3 131.9 117.1 L-3.5 117.1"></path>
    <path stroke="none" fill-rule="evenodd" fill="#fef4b2" d="M64.5 -27.95 Q70.05 -1.15 70.05 28.25 70.05 57.6 64.5 84.45 59.2 110.35 49.5 130.3 39.8 150.3 27.25 161.25 14.2 172.6 -0.05 172.6 -14.3 172.6 -27.35 161.25 -39.9 150.3 -49.6 130.3 -59.3 110.35 -64.6 84.45 -70.15 57.6 -70.15 28.25 -70.15 -1.1 -64.6 -27.95 -59.3 -53.85 -49.6 -73.85 -39.9 -93.85 -27.35 -104.8 -14.3 -116.15 -0.05 -116.15 14.2 -116.15 27.25 -104.8 39.8 -93.85 49.5 -73.85 59.2 -53.85 64.5 -27.95"></path>
    <path stroke="none" fill-rule="evenodd" fill="#fecb01" d="M61.45 -24.5 Q66.7 0.95 66.7 28.8 66.7 56.65 61.45 82.1 56.45 106.65 47.2 125.6 38.05 144.55 26.1 154.95 13.75 165.7 0.2 165.7 -13.3 165.7 -25.65 154.95 -37.55 144.55 -46.8 125.6 -55.95 106.65 -61.0 82.1 -66.25 56.65 -66.25 28.8 -66.25 0.95 -61.0 -24.5 -55.95 -49.05 -46.8 -68.0 -37.55 -86.95 -25.65 -97.35 -13.3 -108.1 0.2 -108.1 13.75 -108.1 26.1 -97.35 38.05 -86.95 47.2 -68.0 56.45 -49.05 61.45 -24.5"></path>
    <path stroke="none" fill-rule="evenodd" fill="#fef4b2" d="M56.8 -21.25 Q61.65 2.35 61.65 28.25 61.65 54.1 56.8 77.75 52.15 100.55 43.6 118.15 35.05 135.7 23.95 145.35 12.5 155.35 -0.05 155.35 -12.6 155.35 -24.1 145.35 -35.15 135.7 -43.7 118.15 -52.25 100.55 -56.9 77.75 -61.75 54.1 -61.75 28.25 -61.75 2.35 -56.9 -21.25 -52.25 -44.05 -43.7 -61.65 -35.15 -79.25 -24.1 -88.9 -12.6 -98.9 -0.05 -98.9 12.5 -98.9 23.95 -88.9 35.05 -79.25 43.6 -61.65 52.15 -44.05 56.8 -21.25"></path>
    <path stroke="none" fill-rule="evenodd" fill="#f8a300" d="M56.8 -21.25 Q61.65 2.35 61.65 28.25 61.65 48.75 58.6 67.9 L-8.6 66.9 Q-54.3 66.2 -58.9 66.85 -61.75 48.05 -61.75 28.25 -61.75 2.35 -56.9 -21.25 -52.25 -44.05 -43.7 -61.65 -35.15 -79.25 -24.1 -88.9 -12.6 -98.9 -0.05 -98.9 12.5 -98.9 23.95 -88.9 35.05 -79.25 43.6 -61.65 52.15 -44.05 56.8 -21.25"></path>
    <path stroke="none" fill-rule="evenodd" fill="#ffc000" d="M-15.95 -168.75 Q-12.8 -177.5 -4.35 -172.25 4.25 -166.9 12.5 -150.35 20.65 -135.85 25.25 -118.05 28.35 -106.2 29.45 -94.65 L35.95 -86.55 Q35.25 -85.35 33.85 -84.75 31.05 -83.5 27.6 -86.55 18.2 -94.9 11.75 -98.25 1.65 -103.6 -5.95 -100.35 -19.05 -94.75 -22.7 -96.4 -23.9 -96.95 -23.95 -98.1 L-23.8 -99.2 -19.75 -103.0 Q-14.7 -106.9 -9.85 -107.25 L-9.7 -107.3 -19.65 -110.75 -32.15 -114.65 Q-40.9 -117.6 -43.95 -123.2 -47.1 -129.05 -42.8 -135.4 -38.15 -142.15 -33.9 -143.45 -29.1 -144.85 -20.45 -141.15 -14.4 -138.55 -6.4 -132.55 -15.45 -143.65 -17.3 -153.45 -18.8 -161.05 -15.95 -168.75"></path>
    <path stroke="none" fill-rule="evenodd" fill="#feffba" d="M-18.05 -133.15 Q-26.0 -136.75 -32.75 -135.4 -37.4 -134.45 -39.95 -131.0 L-41.5 -128.6 Q-42.2 -127.5 -42.8 -127.35 -44.0 -126.95 -44.1 -128.85 L-43.9 -130.8 -43.3 -134.6 -42.8 -135.4 Q-39.6 -140.1 -36.9 -141.95 -32.85 -143.5 -25.45 -143.0 L-20.45 -141.15 Q-15.25 -138.9 -8.35 -133.95 -1.3 -128.95 4.55 -123.35 6.2 -120.3 6.95 -118.1 L5.1 -118.2 Q2.05 -119.2 -3.7 -123.9 -11.6 -130.3 -18.05 -133.15 M-16.5 -156.1 Q-17.3 -159.0 -17.55 -162.5 -17.1 -165.7 -15.95 -168.75 -12.75 -177.55 -4.25 -172.45 4.45 -167.2 12.65 -150.65 19.75 -138.05 25.0 -119.9 28.95 -106.05 31.05 -92.35 L28.9 -94.9 27.85 -95.95 Q25.75 -106.25 21.8 -118.75 13.95 -143.8 4.7 -154.95 -2.1 -163.15 -6.45 -164.45 -9.3 -165.3 -12.05 -163.0 -13.8 -161.55 -15.35 -158.7 L-16.5 -156.1"></path>
    <path stroke="none" fill-rule="evenodd" fill="#773f00" d="M53.7 -18.55 Q58.3 3.8 58.3 28.25 58.3 52.7 53.7 75.0 49.3 96.6 41.2 113.25 33.15 129.85 22.7 139.0 11.85 148.45 -0.05 148.45 -11.95 148.45 -22.75 139.0 -33.25 129.85 -41.35 113.25 -49.4 96.6 -53.8 75.0 -58.4 52.7 -58.4 28.25 -58.4 3.8 -53.8 -18.55 -49.4 -40.15 -41.35 -56.75 -33.25 -73.4 -22.75 -82.55 -11.95 -92.0 -0.05 -92.0 11.8 -92.0 22.7 -82.55 33.15 -73.4 41.2 -56.75 49.3 -40.15 53.7 -18.55"></path>
    <path stroke="none" fill-rule="evenodd" fill="#a76a00" d="M50.6 -16.55 Q54.95 4.3 54.95 27.1 54.95 49.9 50.6 70.75 46.4 90.85 38.75 106.4 31.1 121.9 21.2 130.45 10.9 139.25 -0.35 139.25 -11.6 139.25 -21.85 130.45 -31.8 121.9 -39.45 106.4 -47.1 90.85 -51.25 70.75 -55.6 49.9 -55.6 27.1 -55.6 4.3 -51.25 -16.55 -47.1 -36.7 -39.45 -52.25 -31.8 -67.75 -21.85 -76.3 -11.6 -85.1 -0.35 -85.1 10.9 -85.1 21.2 -76.3 31.1 -67.75 38.75 -52.25 46.4 -36.7 50.6 -16.55"></path>
    <path stroke="none" fill-rule="evenodd" fill="#dc8100" d="M50.6 -12.65 Q54.95 7.65 54.95 29.9 54.95 52.15 50.6 72.45 46.4 92.1 38.75 107.25 31.1 122.35 21.2 130.65 10.9 139.25 -0.35 139.25 -11.6 139.25 -21.85 130.65 -31.8 122.35 -39.45 107.25 -47.1 92.1 -51.25 72.45 -55.6 52.15 -55.6 29.9 -55.6 7.65 -51.25 -12.65 -47.1 -32.25 -39.45 -47.4 -31.8 -62.5 -21.85 -70.8 -11.6 -79.4 -0.35 -79.4 10.9 -79.4 21.2 -70.8 31.1 -62.5 38.75 -47.4 46.4 -32.25 50.6 -12.65"></path>
    <path stroke="none" fill-rule="evenodd" fill="#fecb01" d="M50.1 -9.5 Q54.4 10.4 54.4 32.15 54.4 53.95 50.1 73.85 45.95 93.05 38.4 107.9 30.8 122.7 21.0 130.85 10.8 139.25 -0.35 139.25 -11.45 139.25 -21.65 130.85 -31.45 122.7 -39.05 107.9 -46.65 93.05 -50.8 73.85 -55.1 53.95 -55.1 32.15 -55.1 10.4 -50.8 -9.5 -46.65 -28.7 -39.05 -43.55 -31.45 -58.35 -21.65 -66.5 -11.45 -74.9 -0.35 -74.9 10.8 -74.9 21.0 -66.5 30.8 -58.35 38.4 -43.55 45.95 -28.7 50.1 -9.5"></path>
    <path stroke="none" fill-rule="evenodd" fill="#fab300" d="M53.25 57.55 L50.75 71.05 Q47.25 87.3 42.2 100.7 26.1 143.65 0.8 142.7 -24.3 141.7 -40.1 106.4 -45.3 94.7 -49.3 79.6 L-53.4 62.15 -51.55 55.8 Q-48.8 48.2 -44.4 41.95 -30.3 21.95 -4.8 23.05 23.65 24.25 41.3 41.05 50.15 49.4 53.25 57.55"></path>
    <path stroke="none" fill-rule="evenodd" fill="#d29001" d="M-55.05 16.15 L-53.65 17.9 Q-51.95 20.3 -50.65 23.55 -46.4 34.05 -47.25 49.5 -48.05 63.3 -50.25 67.0 -50.9 68.15 -51.65 68.15 L-52.25 67.9 Q-53.6 60.0 -54.6 49.6 -56.65 28.75 -55.05 16.15 M46.05 44.9 Q46.05 31.25 50.2 22.35 52.3 17.9 54.4 16.15 55.8 35.2 53.55 54.6 52.45 64.3 51.05 70.2 49.8 69.35 48.55 65.75 46.05 58.6 46.05 44.9 M44.9 -22.95 L45.55 -12.75 Q45.95 -2.1 44.9 0.05 L36.25 5.4 Q39.05 13.75 39.8 24.65 41.1 44.4 36.4 58.85 31.45 74.1 21.8 76.5 14.8 78.2 8.65 70.75 2.55 63.45 -0.4 50.0 -3.4 63.05 -9.4 70.15 -15.5 77.3 -22.4 75.6 -31.85 73.2 -36.85 58.0 -41.6 43.45 -40.35 23.85 -39.6 12.9 -36.8 4.55 -43.3 0.85 -43.9 -1.1 -44.4 -2.9 -44.2 -9.65 L-43.9 -16.05 -29.4 -12.6 -30.1 -7.7 Q-24.15 -14.2 -16.85 -12.15 -13.9 -1.95 -7.8 2.45 L-3.45 5.6 Q-1.25 7.6 -0.15 10.75 1.0 8.0 3.25 6.1 4.5 5.0 7.5 3.05 13.35 -1.3 16.25 -11.35 20.35 -12.5 24.2 -10.85 27.95 -9.25 31.05 -5.05 L44.9 -22.95"></path>
    <path stroke="none" fill-rule="evenodd" fill="#fef2b0" d="M-15.4 84.5 Q-3.35 90.75 0.9 91.0 4.15 91.2 12.75 88.15 L25.9 83.35 Q25.75 87.55 23.05 96.0 20.45 104.35 16.55 113.2 7.0 134.85 0.25 138.1 -14.85 122.2 -22.25 98.65 -24.55 91.3 -25.8 84.0 L-26.6 78.25 -15.4 84.5"></path>
    <path stroke="none" fill-rule="evenodd" fill="#fef2b0" d="M-9.85 33.25 Q-4.0 26.5 0.85 26.5 10.1 26.5 20.3 49.55 24.25 58.35 27.0 67.85 29.6 76.75 29.8 81.4 30.1 87.05 16.4 93.5 11.4 95.8 6.1 97.45 1.3 99.0 -0.3 98.95 -5.55 98.85 -16.6 92.25 -28.7 85.0 -29.35 79.3 -29.75 75.25 -27.05 66.5 -24.3 57.7 -19.85 48.85 -14.95 39.1 -9.85 33.25"></path>
    <path stroke="none" fill-rule="evenodd" fill="#ffffa8" d="M-15.9 -64.8 Q-10.0 -67.25 -5.25 -63.0 -0.5 -58.75 0.3 -50.35 1.15 -41.95 -2.45 -34.3 -6.05 -26.65 -11.95 -24.2 -17.85 -21.8 -22.6 -26.0 -27.35 -30.25 -28.15 -38.65 -29.0 -47.1 -25.4 -54.75 -21.8 -62.4 -15.9 -64.8"></path>
    <path stroke="none" fill-rule="evenodd" fill="#82380d" d="M6.8 -7.65 Q10.05 -8.85 11.85 -10.4 14.8 -13.0 17.0 -18.35 25.1 -18.35 30.45 -8.45 35.95 1.7 35.95 17.85 35.95 34.3 30.35 45.95 24.7 57.55 16.7 57.55 8.7 57.55 3.05 45.95 -2.55 34.3 -2.55 17.85 -2.55 9.0 -0.75 1.05 0.25 -3.45 2.4 -5.4 3.6 -6.55 6.8 -7.65"></path>
    <path stroke="none" fill-rule="evenodd" fill="#ffefaf" d="M5.6 -3.8 Q10.45 -13.75 17.25 -13.75 24.1 -13.75 28.9 -3.8 33.75 6.1 33.75 20.15 33.75 34.2 28.9 44.15 24.1 54.1 17.25 54.1 10.45 54.1 5.6 44.15 0.8 34.2 0.8 20.15 0.8 6.15 5.6 -3.8"></path>
    <path stroke="none" fill-rule="evenodd" fill="#fbd600" d="M32.45 7.0 Q33.75 13.25 33.75 20.15 33.75 29.55 31.4 37.6 L30.95 38.0 32.1 28.85 Q33.15 18.95 32.6 15.0 32.1 11.05 31.2 6.85 L30.4 3.5 1.9 17.3 1.15 12.8 1.55 10.0 28.9 -3.8 Q31.2 0.9 32.45 7.0"></path>
    <path stroke="none" fill-rule="evenodd" fill="#82380d" d="M-13.05 -11.6 Q-11.25 -10.0 -8.0 -8.85 -4.85 -7.7 -3.6 -6.6 -1.5 -4.65 -0.5 -0.15 1.35 7.9 1.35 16.7 1.35 33.15 -4.3 44.8 -9.95 56.4 -17.95 56.4 -25.95 56.4 -31.55 44.8 -37.2 33.15 -37.2 16.7 -37.2 0.55 -31.7 -9.6 -26.35 -19.5 -18.2 -19.5 -16.0 -14.15 -13.05 -11.6"></path>
    <path stroke="none" fill-rule="evenodd" fill="#ffefaf" d="M-29.55 -7.25 Q-24.75 -17.2 -17.95 -17.2 -11.1 -17.2 -6.25 -7.25 -1.45 2.65 -1.45 16.7 -1.45 30.75 -6.25 40.7 -11.1 50.65 -17.95 50.65 -24.75 50.65 -29.55 40.7 -34.4 30.75 -34.4 16.7 -34.4 2.7 -29.55 -7.25"></path>
    <path stroke="none" fill-rule="evenodd" fill="#fbd600" d="M-32.25 5.7 Q-34.05 11.7 -34.35 19.35 L-34.4 16.7 Q-34.4 10.35 -33.3 4.5 -32.25 -1.15 -30.3 -5.7 L-1.65 11.55 -1.45 16.7 -1.45 17.5 -30.5 1.2 -32.25 5.7"></path>
    <path stroke="none" fill-rule="evenodd" fill="#82380d" d="M-16.1 25.6 Q-17.65 22.4 -17.65 17.85 -17.65 13.35 -16.1 10.15 -14.55 6.95 -12.35 6.95 -10.15 6.95 -8.6 10.15 -7.05 13.35 -7.05 17.85 -7.05 22.4 -8.6 25.6 -10.15 28.8 -12.35 28.8 -14.55 28.8 -16.1 25.6"></path>
    <path stroke="none" fill-rule="evenodd" fill="#64220a" d="M-16.5 14.65 Q-17.35 16.65 -17.55 19.65 L-17.65 18.7 -17.15 13.2 Q-16.45 10.4 -15.2 8.7 -13.9 6.95 -12.35 6.95 -11.0 6.95 -9.8 8.25 -8.65 9.55 -7.95 11.75 -7.2 14.8 -7.05 18.7 L-7.1 19.3 Q-7.6 16.75 -8.65 14.7 -10.45 11.25 -13.2 11.55 -15.4 11.8 -16.5 14.65"></path>
    <path stroke="none" fill-rule="evenodd" fill="#82380d" d="M11.1 6.95 Q13.3 6.95 14.9 10.15 16.45 13.35 16.45 17.85 16.45 22.4 14.9 25.6 13.3 28.8 11.1 28.8 8.9 28.8 7.35 25.6 5.8 22.4 5.8 17.85 5.8 13.35 7.35 10.15 8.9 6.95 11.1 6.95"></path>
    <path stroke="none" fill-rule="evenodd" fill="#64220a" d="M16.45 17.85 L16.4 18.45 Q15.65 15.95 14.5 14.45 12.95 12.45 10.85 12.7 8.1 13.0 7.0 17.25 6.35 19.7 6.35 22.7 6.25 18.0 6.95 14.05 8.1 7.1 11.25 6.95 13.4 7.05 14.95 10.25 16.45 13.45 16.45 17.85"></path>
    <path stroke="none" fill-rule="evenodd" fill="#8e4216" d="M44.45 -28.9 Q46.2 -14.7 46.05 -11.45 45.85 -8.25 23.0 3.7 L0.2 15.0 Q-11.2 9.1 -22.65 2.7 -45.6 -10.1 -45.6 -12.6 -45.6 -15.15 -43.9 -29.05 L-42.25 -42.5 0.2 -6.85 42.7 -42.5 44.45 -28.9"></path>
    <path stroke="none" fill-rule="evenodd" fill="#6f280d" d="M-40.0 -33.3 L-43.3 -10.0 Q-45.6 -11.85 -45.6 -12.6 -45.6 -15.15 -43.9 -29.05 L-42.25 -42.5 0.2 -6.85 42.7 -42.5 43.45 -36.65 -0.35 1.2 -40.0 -33.3"></path>
    <path stroke="none" fill-rule="evenodd" fill="#82380d" d="M-14.1 86.15 Q-3.1 91.85 0.8 92.05 3.75 92.25 11.6 89.5 L23.65 85.15 Q23.55 88.95 21.05 96.6 18.65 104.15 15.1 112.15 6.35 131.7 0.2 134.65 -13.6 120.3 -20.35 99.0 -22.45 92.3 -23.6 85.75 L-24.35 80.55 -14.1 86.15"></path>
    <path stroke="none" fill-rule="evenodd" fill="#fecb01" d="M-11.85 92.5 Q-2.55 97.6 0.8 97.8 3.15 97.95 9.5 94.55 17.1 90.4 19.2 89.75 19.0 92.05 16.9 98.25 14.75 104.85 11.95 111.25 4.55 128.3 0.2 127.75 -6.8 124.9 -14.3 105.9 -16.65 99.95 -18.8 93.1 L-20.45 87.45 -11.85 92.5"></path>
    <path stroke="none" fill-rule="evenodd" fill="#82380d" d="M-9.35 35.1 Q-3.8 28.8 0.8 28.8 9.5 28.8 19.15 50.35 22.85 58.6 25.45 67.5 27.9 75.85 28.1 80.2 28.4 85.5 15.45 91.5 4.1 96.75 -0.35 96.65 -5.3 96.55 -15.7 90.4 -27.1 83.6 -27.7 78.25 -28.1 74.45 -25.55 66.25 -23.0 58.05 -18.8 49.75 -14.15 40.6 -9.35 35.1"></path>
    <path stroke="none" fill-rule="evenodd" fill="#fecb01" d="M0.2 93.2 Q-3.75 93.2 -14.3 86.3 -25.05 79.25 -25.45 75.95 -25.7 74.1 -23.4 67.3 -20.95 60.0 -17.4 52.75 -7.7 32.85 0.8 32.25 8.6 33.8 17.65 53.65 21.1 61.25 23.55 68.95 25.8 76.2 25.9 79.4 25.65 82.85 14.15 88.25 3.65 93.2 0.2 93.2"></path>
    <path stroke="none" fill-rule="evenodd" fill="#fef4b2" d="M15.45 49.8 Q12.75 45.2 7.55 40.5 2.2 35.65 1.9 38.0 1.2 44.15 0.95 68.15 L0.8 90.9 -0.65 66.8 Q-2.25 42.5 -3.15 41.45 -4.05 40.45 -7.05 44.0 -9.8 47.3 -13.25 53.05 -21.55 66.9 -22.1 73.65 -22.4 77.0 -11.95 84.4 L-5.2 89.0 Q-2.45 90.9 -3.15 90.9 -4.85 90.9 -17.8 83.9 -25.15 78.55 -25.45 75.95 -25.7 74.1 -23.4 67.3 -20.95 60.0 -17.4 52.75 -7.7 32.9 0.75 32.25 L0.8 32.25 Q6.35 33.35 12.95 44.55 L15.45 49.8 16.45 51.8 16.55 52.3 15.45 49.8"></path>
  </g>
</svg>
