<svg xmlns="http://www.w3.org/2000/svg" width="311.3px" height="366.2px" xmlns:xlink="http://www.w3.org/1999/xlink">
  <g transform="matrix(1.0, 0.0, 0.0, 1.0, 165.75, 183.1)">
    <path stroke="none" fill-rule="evenodd" fill="#502f04" d="M15.7 -175.35 Q25.8 -169.45 35.15 -159.15 57.25 -137.7 64.75 -117.9 L66.9 -111.2 Q88.25 -99.8 105.15 -80.9 124.2 -59.5 134.75 -31.75 145.55 -3.0 145.55 28.45 145.55 59.95 134.75 88.65 124.2 116.4 105.15 137.8 86.0 159.2 61.25 170.95 39.35 181.3 15.7 182.85 L10.05 183.1 -36.35 183.1 Q-63.5 179.45 -81.5 170.95 -106.25 159.2 -125.35 137.8 -144.45 116.4 -154.9 88.65 -165.75 59.95 -165.75 28.45 -165.75 -3.0 -154.9 -31.75 -144.45 -59.5 -125.35 -80.9 -109.75 -98.4 -90.3 -109.45 -107.55 -111.7 -114.5 -119.7 -118.3 -124.1 -117.85 -129.3 -117.4 -134.5 -112.95 -139.55 -105.3 -148.05 -92.5 -150.6 -81.5 -152.75 -64.85 -150.8 -69.5 -161.8 -63.7 -172.95 -60.35 -179.3 -53.3 -181.75 -50.0 -182.9 -46.25 -183.05 L-36.35 -183.05 -11.05 -183.05 -8.3 -183.05 -2.3 -182.3 Q7.0 -180.5 15.7 -175.35 M23.3 -160.7 Q19.65 -163.95 15.7 -167.0 L12.95 -169.1 Q8.5 -171.7 3.85 -172.9 -5.05 -175.2 -7.75 -175.35 L-10.4 -175.35 -36.35 -175.35 -36.35 -139.55 -75.3 -144.7 -75.0 -131.2 -36.35 -126.75 -36.35 -63.45 -36.35 -35.6 -36.35 -2.55 -36.35 12.9 -36.35 29.45 -36.35 43.9 -36.35 79.0 -36.35 98.6 -36.35 117.15 -36.35 174.25 -25.9 174.25 -15.5 174.25 -10.7 174.25 -9.55 174.25 11.3 174.25 15.7 174.0 Q37.4 172.45 57.5 162.9 80.8 151.9 98.75 131.8 104.9 124.85 110.15 117.15 116.15 108.35 120.9 98.6 123.95 92.3 126.5 85.65 L128.85 79.0 Q134.45 62.0 136.0 43.9 136.65 36.75 136.65 29.45 L136.65 29.15 Q136.65 20.95 135.85 12.9 135.1 5.1 133.6 -2.55 131.1 -15.2 126.5 -27.35 L123.1 -35.6 Q117.65 -47.75 110.4 -58.5 L106.9 -63.45 Q103.05 -68.6 98.75 -73.45 L91.8 -80.75 Q78.05 -94.3 59.85 -105.9 L59.55 -106.7 Q55.6 -118.3 49.6 -128.75 39.4 -146.35 23.3 -160.7"></path>
    <path stroke="none" fill-rule="evenodd" fill="#ffc000" d="M-36.35 -139.55 L-36.35 -175.35 -10.4 -175.35 -7.75 -175.35 Q-5.05 -175.2 3.85 -172.9 8.5 -171.7 12.95 -169.1 L15.7 -167.0 Q19.65 -163.95 23.3 -160.7 L-15.5 -159.85 -15.5 -159.75 -30.0 -159.4 -15.5 -138.75 -15.5 -130.3 4.0 -102.65 59.85 -105.9 Q78.05 -94.3 91.8 -80.75 L98.75 -73.45 Q103.05 -68.6 106.9 -63.45 L-36.35 -63.45 -36.35 -126.75 Q-15.05 -131.5 -36.35 -139.55"></path>
    <path stroke="none" fill-rule="evenodd" fill="#dd8300" d="M-36.35 -139.55 Q-15.05 -131.5 -36.35 -126.75 L-75.0 -131.2 -75.3 -144.7 -36.35 -139.55 M59.85 -105.9 L4.0 -102.65 -15.5 -130.3 -15.5 -138.75 -30.0 -159.4 -15.5 -159.75 -15.5 -159.85 23.3 -160.7 Q39.4 -146.35 49.6 -128.75 55.6 -118.3 59.55 -106.7 L59.85 -105.9"></path>
    <path stroke="none" fill-rule="evenodd" fill="#ffd03c" d="M-36.35 -63.45 L106.9 -63.45 110.4 -58.5 Q117.65 -47.75 123.1 -35.6 L-36.35 -35.6 -36.35 -63.45"></path>
    <path stroke="none" fill-rule="evenodd" fill="#fce17a" d="M123.1 -35.6 L126.5 -27.35 Q131.1 -15.2 133.6 -2.55 L-36.35 -2.55 -36.35 -35.6 123.1 -35.6"></path>
    <path stroke="none" fill-rule="evenodd" fill="#fffff7" d="M135.85 12.9 Q136.65 20.95 136.65 29.15 L136.65 29.45 -36.35 29.45 -36.35 12.9 135.85 12.9"></path>
    <path stroke="none" fill-rule="evenodd" fill="#fcf9ac" d="M136.65 29.45 Q136.65 36.75 136.0 43.9 L-36.35 43.9 -36.35 29.45 136.65 29.45"></path>
    <path stroke="none" fill-rule="evenodd" fill="#f4a637" d="M128.85 79.0 L126.5 85.65 Q123.95 92.3 120.9 98.6 L-36.35 98.6 -36.35 79.0 128.85 79.0"></path>
    <path stroke="none" fill-rule="evenodd" fill="#dd8102" d="M110.15 117.15 Q104.9 124.85 98.75 131.8 80.8 151.9 57.5 162.9 37.4 172.45 15.7 174.0 L11.3 174.25 -9.55 174.25 -10.7 174.25 -15.5 174.25 -25.9 174.25 -36.35 174.25 -36.35 117.15 110.15 117.15"></path>
    <path stroke="none" fill-rule="evenodd" fill="#f08e13" d="M120.9 98.6 Q116.15 108.35 110.15 117.15 L-36.35 117.15 -36.35 98.6 120.9 98.6"></path>
    <path stroke="none" fill-rule="evenodd" fill="#fecb00" d="M136.0 43.9 Q134.45 62.0 128.85 79.0 L-36.35 79.0 -36.35 43.9 136.0 43.9"></path>
    <path stroke="none" fill-rule="evenodd" fill="#fff5b0" d="M-36.35 -2.55 L133.6 -2.55 Q135.1 5.1 135.85 12.9 L-36.35 12.9 -36.35 -2.55"></path>
    <path stroke="none" fill-rule="evenodd" fill="#fef4b2" d="M106.1 -27.8 Q116.8 -0.75 116.8 28.9 116.8 58.5 106.1 85.55 95.75 111.7 76.95 131.8 58.15 151.95 33.75 163.0 8.5 174.45 -19.2 174.45 -46.85 174.45 -72.15 163.0 -96.5 151.95 -115.3 131.8 -134.15 111.7 -144.45 85.55 -155.15 58.5 -155.15 28.9 -155.15 -0.7 -144.45 -27.8 -134.15 -53.9 -115.3 -74.05 -96.5 -94.25 -72.15 -105.25 -46.85 -116.7 -19.2 -116.7 8.5 -116.7 33.75 -105.25 58.15 -94.25 76.95 -74.05 95.75 -53.9 106.1 -27.8"></path>
    <path stroke="none" fill-rule="evenodd" fill="#fecb01" d="M100.15 -24.3 Q110.3 1.35 110.3 29.45 110.3 57.55 100.15 83.2 90.4 107.95 72.5 127.05 54.7 146.15 31.55 156.65 7.6 167.5 -18.65 167.5 -44.9 167.5 -68.85 156.65 -92.0 146.15 -109.85 127.05 -127.65 107.95 -137.45 83.2 -147.6 57.55 -147.6 29.45 -147.6 1.35 -137.45 -24.3 -127.65 -49.05 -109.85 -68.15 -92.0 -87.25 -68.85 -97.75 -44.9 -108.6 -18.65 -108.6 7.6 -108.6 31.55 -97.75 54.7 -87.25 72.5 -68.15 90.4 -49.05 100.15 -24.3"></path>
    <path stroke="none" fill-rule="evenodd" fill="#fef4b2" d="M91.1 -21.0 Q100.5 2.75 100.5 28.9 100.5 54.95 91.1 78.8 82.05 101.8 65.45 119.55 48.9 137.25 27.4 146.95 5.15 157.05 -19.2 157.05 -43.55 157.05 -65.8 146.95 -87.3 137.25 -103.85 119.55 -120.45 101.8 -129.5 78.8 -138.95 54.95 -138.95 28.9 -138.95 2.75 -129.5 -21.0 -120.45 -44.0 -103.85 -61.75 -87.3 -79.5 -65.8 -89.25 -43.55 -99.3 -19.2 -99.3 5.15 -99.3 27.4 -89.25 48.9 -79.5 65.45 -61.75 82.05 -44.0 91.1 -21.0"></path>
    <path stroke="none" fill-rule="evenodd" fill="#f8a300" d="M91.1 -21.0 Q100.5 2.75 100.5 28.9 100.5 49.55 94.6 68.85 L-35.85 67.85 Q-124.45 67.15 -133.35 67.8 -138.95 48.85 -138.95 28.9 -138.95 2.75 -129.5 -21.0 -120.45 -44.0 -103.85 -61.75 -87.3 -79.5 -65.8 -89.25 -43.55 -99.3 -19.2 -99.3 5.15 -99.3 27.4 -89.25 48.9 -79.5 65.45 -61.75 82.05 -44.0 91.1 -21.0"></path>
    <path stroke="none" fill-rule="evenodd" fill="#ffc000" d="M-50.05 -169.75 Q-43.9 -178.6 -27.55 -173.3 -10.85 -167.9 5.2 -151.2 21.0 -136.6 29.9 -118.65 35.9 -106.7 38.05 -95.05 43.9 -91.55 50.7 -86.85 49.3 -85.65 46.6 -85.05 41.1 -83.8 34.4 -86.85 16.15 -95.3 3.75 -98.65 -15.9 -104.05 -30.6 -100.8 -56.05 -95.15 -63.15 -96.8 -65.45 -97.35 -65.6 -98.5 L-65.25 -99.65 -57.35 -103.45 Q-47.65 -107.4 -38.2 -107.75 L-37.9 -107.8 -57.2 -111.25 -81.5 -115.2 Q-98.5 -118.2 -104.4 -123.85 -110.45 -129.75 -102.1 -136.15 -93.15 -142.95 -84.85 -144.25 -75.55 -145.65 -58.75 -141.95 -47.05 -139.3 -31.55 -133.25 -49.05 -144.45 -52.7 -154.35 -55.55 -162.0 -50.05 -169.75"></path>
    <path stroke="none" fill-rule="evenodd" fill="#feffba" d="M-54.05 -133.85 Q-69.6 -137.5 -82.6 -136.15 -91.65 -135.15 -96.6 -131.7 L-99.55 -129.25 Q-101.0 -128.15 -102.1 -128.0 -104.45 -127.6 -104.6 -129.5 L-104.3 -131.5 Q-103.9 -133.55 -103.05 -135.3 L-102.1 -136.15 Q-95.9 -140.85 -90.65 -142.75 L-68.5 -143.8 -58.75 -141.95 Q-48.7 -139.65 -35.25 -134.65 -21.65 -129.65 -10.25 -124.0 -7.1 -120.9 -5.65 -118.7 L-9.25 -118.8 Q-15.1 -119.8 -26.25 -124.55 -41.65 -131.0 -54.05 -133.85 M-51.15 -157.0 Q-52.7 -159.95 -53.2 -163.45 -52.3 -166.7 -50.05 -169.75 -43.85 -178.65 -27.4 -173.5 -10.45 -168.2 5.45 -151.5 19.2 -138.8 29.4 -120.5 37.05 -106.55 41.1 -92.7 39.5 -94.0 37.0 -95.3 L34.9 -96.35 Q30.85 -106.75 23.2 -119.35 7.95 -144.6 -10.0 -155.85 -23.2 -164.1 -31.65 -165.4 -37.15 -166.3 -42.5 -163.95 -45.85 -162.5 -48.85 -159.6 L-51.15 -157.0"></path>
    <path stroke="none" fill-rule="evenodd" fill="#773f00" d="M85.1 -18.3 Q94.0 4.25 94.0 28.9 94.0 53.55 85.1 76.05 76.5 97.8 60.85 114.6 45.15 131.35 24.9 140.55 3.85 150.1 -19.2 150.1 -42.25 150.1 -63.25 140.55 -83.6 131.35 -99.3 114.6 -114.95 97.8 -123.5 76.05 -132.45 53.55 -132.45 28.9 -132.45 4.25 -123.5 -18.3 -114.95 -40.1 -99.3 -56.8 -83.6 -73.6 -63.25 -82.85 -42.25 -92.35 -19.2 -92.35 3.8 -92.35 24.9 -82.85 45.15 -73.6 60.85 -56.8 76.5 -40.1 85.1 -18.3"></path>
    <path stroke="none" fill-rule="evenodd" fill="#a76a00" d="M79.05 -16.3 Q87.5 4.75 87.5 27.75 87.5 50.7 79.05 71.75 70.95 92.0 56.1 107.7 41.25 123.3 22.0 131.95 2.1 140.8 -19.75 140.8 -41.6 140.8 -61.5 131.95 -80.75 123.3 -95.6 107.7 -110.45 92.0 -118.55 71.75 -127.0 50.7 -127.0 27.75 -127.0 4.75 -118.55 -16.3 -110.45 -36.6 -95.6 -52.3 -80.75 -67.9 -61.5 -76.55 -41.6 -85.4 -19.75 -85.4 2.1 -85.4 22.0 -76.55 41.25 -67.9 56.1 -52.3 70.95 -36.6 79.05 -16.3"></path>
    <path stroke="none" fill-rule="evenodd" fill="#dc8100" d="M79.05 -12.35 Q87.5 8.1 87.5 30.55 87.5 53.0 79.05 73.45 70.95 93.25 56.1 108.55 41.25 123.8 22.0 132.15 2.1 140.8 -19.75 140.8 -41.6 140.8 -61.5 132.15 -80.75 123.8 -95.6 108.55 -110.45 93.25 -118.55 73.45 -127.0 53.0 -127.0 30.55 -127.0 8.1 -118.55 -12.35 -110.45 -32.1 -95.6 -47.4 -80.75 -62.6 -61.5 -71.0 -41.6 -79.65 -19.75 -79.65 2.1 -79.65 22.0 -71.0 41.25 -62.6 56.1 -47.4 70.95 -32.1 79.05 -12.35"></path>
    <path stroke="none" fill-rule="evenodd" fill="#fecb01" d="M78.1 -9.2 Q86.45 10.9 86.45 32.8 86.45 54.8 78.1 74.85 70.05 94.25 55.35 109.2 40.65 124.15 21.6 132.35 1.85 140.8 -19.75 140.8 -41.35 140.8 -61.1 132.35 -80.15 124.15 -94.85 109.2 -109.55 94.25 -117.65 74.85 -125.95 54.8 -125.95 32.8 -125.95 10.9 -117.65 -9.2 -109.55 -28.55 -94.85 -43.5 -80.15 -58.45 -61.1 -66.65 -41.35 -75.1 -19.75 -75.1 1.85 -75.1 21.6 -66.65 40.65 -58.45 55.35 -43.5 70.05 -28.55 78.1 -9.2"></path>
    <path stroke="none" fill-rule="evenodd" fill="#fab300" d="M84.25 58.45 L79.4 72.05 Q72.55 88.45 62.8 101.95 31.5 145.25 -17.6 144.3 -66.25 143.3 -96.95 107.7 -107.0 95.9 -114.75 80.65 L-122.65 63.05 -119.1 56.65 Q-113.75 49.0 -105.25 42.7 -77.9 22.55 -28.45 23.65 26.8 24.85 61.05 41.8 78.15 50.2 84.25 58.45"></path>
    <path stroke="none" fill-rule="evenodd" fill="#d29001" d="M-125.9 16.7 L-123.2 18.45 Q-119.9 20.85 -117.35 24.15 -109.1 34.75 -110.8 50.3 -112.3 64.25 -116.55 67.95 -117.85 69.1 -119.3 69.1 L-120.5 68.85 Q-123.1 60.9 -125.05 50.4 -129.0 29.4 -125.9 16.7 M70.2 45.7 Q70.2 31.9 78.3 22.95 82.35 18.45 86.4 16.7 89.15 35.9 84.8 55.45 82.65 65.25 79.95 71.2 77.5 70.35 75.1 66.7 70.2 59.5 70.2 45.7 M68.05 -22.75 L69.25 -12.45 Q70.05 -1.7 68.05 0.45 L51.2 5.85 Q56.65 14.25 58.1 25.25 60.65 45.15 51.55 59.75 41.9 75.1 23.2 77.55 9.55 79.25 -2.35 71.75 -14.15 64.4 -19.9 50.8 -25.75 64.0 -37.4 71.15 -49.15 78.35 -62.5 76.65 -80.9 74.2 -90.6 58.9 -99.85 44.2 -97.35 24.45 -95.9 13.4 -90.45 5.0 -103.15 1.25 -104.3 -0.7 -105.25 -2.5 -104.9 -9.35 L-104.3 -15.8 -76.1 -12.3 -77.45 -7.35 Q-65.95 -13.9 -51.75 -11.85 -46.05 -1.55 -34.25 2.85 L-25.85 6.05 Q-21.5 8.05 -19.35 11.25 -17.15 8.45 -12.8 6.55 -10.3 5.45 -4.5 3.5 6.85 -0.9 12.45 -11.05 L27.8 -10.55 Q35.15 -8.9 41.15 -4.7 L68.05 -22.75"></path>
    <path stroke="none" fill-rule="evenodd" fill="#fef2b0" d="M-49.0 85.6 Q-25.6 91.9 -17.4 92.15 -11.05 92.35 5.6 89.3 L31.15 84.45 Q30.9 88.7 25.65 97.2 20.55 105.65 12.95 114.55 -5.55 136.4 -18.55 139.65 -47.9 123.65 -62.25 99.9 -66.7 92.45 -69.1 85.1 L-70.65 79.3 -49.0 85.6"></path>
    <path stroke="none" fill-rule="evenodd" fill="#fef2b0" d="M-38.25 33.95 Q-26.85 27.1 -17.45 27.1 0.45 27.1 20.3 50.35 27.9 59.25 33.3 68.8 38.35 77.8 38.75 82.5 39.3 88.2 12.7 94.7 2.95 97.0 -7.25 98.65 L-19.7 100.2 Q-29.9 100.1 -51.3 93.4 -74.75 86.1 -76.0 80.35 -76.85 76.3 -71.55 67.45 -66.3 58.6 -57.65 49.65 -48.15 39.85 -38.25 33.95"></path>
    <path stroke="none" fill-rule="evenodd" fill="#ffffa8" d="M-49.9 -64.95 Q-38.45 -67.4 -29.25 -63.1 -20.1 -58.85 -18.5 -50.35 -16.9 -41.9 -23.85 -34.2 -30.9 -26.45 -42.3 -24.0 -53.75 -21.6 -62.95 -25.8 -72.2 -30.1 -73.75 -38.55 -75.35 -47.1 -68.35 -54.8 -61.4 -62.5 -49.9 -64.95"></path>
    <path stroke="none" fill-rule="evenodd" fill="#82380d" d="M-5.9 -7.3 Q0.4 -8.5 3.9 -10.1 9.55 -12.7 13.85 -18.1 29.6 -18.1 40.0 -8.1 50.7 2.1 50.7 18.4 50.7 35.0 39.75 46.75 28.8 58.45 13.3 58.45 -2.2 58.45 -13.15 46.75 -24.1 35.0 -24.1 18.4 -24.1 9.5 -20.55 1.45 -18.55 -3.1 -14.45 -5.05 -12.1 -6.2 -5.9 -7.3"></path>
    <path stroke="none" fill-rule="evenodd" fill="#ffefaf" d="M-8.2 -3.45 Q1.2 -13.45 14.4 -13.45 27.65 -13.45 37.0 -3.45 46.35 6.55 46.35 20.7 46.35 34.9 37.0 44.9 27.65 54.95 14.4 54.95 1.15 54.95 -8.2 44.9 -17.6 34.9 -17.6 20.7 -17.6 6.6 -8.2 -3.45"></path>
    <path stroke="none" fill-rule="evenodd" fill="#fbd600" d="M43.85 7.45 Q46.35 13.75 46.35 20.7 46.35 30.2 41.8 38.3 L40.95 38.7 43.2 29.5 Q45.2 19.5 44.2 15.55 43.2 11.55 41.4 7.3 L39.85 3.95 -15.4 17.85 -16.85 13.3 -16.1 10.5 37.0 -3.45 Q41.45 1.3 43.85 7.45"></path>
    <path stroke="none" fill-rule="evenodd" fill="#82380d" d="M-44.45 -11.3 Q-40.95 -9.7 -34.65 -8.5 -28.45 -7.35 -26.1 -6.25 -22.0 -4.3 -20.05 0.25 -16.5 8.35 -16.5 17.25 -16.5 33.85 -27.45 45.6 -38.35 57.25 -53.9 57.25 -69.4 57.25 -80.35 45.6 -91.25 33.85 -91.25 17.25 -91.25 0.95 -80.55 -9.3 -70.2 -19.25 -54.4 -19.25 -50.15 -13.85 -44.45 -11.3"></path>
    <path stroke="none" fill-rule="evenodd" fill="#ffefaf" d="M-76.45 -6.9 Q-67.1 -16.95 -53.9 -16.95 -40.65 -16.95 -31.25 -6.9 -21.9 3.1 -21.9 17.25 -21.9 31.4 -31.25 41.45 -40.65 51.5 -53.9 51.5 -67.15 51.5 -76.45 41.45 -85.85 31.4 -85.85 17.25 -85.85 3.15 -76.45 -6.9"></path>
    <path stroke="none" fill-rule="evenodd" fill="#fbd600" d="M-81.65 6.15 Q-85.15 12.2 -85.75 19.9 L-85.85 17.25 Q-85.85 10.85 -83.75 4.95 -81.65 -0.75 -77.85 -5.35 L-22.3 12.05 Q-21.9 14.75 -21.9 17.25 L-21.9 18.05 -78.25 1.6 Q-79.85 3.15 -81.65 6.15"></path>
    <path stroke="none" fill-rule="evenodd" fill="#82380d" d="M-50.3 26.2 Q-53.3 23.0 -53.3 18.4 -53.3 13.85 -50.3 10.65 -47.35 7.4 -43.05 7.4 -38.75 7.4 -35.8 10.65 -32.75 13.85 -32.75 18.4 -32.75 23.0 -35.8 26.2 -38.75 29.45 -43.05 29.45 -47.35 29.45 -50.3 26.2"></path>
    <path stroke="none" fill-rule="evenodd" fill="#64220a" d="M-51.15 15.2 Q-52.75 17.2 -53.2 20.2 L-53.3 19.25 Q-53.05 16.0 -52.35 13.7 -51.05 10.9 -48.6 9.2 -46.05 7.4 -43.05 7.4 -40.45 7.4 -38.15 8.7 -35.9 10.05 -34.5 12.25 -33.1 15.35 -32.8 19.25 L-32.85 19.85 Q-33.8 17.3 -35.85 15.25 -39.4 11.75 -44.7 12.05 -48.95 12.3 -51.15 15.2"></path>
    <path stroke="none" fill-rule="evenodd" fill="#82380d" d="M2.45 7.4 Q6.75 7.4 9.75 10.65 12.8 13.85 12.8 18.4 12.8 23.0 9.75 26.2 6.75 29.45 2.45 29.45 -1.8 29.45 -4.8 26.2 -7.8 23.0 -7.8 18.4 -7.8 13.85 -4.8 10.65 -1.8 7.4 2.45 7.4"></path>
    <path stroke="none" fill-rule="evenodd" fill="#64220a" d="M9.85 10.75 Q12.8 13.95 12.8 18.4 L12.75 19.0 Q11.25 16.5 9.05 14.95 6.0 12.95 1.95 13.2 -3.35 13.5 -5.5 17.8 -6.75 20.25 -6.75 23.3 -6.95 18.55 -5.65 14.55 -3.4 7.55 2.75 7.4 6.95 7.5 9.85 10.75"></path>
    <path stroke="none" fill-rule="evenodd" fill="#8e4216" d="M67.15 -28.75 Q70.55 -14.4 70.2 -11.15 69.85 -7.9 25.55 4.15 L-18.65 15.55 -63.1 3.15 Q-107.55 -9.8 -107.55 -12.3 -107.55 -14.85 -104.3 -28.9 L-101.05 -42.45 -18.65 -6.5 63.7 -42.45 67.15 -28.75"></path>
    <path stroke="none" fill-rule="evenodd" fill="#6f280d" d="M-96.7 -33.2 L-103.1 -9.7 Q-107.55 -11.55 -107.55 -12.3 -107.55 -14.85 -104.3 -28.9 L-101.05 -42.45 -18.65 -6.5 63.7 -42.45 65.2 -36.55 -19.75 1.6 -96.7 -33.2"></path>
    <path stroke="none" fill-rule="evenodd" fill="#82380d" d="M-46.5 87.25 Q-25.15 93.0 -17.6 93.2 -11.8 93.4 3.45 90.65 L26.85 86.25 Q26.55 90.1 21.8 97.8 17.1 105.4 10.2 113.5 -6.8 133.2 -18.65 136.2 -45.5 121.7 -58.6 100.25 -62.7 93.5 -64.9 86.85 L-66.35 81.65 -46.5 87.25"></path>
    <path stroke="none" fill-rule="evenodd" fill="#fecb01" d="M-42.05 93.7 Q-24.05 98.8 -17.6 99.0 -13.0 99.15 -0.7 95.75 14.1 91.55 18.15 90.9 17.75 93.2 13.7 99.45 9.5 106.15 4.1 112.6 -10.25 129.8 -18.65 129.2 -32.3 126.35 -46.85 107.2 -51.45 101.2 -55.55 94.3 L-58.75 88.6 -42.05 93.7"></path>
    <path stroke="none" fill-rule="evenodd" fill="#82380d" d="M-37.2 35.8 Q-26.5 29.45 -17.6 29.45 -0.65 29.45 18.05 51.15 25.25 59.5 30.25 68.45 35.05 76.9 35.45 81.25 36.0 86.6 10.85 92.65 -11.15 97.95 -19.75 97.85 -29.35 97.75 -49.55 91.55 -71.7 84.7 -72.85 79.3 -73.65 75.5 -68.7 67.2 -63.7 58.95 -55.55 50.55 -46.55 41.35 -37.2 35.8"></path>
    <path stroke="none" fill-rule="evenodd" fill="#fecb01" d="M-18.65 94.4 Q-26.35 94.4 -46.8 87.4 -67.7 80.3 -68.5 77.0 -68.9 75.1 -64.55 68.25 -59.8 60.9 -52.85 53.6 -34.0 33.55 -17.6 32.9 -2.45 34.5 15.15 54.5 21.85 62.15 26.55 69.95 31.0 77.25 31.15 80.45 30.65 83.95 8.4 89.4 -12.05 94.4 -18.65 94.4"></path>
    <path stroke="none" fill-rule="evenodd" fill="#fef4b2" d="M10.9 50.6 Q5.65 46.0 -4.45 41.25 -14.85 36.35 -15.4 38.7 -16.8 44.9 -17.3 69.1 L-17.6 92.05 Q-18.75 80.0 -20.3 67.75 -23.45 43.25 -25.15 42.2 -26.9 41.2 -32.75 44.75 -38.15 48.1 -44.85 53.9 -60.85 67.85 -62.0 74.65 -62.55 78.05 -42.3 85.5 L-29.25 90.15 Q-23.85 92.05 -25.15 92.05 -28.45 92.05 -53.65 85.0 -67.9 79.6 -68.5 77.0 -68.9 75.1 -64.55 68.25 -59.8 60.9 -52.9 53.6 -34.05 33.6 -17.65 32.9 L-17.55 32.9 Q-6.8 34.05 6.0 45.35 L10.9 50.6 12.8 52.65 Q13.4 53.6 12.95 53.15 L10.9 50.6"></path>
  </g>
</svg>
