<svg xmlns="http://www.w3.org/2000/svg" width="291.55px" height="366.15px" xmlns:xlink="http://www.w3.org/1999/xlink">
  <g transform="matrix(1.0, 0.0, 0.0, 1.0, 147.55, 183.1)">
    <path stroke="none" fill-rule="evenodd" fill="#502f04" d="M1.0 -183.05 L1.9 -183.05 3.3 -183.05 11.4 -183.0 12.2 -183.0 Q15.95 -183.4 20.35 -182.35 36.75 -178.45 51.35 -159.2 69.65 -137.75 75.85 -117.95 L77.45 -112.1 Q95.95 -100.6 110.5 -80.95 126.3 -59.55 135.05 -31.8 144.0 -3.05 144.0 28.4 144.0 59.9 135.05 88.6 126.3 116.35 110.5 137.75 94.65 159.15 74.15 170.9 54.15 182.35 32.3 183.0 L13.6 183.05 11.4 183.05 3.3 183.05 1.0 183.05 -17.15 183.05 -33.2 183.05 -33.95 183.05 -38.55 183.05 Q-60.75 183.05 -81.0 170.9 -100.55 159.15 -115.65 137.75 -130.7 116.35 -138.95 88.6 -147.55 59.9 -147.55 28.4 -147.55 -3.05 -138.95 -31.8 -130.7 -59.55 -115.65 -80.95 -102.7 -99.35 -86.4 -110.6 -96.1 -113.3 -100.5 -119.75 -103.4 -124.15 -103.2 -129.35 -102.75 -134.55 -99.3 -139.6 -93.25 -148.1 -83.1 -150.65 -74.4 -152.8 -61.35 -150.85 -64.95 -161.85 -60.4 -173.0 -58.3 -178.1 -54.15 -180.65 -50.2 -183.1 -44.75 -183.1 L-37.7 -183.05 -33.95 -183.05 -33.2 -183.05 -17.15 -183.05 1.0 -183.05"></path>
    <path stroke="none" fill-rule="evenodd" fill="#502f04" d="M2.4 -183.05 L3.3 -183.05 4.65 -183.05 12.7 -183.0 13.5 -183.0 21.6 -182.35 Q37.8 -178.45 52.3 -159.2 70.4 -137.75 76.5 -117.95 L78.1 -112.1 Q96.4 -100.6 110.8 -80.95 126.5 -59.55 135.15 -31.8 144.0 -3.05 144.0 28.4 144.0 59.9 135.15 88.6 126.5 116.35 110.8 137.75 95.2 159.15 74.85 170.9 55.05 182.35 33.4 183.0 L14.85 183.05 12.7 183.05 4.65 183.05 2.4 183.05 -15.55 183.05 -31.45 183.05 -32.2 183.05 -36.8 183.05 Q-58.75 183.05 -78.8 170.9 -98.2 159.15 -113.1 137.75 -128.05 116.35 -136.2 88.6 -144.75 59.9 -144.75 28.4 -144.75 -3.05 -136.2 -31.8 -128.05 -59.55 -113.1 -80.95 -100.35 -99.35 -84.15 -110.6 -93.8 -113.3 -98.15 -119.75 -101.05 -124.15 -100.8 -129.35 -100.4 -134.55 -96.9 -139.6 -90.95 -148.1 -80.9 -150.65 -72.3 -152.8 -59.35 -150.85 -61.15 -156.4 -60.9 -162.0 -60.65 -167.5 -58.4 -173.0 -56.35 -178.1 -52.25 -180.65 -48.35 -183.1 -42.95 -183.1 L-35.9 -183.05 -32.2 -183.05 -31.45 -183.05 -15.55 -183.05 2.4 -183.05 M22.05 -145.35 L12.7 -174.55 7.7 -174.55 7.7 -174.6 2.4 -174.6 -31.45 -174.6 -32.2 -174.6 -33.3 -174.6 -34.8 -174.6 Q-44.25 -174.5 -47.55 -172.65 -50.2 -171.2 -51.95 -168.3 -53.7 -165.5 -54.15 -161.8 L-54.35 -158.3 Q-54.3 -153.4 -52.6 -150.3 -51.5 -148.25 -47.95 -143.5 L-60.95 -143.85 Q-70.35 -143.8 -75.45 -142.5 -80.3 -141.25 -84.8 -137.55 -89.5 -133.7 -90.5 -129.7 L-90.95 -129.1 Q-91.2 -127.65 -90.95 -126.25 -89.65 -116.8 -67.9 -110.15 L-68.15 -109.95 Q-87.9 -95.9 -99.55 -82.4 -103.05 -78.4 -105.8 -74.45 -111.8 -65.8 -116.65 -56.1 -122.95 -43.5 -127.25 -29.1 L-127.5 -28.2 Q-132.0 -13.05 -133.95 2.9 -134.9 10.3 -135.3 17.9 L-135.55 28.5 -135.45 33.9 Q-135.3 41.0 -134.6 47.9 -133.1 65.4 -128.45 81.9 L-127.5 85.2 Q-125.15 93.35 -122.1 100.9 -118.4 110.3 -113.6 118.85 -110.0 125.45 -105.8 131.5 L-99.55 139.75 Q-87.8 154.05 -73.45 162.7 -55.0 173.9 -34.8 174.15 L-33.85 174.15 -32.2 174.15 -31.45 174.15 -7.05 174.15 2.4 174.15 6.4 174.15 7.7 174.15 12.7 174.15 12.7 118.85 12.7 100.9 12.7 81.9 12.7 47.9 12.7 33.9 12.7 17.9 12.7 2.9 12.7 -29.1 12.7 -56.1 12.7 -106.1 12.7 -112.0 12.7 -126.0 22.05 -145.35"></path>
    <path stroke="none" fill-rule="evenodd" fill="#ffc000" d="M-54.15 -161.8 Q-53.7 -165.5 -51.95 -168.3 -50.2 -171.2 -47.55 -172.65 -44.25 -174.5 -34.8 -174.6 L-33.3 -174.6 -32.2 -174.6 -31.45 -174.6 2.4 -174.6 7.7 -174.6 7.7 -174.55 12.7 -174.55 22.05 -145.35 12.55 -147.7 9.6 -148.45 8.35 -148.8 7.7 -149.0 7.7 -154.05 7.7 -154.5 Q7.0 -154.65 5.75 -155.75 L5.05 -156.4 3.1 -157.9 Q1.95 -158.95 1.85 -160.15 L-54.15 -161.8 M12.7 -126.0 L12.7 -112.0 7.7 -112.6 7.7 -113.6 2.4 -114.15 -6.75 -114.55 -7.05 -114.55 -12.0 -114.75 Q-14.95 -114.85 -21.2 -119.6 -27.5 -124.35 -30.8 -124.5 L-31.45 -124.5 -32.2 -124.6 -32.35 -124.8 -71.75 -126.85 -87.25 -127.4 Q-88.05 -127.85 -89.05 -126.3 L-90.95 -126.25 Q-91.2 -127.65 -90.95 -129.1 L-90.5 -129.7 Q-89.5 -133.7 -84.8 -137.55 -80.3 -141.25 -75.45 -142.5 -70.35 -143.8 -60.95 -143.85 L-47.95 -143.5 -8.4 -142.6 Q-6.7 -141.95 -6.95 -140.85 -7.3 -139.7 -10.1 -137.95 -19.65 -132.15 -7.05 -131.05 L2.4 -130.25 7.6 -129.05 7.7 -129.0 7.7 -127.1 12.7 -126.0 M12.7 -106.1 L12.7 -56.1 -116.65 -56.1 Q-111.8 -65.8 -105.8 -74.45 -103.05 -78.4 -99.55 -82.4 -87.9 -95.9 -68.15 -109.95 L-63.15 -109.15 Q-50.45 -107.2 -34.8 -106.7 L-33.7 -106.65 -32.2 -106.55 -31.45 -106.55 -7.05 -106.4 2.4 -106.3 7.7 -106.25 7.7 -106.15 12.7 -106.1"></path>
    <path stroke="none" fill-rule="evenodd" fill="#dd8007" d="M-54.15 -161.8 L1.85 -160.15 Q1.95 -158.95 3.1 -157.9 L5.05 -156.4 5.75 -155.75 Q7.0 -154.65 7.7 -154.5 L7.7 -154.05 7.7 -149.0 8.35 -148.8 9.6 -148.45 12.55 -147.7 22.05 -145.35 12.7 -126.0 7.7 -127.1 7.7 -129.0 7.6 -129.05 2.4 -130.25 -7.05 -131.05 Q-19.65 -132.15 -10.1 -137.95 -7.3 -139.7 -6.95 -140.85 -6.7 -141.95 -8.4 -142.6 L-47.95 -143.5 Q-51.5 -148.25 -52.6 -150.3 -54.3 -153.4 -54.35 -158.3 L-54.15 -161.8 M12.7 -112.0 L12.7 -106.1 7.7 -106.15 7.7 -106.25 2.4 -106.3 -7.05 -106.4 -31.45 -106.55 -32.2 -106.55 -33.7 -106.65 -34.8 -106.7 Q-50.45 -107.2 -63.15 -109.15 L-68.15 -109.95 -67.9 -110.15 Q-89.65 -116.8 -90.95 -126.25 L-89.05 -126.3 Q-88.05 -127.85 -87.25 -127.4 L-71.75 -126.85 -32.35 -124.8 -32.2 -124.6 -31.45 -124.5 -30.8 -124.5 Q-27.5 -124.35 -21.2 -119.6 -14.95 -114.85 -12.0 -114.75 L-7.05 -114.55 -6.75 -114.55 2.4 -114.15 7.7 -113.6 7.7 -112.6 12.7 -112.0"></path>
    <path stroke="none" fill-rule="evenodd" fill="#ffd03c" d="M12.7 -56.1 L12.7 -29.1 -127.25 -29.1 Q-122.95 -43.5 -116.65 -56.1 L12.7 -56.1"></path>
    <path stroke="none" fill-rule="evenodd" fill="#fffff7" d="M12.7 17.9 L12.7 33.9 -135.45 33.9 -135.55 28.5 -135.3 17.9 12.7 17.9"></path>
    <path stroke="none" fill-rule="evenodd" fill="#fcf9ac" d="M12.7 33.9 L12.7 47.9 -134.6 47.9 Q-135.3 41.0 -135.45 33.9 L12.7 33.9"></path>
    <path stroke="none" fill-rule="evenodd" fill="#fff5b0" d="M12.7 2.9 L12.7 17.9 -135.3 17.9 Q-134.9 10.3 -133.95 2.9 L12.7 2.9"></path>
    <path stroke="none" fill-rule="evenodd" fill="#fecb00" d="M12.7 47.9 L12.7 81.9 -128.45 81.9 Q-133.1 65.4 -134.6 47.9 L12.7 47.9"></path>
    <path stroke="none" fill-rule="evenodd" fill="#f08e13" d="M12.7 100.9 L12.7 118.85 -113.6 118.85 Q-118.4 110.3 -122.1 100.9 L12.7 100.9"></path>
    <path stroke="none" fill-rule="evenodd" fill="#dd8102" d="M12.7 118.85 L12.7 174.15 7.7 174.15 6.4 174.15 2.4 174.15 -7.05 174.15 -31.45 174.15 -32.2 174.15 -33.85 174.15 -34.8 174.15 Q-55.0 173.9 -73.45 162.7 -87.8 154.05 -99.55 139.75 L-105.8 131.5 Q-110.0 125.45 -113.6 118.85 L12.7 118.85"></path>
    <path stroke="none" fill-rule="evenodd" fill="#f4a637" d="M12.7 81.9 L12.7 100.9 -122.1 100.9 Q-125.15 93.35 -127.5 85.2 L-128.45 81.9 12.7 81.9"></path>
    <path stroke="none" fill-rule="evenodd" fill="#fce17a" d="M12.7 -29.1 L12.7 2.9 -133.95 2.9 Q-132.0 -13.05 -127.5 -28.2 L-127.25 -29.1 12.7 -29.1"></path>
    <path stroke="none" fill-rule="evenodd" fill="#fef4b2" d="M125.7 -28.0 Q134.05 -1.2 134.05 28.2 134.05 57.55 125.7 84.4 117.6 110.3 102.9 130.25 88.15 150.25 69.05 161.2 49.3 172.55 27.65 172.55 5.95 172.55 -13.8 161.2 -32.9 150.25 -47.6 130.25 -62.4 110.3 -70.45 84.4 -78.8 57.55 -78.8 28.2 -78.8 -1.15 -70.45 -28.0 -62.4 -53.9 -47.6 -73.9 -32.9 -93.9 -13.8 -104.85 5.95 -116.2 27.65 -116.2 49.3 -116.2 69.05 -104.85 88.15 -93.9 102.9 -73.9 117.6 -53.9 125.7 -28.0"></path>
    <path stroke="none" fill-rule="evenodd" fill="#fecb01" d="M121.05 -24.55 Q128.95 0.9 128.95 28.75 128.95 56.6 121.05 82.05 113.4 106.6 99.4 125.55 85.45 144.5 67.35 154.9 48.6 165.65 28.05 165.65 7.5 165.65 -11.25 154.9 -29.35 144.5 -43.35 125.55 -57.3 106.6 -64.95 82.05 -72.9 56.6 -72.9 28.75 -72.9 0.9 -64.95 -24.55 -57.3 -49.1 -43.35 -68.05 -29.35 -87.0 -11.25 -97.4 7.5 -108.15 28.05 -108.15 48.6 -108.15 67.35 -97.4 85.45 -87.0 99.4 -68.05 113.4 -49.1 121.05 -24.55"></path>
    <path stroke="none" fill-rule="evenodd" fill="#fef4b2" d="M113.95 -21.3 Q121.35 2.3 121.35 28.2 121.35 54.05 113.95 77.7 106.85 100.5 93.85 118.1 80.9 135.65 64.1 145.3 46.65 155.3 27.65 155.3 8.55 155.3 -8.85 145.3 -25.7 135.65 -38.65 118.1 -51.65 100.5 -58.75 77.7 -66.1 54.05 -66.1 28.2 -66.1 2.3 -58.75 -21.3 -51.65 -44.1 -38.65 -61.7 -25.7 -79.3 -8.85 -88.95 8.55 -98.95 27.65 -98.95 46.65 -98.95 64.1 -88.95 80.9 -79.3 93.85 -61.7 106.85 -44.1 113.95 -21.3"></path>
    <path stroke="none" fill-rule="evenodd" fill="#f8a300" d="M113.95 -21.3 Q121.35 2.3 121.35 28.2 121.35 48.7 116.7 67.85 L14.6 66.85 Q-54.8 66.15 -61.7 66.8 -66.1 48.0 -66.1 28.2 -66.1 2.3 -58.75 -21.3 -51.65 -44.1 -38.65 -61.7 -25.7 -79.3 -8.85 -88.95 8.55 -98.95 27.65 -98.95 46.65 -98.95 64.1 -88.95 80.9 -79.3 93.85 -61.7 106.85 -44.1 113.95 -21.3"></path>
    <path stroke="none" fill-rule="evenodd" fill="#ffc000" d="M3.45 -168.8 Q8.3 -177.55 21.1 -172.3 34.15 -166.95 46.7 -150.4 59.05 -135.9 66.05 -118.1 70.75 -106.25 72.45 -94.7 L82.3 -86.6 Q81.25 -85.4 79.1 -84.8 74.85 -83.55 69.6 -86.6 55.3 -94.95 45.55 -98.3 30.2 -103.65 18.7 -100.4 -1.25 -94.8 -6.8 -96.45 -8.55 -97.0 -8.7 -98.15 L-8.45 -99.25 -2.25 -103.05 Q5.35 -106.95 12.75 -107.3 L13.0 -107.35 -2.1 -110.8 -21.15 -114.7 Q-34.45 -117.65 -39.05 -123.25 -43.8 -129.1 -37.3 -135.45 -30.25 -142.2 -23.8 -143.5 -16.5 -144.9 -3.35 -141.2 5.8 -138.6 17.95 -132.6 4.25 -143.7 1.4 -153.5 -0.8 -161.1 3.45 -168.8"></path>
    <path stroke="none" fill-rule="evenodd" fill="#feffba" d="M0.3 -133.2 Q-11.8 -136.8 -22.0 -135.45 -29.1 -134.5 -32.95 -131.05 L-35.3 -128.65 Q-36.4 -127.55 -37.3 -127.4 -39.15 -127.0 -39.25 -128.9 L-39.0 -130.85 Q-38.7 -132.9 -38.0 -134.65 L-37.3 -135.45 Q-32.4 -140.15 -28.3 -142.0 -22.15 -143.55 -10.95 -143.05 L-3.35 -141.2 Q4.55 -138.95 15.05 -134.0 25.7 -129.0 34.6 -123.4 37.1 -120.35 38.2 -118.15 L35.4 -118.25 Q30.85 -119.25 22.1 -123.95 10.05 -130.35 0.3 -133.2 M2.6 -156.15 Q1.4 -159.05 1.0 -162.55 1.7 -165.75 3.45 -168.8 8.35 -177.6 21.2 -172.5 34.45 -167.25 46.95 -150.7 57.65 -138.1 65.65 -119.95 71.65 -106.1 74.85 -92.4 L71.6 -94.95 69.95 -96.0 Q66.8 -106.3 60.8 -118.8 48.9 -143.85 34.85 -155.0 24.5 -163.2 17.9 -164.5 13.55 -165.35 9.35 -163.05 6.75 -161.6 4.4 -158.75 L2.6 -156.15"></path>
    <path stroke="none" fill-rule="evenodd" fill="#773f00" d="M109.25 -18.6 Q116.25 3.75 116.25 28.2 116.25 52.65 109.25 74.95 102.55 96.55 90.3 113.2 78.0 129.8 62.15 138.95 45.7 148.4 27.65 148.4 9.6 148.4 -6.9 138.95 -22.8 129.8 -35.05 113.2 -47.3 96.55 -54.05 74.95 -61.0 52.65 -61.0 28.2 -61.0 3.75 -54.05 -18.6 -47.3 -40.2 -35.05 -56.8 -22.8 -73.45 -6.9 -82.6 9.6 -92.05 27.65 -92.05 45.65 -92.05 62.15 -82.6 78.0 -73.45 90.3 -56.8 102.55 -40.2 109.25 -18.6"></path>
    <path stroke="none" fill-rule="evenodd" fill="#a76a00" d="M104.55 -16.6 Q111.15 4.25 111.15 27.05 111.15 49.85 104.55 70.7 98.2 90.8 86.55 106.35 74.95 121.85 59.9 130.4 44.25 139.2 27.2 139.2 10.1 139.2 -5.5 130.4 -20.55 121.85 -32.2 106.35 -43.8 90.8 -50.15 70.7 -56.75 49.85 -56.75 27.05 -56.75 4.25 -50.15 -16.6 -43.8 -36.75 -32.2 -52.3 -20.55 -67.8 -5.5 -76.35 10.1 -85.15 27.2 -85.15 44.25 -85.15 59.9 -76.35 74.95 -67.8 86.55 -52.3 98.2 -36.75 104.55 -16.6"></path>
    <path stroke="none" fill-rule="evenodd" fill="#dc8100" d="M104.55 -12.7 Q111.15 7.6 111.15 29.85 111.15 52.1 104.55 72.4 98.2 92.05 86.55 107.2 74.95 122.3 59.9 130.6 44.25 139.2 27.2 139.2 10.1 139.2 -5.5 130.6 -20.55 122.3 -32.2 107.2 -43.8 92.05 -50.15 72.4 -56.75 52.1 -56.75 29.85 -56.75 7.6 -50.15 -12.7 -43.8 -32.3 -32.2 -47.45 -20.55 -62.55 -5.5 -70.85 10.1 -79.45 27.2 -79.45 44.25 -79.45 59.9 -70.85 74.95 -62.55 86.55 -47.45 98.2 -32.3 104.55 -12.7"></path>
    <path stroke="none" fill-rule="evenodd" fill="#fecb01" d="M103.8 -9.55 Q110.35 10.35 110.35 32.1 110.35 53.9 103.8 73.8 97.5 93.0 86.0 107.85 74.45 122.65 59.55 130.8 44.1 139.2 27.2 139.2 10.3 139.2 -5.2 130.8 -20.1 122.65 -31.6 107.85 -43.1 93.0 -49.45 73.8 -55.95 53.9 -55.95 32.1 -55.95 10.35 -49.45 -9.55 -43.1 -28.75 -31.6 -43.6 -20.1 -58.4 -5.2 -66.55 10.3 -74.95 27.2 -74.95 44.1 -74.95 59.55 -66.55 74.45 -58.4 86.0 -43.6 97.5 -28.75 103.8 -9.55"></path>
    <path stroke="none" fill-rule="evenodd" fill="#fab300" d="M108.6 57.5 L104.8 71.0 Q99.45 87.25 91.8 100.65 67.3 143.6 28.9 142.65 -9.2 141.65 -33.25 106.35 -41.1 94.65 -47.2 79.55 L-53.4 62.1 -50.55 55.75 Q-46.4 48.15 -39.7 41.9 -18.3 21.9 20.4 23.0 63.6 24.2 90.45 41.0 103.85 49.35 108.6 57.5"></path>
    <path stroke="none" fill-rule="evenodd" fill="#d29001" d="M-55.9 16.1 L-53.8 17.85 Q-51.2 20.25 -49.2 23.5 -42.75 34.0 -44.1 49.45 -45.25 63.25 -48.6 66.95 -49.6 68.1 -50.75 68.1 L-51.7 67.85 Q-53.7 59.95 -55.2 49.55 -58.3 28.7 -55.9 16.1 M97.6 44.85 Q97.6 31.2 103.95 22.3 107.1 17.85 110.3 16.1 112.45 35.15 109.05 54.55 107.35 64.25 105.25 70.15 103.3 69.3 101.45 65.7 97.6 58.55 97.6 44.85 M95.9 -23.0 L96.85 -12.8 Q97.5 -2.15 95.9 0.0 L82.75 5.35 Q86.95 13.7 88.1 24.6 90.1 44.35 83.0 58.8 75.45 74.05 60.8 76.45 50.15 78.15 40.8 70.7 31.6 63.4 27.1 49.95 22.5 63.0 13.4 70.1 4.15 77.25 -6.3 75.55 -20.7 73.15 -28.3 57.95 -35.5 43.4 -33.55 23.8 -32.4 12.85 -28.15 4.5 -38.1 0.8 -39.0 -1.15 -39.75 -2.95 -39.45 -9.7 L-39.0 -16.1 -16.9 -12.65 -18.0 -7.75 Q-9.0 -14.25 2.15 -12.2 6.6 -2.0 15.8 2.4 L22.45 5.55 Q25.8 7.55 27.5 10.7 29.2 7.95 32.6 6.05 34.55 4.95 39.1 3.0 48.0 -1.35 52.4 -11.4 58.65 -12.55 64.4 -10.9 70.15 -9.3 74.85 -5.1 L95.9 -23.0"></path>
    <path stroke="none" fill-rule="evenodd" fill="#fef2b0" d="M4.3 84.45 Q22.6 90.7 29.05 90.95 34.0 91.15 47.05 88.1 L67.05 83.3 Q66.8 87.5 62.75 95.95 58.75 104.3 52.8 113.15 38.3 134.8 28.1 138.05 5.15 122.15 -6.05 98.6 -9.55 91.25 -11.45 83.95 L-12.65 78.2 4.3 84.45"></path>
    <path stroke="none" fill-rule="evenodd" fill="#fef2b0" d="M12.7 33.2 Q21.6 26.45 29.0 26.45 43.0 26.45 58.55 49.5 64.5 58.3 68.7 67.8 72.65 76.7 73.0 81.35 73.45 87.0 52.6 93.45 44.95 95.75 36.95 97.4 29.65 98.95 27.2 98.9 19.25 98.8 2.5 92.2 -15.9 84.95 -16.85 79.25 -17.5 75.2 -13.35 66.45 -9.25 57.65 -2.5 48.8 4.95 39.05 12.7 33.2"></path>
    <path stroke="none" fill-rule="evenodd" fill="#ffffa8" d="M3.55 -64.85 Q12.55 -67.3 19.75 -63.05 26.95 -58.8 28.2 -50.4 29.45 -42.0 24.0 -34.35 18.5 -26.7 9.55 -24.25 0.6 -21.85 -6.6 -26.05 -13.85 -30.3 -15.05 -38.7 -16.3 -47.15 -10.85 -54.8 -5.4 -62.45 3.55 -64.85"></path>
    <path stroke="none" fill-rule="evenodd" fill="#82380d" d="M38.05 -7.7 Q42.95 -8.9 45.7 -10.45 50.15 -13.05 53.5 -18.4 65.85 -18.4 73.95 -8.5 82.3 1.65 82.3 17.8 82.3 34.25 73.75 45.9 65.2 57.5 53.05 57.5 40.9 57.5 32.35 45.9 23.8 34.25 23.8 17.8 23.8 8.95 26.55 1.0 28.1 -3.5 31.3 -5.45 33.15 -6.6 38.05 -7.7"></path>
    <path stroke="none" fill-rule="evenodd" fill="#ffefaf" d="M36.25 -3.85 Q43.55 -13.8 53.9 -13.8 64.3 -13.8 71.6 -3.85 78.95 6.05 78.95 20.1 78.95 34.15 71.6 44.1 64.3 54.05 53.9 54.05 43.55 54.05 36.25 44.1 28.9 34.15 28.9 20.1 28.9 6.1 36.25 -3.85"></path>
    <path stroke="none" fill-rule="evenodd" fill="#fbd600" d="M76.95 6.95 Q78.95 13.2 78.95 20.1 78.95 29.5 75.4 37.55 L74.7 37.95 76.45 28.8 Q78.05 18.9 77.25 14.95 76.45 11.0 75.05 6.8 L73.85 3.45 30.6 17.25 29.45 12.75 30.05 9.95 71.6 -3.85 Q75.1 0.85 76.95 6.95"></path>
    <path stroke="none" fill-rule="evenodd" fill="#82380d" d="M7.85 -11.65 Q10.6 -10.05 15.5 -8.9 20.35 -7.75 22.2 -6.65 25.4 -4.7 26.95 -0.2 29.75 7.85 29.75 16.65 29.75 33.1 21.15 44.75 12.6 56.35 0.45 56.35 -11.65 56.35 -20.25 44.75 -28.8 33.1 -28.8 16.65 -28.8 0.5 -20.4 -9.65 -12.3 -19.55 0.05 -19.55 3.4 -14.2 7.85 -11.65"></path>
    <path stroke="none" fill-rule="evenodd" fill="#ffefaf" d="M-17.2 -7.3 Q-9.85 -17.25 0.45 -17.25 10.85 -17.25 18.2 -7.3 25.5 2.6 25.5 16.65 25.5 30.7 18.2 40.65 10.85 50.6 0.45 50.6 -9.9 50.6 -17.2 40.65 -24.55 30.7 -24.55 16.65 -24.55 2.65 -17.2 -7.3"></path>
    <path stroke="none" fill-rule="evenodd" fill="#fbd600" d="M-21.25 5.65 Q-24.0 11.65 -24.5 19.3 L-24.55 16.65 Q-24.55 10.3 -22.9 4.45 -21.25 -1.2 -18.3 -5.75 L25.2 11.5 25.5 16.65 25.5 17.45 -18.6 1.15 Q-19.85 2.65 -21.25 5.65"></path>
    <path stroke="none" fill-rule="evenodd" fill="#82380d" d="M3.25 25.55 Q0.9 22.35 0.9 17.8 0.9 13.3 3.25 10.1 5.6 6.9 8.95 6.9 12.3 6.9 14.65 10.1 17.0 13.3 17.0 17.8 17.0 22.35 14.65 25.55 12.3 28.75 8.95 28.75 5.6 28.75 3.25 25.55"></path>
    <path stroke="none" fill-rule="evenodd" fill="#64220a" d="M2.6 14.6 Q1.35 16.6 1.0 19.6 L0.9 18.65 Q1.15 15.4 1.7 13.15 2.7 10.35 4.6 8.65 6.6 6.9 8.95 6.9 11.0 6.9 12.8 8.2 14.55 9.5 15.65 11.7 16.75 14.75 16.95 18.65 L16.95 19.25 Q16.2 16.7 14.55 14.65 11.8 11.2 7.65 11.5 4.35 11.75 2.6 14.6"></path>
    <path stroke="none" fill-rule="evenodd" fill="#82380d" d="M44.55 6.9 Q47.95 6.9 50.3 10.1 52.65 13.3 52.65 17.8 52.65 22.35 50.3 25.55 47.95 28.75 44.55 28.75 41.25 28.75 38.9 25.55 36.5 22.35 36.5 17.8 36.5 13.3 38.9 10.1 41.25 6.9 44.55 6.9"></path>
    <path stroke="none" fill-rule="evenodd" fill="#64220a" d="M52.6 18.4 Q51.45 15.9 49.75 14.4 47.35 12.4 44.15 12.65 40.05 12.95 38.35 17.2 37.35 19.65 37.35 22.65 37.2 17.95 38.2 14.0 40.0 7.05 44.8 6.9 48.05 7.0 50.35 10.2 52.65 13.4 52.65 17.8 L52.6 18.4"></path>
    <path stroke="none" fill-rule="evenodd" fill="#8e4216" d="M95.2 -28.95 Q97.85 -14.75 97.6 -11.5 97.35 -8.3 62.65 3.65 L28.05 14.95 Q10.65 9.05 -6.75 2.65 -41.55 -10.15 -41.55 -12.65 -41.55 -15.2 -39.0 -29.1 L-36.45 -42.55 28.05 -6.9 92.5 -42.55 95.2 -28.95"></path>
    <path stroke="none" fill-rule="evenodd" fill="#6f280d" d="M-33.05 -33.35 L-38.05 -10.05 Q-41.55 -11.9 -41.55 -12.65 -41.55 -15.2 -39.0 -29.1 L-36.45 -42.55 28.05 -6.9 92.5 -42.55 93.7 -36.7 27.2 1.15 -33.05 -33.35"></path>
    <path stroke="none" fill-rule="evenodd" fill="#82380d" d="M6.25 86.1 Q23.0 91.8 28.9 92.0 33.4 92.2 45.35 89.45 L63.65 85.1 Q63.45 88.9 59.7 96.55 56.05 104.1 50.6 112.1 37.35 131.65 28.05 134.6 7.05 120.25 -3.2 98.95 -6.45 92.25 -8.15 85.7 L-9.3 80.5 6.25 86.1"></path>
    <path stroke="none" fill-rule="evenodd" fill="#fecb01" d="M9.75 92.45 Q23.85 97.55 28.9 97.75 32.45 97.9 42.1 94.5 53.7 90.35 56.85 89.7 56.55 92.0 53.4 98.2 50.05 104.8 45.85 111.2 34.6 128.25 28.05 127.7 17.35 124.85 5.95 105.85 2.4 99.9 -0.8 93.05 L-3.35 87.4 9.75 92.45"></path>
    <path stroke="none" fill-rule="evenodd" fill="#82380d" d="M13.55 35.05 Q21.9 28.75 28.9 28.75 42.15 28.75 56.8 50.3 62.4 58.55 66.35 67.45 70.05 75.8 70.4 80.15 70.8 85.45 51.15 91.45 33.9 96.7 27.2 96.6 19.65 96.5 3.85 90.35 -13.5 83.55 -14.35 78.2 -15.0 74.4 -11.1 66.2 -7.2 58.0 -0.8 49.7 6.2 40.55 13.55 35.05"></path>
    <path stroke="none" fill-rule="evenodd" fill="#fecb01" d="M28.05 93.15 Q22.0 93.15 6.0 86.25 -10.35 79.2 -10.95 75.9 -11.3 74.05 -7.85 67.25 -4.15 59.95 1.3 52.7 16.05 32.8 28.9 32.2 40.75 33.75 54.5 53.6 59.75 61.2 63.45 68.9 66.9 76.15 67.05 79.35 66.65 82.8 49.2 88.2 33.2 93.15 28.05 93.15"></path>
    <path stroke="none" fill-rule="evenodd" fill="#fef4b2" d="M51.15 49.75 Q47.1 45.15 39.2 40.45 31.0 35.6 30.6 37.95 29.5 44.1 29.1 68.1 L28.9 90.85 26.75 66.75 Q24.3 42.45 22.95 41.4 21.6 40.4 17.0 43.95 12.8 47.25 7.55 53.0 -5.0 66.85 -5.9 73.6 -6.3 76.95 9.55 84.35 L19.75 88.95 Q24.0 90.85 22.95 90.85 20.35 90.85 0.65 83.85 -10.5 78.5 -10.95 75.9 -11.3 74.05 -7.85 67.25 -4.15 59.95 1.25 52.7 16.0 32.85 28.85 32.2 L28.9 32.2 Q37.35 33.3 47.35 44.5 L51.15 49.75 52.65 51.75 Q53.15 52.7 52.8 52.25 L51.15 49.75"></path>
  </g>
</svg>
