<svg xmlns="http://www.w3.org/2000/svg" width="320.3px" height="366.2px" xmlns:xlink="http://www.w3.org/1999/xlink">
  <g transform="matrix(1.0, 0.0, 0.0, 1.0, 161.75, 183.1)">
    <path stroke="none" fill-rule="evenodd" fill="#502f04" d="M36.3 -160.7 L28.7 -167.0 25.95 -169.1 Q21.5 -171.7 16.85 -172.9 7.95 -175.2 5.25 -175.35 L2.6 -175.35 -35.85 -175.35 -38.45 -175.35 Q-42.0 -175.1 -46.4 -173.85 L-48.05 -173.1 -48.45 -172.9 -50.25 -171.25 Q-52.2 -169.0 -53.7 -165.0 L-54.1 -163.85 -54.25 -163.35 -54.3 -162.9 Q-55.05 -159.5 -54.7 -154.5 -54.4 -151.8 -53.45 -148.4 L-52.2 -144.35 -51.85 -143.45 -54.35 -143.55 Q-64.4 -144.05 -72.1 -143.75 L-83.4 -142.7 -85.8 -142.3 -87.5 -141.9 -92.35 -140.55 Q-97.2 -138.95 -100.25 -136.55 L-101.1 -135.85 Q-102.85 -134.25 -103.85 -132.5 -105.4 -129.75 -105.05 -126.6 -105.3 -124.45 -96.75 -119.65 -90.7 -116.3 -75.5 -115.35 -69.7 -115.05 -62.6 -115.05 L-61.6 -115.05 -62.05 -114.8 -67.8 -111.25 Q-92.6 -95.8 -105.05 -83.1 -119.0 -68.95 -126.55 -58.45 -134.1 -48.0 -142.35 -24.15 -150.65 -0.35 -150.65 29.15 -150.65 58.75 -140.4 85.65 -130.65 111.7 -112.65 131.8 -94.8 151.9 -71.55 162.9 -56.05 170.2 -39.6 172.85 L-25.6 174.25 -12.9 174.25 -2.5 174.25 2.3 174.25 3.45 174.25 24.3 174.25 28.7 174.0 Q50.4 172.45 70.5 162.9 93.8 151.9 111.75 131.8 117.9 124.85 123.15 117.15 129.15 108.35 133.9 98.6 136.95 92.3 139.5 85.65 L141.85 79.0 Q147.45 62.0 149.0 43.9 149.65 36.75 149.65 29.45 L149.65 29.15 Q149.65 20.95 148.85 12.9 148.1 5.1 146.6 -2.55 144.1 -15.2 139.5 -27.35 L136.1 -35.6 Q130.65 -47.75 123.4 -58.5 L119.9 -63.45 Q116.05 -68.6 111.75 -73.45 L104.8 -80.75 Q91.05 -94.3 72.85 -105.9 L72.55 -106.7 Q68.6 -118.3 62.6 -128.75 52.4 -146.35 36.3 -160.7 M4.7 -183.05 L10.7 -182.3 Q20.0 -180.5 28.7 -175.35 38.8 -169.45 48.15 -159.15 70.25 -137.7 77.75 -117.9 L79.9 -111.2 Q101.25 -99.8 118.15 -80.9 137.2 -59.5 147.75 -31.75 158.55 -3.0 158.55 28.45 158.55 59.95 147.75 88.65 137.2 116.4 118.15 137.8 99.0 159.2 74.25 170.95 52.35 181.3 28.7 182.85 L23.05 183.1 -27.05 183.1 Q-53.35 182.35 -77.5 170.95 -102.25 159.2 -121.35 137.8 -140.45 116.4 -150.9 88.65 -161.75 59.95 -161.75 28.45 -161.75 -3.0 -150.9 -31.75 -140.45 -59.5 -121.35 -80.9 -105.75 -98.4 -86.3 -109.45 -103.55 -111.7 -110.5 -119.7 -114.3 -124.1 -113.85 -129.3 -113.4 -134.5 -108.95 -139.55 -101.3 -148.05 -88.5 -150.6 -77.5 -152.75 -60.85 -150.8 -65.5 -161.8 -59.7 -172.95 -56.35 -179.3 -49.3 -181.75 -46.0 -182.9 -42.25 -183.05 L-39.45 -183.05 1.95 -183.05 4.7 -183.05"></path>
    <path stroke="none" fill-rule="evenodd" fill="#ffc000" d="M-52.2 -144.35 L-53.45 -148.4 Q-54.4 -151.8 -54.7 -154.5 -55.05 -159.5 -54.3 -162.9 L-54.25 -163.35 -54.1 -163.85 -53.7 -165.0 Q-52.2 -169.0 -50.25 -171.25 L-48.45 -172.9 -48.05 -173.1 -46.4 -173.85 Q-42.0 -175.1 -38.45 -175.35 L-35.85 -175.35 2.6 -175.35 5.25 -175.35 Q7.95 -175.2 16.85 -172.9 21.5 -171.7 25.95 -169.1 L28.7 -167.0 36.3 -160.7 -2.5 -159.85 -2.5 -159.75 -17.0 -159.4 -2.5 -138.75 -2.5 -130.3 17.0 -102.65 72.85 -105.9 Q91.05 -94.3 104.8 -80.75 L111.75 -73.45 Q116.05 -68.6 119.9 -63.45 L-39.6 -63.45 -39.6 -35.6 -39.6 -2.55 -39.6 12.9 -39.6 29.45 -39.6 43.9 -39.6 79.0 -39.6 98.6 -39.6 117.15 -39.6 172.85 Q-56.05 170.2 -71.55 162.9 -94.8 151.9 -112.65 131.8 -130.65 111.7 -140.4 85.65 -150.65 58.75 -150.65 29.15 -150.65 -0.35 -142.35 -24.15 -134.1 -48.0 -126.55 -58.45 -119.0 -68.95 -105.05 -83.1 -92.6 -95.8 -67.8 -111.25 L-62.05 -114.8 -61.6 -115.05 -62.6 -115.05 Q-69.7 -115.05 -75.5 -115.35 -90.7 -116.3 -96.75 -119.65 -105.3 -124.45 -105.05 -126.6 -105.4 -129.75 -103.85 -132.5 -102.85 -134.25 -101.1 -135.85 L-100.25 -136.55 Q-97.2 -138.95 -92.35 -140.55 L-41.15 -130.7 -52.2 -144.35"></path>
    <path stroke="none" fill-rule="evenodd" fill="#dd8300" d="M-52.2 -144.35 L-41.15 -130.7 -92.35 -140.55 -87.5 -141.9 -85.8 -142.3 -83.4 -142.7 -72.1 -143.75 Q-64.4 -144.05 -54.35 -143.55 L-51.85 -143.45 -52.2 -144.35 M72.85 -105.9 L17.0 -102.65 -2.5 -130.3 -2.5 -138.75 -17.0 -159.4 -2.5 -159.75 -2.5 -159.85 36.3 -160.7 Q52.4 -146.35 62.6 -128.75 68.6 -118.3 72.55 -106.7 L72.85 -105.9"></path>
    <path stroke="none" fill-rule="evenodd" fill="#ffd03c" d="M-39.6 -35.6 L-39.6 -63.45 119.9 -63.45 123.4 -58.5 Q130.65 -47.75 136.1 -35.6 L-39.6 -35.6"></path>
    <path stroke="none" fill-rule="evenodd" fill="#fce17a" d="M-39.6 -2.55 L-39.6 -35.6 136.1 -35.6 139.5 -27.35 Q144.1 -15.2 146.6 -2.55 L-39.6 -2.55"></path>
    <path stroke="none" fill-rule="evenodd" fill="#fffff7" d="M-39.6 29.45 L-39.6 12.9 148.85 12.9 Q149.65 20.95 149.65 29.15 L149.65 29.45 -39.6 29.45"></path>
    <path stroke="none" fill-rule="evenodd" fill="#fcf9ac" d="M-39.6 43.9 L-39.6 29.45 149.65 29.45 Q149.65 36.75 149.0 43.9 L-39.6 43.9"></path>
    <path stroke="none" fill-rule="evenodd" fill="#f4a637" d="M-39.6 98.6 L-39.6 79.0 141.85 79.0 139.5 85.65 Q136.95 92.3 133.9 98.6 L-39.6 98.6"></path>
    <path stroke="none" fill-rule="evenodd" fill="#dd8102" d="M-39.6 172.85 L-39.6 117.15 123.15 117.15 Q117.9 124.85 111.75 131.8 93.8 151.9 70.5 162.9 50.4 172.45 28.7 174.0 L24.3 174.25 3.45 174.25 2.3 174.25 -2.5 174.25 -12.9 174.25 -25.6 174.25 -39.6 172.85"></path>
    <path stroke="none" fill-rule="evenodd" fill="#f08e13" d="M-39.6 117.15 L-39.6 98.6 133.9 98.6 Q129.15 108.35 123.15 117.15 L-39.6 117.15"></path>
    <path stroke="none" fill-rule="evenodd" fill="#fecb00" d="M-39.6 79.0 L-39.6 43.9 149.0 43.9 Q147.45 62.0 141.85 79.0 L-39.6 79.0"></path>
    <path stroke="none" fill-rule="evenodd" fill="#fff5b0" d="M-39.6 12.9 L-39.6 -2.55 146.6 -2.55 Q148.1 5.1 148.85 12.9 L-39.6 12.9"></path>
    <path stroke="none" fill-rule="evenodd" fill="#fef4b2" d="M94.75 -27.55 Q104.85 -0.75 104.85 28.65 104.85 58.0 94.75 84.85 85.05 110.75 67.35 130.7 49.65 150.7 26.7 161.65 2.9 173.0 -23.15 173.0 -49.2 173.0 -72.95 161.65 -95.9 150.7 -113.6 130.7 -131.35 110.75 -141.05 84.85 -151.1 58.0 -151.1 28.65 -151.1 -0.7 -141.05 -27.55 -131.35 -53.45 -113.6 -73.45 -95.9 -93.45 -72.95 -104.4 -49.2 -115.75 -23.15 -115.75 2.9 -115.75 26.7 -104.4 49.65 -93.45 67.35 -73.45 85.05 -53.45 94.75 -27.55"></path>
    <path stroke="none" fill-rule="evenodd" fill="#fecb01" d="M89.15 -24.1 Q98.7 1.35 98.7 29.2 98.7 57.05 89.15 82.5 80.0 107.05 63.15 126.0 46.4 144.95 24.6 155.35 2.05 166.1 -22.65 166.1 -47.3 166.1 -69.85 155.35 -91.65 144.95 -108.45 126.0 -125.25 107.05 -134.45 82.5 -144.0 57.05 -144.0 29.2 -144.0 1.35 -134.45 -24.1 -125.25 -48.65 -108.45 -67.6 -91.65 -86.55 -69.85 -96.95 -47.3 -107.7 -22.65 -107.7 2.05 -107.7 24.6 -96.95 46.4 -86.55 63.15 -67.6 80.0 -48.65 89.15 -24.1"></path>
    <path stroke="none" fill-rule="evenodd" fill="#fef4b2" d="M80.65 -20.85 Q89.55 2.75 89.55 28.65 89.55 54.5 80.65 78.15 72.15 100.95 56.5 118.55 40.95 136.1 20.7 145.75 -0.25 155.75 -23.15 155.75 -46.05 155.75 -67.0 145.75 -87.25 136.1 -102.8 118.55 -118.45 100.95 -126.95 78.15 -135.85 54.5 -135.85 28.65 -135.85 2.75 -126.95 -20.85 -118.45 -43.65 -102.8 -61.25 -87.25 -78.85 -67.0 -88.5 -46.05 -98.5 -23.15 -98.5 -0.25 -98.5 20.7 -88.5 40.95 -78.85 56.5 -61.25 72.15 -43.65 80.65 -20.85"></path>
    <path stroke="none" fill-rule="evenodd" fill="#f8a300" d="M80.65 -20.85 Q89.55 2.75 89.55 28.65 89.55 49.15 83.95 68.3 L-38.8 67.3 Q-122.2 66.6 -130.55 67.25 -135.85 48.45 -135.85 28.65 -135.85 2.75 -126.95 -20.85 -118.45 -43.65 -102.8 -61.25 -87.25 -78.85 -67.0 -88.5 -46.05 -98.5 -23.15 -98.5 -0.25 -98.5 20.7 -88.5 40.95 -78.85 56.5 -61.25 72.15 -43.65 80.65 -20.85"></path>
    <path stroke="none" fill-rule="evenodd" fill="#ffc000" d="M-52.2 -168.35 Q-46.4 -177.1 -31.0 -171.85 -15.3 -166.5 -0.2 -149.95 14.65 -135.45 23.05 -117.65 28.7 -105.8 30.75 -94.25 L42.65 -86.15 Q41.35 -84.95 38.75 -84.35 33.6 -83.1 27.3 -86.15 10.15 -94.5 -1.55 -97.85 -20.05 -103.2 -33.85 -99.95 -57.85 -94.35 -64.55 -96.0 -66.65 -96.55 -66.8 -97.7 L-66.5 -98.8 -59.05 -102.6 Q-49.95 -106.5 -41.0 -106.85 L-40.75 -106.9 -58.9 -110.35 -81.8 -114.25 Q-97.75 -117.2 -103.3 -122.8 -109.05 -128.65 -101.2 -135.0 -92.75 -141.75 -84.95 -143.05 -76.2 -144.45 -60.35 -140.75 -49.35 -138.15 -34.75 -132.15 -51.2 -143.25 -54.7 -153.05 -57.35 -160.65 -52.2 -168.35"></path>
    <path stroke="none" fill-rule="evenodd" fill="#feffba" d="M-55.95 -132.75 Q-70.55 -136.35 -82.8 -135.0 -91.35 -134.05 -96.0 -130.6 L-98.8 -128.2 Q-100.1 -127.1 -101.2 -126.95 -103.4 -126.55 -103.55 -128.45 L-103.2 -130.4 Q-102.85 -132.45 -102.05 -134.2 L-101.2 -135.0 Q-95.3 -139.7 -90.4 -141.55 -83.0 -143.1 -69.55 -142.6 L-60.35 -140.75 Q-50.9 -138.5 -38.25 -133.55 -25.45 -128.55 -14.75 -122.95 -11.75 -119.9 -10.4 -117.7 L-13.75 -117.8 Q-19.25 -118.8 -29.8 -123.5 -44.25 -129.9 -55.95 -132.75 M-53.2 -155.7 Q-54.7 -158.6 -55.1 -162.1 -54.3 -165.3 -52.2 -168.35 -46.35 -177.15 -30.85 -172.05 -14.9 -166.8 0.05 -150.25 13.0 -137.65 22.55 -119.5 29.8 -105.65 33.6 -91.95 32.1 -93.2 29.75 -94.5 L27.75 -95.55 Q23.95 -105.85 16.75 -118.35 2.45 -143.4 -14.5 -154.55 -26.9 -162.75 -34.85 -164.05 -40.05 -164.9 -45.1 -162.6 -48.25 -161.15 -51.05 -158.3 L-53.2 -155.7"></path>
    <path stroke="none" fill-rule="evenodd" fill="#773f00" d="M75.0 -18.15 Q83.4 4.2 83.4 28.65 83.4 53.1 75.0 75.4 66.95 97.0 52.2 113.65 37.45 130.25 18.35 139.4 -1.45 148.85 -23.15 148.85 -44.85 148.85 -64.6 139.4 -83.75 130.25 -98.5 113.65 -113.25 97.0 -121.35 75.4 -129.7 53.1 -129.7 28.65 -129.7 4.2 -121.35 -18.15 -113.25 -39.75 -98.5 -56.35 -83.75 -73.0 -64.6 -82.15 -44.85 -91.6 -23.15 -91.6 -1.5 -91.6 18.35 -82.15 37.45 -73.0 52.2 -56.35 66.95 -39.75 75.0 -18.15"></path>
    <path stroke="none" fill-rule="evenodd" fill="#a76a00" d="M69.35 -16.15 Q77.3 4.7 77.3 27.5 77.3 50.3 69.35 71.15 61.7 91.25 47.75 106.8 33.75 122.3 15.65 130.85 -3.1 139.65 -23.65 139.65 -44.2 139.65 -63.0 130.85 -81.1 122.3 -95.05 106.8 -109.05 91.25 -116.65 71.15 -124.6 50.3 -124.6 27.5 -124.6 4.7 -116.65 -16.15 -109.05 -36.3 -95.05 -51.85 -81.1 -67.35 -63.0 -75.9 -44.2 -84.7 -23.65 -84.7 -3.1 -84.7 15.65 -75.9 33.75 -67.35 47.75 -51.85 61.7 -36.3 69.35 -16.15"></path>
    <path stroke="none" fill-rule="evenodd" fill="#dc8100" d="M69.35 -12.25 Q77.3 8.05 77.3 30.3 77.3 52.55 69.35 72.85 61.7 92.5 47.75 107.65 33.75 122.75 15.65 131.05 -3.1 139.65 -23.65 139.65 -44.2 139.65 -63.0 131.05 -81.1 122.75 -95.05 107.65 -109.05 92.5 -116.65 72.85 -124.6 52.55 -124.6 30.3 -124.6 8.05 -116.65 -12.25 -109.05 -31.85 -95.05 -47.0 -81.1 -62.1 -63.0 -70.4 -44.2 -79.0 -23.65 -79.0 -3.1 -79.0 15.65 -70.4 33.75 -62.1 47.75 -47.0 61.7 -31.85 69.35 -12.25"></path>
    <path stroke="none" fill-rule="evenodd" fill="#fecb01" d="M68.45 -9.1 Q76.3 10.8 76.3 32.55 76.3 54.35 68.45 74.25 60.85 93.45 47.0 108.3 33.15 123.1 15.25 131.25 -3.35 139.65 -23.65 139.65 -44.0 139.65 -62.6 131.25 -80.5 123.1 -94.35 108.3 -108.2 93.45 -115.8 74.25 -123.65 54.35 -123.65 32.55 -123.65 10.8 -115.8 -9.1 -108.2 -28.3 -94.35 -43.15 -80.5 -57.95 -62.6 -66.1 -44.0 -74.5 -23.65 -74.5 -3.35 -74.5 15.25 -66.1 33.15 -57.95 47.0 -43.15 60.85 -28.3 68.45 -9.1"></path>
    <path stroke="none" fill-rule="evenodd" fill="#fab300" d="M74.2 57.95 L69.65 71.45 Q63.2 87.7 54.05 101.1 24.55 144.05 -21.6 143.1 -67.4 142.1 -96.3 106.8 -105.8 95.1 -113.05 80.0 L-120.55 62.55 -117.15 56.2 Q-112.15 48.6 -104.1 42.35 -78.35 22.35 -31.85 23.45 20.15 24.65 52.4 41.45 68.5 49.8 74.2 57.95"></path>
    <path stroke="none" fill-rule="evenodd" fill="#d29001" d="M-123.6 16.55 L-121.0 18.3 Q-117.9 20.7 -115.5 23.95 -107.75 34.45 -109.35 49.9 -110.75 63.7 -114.75 67.4 -116.0 68.55 -117.4 68.55 L-118.5 68.3 Q-120.95 60.4 -122.75 50.0 -126.45 29.15 -123.6 16.55 M61.0 45.3 Q61.0 31.65 68.65 22.75 72.45 18.3 76.25 16.55 78.85 35.6 74.75 55.0 72.7 64.7 70.2 70.6 67.85 69.75 65.6 66.15 61.0 59.0 61.0 45.3 M58.95 -22.55 L60.1 -12.35 Q60.85 -1.7 58.95 0.45 L43.1 5.8 Q48.2 14.15 49.6 25.05 52.0 44.8 43.4 59.25 34.35 74.5 16.75 76.9 3.95 78.6 -7.3 71.15 -18.4 63.85 -23.8 50.4 -29.3 63.45 -40.25 70.55 -51.35 77.7 -63.9 76.0 -81.2 73.6 -90.35 58.4 -99.05 43.85 -96.7 24.25 -95.3 13.3 -90.2 4.95 -102.15 1.25 -103.2 -0.7 -104.15 -2.5 -103.8 -9.25 L-103.2 -15.65 -76.7 -12.2 -78.0 -7.3 Q-67.15 -13.8 -53.8 -11.75 -48.4 -1.55 -37.35 2.85 L-29.4 6.0 Q-25.3 8.0 -23.3 11.15 -21.2 8.4 -17.15 6.5 -14.8 5.4 -9.35 3.45 1.35 -0.9 6.65 -10.95 L21.1 -10.45 Q28.0 -8.85 33.65 -4.65 L58.95 -22.55"></path>
    <path stroke="none" fill-rule="evenodd" fill="#fef2b0" d="M-51.2 84.9 Q-29.15 91.15 -21.45 91.4 -15.45 91.6 0.2 88.55 L24.25 83.75 Q24.0 87.95 19.05 96.4 14.25 104.75 7.15 113.6 -10.3 135.25 -22.55 138.5 -50.15 122.6 -63.65 99.05 -67.85 91.7 -70.1 84.4 L-71.6 78.65 -51.2 84.9"></path>
    <path stroke="none" fill-rule="evenodd" fill="#fef2b0" d="M-41.05 33.65 Q-30.35 26.9 -21.5 26.9 -4.65 26.9 14.05 49.95 21.2 58.75 26.25 68.25 31.0 77.15 31.4 81.8 31.95 87.45 6.85 93.9 -2.3 96.2 -11.9 97.85 -20.7 99.4 -23.6 99.35 -33.2 99.25 -53.35 92.65 -75.45 85.4 -76.6 79.7 -77.4 75.65 -72.45 66.9 -67.45 58.1 -59.35 49.25 -50.4 39.5 -41.05 33.65"></path>
    <path stroke="none" fill-rule="evenodd" fill="#ffffa8" d="M-52.05 -64.4 Q-41.3 -66.85 -32.65 -62.6 -24.0 -58.35 -22.45 -49.95 -20.95 -41.55 -27.55 -33.9 -34.15 -26.25 -44.85 -23.8 -55.65 -21.4 -64.3 -25.6 -73.0 -29.85 -74.45 -38.25 -76.0 -46.7 -69.4 -54.35 -62.85 -62.0 -52.05 -64.4"></path>
    <path stroke="none" fill-rule="evenodd" fill="#82380d" d="M-10.6 -7.25 Q-4.7 -8.45 -1.4 -10.0 3.95 -12.6 7.95 -17.95 22.8 -17.95 32.55 -8.05 42.65 2.1 42.65 18.25 42.65 34.7 32.35 46.35 22.05 57.95 7.45 57.95 -7.15 57.95 -17.45 46.35 -27.75 34.7 -27.75 18.25 -27.75 9.4 -24.4 1.45 -22.55 -3.05 -18.7 -5.0 -16.5 -6.15 -10.6 -7.25"></path>
    <path stroke="none" fill-rule="evenodd" fill="#ffefaf" d="M-12.8 -3.4 Q-3.95 -13.35 8.45 -13.35 20.95 -13.35 29.75 -3.4 38.55 6.5 38.55 20.55 38.55 34.6 29.75 44.55 20.95 54.5 8.45 54.5 -4.0 54.5 -12.8 44.55 -21.6 34.6 -21.6 20.55 -21.6 6.55 -12.8 -3.4"></path>
    <path stroke="none" fill-rule="evenodd" fill="#fbd600" d="M36.2 7.4 Q38.55 13.65 38.55 20.55 38.55 29.95 34.3 38.0 L33.45 38.4 Q34.6 34.25 35.55 29.25 37.5 19.35 36.5 15.4 35.55 11.45 33.9 7.25 L32.4 3.9 -19.6 17.7 -20.9 13.2 -20.25 10.4 29.75 -3.4 Q33.95 1.3 36.2 7.4"></path>
    <path stroke="none" fill-rule="evenodd" fill="#82380d" d="M-46.9 -11.2 Q-43.65 -9.6 -37.7 -8.45 -31.85 -7.3 -29.65 -6.2 -25.8 -4.25 -23.95 0.25 -20.6 8.3 -20.6 17.1 -20.6 33.55 -30.9 45.2 -41.2 56.8 -55.8 56.8 -70.4 56.8 -80.7 45.2 -91.0 33.55 -91.0 17.1 -91.0 0.95 -80.9 -9.2 -71.15 -19.1 -56.3 -19.1 -52.3 -13.75 -46.9 -11.2"></path>
    <path stroke="none" fill-rule="evenodd" fill="#ffefaf" d="M-77.05 -6.85 Q-68.2 -16.8 -55.8 -16.8 -43.3 -16.8 -34.5 -6.85 -25.7 3.05 -25.7 17.1 -25.7 31.15 -34.5 41.1 -43.3 51.05 -55.8 51.05 -68.25 51.05 -77.05 41.1 -85.85 31.15 -85.85 17.1 -85.85 3.1 -77.05 -6.85"></path>
    <path stroke="none" fill-rule="evenodd" fill="#fbd600" d="M-81.9 6.1 Q-85.2 12.1 -85.8 19.75 L-85.85 17.1 Q-85.85 10.75 -83.9 4.9 -81.9 -0.75 -78.35 -5.3 L-26.05 11.95 Q-25.7 14.65 -25.7 17.1 L-25.7 17.9 -78.75 1.6 Q-80.25 3.1 -81.9 6.1"></path>
    <path stroke="none" fill-rule="evenodd" fill="#82380d" d="M-52.4 26.0 Q-55.25 22.8 -55.25 18.25 -55.25 13.75 -52.4 10.55 -49.6 7.35 -45.6 7.35 -41.55 7.35 -38.75 10.55 -35.9 13.75 -35.9 18.25 -35.9 22.8 -38.75 26.0 -41.55 29.2 -45.6 29.2 -49.6 29.2 -52.4 26.0"></path>
    <path stroke="none" fill-rule="evenodd" fill="#64220a" d="M-53.2 15.05 Q-54.7 17.05 -55.1 20.05 L-55.25 19.1 Q-55.0 15.85 -54.35 13.6 -53.15 10.8 -50.8 9.1 -48.4 7.35 -45.6 7.35 -43.15 7.35 -40.95 8.65 -38.9 9.95 -37.55 12.15 -36.2 15.2 -35.95 19.1 L-36.0 19.7 Q-36.9 17.15 -38.85 15.1 -42.15 11.65 -47.15 11.95 -51.15 12.2 -53.2 15.05"></path>
    <path stroke="none" fill-rule="evenodd" fill="#82380d" d="M-2.75 7.35 Q1.25 7.35 4.1 10.55 6.95 13.75 6.95 18.25 6.95 22.8 4.1 26.0 1.25 29.2 -2.75 29.2 -6.75 29.2 -9.6 26.0 -12.45 22.8 -12.45 18.25 -12.45 13.75 -9.6 10.55 -6.75 7.35 -2.75 7.35"></path>
    <path stroke="none" fill-rule="evenodd" fill="#64220a" d="M4.2 10.65 Q6.95 13.85 6.95 18.25 L6.9 18.85 Q5.55 16.35 3.45 14.85 0.55 12.85 -3.25 13.1 -8.2 13.4 -10.25 17.65 -11.4 20.1 -11.4 23.1 -11.6 18.4 -10.4 14.45 -8.25 7.5 -2.5 7.35 1.45 7.45 4.2 10.65"></path>
    <path stroke="none" fill-rule="evenodd" fill="#8e4216" d="M58.1 -28.5 Q61.3 -14.3 61.0 -11.05 60.7 -7.85 19.0 4.1 L-22.65 15.4 Q-43.55 9.5 -64.45 3.1 -106.3 -9.7 -106.3 -12.2 -106.3 -14.75 -103.2 -28.65 L-100.15 -42.1 -22.65 -6.45 54.85 -42.1 58.1 -28.5"></path>
    <path stroke="none" fill-rule="evenodd" fill="#6f280d" d="M-96.1 -32.9 L-102.1 -9.6 Q-106.3 -11.45 -106.3 -12.2 -106.3 -14.75 -103.2 -28.65 L-100.15 -42.1 -22.65 -6.45 54.85 -42.1 56.3 -36.25 -23.65 1.6 -96.1 -32.9"></path>
    <path stroke="none" fill-rule="evenodd" fill="#82380d" d="M-48.8 86.55 Q-28.7 92.25 -21.6 92.45 -16.15 92.65 -1.85 89.9 L20.15 85.55 Q19.9 89.35 15.45 97.0 11.05 104.55 4.5 112.55 -11.45 132.1 -22.65 135.05 -47.9 120.7 -60.25 99.4 -64.1 92.7 -66.15 86.15 L-67.5 80.95 -48.8 86.55"></path>
    <path stroke="none" fill-rule="evenodd" fill="#fecb01" d="M-44.65 92.9 Q-27.7 98.0 -21.6 98.2 -17.3 98.35 -5.75 94.95 8.2 90.8 12.0 90.15 11.6 92.45 7.85 98.65 3.85 105.25 -1.2 111.65 -14.75 128.7 -22.65 128.15 -35.45 125.3 -49.2 106.3 -53.5 100.35 -57.35 93.5 L-60.35 87.85 -44.65 92.9"></path>
    <path stroke="none" fill-rule="evenodd" fill="#82380d" d="M-40.1 35.5 Q-30.0 29.2 -21.6 29.2 -5.7 29.2 11.9 50.75 18.65 59.0 23.4 67.9 27.9 76.25 28.3 80.6 28.8 85.9 5.15 91.9 -15.6 97.15 -23.65 97.05 -32.7 96.95 -51.7 90.8 -72.55 84.0 -73.65 78.65 -74.4 74.85 -69.7 66.65 -65.0 58.45 -57.35 50.15 -48.85 41.0 -40.1 35.5"></path>
    <path stroke="none" fill-rule="evenodd" fill="#fecb01" d="M-22.65 93.6 Q-29.9 93.6 -49.15 86.7 -68.8 79.65 -69.55 76.35 -69.95 74.5 -65.8 67.7 -61.35 60.4 -54.8 53.15 -37.05 33.25 -21.6 32.65 -7.4 34.2 9.15 54.05 15.45 61.65 19.9 69.35 24.1 76.6 24.25 79.8 23.75 83.25 2.8 88.65 -16.45 93.6 -22.65 93.6"></path>
    <path stroke="none" fill-rule="evenodd" fill="#fef4b2" d="M5.2 50.2 Q0.25 45.6 -9.25 40.9 -19.05 36.05 -19.6 38.4 -20.85 44.55 -21.35 68.55 L-21.6 91.3 Q-22.75 79.35 -24.2 67.2 -27.15 42.9 -28.75 41.85 -30.4 40.85 -35.9 44.4 -40.95 47.7 -47.25 53.45 -62.35 67.3 -63.4 74.05 -63.95 77.4 -44.85 84.8 L-32.6 89.4 Q-27.55 91.3 -28.75 91.3 -31.85 91.3 -55.55 84.3 -68.95 78.95 -69.55 76.35 -69.95 74.5 -65.8 67.7 -61.35 60.4 -54.85 53.15 -37.1 33.3 -21.65 32.65 L-21.6 32.65 Q-11.45 33.75 0.55 44.95 L5.2 50.2 6.95 52.2 Q7.55 53.15 7.15 52.7 L5.2 50.2"></path>
  </g>
</svg>
