<svg xmlns="http://www.w3.org/2000/svg" width="237.85px" height="366.55px" xmlns:xlink="http://www.w3.org/1999/xlink">
  <g transform="matrix(1.0, 0.0, 0.0, 1.0, 120.2, 183.45)">
    <path stroke="none" fill-rule="evenodd" fill="#502f04" d="M42.4 -182.3 Q52.4 -178.4 61.3 -159.15 72.4 -137.7 76.2 -117.9 L77.15 -112.05 Q88.4 -100.55 97.25 -80.9 106.95 -59.5 112.2 -31.75 117.65 -3.0 117.65 28.45 117.65 59.95 112.2 88.65 106.95 116.4 97.25 137.8 87.6 159.2 75.15 170.95 63.0 182.4 49.65 183.05 L38.3 183.1 34.95 183.1 -29.65 183.1 -32.15 183.1 -37.5 183.1 Q-54.3 183.1 -69.7 170.95 -84.55 159.2 -96.0 137.8 -107.4 116.4 -113.7 88.65 -120.2 59.95 -120.2 28.45 -120.2 -3.0 -113.7 -31.75 -107.4 -59.5 -96.0 -80.9 -86.15 -99.3 -73.75 -110.55 -81.15 -113.25 -84.5 -119.7 -86.75 -124.1 -86.5 -129.3 -86.25 -134.5 -82.45 -141.35 -78.7 -148.2 -71.65 -151.15 -64.6 -154.15 -53.25 -151.3 -57.75 -155.4 -57.6 -161.55 -57.5 -167.75 -55.0 -172.9 -52.5 -178.05 -49.35 -180.6 -46.35 -183.05 -42.2 -183.05 L-36.85 -183.0 -32.15 -183.0 -30.0 -183.0 -29.65 -183.0 -26.7 -182.95 Q-22.4 -183.5 -2.9 -183.45 L2.75 -183.4 24.4 -183.05 28.9 -183.0 32.85 -183.0 34.65 -183.0 34.95 -183.0 37.45 -182.95 Q39.7 -183.35 42.4 -182.3"></path>
    <path stroke="none" fill-rule="evenodd" fill="#ffc000" d="M-45.9 -163.0 L-45.45 -166.4 Q-45.0 -168.45 -44.1 -169.75 L-40.9 -172.45 -40.75 -172.6 -39.4 -173.3 -38.4 -173.65 -33.05 -174.45 -31.6 -174.5 -30.95 -174.55 -29.85 -174.55 -23.75 -174.55 -23.75 -174.5 33.6 -174.1 Q28.05 -173.15 42.35 -165.85 L41.7 -163.0 Q38.9 -151.25 37.55 -143.0 37.25 -141.05 36.35 -139.1 L29.4 -163.0 -45.9 -163.0 M31.85 -132.75 Q29.65 -130.5 26.7 -128.3 21.75 -124.6 20.7 -123.5 18.2 -120.95 18.75 -118.6 18.9 -117.95 19.2 -117.4 L2.15 -129.55 -74.2 -130.95 Q-73.75 -135.5 -70.9 -139.85 -69.3 -142.3 -67.4 -144.15 -64.75 -145.55 -57.75 -146.15 -51.1 -146.7 -42.0 -146.45 L-5.55 -145.5 Q16.75 -144.7 20.75 -141.8 22.4 -140.6 26.05 -136.6 28.55 -133.85 31.85 -132.75 M24.85 -113.35 Q27.95 -112.4 32.55 -112.15 L20.8 -56.05 -93.7 -56.05 Q-90.0 -65.75 -85.35 -74.4 -83.25 -78.35 -80.55 -82.35 -70.0 -98.35 -56.55 -110.9 L28.25 -110.9 24.85 -113.35"></path>
    <path stroke="none" fill-rule="evenodd" fill="#ffd03c" d="M20.8 -56.05 L20.8 -29.05 -101.8 -29.05 Q-98.5 -43.45 -93.7 -56.05 L20.8 -56.05"></path>
    <path stroke="none" fill-rule="evenodd" fill="#fffff7" d="M20.8 17.95 L20.8 33.95 -108.1 33.95 -108.15 28.55 -107.95 17.95 20.8 17.95"></path>
    <path stroke="none" fill-rule="evenodd" fill="#fcf9ac" d="M20.8 33.95 L20.8 47.95 -107.45 47.95 Q-107.95 41.05 -108.1 33.95 L20.8 33.95"></path>
    <path stroke="none" fill-rule="evenodd" fill="#fff5b0" d="M20.8 2.95 L20.8 17.95 -107.95 17.95 Q-107.65 10.35 -106.95 2.95 L20.8 2.95"></path>
    <path stroke="none" fill-rule="evenodd" fill="#fecb00" d="M20.8 47.95 L20.8 81.95 -102.75 81.95 Q-106.25 65.45 -107.45 47.95 L20.8 47.95"></path>
    <path stroke="none" fill-rule="evenodd" fill="#f08e13" d="M20.8 100.95 L20.8 118.9 -91.35 118.9 Q-95.0 110.35 -97.85 100.95 L20.8 100.95"></path>
    <path stroke="none" fill-rule="evenodd" fill="#dd8102" d="M20.8 118.9 L58.5 150.05 Q55.6 152.25 55.25 156.45 55.0 158.95 55.8 164.15 L55.95 165.05 Q56.5 168.45 49.75 170.25 43.0 172.0 45.5 172.7 L-19.3 172.7 -23.75 172.7 -24.15 172.7 -26.25 172.7 -30.25 172.7 -30.95 172.7 Q-44.7 172.5 -57.5 165.05 L-60.6 162.75 Q-71.6 154.1 -80.55 139.8 L-85.35 131.55 Q-88.6 125.5 -91.35 118.9 L20.8 118.9"></path>
    <path stroke="none" fill-rule="evenodd" fill="#f4a637" d="M20.8 81.95 L20.8 100.95 -97.85 100.95 Q-100.15 93.4 -102.0 85.25 L-102.75 81.95 20.8 81.95"></path>
    <path stroke="none" fill-rule="evenodd" fill="#fce17a" d="M20.8 -29.05 L20.8 2.95 -106.95 2.95 Q-105.45 -13.0 -102.0 -28.15 L-101.8 -29.05 20.8 -29.05"></path>
    <path stroke="none" fill-rule="evenodd" fill="#dd8007" d="M-45.9 -163.0 L29.4 -163.0 36.35 -139.1 39.9 -130.8 31.85 -132.75 Q28.55 -133.85 26.05 -136.6 22.4 -140.6 20.75 -141.8 16.75 -144.7 -5.55 -145.5 L-42.0 -146.45 Q-44.15 -153.3 -44.65 -154.1 -45.9 -156.2 -45.95 -161.25 L-45.9 -163.0 M19.2 -117.4 Q20.5 -114.65 24.85 -113.35 L28.25 -110.9 -56.55 -110.9 -56.35 -111.1 Q-64.8 -114.45 -68.95 -117.95 -73.3 -121.55 -74.05 -126.2 -74.45 -128.6 -74.2 -130.95 L2.15 -129.55 19.2 -117.4"></path>
    <path stroke="none" fill-rule="evenodd" fill="#fef4b2" d="M104.85 -27.95 Q110.1 -1.15 110.1 28.25 110.1 57.6 104.85 84.45 99.75 110.35 90.45 130.3 81.15 150.3 69.15 161.25 56.65 172.6 43.0 172.6 29.35 172.6 16.9 161.25 4.85 150.3 -4.4 130.3 -13.75 110.35 -18.8 84.45 -24.1 57.6 -24.1 28.25 -24.1 -1.1 -18.8 -27.95 -13.75 -53.85 -4.4 -73.85 4.85 -93.85 16.9 -104.8 29.35 -116.15 43.0 -116.15 56.65 -116.15 69.15 -104.8 81.15 -93.85 90.45 -73.85 99.75 -53.85 104.85 -27.95"></path>
    <path stroke="none" fill-rule="evenodd" fill="#fecb01" d="M101.9 -24.5 Q106.9 0.95 106.9 28.8 106.9 56.65 101.9 82.1 97.1 106.65 88.25 125.6 79.45 144.55 68.05 154.95 56.25 165.7 43.25 165.7 30.35 165.7 18.5 154.95 7.1 144.55 -1.75 125.6 -10.5 106.65 -15.35 82.1 -20.35 56.65 -20.35 28.8 -20.35 0.95 -15.35 -24.5 -10.5 -49.05 -1.75 -68.0 7.1 -86.95 18.5 -97.35 30.35 -108.1 43.25 -108.1 56.25 -108.1 68.05 -97.35 79.45 -86.95 88.25 -68.0 97.1 -49.05 101.9 -24.5"></path>
    <path stroke="none" fill-rule="evenodd" fill="#fef4b2" d="M97.45 -21.25 Q102.1 2.35 102.1 28.25 102.1 54.1 97.45 77.75 92.95 100.55 84.75 118.15 76.6 135.7 66.0 145.35 55.0 155.35 43.0 155.35 31.0 155.35 20.0 145.35 9.4 135.7 1.25 118.15 -6.95 100.55 -11.45 77.75 -16.1 54.1 -16.1 28.25 -16.1 2.35 -11.45 -21.25 -6.95 -44.05 1.25 -61.65 9.4 -79.25 20.0 -88.9 31.0 -98.9 43.0 -98.9 55.0 -98.9 66.0 -88.9 76.6 -79.25 84.75 -61.65 92.95 -44.05 97.45 -21.25"></path>
    <path stroke="none" fill-rule="evenodd" fill="#f8a300" d="M97.45 -21.25 Q102.1 2.35 102.1 28.25 102.1 48.75 99.15 67.9 L34.8 66.9 Q-8.95 66.2 -13.3 66.85 -16.1 48.05 -16.1 28.25 -16.1 2.35 -11.45 -21.25 -6.95 -44.05 1.25 -61.65 9.4 -79.25 20.0 -88.9 31.0 -98.9 43.0 -98.9 55.0 -98.9 66.0 -88.9 76.6 -79.25 84.75 -61.65 92.95 -44.05 97.45 -21.25"></path>
    <path stroke="none" fill-rule="evenodd" fill="#ffc000" d="M27.75 -168.75 Q30.8 -177.5 38.9 -172.25 47.15 -166.9 55.05 -150.35 62.85 -135.85 67.25 -118.05 70.2 -106.2 71.25 -94.65 L77.5 -86.55 Q76.8 -85.35 75.45 -84.75 72.75 -83.5 69.45 -86.55 60.45 -94.9 54.3 -98.25 44.65 -103.6 37.4 -100.35 24.8 -94.75 21.3 -96.4 20.2 -96.95 20.1 -98.1 L20.3 -99.2 24.15 -103.0 Q28.95 -106.9 33.65 -107.25 L33.8 -107.3 24.25 -110.75 12.25 -114.65 Q3.9 -117.6 0.95 -123.2 -2.05 -129.05 2.1 -135.4 6.5 -142.15 10.6 -143.45 15.2 -144.85 23.5 -141.15 29.25 -138.55 36.9 -132.55 28.3 -143.65 26.45 -153.45 25.1 -161.05 27.75 -168.75"></path>
    <path stroke="none" fill-rule="evenodd" fill="#feffba" d="M25.8 -133.15 Q18.15 -136.75 11.7 -135.4 7.25 -134.45 4.8 -131.0 L3.35 -128.6 Q2.65 -127.5 2.1 -127.35 0.95 -126.95 0.85 -128.85 L1.0 -130.8 1.6 -134.6 2.1 -135.4 Q5.15 -140.1 7.75 -141.95 11.65 -143.5 18.7 -143.0 L23.5 -141.15 Q28.45 -138.9 35.1 -133.95 41.8 -128.95 47.4 -123.35 48.95 -120.3 49.7 -118.1 L47.9 -118.2 Q45.05 -119.2 39.5 -123.9 31.95 -130.3 25.8 -133.15 M27.25 -156.1 Q26.45 -159.0 26.25 -162.5 26.7 -165.7 27.75 -168.75 30.85 -177.55 38.95 -172.45 47.3 -167.2 55.2 -150.65 61.95 -138.05 67.0 -119.9 70.75 -106.05 72.75 -92.35 L70.75 -94.9 69.7 -95.95 Q67.7 -106.25 63.95 -118.75 56.4 -143.8 47.55 -154.95 41.05 -163.15 36.85 -164.45 34.15 -165.3 31.5 -163.0 29.85 -161.55 28.4 -158.7 L27.25 -156.1"></path>
    <path stroke="none" fill-rule="evenodd" fill="#773f00" d="M94.5 -18.55 Q98.85 3.8 98.85 28.25 98.85 52.7 94.5 75.0 90.25 96.6 82.5 113.25 74.75 129.85 64.75 139.0 54.4 148.45 43.0 148.45 31.65 148.45 21.25 139.0 11.25 129.85 3.5 113.25 -4.25 96.6 -8.45 75.0 -12.85 52.7 -12.85 28.25 -12.85 3.8 -8.45 -18.55 -4.25 -40.15 3.5 -56.75 11.25 -73.4 21.25 -82.55 31.65 -92.0 43.0 -92.0 54.35 -92.0 64.75 -82.55 74.75 -73.4 82.5 -56.75 90.25 -40.15 94.5 -18.55"></path>
    <path stroke="none" fill-rule="evenodd" fill="#a76a00" d="M91.5 -16.55 Q95.65 4.3 95.65 27.1 95.65 49.9 91.5 70.75 87.5 90.85 80.15 106.4 72.85 121.9 63.35 130.45 53.5 139.25 42.75 139.25 31.95 139.25 22.1 130.45 12.65 121.9 5.3 106.4 -2.05 90.85 -6.05 70.75 -10.2 49.9 -10.2 27.1 -10.2 4.3 -6.05 -16.55 -2.05 -36.7 5.3 -52.25 12.65 -67.75 22.1 -76.3 31.95 -85.1 42.75 -85.1 53.5 -85.1 63.35 -76.3 72.85 -67.75 80.15 -52.25 87.5 -36.7 91.5 -16.55"></path>
    <path stroke="none" fill-rule="evenodd" fill="#dc8100" d="M91.5 -12.65 Q95.65 7.65 95.65 29.9 95.65 52.15 91.5 72.45 87.5 92.1 80.15 107.25 72.85 122.35 63.35 130.65 53.5 139.25 42.75 139.25 31.95 139.25 22.1 130.65 12.65 122.35 5.3 107.25 -2.05 92.1 -6.05 72.45 -10.2 52.15 -10.2 29.9 -10.2 7.65 -6.05 -12.65 -2.05 -32.25 5.3 -47.4 12.65 -62.5 22.1 -70.8 31.95 -79.4 42.75 -79.4 53.5 -79.4 63.35 -70.8 72.85 -62.5 80.15 -47.4 87.5 -32.25 91.5 -12.65"></path>
    <path stroke="none" fill-rule="evenodd" fill="#fecb01" d="M91.05 -9.5 Q95.15 10.4 95.15 32.15 95.15 53.95 91.05 73.85 87.05 93.05 79.8 107.9 72.55 122.7 63.15 130.85 53.4 139.25 42.75 139.25 32.1 139.25 22.35 130.85 12.95 122.7 5.65 107.9 -1.6 93.05 -5.55 73.85 -9.7 53.95 -9.7 32.15 -9.7 10.4 -5.55 -9.5 -1.6 -28.7 5.65 -43.55 12.95 -58.35 22.35 -66.5 32.1 -74.9 42.75 -74.9 53.4 -74.9 63.15 -66.5 72.55 -58.35 79.8 -43.55 87.05 -28.7 91.05 -9.5"></path>
    <path stroke="none" fill-rule="evenodd" fill="#fab300" d="M94.05 57.55 L91.65 71.05 Q88.3 87.3 83.45 100.7 68.0 143.65 43.8 142.7 19.8 141.7 4.65 106.4 -0.35 94.7 -4.15 79.6 L-8.05 62.15 -6.3 55.8 Q-3.65 48.2 0.55 41.95 14.05 21.95 38.45 23.05 65.7 24.25 82.6 41.05 91.05 49.4 94.05 57.55"></path>
    <path stroke="none" fill-rule="evenodd" fill="#d29001" d="M-9.65 16.15 L-8.3 17.9 Q-6.7 20.3 -5.4 23.55 -1.35 34.05 -2.2 49.5 -2.95 63.3 -5.05 67.0 -5.7 68.15 -6.4 68.15 L-7.0 67.9 Q-8.25 60.0 -9.2 49.6 -11.15 28.75 -9.65 16.15 M87.1 44.9 Q87.1 31.25 91.15 22.35 93.15 17.9 95.15 16.15 96.5 35.2 94.35 54.6 93.25 64.3 91.95 70.2 90.75 69.35 89.55 65.75 87.1 58.6 87.1 44.9 M86.05 -22.95 L86.65 -12.75 Q87.05 -2.1 86.05 0.05 L77.75 5.4 Q80.4 13.75 81.15 24.65 82.4 44.4 77.9 58.85 73.15 74.1 63.95 76.5 57.2 78.2 51.3 70.75 45.5 63.45 42.65 50.0 39.8 63.05 34.05 70.15 28.2 77.3 21.65 75.6 12.55 73.2 7.75 58.0 3.2 43.45 4.45 23.85 5.15 12.9 7.85 4.55 1.6 0.85 1.0 -1.1 0.55 -2.9 0.7 -9.65 L1.0 -16.05 14.95 -12.6 14.25 -7.7 Q19.95 -14.2 26.95 -12.15 29.75 -1.95 35.55 2.45 L39.75 5.6 Q41.85 7.6 42.9 10.75 44.0 8.0 46.15 6.1 L50.25 3.05 Q55.85 -1.3 58.6 -11.35 62.55 -12.5 66.2 -10.85 69.8 -9.25 72.8 -5.05 L86.05 -22.95"></path>
    <path stroke="none" fill-rule="evenodd" fill="#fef2b0" d="M28.3 84.5 Q39.85 90.75 43.9 91.0 47.05 91.2 55.25 88.15 L67.85 83.35 Q67.7 87.55 65.15 96.0 62.65 104.35 58.9 113.2 49.75 134.85 43.3 138.1 28.85 122.2 21.75 98.65 19.55 91.3 18.4 84.0 L17.6 78.25 28.3 84.5"></path>
    <path stroke="none" fill-rule="evenodd" fill="#fef2b0" d="M33.6 33.25 Q39.2 26.5 43.85 26.5 52.7 26.5 62.5 49.55 66.25 58.35 68.9 67.85 71.4 76.75 71.6 81.4 71.9 87.05 58.75 93.5 53.95 95.8 48.9 97.45 44.3 99.0 42.75 98.95 37.75 98.85 27.15 92.25 15.6 85.0 15.0 79.3 14.55 75.25 17.15 66.5 19.75 57.7 24.05 48.85 28.75 39.1 33.6 33.25"></path>
    <path stroke="none" fill-rule="evenodd" fill="#ffffa8" d="M27.85 -64.8 Q33.5 -67.25 38.05 -63.0 42.55 -58.75 43.35 -50.35 44.15 -41.95 40.7 -34.3 37.25 -26.65 31.6 -24.2 25.95 -21.8 21.4 -26.0 16.85 -30.25 16.1 -38.65 15.3 -47.1 18.75 -54.75 22.2 -62.4 27.85 -64.8"></path>
    <path stroke="none" fill-rule="evenodd" fill="#82380d" d="M49.55 -7.65 Q52.65 -8.85 54.4 -10.4 57.2 -13.0 59.3 -18.35 67.1 -18.35 72.2 -8.45 77.5 1.7 77.5 17.85 77.5 34.3 72.1 45.95 66.7 57.55 59.05 57.55 51.4 57.55 46.0 45.95 40.6 34.3 40.6 17.85 40.6 9.0 42.35 1.05 43.3 -3.45 45.35 -5.4 46.5 -6.55 49.55 -7.65"></path>
    <path stroke="none" fill-rule="evenodd" fill="#ffefaf" d="M48.45 -3.8 Q53.05 -13.75 59.6 -13.75 66.1 -13.75 70.75 -3.8 75.35 6.1 75.35 20.15 75.35 34.2 70.75 44.15 66.1 54.1 59.6 54.1 53.05 54.1 48.45 44.15 43.8 34.2 43.8 20.15 43.8 6.15 48.45 -3.8"></path>
    <path stroke="none" fill-rule="evenodd" fill="#fbd600" d="M74.1 7.0 Q75.35 13.25 75.35 20.15 75.35 29.55 73.1 37.6 L72.7 38.0 73.8 28.85 Q74.8 18.95 74.3 15.0 73.8 11.05 72.9 6.85 L72.15 3.5 44.85 17.3 44.2 12.8 44.55 10.0 70.75 -3.8 Q72.95 0.9 74.1 7.0"></path>
    <path stroke="none" fill-rule="evenodd" fill="#82380d" d="M30.55 -11.6 Q32.25 -10.0 35.4 -8.85 38.45 -7.7 39.6 -6.6 41.6 -4.65 42.6 -0.15 44.35 7.9 44.35 16.7 44.35 33.15 38.95 44.8 33.55 56.4 25.9 56.4 18.25 56.4 12.85 44.8 7.45 33.15 7.45 16.7 7.45 0.55 12.7 -9.6 17.85 -19.5 25.65 -19.5 27.75 -14.15 30.55 -11.6"></path>
    <path stroke="none" fill-rule="evenodd" fill="#ffefaf" d="M14.75 -7.25 Q19.4 -17.2 25.9 -17.2 32.45 -17.2 37.05 -7.25 41.65 2.65 41.65 16.7 41.65 30.75 37.05 40.7 32.45 50.65 25.9 50.65 19.35 50.65 14.75 40.7 10.1 30.75 10.1 16.7 10.1 2.7 14.75 -7.25"></path>
    <path stroke="none" fill-rule="evenodd" fill="#fbd600" d="M12.2 5.7 Q10.45 11.7 10.15 19.35 L10.1 16.7 Q10.1 10.35 11.15 4.5 12.2 -1.15 14.05 -5.7 L41.5 11.55 41.65 16.7 41.65 17.5 13.85 1.2 Q13.05 2.7 12.2 5.7"></path>
    <path stroke="none" fill-rule="evenodd" fill="#82380d" d="M27.65 25.6 Q26.15 22.4 26.15 17.85 26.15 13.35 27.65 10.15 29.1 6.95 31.25 6.95 33.35 6.95 34.8 10.15 36.3 13.35 36.3 17.85 36.3 22.4 34.8 25.6 33.35 28.8 31.25 28.8 29.1 28.8 27.65 25.6"></path>
    <path stroke="none" fill-rule="evenodd" fill="#64220a" d="M27.25 14.65 Q26.45 16.65 26.25 19.65 L26.15 18.7 26.65 13.2 Q27.3 10.4 28.5 8.7 29.75 6.95 31.25 6.95 32.5 6.95 33.65 8.25 34.75 9.55 35.45 11.75 36.15 14.8 36.3 18.7 L36.25 19.3 Q35.8 16.75 34.8 14.7 33.05 11.25 30.45 11.55 28.35 11.8 27.25 14.65"></path>
    <path stroke="none" fill-rule="evenodd" fill="#82380d" d="M53.7 6.95 Q55.8 6.95 57.3 10.15 58.8 13.35 58.8 17.85 58.8 22.4 57.3 25.6 55.8 28.8 53.7 28.8 51.6 28.8 50.1 25.6 48.6 22.4 48.6 17.85 48.6 13.35 50.1 10.15 51.6 6.95 53.7 6.95"></path>
    <path stroke="none" fill-rule="evenodd" fill="#64220a" d="M58.8 17.85 L58.75 18.45 Q58.05 15.95 56.95 14.45 55.45 12.45 53.45 12.7 50.85 13.0 49.75 17.25 49.15 19.7 49.15 22.7 49.05 18.0 49.7 14.05 50.8 7.1 53.85 6.95 55.9 7.05 57.35 10.25 58.8 13.45 58.8 17.85"></path>
    <path stroke="none" fill-rule="evenodd" fill="#8e4216" d="M85.6 -28.9 Q87.3 -14.7 87.1 -11.45 86.95 -8.25 65.1 3.7 L43.25 15.0 Q32.3 9.1 21.35 2.7 -0.6 -10.1 -0.6 -12.6 -0.6 -15.15 1.0 -29.05 L2.6 -42.5 43.25 -6.85 83.9 -42.5 85.6 -28.9"></path>
    <path stroke="none" fill-rule="evenodd" fill="#6f280d" d="M4.75 -33.3 L1.6 -10.0 Q-0.6 -11.85 -0.6 -12.6 -0.6 -15.15 1.0 -29.05 L2.6 -42.5 43.25 -6.85 83.9 -42.5 84.65 -36.65 42.75 1.2 4.75 -33.3"></path>
    <path stroke="none" fill-rule="evenodd" fill="#82380d" d="M29.55 86.15 Q40.1 91.85 43.8 92.05 46.65 92.25 54.2 89.5 L65.7 85.15 Q65.6 88.95 63.25 96.6 60.95 104.15 57.5 112.15 49.15 131.7 43.25 134.65 30.05 120.3 23.55 99.0 21.55 92.3 20.45 85.75 L19.75 80.55 29.55 86.15"></path>
    <path stroke="none" fill-rule="evenodd" fill="#fecb01" d="M31.75 92.5 Q40.6 97.6 43.8 97.8 46.05 97.95 52.15 94.55 59.45 90.4 61.45 89.75 61.25 92.05 59.25 98.25 57.15 104.85 54.5 111.25 47.4 128.3 43.25 127.75 36.55 124.9 29.35 105.9 27.1 99.95 25.1 93.1 L23.5 87.45 31.75 92.5"></path>
    <path stroke="none" fill-rule="evenodd" fill="#82380d" d="M34.15 35.1 Q39.4 28.8 43.8 28.8 52.15 28.8 61.4 50.35 64.95 58.6 67.4 67.5 69.75 75.85 70.0 80.2 70.25 85.5 57.85 91.5 46.95 96.75 42.75 96.65 38.0 96.55 28.05 90.4 17.1 83.6 16.55 78.25 16.15 74.45 18.6 66.25 21.05 58.05 25.1 49.75 29.5 40.6 34.15 35.1"></path>
    <path stroke="none" fill-rule="evenodd" fill="#fecb01" d="M43.25 93.2 Q39.5 93.2 29.4 86.3 19.05 79.25 18.7 75.95 18.45 74.1 20.65 67.3 23.0 60.0 26.4 52.75 35.7 32.85 43.8 32.25 51.25 33.8 59.95 53.65 63.25 61.25 65.6 68.95 67.75 76.2 67.85 79.4 67.6 82.85 56.6 88.25 46.55 93.2 43.25 93.2"></path>
    <path stroke="none" fill-rule="evenodd" fill="#fef4b2" d="M57.85 49.8 Q55.25 45.2 50.3 40.5 45.15 35.65 44.85 38.0 44.2 44.15 43.95 68.15 L43.8 90.9 42.45 66.8 Q40.9 42.5 40.05 41.45 39.2 40.45 36.3 44.0 33.65 47.3 30.35 53.05 22.45 66.9 21.9 73.65 21.6 77.0 31.6 84.4 L38.05 89.0 Q40.7 90.9 40.05 90.9 38.45 90.9 26.0 83.9 19.0 78.55 18.7 75.95 18.45 74.1 20.65 67.3 23.0 60.0 26.4 52.75 35.7 32.9 43.8 32.25 L43.85 32.25 Q49.15 33.35 55.45 44.55 L57.85 49.8 58.8 51.8 58.9 52.3 57.85 49.8"></path>
  </g>
</svg>
