<svg xmlns="http://www.w3.org/2000/svg" width="311.25px" height="366.2px" xmlns:xlink="http://www.w3.org/1999/xlink">
  <g transform="matrix(1.0, 0.0, 0.0, 1.0, 155.6, 183.1)">
    <path stroke="none" fill-rule="evenodd" fill="#502f04" d="M143.4 -31.75 Q155.65 -3.0 155.65 28.45 155.65 59.95 143.4 88.65 131.55 116.4 110.05 137.8 88.5 159.2 60.55 170.95 31.65 183.1 0.0 183.1 -31.75 183.1 -60.6 170.95 -88.55 159.2 -110.1 137.8 -131.6 116.4 -143.4 88.65 -155.6 59.95 -155.6 28.45 -155.6 -3.0 -143.4 -31.75 -131.6 -59.5 -110.1 -80.9 -88.55 -102.3 -60.6 -114.05 -31.7 -126.2 0.0 -126.2 31.65 -126.2 60.55 -114.05 88.5 -102.3 110.05 -80.9 131.55 -59.5 143.4 -31.75"></path>
    <path stroke="none" fill-rule="evenodd" fill="#fef4b2" d="M132.9 -27.95 Q144.25 -1.15 144.25 28.25 144.25 57.6 132.9 84.45 121.95 110.35 102.0 130.3 82.05 150.3 56.2 161.25 29.4 172.6 0.05 172.6 -29.3 172.6 -56.1 161.25 -81.95 150.3 -101.9 130.3 -121.9 110.35 -132.8 84.45 -144.15 57.6 -144.15 28.25 -144.15 -1.1 -132.8 -27.95 -121.9 -53.85 -101.9 -73.85 -81.95 -93.85 -56.1 -104.8 -29.3 -116.15 0.05 -116.15 29.4 -116.15 56.2 -104.8 82.05 -93.85 102.0 -73.85 121.95 -53.85 132.9 -27.95"></path>
    <path stroke="none" fill-rule="evenodd" fill="#fecb01" d="M126.6 -24.5 Q137.35 0.95 137.35 28.8 137.35 56.65 126.6 82.1 116.25 106.65 97.3 125.6 78.4 144.55 53.85 154.95 28.45 165.7 0.6 165.7 -27.2 165.7 -52.6 154.95 -77.15 144.55 -96.1 125.6 -115.0 106.65 -125.4 82.1 -136.15 56.65 -136.15 28.8 -136.15 0.95 -125.4 -24.5 -115.0 -49.05 -96.1 -68.0 -77.15 -86.95 -52.6 -97.35 -27.2 -108.1 0.6 -108.1 28.45 -108.1 53.85 -97.35 78.4 -86.95 97.3 -68.0 116.25 -49.05 126.6 -24.5"></path>
    <path stroke="none" fill-rule="evenodd" fill="#fef4b2" d="M117.0 -21.25 Q127.0 2.35 127.0 28.25 127.0 54.1 117.0 77.75 107.4 100.55 89.8 118.15 72.25 135.7 49.45 145.35 25.85 155.35 0.05 155.35 -25.8 155.35 -49.4 145.35 -72.2 135.7 -89.75 118.15 -107.35 100.55 -116.95 77.75 -126.95 54.1 -126.95 28.25 -126.95 2.35 -116.95 -21.25 -107.35 -44.05 -89.75 -61.65 -72.2 -79.25 -49.4 -88.9 -25.8 -98.9 0.05 -98.9 25.85 -98.9 49.45 -88.9 72.25 -79.25 89.8 -61.65 107.4 -44.05 117.0 -21.25"></path>
    <path stroke="none" fill-rule="evenodd" fill="#f8a300" d="M117.0 -21.25 Q127.0 2.35 127.0 28.25 127.0 48.75 120.7 67.9 L-17.6 66.9 Q-111.6 66.2 -121.0 66.85 -126.95 48.05 -126.95 28.25 -126.95 2.35 -116.95 -21.25 -107.35 -44.05 -89.75 -61.65 -72.2 -79.25 -49.4 -88.9 -25.8 -98.9 0.05 -98.9 25.85 -98.9 49.45 -88.9 72.25 -79.25 89.8 -61.65 107.4 -44.05 117.0 -21.25"></path>
    <path stroke="none" fill-rule="evenodd" fill="#502f04" d="M-43.1 -150.8 Q-48.35 -161.8 -41.8 -172.95 -38.05 -179.3 -30.1 -181.75 -22.4 -184.1 -12.25 -182.3 10.15 -178.4 29.95 -159.15 54.85 -137.7 63.3 -117.9 67.5 -108.0 66.75 -102.4 41.15 -108.4 23.1 -113.2 L-18.55 -109.95 Q-47.8 -108.15 -62.45 -108.75 -89.45 -109.9 -99.05 -119.7 -103.3 -124.1 -102.85 -129.3 -102.35 -134.5 -97.3 -139.55 -88.7 -148.05 -74.25 -150.6 -61.85 -152.75 -43.1 -150.8"></path>
    <path stroke="none" fill-rule="evenodd" fill="#ffc000" d="M-32.7 -168.75 Q-26.15 -177.5 -8.8 -172.25 8.9 -166.9 25.9 -150.35 42.65 -135.85 52.1 -118.05 58.45 -106.2 60.75 -94.65 66.95 -91.2 74.15 -86.55 72.7 -85.35 69.8 -84.75 64.0 -83.5 56.9 -86.55 37.55 -94.9 24.35 -98.25 3.55 -103.6 -12.05 -100.35 -39.05 -94.75 -46.6 -96.4 -49.0 -96.95 -49.15 -98.1 L-48.8 -99.2 -40.45 -103.0 Q-30.15 -106.9 -20.1 -107.25 L-19.8 -107.3 -40.25 -110.75 -66.05 -114.65 Q-84.05 -117.6 -90.3 -123.2 -96.75 -129.05 -87.9 -135.4 -78.4 -142.15 -69.6 -143.45 -59.75 -144.85 -41.9 -141.15 -29.5 -138.55 -13.05 -132.55 -31.6 -143.65 -35.5 -153.45 -38.5 -161.05 -32.7 -168.75"></path>
    <path stroke="none" fill-rule="evenodd" fill="#feffba" d="M-36.95 -133.15 Q-53.4 -136.75 -67.2 -135.4 -76.8 -134.45 -82.05 -131.0 L-85.2 -128.6 Q-86.7 -127.5 -87.9 -127.35 -90.4 -126.95 -90.55 -128.85 L-90.2 -130.8 Q-89.8 -132.85 -88.9 -134.6 L-87.9 -135.4 Q-81.3 -140.1 -75.75 -141.95 L-52.25 -143.0 -41.9 -141.15 Q-31.25 -138.9 -17.0 -133.95 -2.55 -128.95 9.5 -123.35 12.85 -120.3 14.4 -118.1 L10.6 -118.2 Q4.4 -119.2 -7.45 -123.9 -23.75 -130.3 -36.95 -133.15 M-33.85 -156.1 Q-35.5 -159.0 -36.0 -162.5 -35.05 -165.7 -32.7 -168.75 -26.1 -177.55 -8.65 -172.45 9.3 -167.2 26.2 -150.65 40.75 -138.05 51.55 -119.9 59.7 -106.05 64.0 -92.35 62.3 -93.6 59.65 -94.9 L57.4 -95.95 Q53.1 -106.25 45.0 -118.75 28.85 -143.8 9.8 -154.95 -4.2 -163.15 -13.15 -164.45 -19.0 -165.3 -24.7 -163.0 -28.25 -161.55 -31.4 -158.7 L-33.85 -156.1"></path>
    <path stroke="none" fill-rule="evenodd" fill="#773f00" d="M110.65 -18.55 Q120.1 3.8 120.1 28.25 120.1 52.7 110.65 75.0 101.55 96.6 84.95 113.25 68.3 129.85 46.8 139.0 24.5 148.45 0.05 148.45 -24.4 148.45 -46.7 139.0 -68.25 129.85 -84.9 113.25 -101.5 96.6 -110.6 75.0 -120.05 52.7 -120.05 28.25 -120.05 3.8 -110.6 -18.55 -101.5 -40.15 -84.9 -56.75 -68.25 -73.4 -46.7 -82.55 -24.4 -92.0 0.05 -92.0 24.45 -92.0 46.8 -82.55 68.3 -73.4 84.95 -56.75 101.55 -40.15 110.65 -18.55"></path>
    <path stroke="none" fill-rule="evenodd" fill="#a76a00" d="M104.25 -16.55 Q113.2 4.3 113.2 27.1 113.2 49.9 104.25 70.75 95.65 90.85 79.9 106.4 64.15 121.9 43.75 130.45 22.6 139.25 -0.55 139.25 -23.7 139.25 -44.85 130.45 -65.25 121.9 -81.0 106.4 -96.75 90.85 -105.35 70.75 -114.3 49.9 -114.3 27.1 -114.3 4.3 -105.35 -16.55 -96.75 -36.7 -81.0 -52.25 -65.25 -67.75 -44.85 -76.3 -23.7 -85.1 -0.55 -85.1 22.6 -85.1 43.75 -76.3 64.15 -67.75 79.9 -52.25 95.65 -36.7 104.25 -16.55"></path>
    <path stroke="none" fill-rule="evenodd" fill="#dc8100" d="M104.25 -12.65 Q113.2 7.65 113.2 29.9 113.2 52.15 104.25 72.45 95.65 92.1 79.9 107.25 64.15 122.35 43.75 130.65 22.6 139.25 -0.55 139.25 -23.7 139.25 -44.85 130.65 -65.25 122.35 -81.0 107.25 -96.75 92.1 -105.35 72.45 -114.3 52.15 -114.3 29.9 -114.3 7.65 -105.35 -12.65 -96.75 -32.25 -81.0 -47.4 -65.25 -62.5 -44.85 -70.8 -23.7 -79.4 -0.55 -79.4 22.6 -79.4 43.75 -70.8 64.15 -62.5 79.9 -47.4 95.65 -32.25 104.25 -12.65"></path>
    <path stroke="none" fill-rule="evenodd" fill="#fecb01" d="M103.25 -9.5 Q112.1 10.4 112.1 32.15 112.1 53.95 103.25 73.85 94.7 93.05 79.1 107.9 63.5 122.7 43.3 130.85 22.35 139.25 -0.55 139.25 -23.45 139.25 -44.4 130.85 -64.6 122.7 -80.2 107.9 -95.8 93.05 -104.35 73.85 -113.2 53.95 -113.2 32.15 -113.2 10.4 -104.35 -9.5 -95.8 -28.7 -80.2 -43.55 -64.6 -58.35 -44.4 -66.5 -23.45 -74.9 -0.55 -74.9 22.35 -74.9 43.3 -66.5 63.5 -58.35 79.1 -43.55 94.7 -28.7 103.25 -9.5"></path>
    <path stroke="none" fill-rule="evenodd" fill="#fab300" d="M109.75 57.55 L104.6 71.05 Q97.35 87.3 87.0 100.7 53.8 143.65 1.75 142.7 -49.85 141.7 -82.4 106.4 -93.1 94.7 -101.3 79.6 L-109.7 62.15 -105.9 55.8 Q-100.25 48.2 -91.2 41.95 -62.2 21.95 -9.75 23.05 48.8 24.25 85.15 41.05 103.3 49.4 109.75 57.55"></path>
    <path stroke="none" fill-rule="evenodd" fill="#d29001" d="M-113.15 16.15 L-110.25 17.9 Q-106.75 20.3 -104.05 23.55 -95.3 34.05 -97.1 49.5 -98.7 63.3 -103.2 67.0 -104.6 68.15 -106.15 68.15 L-107.4 67.9 Q-110.15 60.0 -112.2 49.6 -116.4 28.75 -113.15 16.15 M94.85 44.9 Q94.85 31.25 103.45 22.35 107.75 17.9 112.05 16.15 114.95 35.2 110.35 54.6 108.05 64.3 105.2 70.2 102.6 69.35 100.05 65.75 94.85 58.6 94.85 44.9 M92.55 -22.95 L93.85 -12.75 Q94.7 -2.1 92.55 0.05 L74.7 5.4 Q80.45 13.75 82.0 24.65 84.7 44.4 75.05 58.85 64.85 74.1 45.0 76.5 30.55 78.2 17.9 70.75 5.4 63.45 -0.7 50.0 -6.9 63.05 -19.25 70.15 -31.75 77.3 -45.9 75.6 -65.4 73.2 -75.7 58.0 -85.5 43.45 -82.85 23.85 -81.3 12.9 -75.55 4.55 -89.0 0.85 -90.2 -1.1 -91.25 -2.9 -90.85 -9.65 L-90.2 -16.05 -60.3 -12.6 -61.75 -7.7 Q-49.55 -14.2 -34.5 -12.15 -28.45 -1.95 -15.95 2.45 L-7.0 5.6 Q-2.4 7.6 -0.15 10.75 2.2 8.0 6.8 6.1 9.45 5.0 15.6 3.05 27.65 -1.3 33.6 -11.35 L49.9 -10.85 Q57.65 -9.25 64.05 -5.05 L92.55 -22.95"></path>
    <path stroke="none" fill-rule="evenodd" fill="#fef2b0" d="M-31.55 84.5 Q-6.75 90.75 1.95 91.0 8.7 91.2 26.35 88.15 L53.45 83.35 Q53.15 87.55 47.6 96.0 42.2 104.35 34.15 113.2 14.5 134.85 0.7 138.1 -30.4 122.2 -45.6 98.65 -50.35 91.3 -52.9 84.0 L-54.55 78.25 -31.55 84.5"></path>
    <path stroke="none" fill-rule="evenodd" fill="#fef2b0" d="M-20.15 33.25 Q-8.1 26.5 1.9 26.5 20.9 26.5 41.95 49.55 50.0 58.35 55.7 67.85 61.05 76.75 61.5 81.4 62.1 87.05 33.85 93.5 23.55 95.8 12.7 97.45 L-0.5 98.95 Q-11.3 98.85 -34.0 92.25 -58.9 85.0 -60.2 79.3 -61.1 75.25 -55.5 66.5 -49.9 57.7 -40.75 48.85 -30.65 39.1 -20.15 33.25"></path>
    <path stroke="none" fill-rule="evenodd" fill="#ffffa8" d="M-32.55 -64.8 Q-20.4 -67.25 -10.65 -63.0 -0.9 -58.75 0.8 -50.35 2.5 -41.95 -4.9 -34.3 -12.35 -26.65 -24.45 -24.2 -36.6 -21.8 -46.35 -26.0 -56.15 -30.25 -57.8 -38.65 -59.5 -47.1 -52.1 -54.75 -44.7 -62.4 -32.55 -64.8"></path>
    <path stroke="none" fill-rule="evenodd" fill="#82380d" d="M14.15 -7.65 Q20.8 -8.85 24.55 -10.4 30.55 -13.0 35.1 -18.35 51.8 -18.35 62.8 -8.45 74.15 1.7 74.15 17.85 74.15 34.3 62.55 45.95 50.95 57.55 34.5 57.55 18.05 57.55 6.45 45.95 -5.15 34.3 -5.15 17.85 -5.15 9.0 -1.4 1.05 0.7 -3.45 5.05 -5.4 7.55 -6.55 14.15 -7.65"></path>
    <path stroke="none" fill-rule="evenodd" fill="#ffefaf" d="M11.7 -3.8 Q21.65 -13.75 35.65 -13.75 49.7 -13.75 59.65 -3.8 69.55 6.1 69.55 20.15 69.55 34.2 59.65 44.15 49.7 54.1 35.65 54.1 21.6 54.1 11.7 44.15 1.75 34.2 1.75 20.15 1.75 6.15 11.7 -3.8"></path>
    <path stroke="none" fill-rule="evenodd" fill="#fbd600" d="M66.9 7.0 Q69.55 13.25 69.55 20.15 69.55 29.55 64.75 37.6 L63.8 38.0 Q65.1 33.85 66.2 28.85 68.35 18.95 67.25 15.0 66.2 11.05 64.3 6.85 L62.65 3.5 4.05 17.3 2.55 12.8 3.3 10.0 59.65 -3.8 Q64.35 0.9 66.9 7.0"></path>
    <path stroke="none" fill-rule="evenodd" fill="#82380d" d="M-26.75 -11.6 Q-23.05 -10.0 -16.35 -8.85 -9.8 -7.7 -7.3 -6.6 -2.95 -4.65 -0.85 -0.15 2.9 7.9 2.9 16.7 2.9 33.15 -8.7 44.8 -20.3 56.4 -36.75 56.4 -53.2 56.4 -64.8 44.8 -76.4 33.15 -76.4 16.7 -76.4 0.55 -65.05 -9.6 -54.05 -19.5 -37.3 -19.5 -32.8 -14.15 -26.75 -11.6"></path>
    <path stroke="none" fill-rule="evenodd" fill="#ffefaf" d="M-60.7 -7.25 Q-50.75 -17.2 -36.75 -17.2 -22.7 -17.2 -12.75 -7.25 -2.85 2.65 -2.85 16.7 -2.85 30.75 -12.75 40.7 -22.7 50.65 -36.75 50.65 -50.8 50.65 -60.7 40.7 -70.65 30.75 -70.65 16.7 -70.65 2.7 -60.7 -7.25"></path>
    <path stroke="none" fill-rule="evenodd" fill="#fbd600" d="M-66.2 5.7 Q-69.9 11.7 -70.55 19.35 L-70.65 16.7 Q-70.65 10.35 -68.4 4.5 -66.2 -1.15 -62.15 -5.7 L-3.25 11.55 Q-2.85 14.25 -2.85 16.7 L-2.85 17.5 -62.6 1.2 Q-64.3 2.7 -66.2 5.7"></path>
    <path stroke="none" fill-rule="evenodd" fill="#82380d" d="M-32.95 25.6 Q-36.15 22.4 -36.15 17.85 -36.15 13.35 -32.95 10.15 -29.8 6.95 -25.25 6.95 -20.7 6.95 -17.55 10.15 -14.35 13.35 -14.35 17.85 -14.35 22.4 -17.55 25.6 -20.7 28.8 -25.25 28.8 -29.8 28.8 -32.95 25.6"></path>
    <path stroke="none" fill-rule="evenodd" fill="#64220a" d="M-33.85 14.65 Q-35.55 16.65 -36.0 19.65 L-36.15 18.7 Q-35.85 15.45 -35.1 13.2 -33.75 10.4 -31.15 8.7 -28.45 6.95 -25.25 6.95 -22.5 6.95 -20.05 8.25 -17.7 9.55 -16.2 11.75 -14.7 14.8 -14.4 18.7 L-14.45 19.3 Q-15.45 16.75 -17.65 14.7 -21.4 11.25 -27.0 11.55 -31.5 11.8 -33.85 14.65"></path>
    <path stroke="none" fill-rule="evenodd" fill="#82380d" d="M23.0 6.95 Q27.55 6.95 30.75 10.15 33.95 13.35 33.95 17.85 33.95 22.4 30.75 25.6 27.55 28.8 23.0 28.8 18.5 28.8 15.3 25.6 12.1 22.4 12.1 17.85 12.1 13.35 15.3 10.15 18.5 6.95 23.0 6.95"></path>
    <path stroke="none" fill-rule="evenodd" fill="#64220a" d="M30.85 10.25 Q33.95 13.45 33.95 17.85 L33.9 18.45 Q32.35 15.95 30.0 14.45 26.75 12.45 22.45 12.7 16.85 13.0 14.55 17.25 13.25 19.7 13.25 22.7 13.05 18.0 14.4 14.05 16.8 7.1 23.3 6.95 27.75 7.05 30.85 10.25"></path>
    <path stroke="none" fill-rule="evenodd" fill="#8e4216" d="M91.6 -28.9 Q95.2 -14.7 94.85 -11.45 94.5 -8.25 47.5 3.7 L0.6 15.0 -46.5 2.7 Q-93.65 -10.1 -93.65 -12.6 -93.65 -15.15 -90.2 -29.05 L-86.75 -42.5 0.6 -6.85 87.95 -42.5 91.6 -28.9"></path>
    <path stroke="none" fill-rule="evenodd" fill="#6f280d" d="M-82.15 -33.3 L-88.95 -10.0 Q-93.65 -11.85 -93.65 -12.6 -93.65 -15.15 -90.2 -29.05 L-86.75 -42.5 0.6 -6.85 87.95 -42.5 89.55 -36.65 -0.55 1.2 -82.15 -33.3"></path>
    <path stroke="none" fill-rule="evenodd" fill="#82380d" d="M-28.9 86.15 Q-6.25 91.85 1.75 92.05 7.9 92.25 24.05 89.5 L48.85 85.15 Q48.55 88.95 43.5 96.6 38.55 104.15 31.2 112.15 13.2 131.7 0.6 134.65 -27.85 120.3 -41.75 99.0 -46.1 92.3 -48.45 85.75 L-49.95 80.55 -28.9 86.15"></path>
    <path stroke="none" fill-rule="evenodd" fill="#fecb01" d="M-24.2 92.5 Q-5.1 97.6 1.75 97.8 6.6 97.95 19.65 94.55 35.35 90.4 39.65 89.75 39.2 92.05 34.95 98.25 30.45 104.85 24.75 111.25 9.5 128.3 0.6 127.75 -13.85 124.9 -29.3 105.9 -34.15 99.95 -38.5 93.1 L-41.9 87.45 -24.2 92.5"></path>
    <path stroke="none" fill-rule="evenodd" fill="#82380d" d="M-19.05 35.1 Q-7.7 28.8 1.75 28.8 19.7 28.8 39.55 50.35 47.15 58.6 52.5 67.5 57.55 75.85 58.0 80.2 58.55 85.5 31.9 91.5 8.55 96.75 -0.55 96.65 -10.75 96.55 -32.15 90.4 -55.65 83.6 -56.85 78.25 -57.7 74.45 -52.45 66.25 -47.15 58.05 -38.5 49.75 -28.95 40.6 -19.05 35.1"></path>
    <path stroke="none" fill-rule="evenodd" fill="#fecb01" d="M0.6 93.2 Q-7.55 93.2 -29.25 86.3 -51.4 79.25 -52.25 75.95 -52.7 74.1 -48.05 67.3 -43.0 60.0 -35.65 52.75 -15.65 32.85 1.75 32.25 17.8 33.8 36.45 53.65 43.55 61.25 48.55 68.95 53.25 76.2 53.45 79.4 52.9 82.85 29.3 88.25 7.6 93.2 0.6 93.2"></path>
    <path stroke="none" fill-rule="evenodd" fill="#fef4b2" d="M31.95 49.8 Q26.4 45.2 15.7 40.5 4.65 35.65 4.05 38.0 2.6 44.15 2.05 68.15 1.75 80.15 1.75 90.9 0.5 78.95 -1.15 66.8 -4.45 42.5 -6.3 41.45 -8.15 40.45 -14.35 44.0 -20.05 47.3 -27.15 53.05 -44.15 66.9 -45.35 73.65 -45.95 77.0 -24.45 84.4 L-10.6 89.0 Q-4.9 90.9 -6.3 90.9 -9.8 90.9 -36.5 83.9 -51.6 78.55 -52.25 75.95 -52.7 74.1 -48.05 67.3 -43.0 60.0 -35.7 52.75 -15.7 32.9 1.7 32.25 L1.8 32.25 Q13.2 33.35 26.75 44.55 29.4 46.95 31.95 49.8 L33.95 51.8 Q34.6 52.75 34.15 52.3 L31.95 49.8"></path>
  </g>
</svg>
