<svg xmlns="http://www.w3.org/2000/svg" width="186.0px" height="364.7px" xmlns:xlink="http://www.w3.org/1999/xlink">
  <g transform="matrix(1.0, 0.0, 0.0, 1.0, 54.45, 183.15)">
    <path stroke="none" fill-rule="evenodd" fill="#61441e" d="M81.85 -175.4 Q85.7 -169.5 89.3 -159.2 97.75 -137.75 100.6 -117.95 L101.45 -111.25 Q109.6 -99.85 116.1 -80.95 123.4 -59.55 127.45 -31.8 131.55 -3.05 131.55 28.4 131.55 59.9 127.45 88.6 123.4 116.35 116.1 137.75 112.7 147.65 108.85 155.45 104.4 164.05 99.3 170.05 90.85 179.85 81.85 181.3 L79.7 181.55 61.85 181.55 59.4 181.55 20.4 181.55 -2.85 181.55 Q-12.9 180.85 -22.15 170.05 -27.3 164.05 -31.75 155.45 -35.6 147.65 -38.95 137.75 -46.3 116.35 -50.3 88.6 -54.45 59.9 -54.45 28.4 -54.45 -3.05 -50.3 -31.8 -46.3 -59.55 -38.95 -80.95 -33.0 -98.45 -25.55 -109.5 -32.15 -111.75 -34.8 -119.75 -36.3 -124.15 -36.1 -129.35 -35.95 -134.55 -34.2 -139.6 -31.3 -148.1 -26.4 -150.65 -22.15 -152.8 -15.8 -150.85 -17.55 -161.85 -15.35 -173.0 -14.1 -179.35 -11.35 -181.8 -10.15 -182.95 -8.7 -183.1 L-7.6 -183.1 20.4 -183.1 59.4 -183.1 66.0 -183.1 71.6 -183.1 72.65 -183.1 Q73.75 -183.0 74.95 -182.35 78.5 -180.55 81.85 -175.4"></path>
    <path stroke="none" fill-rule="evenodd" fill="#dd8300" d="M80.9 -160.05 Q86.9 -146.0 90.65 -128.8 93.0 -118.35 94.5 -106.75 L94.65 -105.95 59.4 -104.4 20.4 -104.2 20.4 -103.65 19.0 -103.6 2.3 -159.6 20.4 -159.75 20.4 -159.85 59.4 -159.85 80.9 -160.05 M-20.35 -134.85 Q-21.9 -139.45 -22.45 -143.05 -22.55 -143.75 -20.0 -144.05 L-12.3 -144.4 -9.15 -144.4 -5.0 -144.6 Q-2.1 -144.95 -2.2 -145.65 L-3.5 -153.7 8.25 -119.35 -20.35 -134.85"></path>
    <path stroke="none" fill-rule="evenodd" fill="#ffc000" d="M80.9 -160.05 L59.4 -159.85 20.4 -159.85 20.4 -159.75 2.3 -159.6 19.0 -103.6 20.4 -103.65 20.4 -104.2 59.4 -104.4 94.65 -105.95 Q101.6 -94.35 106.85 -80.8 L109.5 -73.5 112.65 -63.5 20.4 -63.5 20.4 -35.65 20.4 -2.6 20.4 12.85 20.4 29.4 20.4 43.85 20.4 78.95 20.4 98.55 20.4 107.95 -1.4 107.95 -1.4 117.1 -1.4 122.95 -19.35 122.95 -19.35 107.95 -5.05 107.95 Q-7.35 97.4 -9.05 85.6 -13.0 58.7 -13.0 29.1 -13.0 -0.4 -9.8 -24.2 -6.65 -48.05 -3.75 -58.5 -0.85 -69.0 4.5 -83.15 5.0 -84.55 1.4 -91.2 L-7.15 -106.45 Q-11.75 -114.75 -15.0 -121.7 L-17.55 -127.45 -20.35 -134.85 8.25 -119.35 -3.5 -153.7 -4.9 -162.4 -4.95 -162.55 -5.7 -167.4 -6.35 -171.15 -6.9 -174.55 Q-6.8 -175.45 1.15 -175.8 7.7 -176.05 19.55 -175.95 L20.4 -175.95 20.4 -175.75 59.4 -175.65 67.7 -175.4 68.7 -175.4 Q69.75 -175.25 73.15 -172.95 74.95 -171.75 76.65 -169.15 L77.7 -167.05 80.6 -160.75 80.9 -160.05"></path>
    <path stroke="none" fill-rule="evenodd" fill="#fce17a" d="M118.85 -35.65 L120.1 -27.4 Q121.9 -15.25 122.85 -2.6 L20.4 -2.6 20.4 -35.65 118.85 -35.65"></path>
    <path stroke="none" fill-rule="evenodd" fill="#ffd03c" d="M112.65 -63.5 L113.95 -58.55 Q116.75 -47.8 118.85 -35.65 L20.4 -35.65 20.4 -63.5 112.65 -63.5"></path>
    <path stroke="none" fill-rule="evenodd" fill="#fff5b0" d="M122.85 -2.6 L123.75 12.85 20.4 12.85 20.4 -2.6 122.85 -2.6"></path>
    <path stroke="none" fill-rule="evenodd" fill="#fcf9ac" d="M124.0 29.4 L123.8 43.85 20.4 43.85 20.4 29.4 124.0 29.4"></path>
    <path stroke="none" fill-rule="evenodd" fill="#fffff7" d="M123.75 12.85 L124.0 29.1 124.0 29.4 20.4 29.4 20.4 12.85 123.75 12.85"></path>
    <path stroke="none" fill-rule="evenodd" fill="#f4a637" d="M121.05 78.95 L120.1 85.6 118.0 98.55 20.4 98.55 20.4 78.95 121.05 78.95"></path>
    <path stroke="none" fill-rule="evenodd" fill="#fecb00" d="M123.8 43.85 Q123.2 61.95 121.05 78.95 L20.4 78.95 20.4 43.85 123.8 43.85"></path>
    <path stroke="none" fill-rule="evenodd" fill="#dd8102" d="M113.9 117.1 Q111.85 124.8 109.5 131.75 107.05 138.95 104.35 144.95 101.15 151.45 97.65 156.45 L93.75 161.8 93.65 161.95 Q85.95 171.0 77.7 172.45 L76.0 172.7 69.15 172.7 66.1 172.7 64.85 172.7 61.2 172.7 60.2 172.7 59.4 172.7 56.0 172.7 20.4 172.7 19.35 172.7 8.95 172.7 -0.35 172.7 -0.35 151.35 12.0 151.35 12.0 137.95 14.8 137.95 14.8 122.95 -1.4 122.95 -1.4 117.1 113.9 117.1"></path>
    <path stroke="none" fill-rule="evenodd" fill="#f08e13" d="M118.0 98.55 Q116.15 108.3 113.9 117.1 L-1.4 117.1 -1.4 107.95 20.4 107.95 20.4 98.55 118.0 98.55"></path>
    <path stroke="none" fill-rule="evenodd" fill="#fef4b2" d="M43.9 -27.95 Q47.6 -1.15 47.6 28.25 47.6 57.6 43.9 84.45 40.35 110.35 33.8 130.3 27.3 150.3 18.85 161.25 10.1 172.6 0.55 172.6 -9.05 172.6 -17.8 161.25 -26.25 150.3 -32.75 130.3 -39.3 110.35 -42.85 84.45 -46.55 57.6 -46.55 28.25 -46.55 -1.1 -42.85 -27.95 -39.3 -53.85 -32.75 -73.85 -26.25 -93.85 -17.8 -104.8 -9.05 -116.15 0.55 -116.15 10.1 -116.15 18.85 -104.8 27.3 -93.85 33.8 -73.85 40.35 -53.85 43.9 -27.95"></path>
    <path stroke="none" fill-rule="evenodd" fill="#fecb01" d="M41.85 -24.5 Q45.35 0.95 45.35 28.8 45.35 56.65 41.85 82.1 38.5 106.65 32.3 125.6 26.1 144.55 18.1 154.95 9.8 165.7 0.7 165.7 -8.35 165.7 -16.65 154.95 -24.7 144.55 -30.85 125.6 -37.05 106.65 -40.45 82.1 -43.95 56.65 -43.95 28.8 -43.95 0.95 -40.45 -24.5 -37.05 -49.05 -30.85 -68.0 -24.7 -86.95 -16.65 -97.35 -8.35 -108.1 0.7 -108.1 9.8 -108.1 18.1 -97.35 26.1 -86.95 32.3 -68.0 38.5 -49.05 41.85 -24.5"></path>
    <path stroke="none" fill-rule="evenodd" fill="#fef4b2" d="M38.7 -21.25 Q42.0 2.35 42.0 28.25 42.0 54.1 38.7 77.75 35.6 100.55 29.85 118.15 24.1 135.7 16.65 145.35 8.95 155.35 0.55 155.35 -7.9 155.35 -15.6 145.35 -23.05 135.7 -28.8 118.15 -34.55 100.55 -37.65 77.75 -40.95 54.1 -40.95 28.25 -40.95 2.35 -37.65 -21.25 -34.55 -44.05 -28.8 -61.65 -23.05 -79.25 -15.6 -88.9 -7.9 -98.9 0.55 -98.9 8.95 -98.9 16.65 -88.9 24.1 -79.25 29.85 -61.65 35.6 -44.05 38.7 -21.25"></path>
    <path stroke="none" fill-rule="evenodd" fill="#f8a300" d="M38.7 -21.25 Q42.0 2.35 42.0 28.25 42.0 48.75 39.95 67.9 L-5.25 66.9 Q-35.95 66.2 -39.0 66.85 -40.95 48.05 -40.95 28.25 -40.95 2.35 -37.65 -21.25 -34.55 -44.05 -28.8 -61.65 -23.05 -79.25 -15.6 -88.9 -7.9 -98.9 0.55 -98.9 8.95 -98.9 16.65 -88.9 24.1 -79.25 29.85 -61.65 35.6 -44.05 38.7 -21.25"></path>
    <path stroke="none" fill-rule="evenodd" fill="#ffc000" d="M-10.15 -168.75 Q-8.0 -177.5 -2.35 -172.25 3.4 -166.9 8.95 -150.35 14.45 -135.85 17.55 -118.05 19.6 -106.2 20.35 -94.65 L24.75 -86.55 Q24.25 -85.35 23.3 -84.75 21.4 -83.5 19.1 -86.55 12.8 -94.9 8.45 -98.25 1.65 -103.6 -3.4 -100.35 -12.25 -94.75 -14.7 -96.4 -15.5 -96.95 -15.55 -98.1 L-15.4 -99.2 -12.7 -103.0 Q-9.35 -106.9 -6.05 -107.25 L-5.95 -107.3 Q-8.5 -108.85 -12.65 -110.75 -19.2 -113.75 -21.05 -114.65 -26.95 -117.6 -28.95 -123.2 -31.1 -129.05 -28.2 -135.4 -25.1 -142.15 -22.2 -143.45 -19.0 -144.85 -13.15 -141.15 -9.1 -138.55 -3.75 -132.55 -9.8 -143.65 -11.1 -153.45 -12.05 -161.05 -10.15 -168.75"></path>
    <path stroke="none" fill-rule="evenodd" fill="#feffba" d="M-11.55 -133.15 Q-16.9 -136.75 -21.45 -135.4 -24.55 -134.45 -26.3 -131.0 L-27.3 -128.6 Q-27.8 -127.5 -28.2 -127.35 -29.0 -126.95 -29.05 -128.85 L-28.95 -130.8 -28.5 -134.6 -28.2 -135.4 Q-26.05 -140.1 -24.2 -141.95 -21.5 -143.5 -16.55 -143.0 L-13.15 -141.15 Q-9.7 -138.9 -5.05 -133.95 -0.3 -128.95 3.6 -123.35 L5.2 -118.1 4.0 -118.2 Q1.95 -119.2 -1.9 -123.9 -7.25 -130.3 -11.55 -133.15 M-10.55 -156.1 Q-11.1 -159.0 -11.25 -162.5 -10.95 -165.7 -10.15 -168.75 -8.0 -177.55 -2.3 -172.45 3.55 -167.2 9.05 -150.65 13.8 -138.05 17.35 -119.9 20.0 -106.05 21.4 -92.35 L20.0 -94.9 19.25 -95.95 Q17.85 -106.25 15.2 -118.75 9.95 -143.8 3.7 -154.95 -0.85 -163.15 -3.8 -164.45 -5.7 -165.3 -7.55 -163.0 -8.7 -161.55 -9.75 -158.7 L-10.55 -156.1"></path>
    <path stroke="none" fill-rule="evenodd" fill="#773f00" d="M36.65 -18.55 Q39.75 3.8 39.75 28.25 39.75 52.7 36.65 75.0 33.7 96.6 28.25 113.25 22.8 129.85 15.8 139.0 8.5 148.45 0.55 148.45 -7.45 148.45 -14.75 139.0 -21.75 129.85 -27.2 113.25 -32.65 96.6 -35.6 75.0 -38.7 52.7 -38.7 28.25 -38.7 3.8 -35.6 -18.55 -32.65 -40.15 -27.2 -56.75 -21.75 -73.4 -14.75 -82.55 -7.45 -92.0 0.55 -92.0 8.5 -92.0 15.8 -82.55 22.8 -73.4 28.25 -56.75 33.7 -40.15 36.65 -18.55"></path>
    <path stroke="none" fill-rule="evenodd" fill="#a76a00" d="M34.55 -16.55 Q37.5 4.3 37.5 27.1 37.5 49.9 34.55 70.75 31.75 90.85 26.6 106.4 21.45 121.9 14.8 130.45 7.9 139.25 0.35 139.25 -7.2 139.25 -14.15 130.45 -20.8 121.9 -25.95 106.4 -31.1 90.85 -33.9 70.75 -36.8 49.9 -36.8 27.1 -36.8 4.3 -33.9 -16.55 -31.1 -36.7 -25.95 -52.25 -20.8 -67.75 -14.15 -76.3 -7.2 -85.1 0.35 -85.1 7.9 -85.1 14.8 -76.3 21.45 -67.75 26.6 -52.25 31.75 -36.7 34.55 -16.55"></path>
    <path stroke="none" fill-rule="evenodd" fill="#dc8100" d="M34.55 -12.65 Q37.5 7.65 37.5 29.9 37.5 52.15 34.55 72.45 31.75 92.1 26.6 107.25 21.45 122.35 14.8 130.65 7.9 139.25 0.35 139.25 -7.2 139.25 -14.15 130.65 -20.8 122.35 -25.95 107.25 -31.1 92.1 -33.9 72.45 -36.8 52.15 -36.8 29.9 -36.8 7.65 -33.9 -12.65 -31.1 -32.25 -25.95 -47.4 -20.8 -62.5 -14.15 -70.8 -7.2 -79.4 0.35 -79.4 7.9 -79.4 14.8 -70.8 21.45 -62.5 26.6 -47.4 31.75 -32.25 34.55 -12.65"></path>
    <path stroke="none" fill-rule="evenodd" fill="#fecb01" d="M34.25 -9.5 Q37.1 10.4 37.1 32.15 37.1 53.95 34.25 73.85 31.45 93.05 26.35 107.9 21.25 122.7 14.65 130.85 7.8 139.25 0.35 139.25 -7.15 139.25 -14.0 130.85 -20.6 122.7 -25.65 107.9 -30.75 93.05 -33.55 73.85 -36.45 53.95 -36.45 32.15 -36.45 10.4 -33.55 -9.5 -30.75 -28.7 -25.65 -43.55 -20.6 -58.35 -14.0 -66.5 -7.15 -74.9 0.35 -74.9 7.8 -74.9 14.65 -66.5 21.25 -58.35 26.35 -43.55 31.45 -28.7 34.25 -9.5"></path>
    <path stroke="none" fill-rule="evenodd" fill="#fab300" d="M36.35 57.55 L34.65 71.05 Q32.3 87.3 28.9 100.7 18.1 143.65 1.1 142.7 -15.75 141.7 -26.4 106.4 -29.9 94.7 -32.55 79.6 L-35.3 62.15 -34.05 55.8 Q-32.2 48.2 -29.25 41.95 -19.8 21.95 -2.65 23.05 16.45 24.25 28.3 41.05 34.25 49.4 36.35 57.55"></path>
    <path stroke="none" fill-rule="evenodd" fill="#d29001" d="M-36.45 16.15 L-35.5 17.9 Q-34.35 20.3 -33.45 23.55 -30.6 34.05 -31.2 49.5 -31.7 63.3 -33.2 67.0 -33.65 68.15 -34.15 68.15 L-34.55 67.9 Q-35.45 60.0 -36.1 49.6 -37.5 28.75 -36.45 16.15 M31.5 44.9 Q31.5 31.25 34.3 22.35 35.7 17.9 37.1 16.15 38.05 35.2 36.55 54.6 35.8 64.3 34.85 70.2 34.0 69.35 33.2 65.75 31.5 58.6 31.5 44.9 M30.75 -22.95 L31.15 -12.75 Q31.45 -2.1 30.75 0.05 L24.9 5.4 Q26.8 13.75 27.3 24.65 28.15 44.4 25.0 58.85 21.7 74.1 15.2 76.5 10.5 78.2 6.35 70.75 2.3 63.45 0.3 50.0 -1.75 63.05 -5.75 70.15 -9.85 77.3 -14.45 75.6 -20.85 73.2 -24.2 58.0 -27.4 43.45 -26.55 23.85 -26.05 12.9 -24.15 4.55 -28.55 0.85 -28.95 -1.1 -29.3 -2.9 -29.15 -9.65 L-28.95 -16.05 -19.15 -12.6 -19.65 -7.7 Q-15.65 -14.2 -10.75 -12.15 -8.75 -1.95 -4.7 2.45 L-1.75 5.6 Q-0.25 7.6 0.45 10.75 1.25 8.0 2.75 6.1 3.6 5.0 5.6 3.05 9.55 -1.3 11.5 -11.35 14.25 -12.5 16.8 -10.85 19.35 -9.25 21.45 -5.05 L30.75 -22.95"></path>
    <path stroke="none" fill-rule="evenodd" fill="#fef2b0" d="M-9.8 84.5 Q-1.7 90.75 1.15 91.0 3.35 91.2 9.1 88.15 L17.95 83.35 Q17.85 87.55 16.05 96.0 14.3 104.35 11.65 113.2 5.25 134.85 0.75 138.1 -9.4 122.2 -14.35 98.65 -15.95 91.3 -16.75 84.0 L-17.3 78.25 -9.8 84.5"></path>
    <path stroke="none" fill-rule="evenodd" fill="#fef2b0" d="M-6.05 33.25 Q-2.15 26.5 1.15 26.5 7.35 26.5 14.2 49.55 16.85 58.35 18.7 67.85 20.45 76.75 20.6 81.4 20.8 87.05 11.55 93.5 8.2 95.8 4.65 97.45 1.45 99.0 0.35 98.95 -3.15 98.85 -10.6 92.25 -18.7 85.0 -19.15 79.3 -19.45 75.25 -17.6 66.5 -15.8 57.7 -12.8 48.85 -9.5 39.1 -6.05 33.25"></path>
    <path stroke="none" fill-rule="evenodd" fill="#ffffa8" d="M-10.1 -64.8 Q-6.15 -67.25 -2.95 -63.0 0.2 -58.75 0.8 -50.35 1.35 -41.95 -1.1 -34.3 -3.5 -26.65 -7.45 -24.2 -11.45 -21.8 -14.6 -26.0 -17.8 -30.25 -18.35 -38.65 -18.9 -47.1 -16.5 -54.75 -14.1 -62.4 -10.1 -64.8"></path>
    <path stroke="none" fill-rule="evenodd" fill="#82380d" d="M5.15 -7.65 Q7.3 -8.85 8.55 -10.4 10.5 -13.0 12.0 -18.35 17.45 -18.35 21.0 -8.45 24.75 1.7 24.75 17.85 24.75 34.3 20.95 45.95 17.15 57.55 11.8 57.55 6.4 57.55 2.6 45.95 -1.15 34.3 -1.15 17.85 -1.15 9.0 0.05 1.05 0.75 -3.45 2.15 -5.4 3.0 -6.55 5.15 -7.65"></path>
    <path stroke="none" fill-rule="evenodd" fill="#ffefaf" d="M4.35 -3.8 Q7.6 -13.75 12.15 -13.75 16.75 -13.75 20.0 -3.8 23.25 6.1 23.25 20.15 23.25 34.2 20.0 44.15 16.75 54.1 12.15 54.1 7.55 54.1 4.35 44.15 1.1 34.2 1.1 20.15 1.1 6.15 4.35 -3.8"></path>
    <path stroke="none" fill-rule="evenodd" fill="#fbd600" d="M22.35 7.0 Q23.25 13.25 23.25 20.15 23.25 29.55 21.65 37.6 L21.35 38.0 22.15 28.85 Q22.85 18.95 22.5 15.0 L21.5 6.85 20.95 3.5 1.85 17.3 1.35 12.8 1.6 10.0 20.0 -3.8 Q21.55 0.9 22.35 7.0"></path>
    <path stroke="none" fill-rule="evenodd" fill="#82380d" d="M-8.2 -11.6 Q-7.0 -10.0 -4.8 -8.85 -2.7 -7.7 -1.85 -6.6 -0.45 -4.65 0.25 -0.15 1.45 7.9 1.45 16.7 1.45 33.15 -2.35 44.8 -6.1 56.4 -11.5 56.4 -16.85 56.4 -20.65 44.8 -24.45 33.15 -24.45 16.7 -24.45 0.55 -20.75 -9.6 -17.15 -19.5 -11.65 -19.5 -10.2 -14.15 -8.2 -11.6"></path>
    <path stroke="none" fill-rule="evenodd" fill="#ffefaf" d="M-19.3 -7.25 Q-16.05 -17.2 -11.5 -17.2 -6.9 -17.2 -3.65 -7.25 -0.4 2.65 -0.4 16.7 -0.4 30.75 -3.65 40.7 -6.9 50.65 -11.5 50.65 -16.05 50.65 -19.3 40.7 -22.55 30.75 -22.55 16.7 -22.55 2.7 -19.3 -7.25"></path>
    <path stroke="none" fill-rule="evenodd" fill="#fbd600" d="M-21.1 5.7 Q-22.3 11.7 -22.5 19.35 L-22.55 16.7 Q-22.55 10.35 -21.8 4.5 -21.1 -1.15 -19.8 -5.7 L-0.55 11.55 -0.4 16.7 -0.4 17.5 -19.95 1.2 -21.1 5.7"></path>
    <path stroke="none" fill-rule="evenodd" fill="#82380d" d="M-10.25 25.6 Q-11.3 22.4 -11.3 17.85 -11.3 13.35 -10.25 10.15 -9.2 6.95 -7.75 6.95 -6.25 6.95 -5.2 10.15 -4.15 13.35 -4.15 17.85 -4.15 22.4 -5.2 25.6 -6.25 28.8 -7.75 28.8 -9.2 28.8 -10.25 25.6"></path>
    <path stroke="none" fill-rule="evenodd" fill="#64220a" d="M-10.55 14.65 Q-11.1 16.65 -11.25 19.65 L-11.3 18.7 -10.95 13.2 Q-10.5 10.4 -9.65 8.7 -8.75 6.95 -7.75 6.95 -6.85 6.95 -6.05 8.25 -5.25 9.55 -4.75 11.75 -4.3 14.8 -4.2 18.7 L-4.2 19.3 Q-4.55 16.75 -5.25 14.7 -6.45 11.25 -8.3 11.55 -9.75 11.8 -10.55 14.65"></path>
    <path stroke="none" fill-rule="evenodd" fill="#82380d" d="M8.05 6.95 Q9.5 6.95 10.55 10.15 11.6 13.35 11.6 17.85 11.6 22.4 10.55 25.6 9.5 28.8 8.05 28.8 6.55 28.8 5.5 25.6 4.45 22.4 4.45 17.85 4.45 13.35 5.5 10.15 6.55 6.95 8.05 6.95"></path>
    <path stroke="none" fill-rule="evenodd" fill="#64220a" d="M10.6 10.25 Q11.6 13.45 11.6 17.85 L11.6 18.45 Q11.1 15.95 10.3 14.45 9.25 12.45 7.85 12.7 6.0 13.0 5.25 17.25 4.85 19.7 4.85 22.7 4.8 18.0 5.2 14.05 6.0 7.1 8.1 6.95 9.6 7.05 10.6 10.25"></path>
    <path stroke="none" fill-rule="evenodd" fill="#8e4216" d="M30.45 -28.9 Q31.6 -14.7 31.5 -11.45 31.35 -8.25 16.05 3.7 L0.7 15.0 -14.65 2.7 Q-30.05 -10.1 -30.05 -12.6 L-28.95 -29.05 -27.8 -42.5 0.7 -6.85 29.25 -42.5 30.45 -28.9"></path>
    <path stroke="none" fill-rule="evenodd" fill="#6f280d" d="M-26.3 -33.3 L-28.55 -10.0 Q-30.05 -11.85 -30.05 -12.6 L-28.95 -29.05 -27.8 -42.5 0.7 -6.85 29.25 -42.5 29.75 -36.65 0.35 1.2 -26.3 -33.3"></path>
    <path stroke="none" fill-rule="evenodd" fill="#82380d" d="M-8.9 86.15 Q-1.55 91.85 1.1 92.05 3.1 92.25 8.35 89.5 L16.45 85.15 Q16.35 88.95 14.7 96.6 13.1 104.15 10.7 112.15 4.85 131.7 0.7 134.65 -8.6 120.3 -13.1 99.0 -14.55 92.3 -15.3 85.75 L-15.8 80.55 -8.9 86.15"></path>
    <path stroke="none" fill-rule="evenodd" fill="#fecb01" d="M-7.4 92.5 Q-1.15 97.6 1.1 97.8 2.65 97.95 6.95 94.55 12.05 90.4 13.45 89.75 13.3 92.05 11.95 98.25 10.45 104.85 8.6 111.25 3.6 128.3 0.7 127.75 -4.0 124.9 -9.05 105.9 -10.65 99.95 -12.05 93.1 L-13.15 87.45 -7.4 92.5"></path>
    <path stroke="none" fill-rule="evenodd" fill="#82380d" d="M-5.7 35.1 Q-2.0 28.8 1.1 28.8 6.95 28.8 13.45 50.35 15.9 58.6 17.65 67.5 19.3 75.85 19.45 80.2 19.65 85.5 10.95 91.5 3.3 96.75 0.35 96.65 -3.0 96.55 -10.0 90.4 -17.65 83.6 -18.05 78.25 -18.35 74.45 -16.6 66.25 -14.9 58.05 -12.05 49.75 -8.95 40.6 -5.7 35.1"></path>
    <path stroke="none" fill-rule="evenodd" fill="#fecb01" d="M0.7 93.2 Q-1.95 93.2 -9.05 86.3 -16.25 79.25 -16.55 75.95 -16.7 74.1 -15.15 67.3 -13.55 60.0 -11.15 52.75 -4.6 32.85 1.1 32.25 6.35 33.8 12.4 53.65 14.75 61.25 16.35 68.95 17.9 76.2 17.95 79.4 17.8 82.85 10.1 88.25 3.0 93.2 0.7 93.2"></path>
    <path stroke="none" fill-rule="evenodd" fill="#fef4b2" d="M10.95 49.8 Q9.15 45.2 5.65 40.5 2.05 35.65 1.85 38.0 1.35 44.15 1.2 68.15 L1.1 90.9 0.15 66.8 Q-0.95 42.5 -1.55 41.45 -2.15 40.45 -4.15 44.0 -6.05 47.3 -8.35 53.05 -13.9 66.9 -14.3 73.65 -14.5 77.0 -7.45 84.4 L-2.95 89.0 Q-1.1 90.9 -1.55 90.9 -2.7 90.9 -11.4 83.9 -16.35 78.55 -16.55 75.95 -16.7 74.1 -15.15 67.3 -13.55 60.0 -11.15 52.75 -4.6 32.9 1.05 32.25 L1.1 32.25 Q4.85 33.35 9.25 44.55 L10.95 49.8 11.6 51.8 11.65 52.3 10.95 49.8"></path>
  </g>
</svg>
