<svg xmlns="http://www.w3.org/2000/svg" width="175.8px" height="366.55px" xmlns:xlink="http://www.w3.org/1999/xlink">
  <g transform="matrix(1.0, 0.0, 0.0, 1.0, 86.95, 183.25)">
    <path stroke="none" fill-rule="evenodd" fill="#502f04" d="M51.0 -172.7 Q52.45 -167.55 52.55 -161.35 52.6 -155.2 50.0 -151.1 56.6 -153.95 60.7 -150.95 64.8 -148.0 66.95 -141.15 69.15 -134.3 69.3 -129.1 69.45 -123.9 68.15 -119.5 66.2 -113.05 61.9 -110.35 69.1 -99.1 74.8 -80.7 81.45 -59.3 85.1 -31.55 88.85 -2.8 88.85 28.65 88.85 60.15 85.1 88.85 81.45 116.6 74.8 138.0 68.15 159.4 59.55 171.15 50.6 183.3 40.85 183.3 L37.75 183.3 36.3 183.3 -37.2 183.3 -39.15 183.3 -45.7 183.25 Q-53.45 182.6 -60.5 171.15 -67.75 159.4 -73.35 138.0 -79.0 116.6 -82.95 89.1 -86.9 61.6 -86.95 30.2 -87.0 -1.25 -83.05 -30.05 -79.1 -58.85 -74.15 -77.8 -69.25 -96.8 -59.95 -109.35 -58.6 -116.0 -57.15 -127.55 -55.7 -139.15 -49.1 -158.4 -42.5 -177.65 -40.0 -179.55 -37.55 -181.45 -30.35 -182.85 L-31.05 -182.85 -18.5 -183.2 -15.2 -183.25 -9.25 -183.2 Q21.25 -183.15 30.0 -182.75 L35.75 -182.8 36.3 -182.8 36.5 -182.8 37.75 -182.8 40.5 -182.8 43.6 -182.85 Q46.0 -182.85 47.75 -180.4 49.55 -177.85 51.0 -172.7"></path>
    <path stroke="none" fill-rule="evenodd" fill="#502f04" d="M43.6 -182.85 Q46.0 -182.85 47.75 -180.4 49.55 -177.85 51.0 -172.7 52.45 -167.55 52.55 -161.35 52.6 -155.2 50.0 -151.1 56.6 -153.95 60.7 -150.95 64.8 -148.0 66.95 -141.15 69.15 -134.3 69.3 -129.1 69.45 -123.9 68.15 -119.5 66.2 -113.05 61.9 -110.35 69.1 -99.1 74.8 -80.7 81.45 -59.3 85.1 -31.55 88.85 -2.8 88.85 28.65 88.85 60.15 85.1 88.85 81.45 116.6 74.8 138.0 68.15 159.4 59.55 171.15 50.6 183.3 40.85 183.3 L37.75 183.3 36.3 183.3 -37.2 183.3 -39.15 183.3 -45.7 183.25 Q-53.45 182.6 -60.5 171.15 -67.75 159.4 -73.35 138.0 -79.0 116.6 -82.95 89.1 -86.9 61.6 -86.95 30.2 -87.0 -1.25 -83.05 -30.05 -79.1 -58.85 -74.15 -77.8 -69.25 -96.8 -59.95 -109.35 -58.6 -116.0 -57.15 -127.55 -55.7 -139.15 -49.1 -158.4 -42.5 -177.65 -40.0 -179.55 -37.55 -181.45 -30.35 -182.85 L-31.05 -182.85 -18.5 -183.2 -15.2 -183.25 -9.25 -183.2 Q21.25 -183.15 30.0 -182.75 L35.75 -182.8 36.3 -182.8 36.5 -182.8 37.75 -182.8 40.5 -182.8 43.6 -182.85 M43.45 -146.25 Q44.65 -149.65 45.15 -153.9 L45.5 -159.2 Q45.9 -159.5 45.05 -165.05 44.15 -170.6 42.35 -172.8 L41.95 -173.1 41.4 -173.45 Q40.2 -174.1 38.3 -174.25 L37.45 -174.3 37.05 -174.35 36.4 -174.35 35.75 -174.35 21.5 -174.35 21.5 -174.3 -31.45 -174.3 Q-33.2 -172.95 -41.5 -155.65 -39.55 -152.05 -38.7 -142.8 -38.55 -140.85 -38.0 -138.9 L-40.05 -130.6 -35.4 -132.55 Q-34.1 -130.3 -32.4 -128.1 L-28.9 -123.3 Q-27.45 -120.75 -27.8 -118.4 -27.85 -117.75 -28.05 -117.2 -28.8 -114.45 -31.35 -113.15 -33.15 -112.2 -35.8 -111.95 L-29.0 -55.85 -29.0 -28.85 -29.0 3.15 -29.0 18.15 -29.0 34.15 -29.0 48.15 -29.0 82.15 -29.0 101.15 -29.0 119.1 -50.85 150.25 Q-49.2 152.45 -48.95 156.65 -48.85 159.15 -49.3 164.35 L-49.4 165.25 Q-49.7 168.65 -45.8 170.45 -41.85 172.2 -43.3 172.9 L8.5 172.9 21.5 172.9 22.5 172.9 28.75 172.9 35.75 172.9 36.65 172.9 37.05 172.9 Q45.05 172.7 52.45 165.25 L54.25 162.95 Q60.65 154.3 65.85 140.0 L68.65 131.75 72.1 119.1 Q74.25 110.55 75.9 101.15 L78.3 85.45 78.75 82.15 Q80.75 65.65 81.45 48.15 L81.85 34.15 81.85 28.75 81.75 18.15 81.15 3.15 Q80.3 -12.8 78.3 -27.95 L78.2 -28.85 Q76.25 -43.25 73.5 -55.85 71.35 -65.55 68.65 -74.2 L65.85 -82.15 Q59.75 -98.15 51.9 -110.7 L51.8 -110.9 Q56.7 -114.25 59.1 -117.75 61.65 -121.35 62.1 -126.0 62.3 -128.4 62.15 -130.75 61.9 -135.3 60.25 -139.65 L58.2 -143.95 Q56.7 -145.35 52.6 -145.95 L43.45 -146.25"></path>
    <path stroke="none" fill-rule="evenodd" fill="#dd8007" d="M45.5 -159.2 L45.15 -153.9 Q44.65 -149.65 43.45 -146.25 L35.75 -145.9 -9.25 -145.5 -13.7 -145.3 Q-26.65 -144.5 -28.95 -141.6 -29.9 -140.4 -32.05 -136.4 -33.5 -133.65 -35.4 -132.55 L-40.05 -130.6 -38.0 -138.9 -33.4 -159.2 -9.25 -159.2 35.75 -159.2 45.5 -159.2 M62.15 -130.75 Q62.3 -128.4 62.1 -126.0 61.65 -121.35 59.1 -117.75 56.7 -114.25 51.8 -110.9 L51.9 -110.7 -33.3 -110.7 -31.35 -113.15 Q-28.8 -114.45 -28.05 -117.2 L-18.15 -129.35 35.75 -129.9 62.15 -130.75"></path>
    <path stroke="none" fill-rule="evenodd" fill="#ffc000" d="M43.45 -146.25 L52.6 -145.95 Q56.7 -145.35 58.2 -143.95 L60.25 -139.65 Q61.9 -135.3 62.15 -130.75 L35.75 -129.9 -18.15 -129.35 -28.05 -117.2 Q-27.85 -117.75 -27.8 -118.4 -27.45 -120.75 -28.9 -123.3 L-32.4 -128.1 Q-34.1 -130.3 -35.4 -132.55 -33.5 -133.65 -32.05 -136.4 -29.9 -140.4 -28.95 -141.6 -26.65 -144.5 -13.7 -145.3 L-9.25 -145.5 35.75 -145.9 43.45 -146.25 M51.9 -110.7 Q59.75 -98.15 65.85 -82.15 L68.65 -74.2 Q71.35 -65.55 73.5 -55.85 L-29.0 -55.85 -35.8 -111.95 Q-33.15 -112.2 -31.35 -113.15 L-33.3 -110.7 51.9 -110.7 M-38.0 -138.9 Q-38.55 -140.85 -38.7 -142.8 -39.55 -152.05 -41.5 -155.65 -33.2 -172.95 -31.45 -174.3 L21.5 -174.3 21.5 -174.35 35.75 -174.35 36.4 -174.35 37.05 -174.35 37.45 -174.3 38.3 -174.25 Q40.2 -174.1 41.4 -173.45 L41.95 -173.1 42.35 -172.8 Q44.15 -170.6 45.05 -165.05 45.9 -159.5 45.5 -159.2 L35.75 -159.2 -9.25 -159.2 -33.4 -159.2 -38.0 -138.9"></path>
    <path stroke="none" fill-rule="evenodd" fill="#fce17a" d="M78.2 -28.85 L78.3 -27.95 Q80.3 -12.8 81.15 3.15 L-29.0 3.15 -29.0 -28.85 78.2 -28.85"></path>
    <path stroke="none" fill-rule="evenodd" fill="#ffd03c" d="M73.5 -55.85 Q76.25 -43.25 78.2 -28.85 L-29.0 -28.85 -29.0 -55.85 73.5 -55.85"></path>
    <path stroke="none" fill-rule="evenodd" fill="#fff5b0" d="M81.15 3.15 L81.75 18.15 -29.0 18.15 -29.0 3.15 81.15 3.15"></path>
    <path stroke="none" fill-rule="evenodd" fill="#fffff7" d="M81.75 18.15 L81.85 28.75 81.85 34.15 -29.0 34.15 -29.0 18.15 81.75 18.15"></path>
    <path stroke="none" fill-rule="evenodd" fill="#fcf9ac" d="M81.85 34.15 L81.45 48.15 -29.0 48.15 -29.0 34.15 81.85 34.15"></path>
    <path stroke="none" fill-rule="evenodd" fill="#f4a637" d="M78.75 82.15 L78.3 85.45 75.9 101.15 -29.0 101.15 -29.0 82.15 78.75 82.15"></path>
    <path stroke="none" fill-rule="evenodd" fill="#fecb00" d="M81.45 48.15 Q80.75 65.65 78.75 82.15 L-29.0 82.15 -29.0 48.15 81.45 48.15"></path>
    <path stroke="none" fill-rule="evenodd" fill="#dd8102" d="M72.1 119.1 L68.65 131.75 65.85 140.0 Q60.65 154.3 54.25 162.95 L52.45 165.25 Q45.05 172.7 37.05 172.9 L36.65 172.9 35.75 172.9 28.75 172.9 22.5 172.9 21.5 172.9 8.5 172.9 -43.3 172.9 Q-41.85 172.2 -45.8 170.45 -49.7 168.65 -49.4 165.25 L-49.3 164.35 Q-48.85 159.15 -48.95 156.65 -49.2 152.45 -50.85 150.25 L-29.0 119.1 72.1 119.1"></path>
    <path stroke="none" fill-rule="evenodd" fill="#f08e13" d="M75.9 101.15 Q74.25 110.55 72.1 119.1 L-29.0 119.1 -29.0 101.15 75.9 101.15"></path>
    <path stroke="none" fill-rule="evenodd" fill="#fef4b2" d="M-74.2 -27.75 Q-77.45 -0.95 -77.45 28.45 -77.45 57.8 -74.2 84.65 -71.05 110.55 -65.35 130.5 -59.65 150.5 -52.3 161.45 -44.6 172.8 -36.25 172.8 -27.85 172.8 -20.2 161.45 -12.8 150.5 -7.1 130.5 -1.4 110.55 1.7 84.65 4.95 57.8 4.95 28.45 4.95 -0.9 1.7 -27.75 -1.4 -53.65 -7.1 -73.65 -12.8 -93.65 -20.2 -104.6 -27.85 -115.95 -36.25 -115.95 -44.6 -115.95 -52.3 -104.6 -59.65 -93.65 -65.35 -73.65 -71.05 -53.65 -74.2 -27.75"></path>
    <path stroke="none" fill-rule="evenodd" fill="#fecb01" d="M-72.4 -24.3 Q-75.45 1.15 -75.45 29.0 -75.45 56.85 -72.4 82.3 -69.45 106.85 -64.0 125.8 -58.6 144.75 -51.6 155.15 -44.35 165.9 -36.4 165.9 -28.45 165.9 -21.2 155.15 -14.2 144.75 -8.75 125.8 -3.35 106.85 -0.4 82.3 2.7 56.85 2.7 29.0 2.7 1.15 -0.4 -24.3 -3.35 -48.85 -8.75 -67.8 -14.2 -86.75 -21.2 -97.15 -28.45 -107.9 -36.4 -107.9 -44.35 -107.9 -51.6 -97.15 -58.6 -86.75 -64.0 -67.8 -69.45 -48.85 -72.4 -24.3"></path>
    <path stroke="none" fill-rule="evenodd" fill="#fef4b2" d="M-69.65 -21.05 Q-72.5 2.55 -72.5 28.45 -72.5 54.3 -69.65 77.95 -66.9 100.75 -61.9 118.35 -56.85 135.9 -50.35 145.55 -43.6 155.55 -36.25 155.55 -28.85 155.55 -22.1 145.55 -15.6 135.9 -10.6 118.35 -5.55 100.75 -2.8 77.95 0.05 54.3 0.05 28.45 0.05 2.55 -2.8 -21.05 -5.55 -43.85 -10.6 -61.45 -15.6 -79.05 -22.1 -88.7 -28.85 -98.7 -36.25 -98.7 -43.6 -98.7 -50.35 -88.7 -56.85 -79.05 -61.9 -61.45 -66.9 -43.85 -69.65 -21.05"></path>
    <path stroke="none" fill-rule="evenodd" fill="#f8a300" d="M-69.65 -21.05 Q-72.5 2.55 -72.5 28.45 -72.5 48.95 -70.7 68.1 L-31.2 67.1 Q-4.35 66.4 -1.65 67.05 0.05 48.25 0.05 28.45 0.05 2.55 -2.8 -21.05 -5.55 -43.85 -10.6 -61.45 -15.6 -79.05 -22.1 -88.7 -28.85 -98.7 -36.25 -98.7 -43.6 -98.7 -50.35 -88.7 -56.85 -79.05 -61.9 -61.45 -66.9 -43.85 -69.65 -21.05"></path>
    <path stroke="none" fill-rule="evenodd" fill="#ffc000" d="M-26.9 -168.55 Q-28.75 -177.3 -33.7 -172.05 -38.75 -166.7 -43.6 -150.15 -48.4 -135.65 -51.1 -117.85 -52.9 -106.0 -53.6 -94.45 L-57.4 -86.35 Q-57.0 -85.15 -56.15 -84.55 -54.5 -83.3 -52.5 -86.35 -46.95 -94.7 -43.2 -98.05 -37.25 -103.4 -32.8 -100.15 -25.05 -94.55 -22.9 -96.2 -22.2 -96.75 -22.2 -97.9 L-22.3 -99.0 -24.65 -102.8 Q-27.6 -106.7 -30.5 -107.05 L-30.55 -107.1 Q-28.35 -108.65 -24.7 -110.55 L-17.35 -114.45 Q-12.2 -117.4 -10.4 -123.0 -8.6 -128.85 -11.1 -135.2 -13.8 -141.95 -16.35 -143.25 -19.15 -144.65 -24.25 -140.95 -27.8 -138.35 -32.5 -132.35 -27.2 -143.45 -26.1 -153.25 -25.2 -160.85 -26.9 -168.55"></path>
    <path stroke="none" fill-rule="evenodd" fill="#feffba" d="M-25.65 -132.95 Q-20.95 -136.55 -17.0 -135.2 -14.3 -134.25 -12.8 -130.8 L-11.9 -128.4 Q-11.45 -127.3 -11.1 -127.15 -10.4 -126.75 -10.35 -128.65 L-10.45 -130.6 Q-10.55 -132.65 -10.8 -134.4 L-11.1 -135.2 Q-13.0 -139.9 -14.6 -141.75 -16.95 -143.3 -21.3 -142.8 L-24.25 -140.95 Q-27.3 -138.7 -31.35 -133.75 -35.5 -128.75 -38.95 -123.15 L-40.35 -117.9 -39.25 -118.0 Q-37.5 -119.0 -34.1 -123.7 -29.45 -130.1 -25.65 -132.95 M-26.55 -155.9 Q-26.1 -158.8 -25.95 -162.3 -26.2 -165.5 -26.9 -168.55 -28.75 -177.35 -33.75 -172.25 -38.9 -167.0 -43.7 -150.45 -47.85 -137.85 -50.95 -119.7 -53.3 -105.85 -54.5 -92.15 L-53.25 -94.7 -52.6 -95.75 Q-51.4 -106.05 -49.1 -118.55 -44.45 -143.6 -39.0 -154.75 -35.0 -162.95 -32.45 -164.25 -30.8 -165.1 -29.15 -162.8 -28.15 -161.35 -27.25 -158.5 L-26.55 -155.9"></path>
    <path stroke="none" fill-rule="evenodd" fill="#773f00" d="M-67.85 -18.35 Q-70.55 4.0 -70.55 28.45 -70.55 52.9 -67.85 75.2 -65.25 96.8 -60.5 113.45 -55.75 130.05 -49.6 139.2 -43.2 148.65 -36.25 148.65 -29.25 148.65 -22.9 139.2 -16.7 130.05 -11.95 113.45 -7.2 96.8 -4.6 75.2 -1.9 52.9 -1.9 28.45 -1.9 4.0 -4.6 -18.35 -7.2 -39.95 -11.95 -56.55 -16.7 -73.2 -22.9 -82.35 -29.25 -91.8 -36.25 -91.8 -43.2 -91.8 -49.6 -82.35 -55.75 -73.2 -60.5 -56.55 -65.25 -39.95 -67.85 -18.35"></path>
    <path stroke="none" fill-rule="evenodd" fill="#a76a00" d="M-66.0 -16.35 Q-68.55 4.5 -68.55 27.3 -68.55 50.1 -66.0 70.95 -63.55 91.05 -59.05 106.6 -54.55 122.1 -48.7 130.65 -42.7 139.45 -36.05 139.45 -29.45 139.45 -23.4 130.65 -17.6 122.1 -13.1 106.6 -8.6 91.05 -6.1 70.95 -3.55 50.1 -3.55 27.3 -3.55 4.5 -6.1 -16.35 -8.6 -36.5 -13.1 -52.05 -17.6 -67.55 -23.4 -76.1 -29.45 -84.9 -36.05 -84.9 -42.7 -84.9 -48.7 -76.1 -54.55 -67.55 -59.05 -52.05 -63.55 -36.5 -66.0 -16.35"></path>
    <path stroke="none" fill-rule="evenodd" fill="#dc8100" d="M-66.0 -12.45 Q-68.55 7.85 -68.55 30.1 -68.55 52.35 -66.0 72.65 -63.55 92.3 -59.05 107.45 -54.55 122.55 -48.7 130.85 -42.7 139.45 -36.05 139.45 -29.45 139.45 -23.4 130.85 -17.6 122.55 -13.1 107.45 -8.6 92.3 -6.1 72.65 -3.55 52.35 -3.55 30.1 -3.55 7.85 -6.1 -12.45 -8.6 -32.05 -13.1 -47.2 -17.6 -62.3 -23.4 -70.6 -29.45 -79.2 -36.05 -79.2 -42.7 -79.2 -48.7 -70.6 -54.55 -62.3 -59.05 -47.2 -63.55 -32.05 -66.0 -12.45"></path>
    <path stroke="none" fill-rule="evenodd" fill="#fecb01" d="M-65.7 -9.3 Q-68.25 10.6 -68.25 32.35 -68.25 54.15 -65.7 74.05 -63.3 93.25 -58.8 108.1 -54.35 122.9 -48.6 131.05 -42.6 139.45 -36.05 139.45 -29.5 139.45 -23.55 131.05 -17.75 122.9 -13.3 108.1 -8.85 93.25 -6.4 74.05 -3.9 54.15 -3.9 32.35 -3.9 10.6 -6.4 -9.3 -8.85 -28.5 -13.3 -43.35 -17.75 -58.15 -23.55 -66.3 -29.5 -74.7 -36.05 -74.7 -42.6 -74.7 -48.6 -66.3 -54.35 -58.15 -58.8 -43.35 -63.3 -28.5 -65.7 -9.3"></path>
    <path stroke="none" fill-rule="evenodd" fill="#fab300" d="M-67.6 57.75 L-66.1 71.25 Q-64.05 87.5 -61.1 100.9 -51.6 143.85 -36.7 142.9 -22.0 141.9 -12.7 106.6 -9.6 94.9 -7.3 79.8 L-4.9 62.35 -5.95 56.0 Q-7.6 48.4 -10.15 42.15 -18.45 22.15 -33.45 23.25 -50.15 24.45 -60.55 41.25 -65.75 49.6 -67.6 57.75"></path>
    <path stroke="none" fill-rule="evenodd" fill="#ffffa8" d="M-47.05 -62.7 Q-43.1 -65.5 -39.9 -60.65 -36.7 -55.8 -36.15 -46.2 -35.6 -36.6 -38.0 -27.9 -40.45 -19.15 -44.4 -16.35 -48.35 -13.6 -51.55 -18.4 -54.75 -23.25 -55.3 -32.85 -55.85 -42.5 -53.4 -51.25 -51.0 -59.95 -47.05 -62.7"></path>
    <path stroke="none" fill-rule="evenodd" fill="#6f280d" d="M-33.05 74.15 L-33.6 70.35 -35.35 58.6 -36.95 48.0 -38.75 36.9 -39.75 30.25 -40.4 25.8 Q-41.5 18.8 -41.8 18.4 L-41.9 18.4 Q-42.45 18.5 -44.45 26.55 L-45.4 30.65 -46.1 27.5 -46.05 26.25 -45.7 23.7 -44.45 18.35 Q-42.25 9.6 -41.8 10.25 -41.5 10.6 -40.4 17.6 L-38.75 28.7 -36.95 39.85 -35.35 50.4 -33.6 62.2 Q-32.25 71.3 -32.3 72.35 L-32.35 72.55 -33.05 74.15 M-38.3 55.15 Q-38.15 56.75 -38.85 56.95 L-39.1 57.05 Q-40.35 56.95 -43.5 53.5 L-52.0 44.4 Q-55.0 41.25 -55.45 41.4 -55.95 41.6 -56.3 48.65 L-56.65 59.25 -56.75 65.65 -56.8 60.95 -56.65 51.05 -56.3 41.35 -56.3 40.5 Q-55.95 33.4 -55.45 33.2 -55.0 33.05 -52.3 35.95 -49.55 38.9 -45.95 43.3 L-42.95 47.3 -41.1 50.3 -38.3 55.15 M-39.7 70.6 Q-39.5 71.85 -40.15 73.65 L-40.45 74.3 Q-41.35 76.4 -43.3 79.25 L-49.2 87.9 -50.95 90.85 -50.95 90.6 -51.05 89.95 -51.35 84.0 Q-51.3 82.75 -49.2 79.75 L-47.85 77.85 -45.65 75.25 -44.6 74.25 Q-43.25 73.0 -41.6 71.85 L-39.7 70.6"></path>
    <path stroke="none" fill-rule="evenodd" fill="#8e4216" d="M-45.4 30.65 L-44.45 26.55 Q-42.45 18.5 -41.9 18.4 L-41.8 18.4 Q-41.5 18.8 -40.4 25.8 L-39.75 30.25 -38.75 36.9 -36.95 48.0 -35.35 58.6 -33.6 70.35 -33.05 74.15 -33.4 74.75 -36.1 80.6 -39.25 87.8 -42.4 95.45 -46.0 105.6 Q-47.95 111.15 -48.25 111.2 -48.65 111.25 -49.25 106.8 L-50.1 99.2 -50.95 90.85 -49.2 87.9 -43.3 79.25 Q-41.35 76.4 -40.45 74.3 L-40.15 73.65 Q-39.5 71.85 -39.7 70.6 L-44.25 69.85 -48.9 69.6 -52.3 69.4 -54.95 69.1 Q-56.5 68.85 -56.6 68.3 L-56.75 65.65 -56.65 59.25 -56.3 48.65 Q-55.95 41.6 -55.45 41.4 -55.0 41.25 -52.0 44.4 L-43.5 53.5 Q-40.35 56.95 -39.1 57.05 L-38.85 56.95 Q-38.15 56.75 -38.3 55.15 -39.45 50.85 -40.5 47.5 L-42.65 40.25 -44.55 33.6 -45.4 30.65"></path>
    <path stroke="none" fill-rule="evenodd" fill="#d29001" d="M-33.05 74.15 L-32.35 72.55 -32.25 73.25 -33.0 75.3 -33.3 75.95 -35.95 82.6 -38.9 90.65 -41.9 99.15 -45.35 110.35 Q-47.1 116.4 -47.4 116.55 -47.85 116.65 -48.55 112.45 L-49.55 105.1 -50.5 97.0 -50.5 96.75 -51.05 90.3 -51.05 89.95 -50.95 90.6 -50.95 90.85 -50.1 99.2 -49.25 106.8 Q-48.65 111.25 -48.25 111.2 -47.95 111.15 -46.0 105.6 L-42.4 95.45 -39.25 87.8 -36.1 80.6 -33.4 74.75 -33.05 74.15 M-46.05 26.25 L-46.1 27.5 -45.4 30.65 -44.55 33.6 -42.65 40.25 -40.5 47.5 Q-39.45 50.85 -38.3 55.15 L-41.1 50.3 -43.2 44.15 -45.25 38.1 -46.1 35.4 -46.9 32.4 Q-47.0 31.3 -46.55 28.55 L-46.05 26.25 M-56.75 65.65 L-56.6 68.3 Q-56.5 68.85 -54.95 69.1 L-52.3 69.4 -48.9 69.6 -44.25 69.85 -39.7 70.6 -41.6 71.85 Q-43.25 73.0 -44.6 74.25 L-48.9 75.25 -52.25 75.95 -54.9 76.4 Q-56.45 76.55 -56.55 76.1 L-56.8 73.55 -56.9 68.85 -56.95 58.9 -56.75 48.25 Q-56.65 42.8 -56.3 41.35 L-56.65 51.05 -56.8 60.95 -56.75 65.65"></path>
  </g>
</svg>
