<svg xmlns="http://www.w3.org/2000/svg" width="186.75px" height="366.55px" xmlns:xlink="http://www.w3.org/1999/xlink">
  <g transform="matrix(1.0, 0.0, 0.0, 1.0, 82.2, 183.45)">
    <path stroke="none" fill-rule="evenodd" fill="#502f04" d="M53.05 -182.3 Q59.9 -178.4 66.0 -159.15 73.6 -137.7 76.2 -117.9 L76.85 -112.05 Q84.55 -100.55 90.6 -80.9 97.25 -59.5 100.8 -31.75 104.55 -3.0 104.55 28.45 104.55 59.95 100.8 88.65 97.25 116.4 90.6 137.8 84.0 159.2 75.45 170.95 67.15 182.4 58.0 183.05 L50.25 183.1 47.95 183.1 -20.25 183.1 -21.95 183.1 -25.6 183.1 Q-37.1 183.1 -47.65 170.95 -57.8 159.2 -65.65 137.8 -73.45 116.4 -77.75 88.65 -82.2 59.95 -82.2 28.45 -82.2 -3.0 -77.75 -31.75 -73.45 -59.5 -65.65 -80.9 -58.9 -99.3 -50.4 -110.55 -55.5 -113.25 -57.75 -119.7 -59.3 -124.1 -59.15 -129.3 -58.95 -134.5 -56.35 -141.35 -53.8 -148.2 -49.0 -151.15 -44.15 -154.15 -36.4 -151.3 -39.45 -155.4 -39.35 -161.55 -39.3 -167.75 -37.6 -172.9 -35.85 -178.05 -33.7 -180.6 -31.65 -183.05 -28.85 -183.05 L-25.15 -183.0 -21.95 -183.0 -20.5 -183.0 -20.25 -183.0 -18.2 -182.95 -12.9 -183.35 20.1 -183.45 22.05 -183.45 25.95 -183.4 40.75 -183.05 43.8 -183.0 46.55 -183.0 47.75 -183.0 47.95 -183.0 49.7 -182.95 Q51.2 -183.35 53.05 -182.3"></path>
    <path stroke="none" fill-rule="evenodd" fill="#ffc000" d="M-31.4 -163.0 L-31.05 -166.4 Q-30.75 -168.45 -30.15 -169.75 L-27.95 -172.45 -27.85 -172.6 -26.9 -173.3 -26.25 -173.65 -22.55 -174.45 -21.55 -174.5 -21.15 -174.55 -20.35 -174.55 -16.2 -174.55 -16.2 -174.5 -12.9 -174.45 47.05 -174.1 Q43.25 -173.15 53.05 -165.85 L52.6 -163.0 Q50.65 -151.25 49.75 -143.0 49.55 -141.05 48.9 -139.1 L44.2 -163.0 -31.4 -163.0 M45.85 -132.75 Q44.35 -130.5 42.3 -128.3 L38.2 -123.5 Q36.5 -120.95 36.9 -118.6 L37.2 -117.4 25.5 -129.55 -12.9 -129.95 -50.7 -130.95 Q-50.4 -135.5 -48.45 -139.85 -47.35 -142.3 -46.05 -144.15 -44.25 -145.55 -39.45 -146.15 L-28.7 -146.45 -12.9 -145.85 20.1 -145.5 20.25 -145.5 Q35.5 -144.7 38.25 -141.8 39.4 -140.6 41.85 -136.6 43.6 -133.85 45.85 -132.75 M41.05 -113.35 Q43.15 -112.4 46.3 -112.15 L38.3 -56.05 -64.05 -56.05 Q-61.55 -65.75 -58.35 -74.4 -56.9 -78.35 -55.05 -82.35 -47.85 -98.35 -38.65 -110.9 L43.4 -110.9 41.05 -113.35"></path>
    <path stroke="none" fill-rule="evenodd" fill="#ffd03c" d="M38.3 -56.05 L38.3 -29.05 -69.6 -29.05 Q-67.35 -43.45 -64.05 -56.05 L38.3 -56.05"></path>
    <path stroke="none" fill-rule="evenodd" fill="#fffff7" d="M38.3 17.95 L38.3 33.95 -73.9 33.95 -73.95 28.55 -73.8 17.95 38.3 17.95"></path>
    <path stroke="none" fill-rule="evenodd" fill="#fcf9ac" d="M38.3 33.95 L38.3 47.95 -73.45 47.95 -73.9 33.95 38.3 33.95"></path>
    <path stroke="none" fill-rule="evenodd" fill="#fff5b0" d="M38.3 2.95 L38.3 17.95 -73.8 17.95 -73.15 2.95 38.3 2.95"></path>
    <path stroke="none" fill-rule="evenodd" fill="#fecb00" d="M38.3 47.95 L38.3 81.95 -70.25 81.95 Q-72.65 65.45 -73.45 47.95 L38.3 47.95"></path>
    <path stroke="none" fill-rule="evenodd" fill="#f08e13" d="M38.3 100.95 L38.3 118.9 -62.45 118.9 Q-64.95 110.35 -66.9 100.95 L38.3 100.95"></path>
    <path stroke="none" fill-rule="evenodd" fill="#dd8102" d="M38.3 118.9 L64.1 150.05 Q62.1 152.25 61.85 156.45 61.7 158.95 62.25 164.15 L62.35 165.05 Q62.7 168.45 58.1 170.25 53.45 172.0 55.2 172.7 L-13.15 172.7 -16.2 172.7 -16.45 172.7 -17.9 172.7 -20.65 172.7 -21.15 172.7 Q-30.55 172.5 -39.3 165.05 L-41.4 162.75 Q-48.95 154.1 -55.05 139.8 -56.8 135.9 -58.35 131.55 L-62.45 118.9 38.3 118.9"></path>
    <path stroke="none" fill-rule="evenodd" fill="#f4a637" d="M38.3 81.95 L38.3 100.95 -66.9 100.95 Q-68.5 93.4 -69.75 85.25 L-70.25 81.95 38.3 81.95"></path>
    <path stroke="none" fill-rule="evenodd" fill="#fce17a" d="M38.3 -29.05 L38.3 2.95 -73.15 2.95 Q-72.1 -13.0 -69.75 -28.15 L-69.6 -29.05 38.3 -29.05"></path>
    <path stroke="none" fill-rule="evenodd" fill="#dd8007" d="M-31.4 -163.0 L44.2 -163.0 48.9 -139.1 51.35 -130.8 45.85 -132.75 Q43.6 -133.85 41.85 -136.6 39.4 -140.6 38.25 -141.8 35.5 -144.7 20.25 -145.5 L20.1 -145.5 -12.9 -145.85 -28.7 -146.45 Q-30.15 -153.3 -30.5 -154.1 -31.35 -156.2 -31.4 -161.25 L-31.4 -163.0 M37.2 -117.4 Q38.1 -114.65 41.05 -113.35 L43.4 -110.9 -38.65 -110.9 -38.5 -111.1 Q-44.3 -114.45 -47.15 -117.95 -50.1 -121.55 -50.6 -126.2 -50.9 -128.6 -50.7 -130.95 L-12.9 -129.95 25.5 -129.55 37.2 -117.4"></path>
    <path stroke="none" fill-rule="evenodd" fill="#fef4b2" d="M93.65 -27.95 Q97.15 -1.15 97.15 28.25 97.15 57.6 93.65 84.45 90.3 110.35 84.2 130.3 78.1 150.3 70.2 161.25 62.0 172.6 53.05 172.6 44.05 172.6 35.85 161.25 27.95 150.3 21.85 130.3 15.75 110.35 12.4 84.45 8.95 57.6 8.95 28.25 8.95 -1.1 12.4 -27.95 15.75 -53.85 21.85 -73.85 27.95 -93.85 35.85 -104.8 44.05 -116.15 53.05 -116.15 62.0 -116.15 70.2 -104.8 78.1 -93.85 84.2 -73.85 90.3 -53.85 93.65 -27.95"></path>
    <path stroke="none" fill-rule="evenodd" fill="#fecb01" d="M91.75 -24.5 Q95.0 0.95 95.0 28.8 95.0 56.65 91.75 82.1 88.55 106.65 82.75 125.6 77.0 144.55 69.5 154.95 61.7 165.7 53.2 165.7 44.7 165.7 36.95 154.95 29.4 144.55 23.65 125.6 17.85 106.65 14.65 82.1 11.4 56.65 11.4 28.8 11.4 0.95 14.65 -24.5 17.85 -49.05 23.65 -68.0 29.4 -86.95 36.95 -97.35 44.7 -108.1 53.2 -108.1 61.7 -108.1 69.5 -97.35 77.0 -86.95 82.75 -68.0 88.55 -49.05 91.75 -24.5"></path>
    <path stroke="none" fill-rule="evenodd" fill="#fef4b2" d="M88.8 -21.25 Q91.85 2.35 91.85 28.25 91.85 54.1 88.8 77.75 85.85 100.55 80.5 118.15 75.1 135.7 68.15 145.35 60.9 155.35 53.05 155.35 45.15 155.35 37.9 145.35 30.95 135.7 25.55 118.15 20.2 100.55 17.25 77.75 14.2 54.1 14.2 28.25 14.2 2.35 17.25 -21.25 20.2 -44.05 25.55 -61.65 30.95 -79.25 37.9 -88.9 45.15 -98.9 53.05 -98.9 60.9 -98.9 68.15 -88.9 75.1 -79.25 80.5 -61.65 85.85 -44.05 88.8 -21.25"></path>
    <path stroke="none" fill-rule="evenodd" fill="#f8a300" d="M88.8 -21.25 Q91.85 2.35 91.85 28.25 91.85 48.75 89.95 67.9 L47.65 66.9 Q18.9 66.2 16.0 66.85 14.2 48.05 14.2 28.25 14.2 2.35 17.25 -21.25 20.2 -44.05 25.55 -61.65 30.95 -79.25 37.9 -88.9 45.15 -98.9 53.05 -98.9 60.9 -98.9 68.15 -88.9 75.1 -79.25 80.5 -61.65 85.85 -44.05 88.8 -21.25"></path>
    <path stroke="none" fill-rule="evenodd" fill="#ffc000" d="M43.0 -168.75 Q45.0 -177.5 50.3 -172.25 55.75 -166.9 60.95 -150.35 66.05 -135.85 68.95 -118.05 70.9 -106.2 71.6 -94.65 L75.7 -86.55 Q75.25 -85.35 74.35 -84.75 72.6 -83.5 70.4 -86.55 64.5 -94.9 60.45 -98.25 54.1 -103.6 49.35 -100.35 41.05 -94.75 38.75 -96.4 38.05 -96.95 38.0 -98.1 L38.1 -99.2 40.65 -103.0 Q43.8 -106.9 46.85 -107.25 L46.95 -107.3 40.7 -110.75 32.8 -114.65 Q27.3 -117.6 25.4 -123.2 23.45 -129.05 26.15 -135.4 29.05 -142.15 31.75 -143.45 34.75 -144.85 40.2 -141.15 44.0 -138.55 49.0 -132.55 43.35 -143.65 42.15 -153.45 41.25 -161.05 43.0 -168.75"></path>
    <path stroke="none" fill-rule="evenodd" fill="#feffba" d="M41.7 -133.15 Q36.7 -136.75 32.45 -135.4 29.55 -134.45 27.9 -131.0 L26.95 -128.6 Q26.5 -127.5 26.15 -127.35 25.35 -126.95 25.3 -128.85 L25.45 -130.8 25.85 -134.6 26.15 -135.4 Q28.15 -140.1 29.85 -141.95 32.4 -143.5 37.05 -143.0 L40.2 -141.15 Q43.45 -138.9 47.8 -133.95 52.25 -128.95 55.9 -123.35 L57.4 -118.1 56.25 -118.2 Q54.35 -119.2 50.75 -123.9 45.75 -130.3 41.7 -133.15 M42.65 -156.1 Q42.15 -159.0 42.0 -162.5 42.3 -165.7 43.0 -168.75 45.05 -177.55 50.35 -172.45 55.85 -167.2 61.05 -150.65 65.5 -138.05 68.8 -119.9 71.25 -106.05 72.6 -92.35 L71.25 -94.9 70.55 -95.95 Q69.25 -106.25 66.8 -118.75 61.85 -143.8 56.0 -154.95 51.75 -163.15 49.0 -164.45 47.2 -165.3 45.45 -163.0 44.4 -161.55 43.4 -158.7 L42.65 -156.1"></path>
    <path stroke="none" fill-rule="evenodd" fill="#773f00" d="M86.85 -18.55 Q89.75 3.8 89.75 28.25 89.75 52.7 86.85 75.0 84.05 96.6 79.0 113.25 73.9 129.85 67.35 139.0 60.5 148.45 53.05 148.45 45.55 148.45 38.75 139.0 32.15 129.85 27.05 113.25 22.0 96.6 19.2 75.0 16.3 52.7 16.3 28.25 16.3 3.8 19.2 -18.55 22.0 -40.15 27.05 -56.75 32.15 -73.4 38.75 -82.55 45.55 -92.0 53.05 -92.0 60.5 -92.0 67.35 -82.55 73.9 -73.4 79.0 -56.75 84.05 -40.15 86.85 -18.55"></path>
    <path stroke="none" fill-rule="evenodd" fill="#a76a00" d="M84.9 -16.55 Q87.65 4.3 87.65 27.1 87.65 49.9 84.9 70.75 82.25 90.85 77.45 106.4 72.65 121.9 66.4 130.45 59.95 139.25 52.85 139.25 45.75 139.25 39.3 130.45 33.05 121.9 28.25 106.4 23.45 90.85 20.8 70.75 18.05 49.9 18.05 27.1 18.05 4.3 20.8 -16.55 23.45 -36.7 28.25 -52.25 33.05 -67.75 39.3 -76.3 45.75 -85.1 52.85 -85.1 59.95 -85.1 66.4 -76.3 72.65 -67.75 77.45 -52.25 82.25 -36.7 84.9 -16.55"></path>
    <path stroke="none" fill-rule="evenodd" fill="#dc8100" d="M84.9 -12.65 Q87.65 7.65 87.65 29.9 87.65 52.15 84.9 72.45 82.25 92.1 77.45 107.25 72.65 122.35 66.4 130.65 59.95 139.25 52.85 139.25 45.75 139.25 39.3 130.65 33.05 122.35 28.25 107.25 23.45 92.1 20.8 72.45 18.05 52.15 18.05 29.9 18.05 7.65 20.8 -12.65 23.45 -32.25 28.25 -47.4 33.05 -62.5 39.3 -70.8 45.75 -79.4 52.85 -79.4 59.95 -79.4 66.4 -70.8 72.65 -62.5 77.45 -47.4 82.25 -32.25 84.9 -12.65"></path>
    <path stroke="none" fill-rule="evenodd" fill="#fecb01" d="M84.6 -9.5 Q87.3 10.4 87.3 32.15 87.3 53.95 84.6 73.85 81.95 93.05 77.2 107.9 72.45 122.7 66.25 130.85 59.85 139.25 52.85 139.25 45.85 139.25 39.45 130.85 33.25 122.7 28.5 107.9 23.7 93.05 21.1 73.85 18.4 53.95 18.4 32.15 18.4 10.4 21.1 -9.5 23.7 -28.7 28.5 -43.55 33.25 -58.35 39.45 -66.5 45.85 -74.9 52.85 -74.9 59.85 -74.9 66.25 -66.5 72.45 -58.35 77.2 -43.55 81.95 -28.7 84.6 -9.5"></path>
    <path stroke="none" fill-rule="evenodd" fill="#fab300" d="M86.6 57.55 L85.0 71.05 Q82.8 87.3 79.6 100.7 69.45 143.65 53.55 142.7 37.75 141.7 27.8 106.4 24.55 94.7 22.05 79.6 L19.45 62.15 20.65 55.8 Q22.35 48.2 25.15 41.95 34.0 21.95 50.05 23.05 67.95 24.25 79.05 41.05 84.6 49.4 86.6 57.55"></path>
    <path stroke="none" fill-rule="evenodd" fill="#d29001" d="M18.4 16.15 L19.3 17.9 Q20.35 20.3 21.2 23.55 23.85 34.05 23.3 49.5 22.85 63.3 21.45 67.0 21.05 68.15 20.55 68.15 L20.15 67.9 Q19.35 60.0 18.7 49.6 17.4 28.75 18.4 16.15 M82.0 44.9 Q82.0 31.25 84.65 22.35 85.95 17.9 87.3 16.15 88.15 35.2 86.75 54.6 86.05 64.3 85.2 70.2 84.4 69.35 83.6 65.75 82.0 58.6 82.0 44.9 M81.3 -22.95 L81.7 -12.75 Q81.95 -2.1 81.3 0.05 L75.85 5.4 Q77.6 13.75 78.1 24.65 78.9 44.4 75.95 58.85 72.85 74.1 66.8 76.5 62.35 78.2 58.5 70.75 54.65 63.45 52.8 50.0 50.9 63.05 47.15 70.15 43.3 77.3 39.0 75.6 33.0 73.2 29.85 58.0 26.85 43.45 27.7 23.85 28.15 12.9 29.9 4.55 25.8 0.85 25.45 -1.1 25.1 -2.9 25.25 -9.65 L25.45 -16.05 34.6 -12.6 34.15 -7.7 Q37.85 -14.2 42.45 -12.15 44.3 -1.95 48.15 2.45 L50.85 5.6 Q52.3 7.6 52.95 10.75 53.7 8.0 55.1 6.1 55.9 5.0 57.8 3.05 61.45 -1.3 63.3 -11.35 65.85 -12.5 68.25 -10.85 70.65 -9.25 72.6 -5.05 L81.3 -22.95"></path>
    <path stroke="none" fill-rule="evenodd" fill="#fef2b0" d="M43.35 84.5 Q50.95 90.75 53.6 91.0 55.7 91.2 61.05 88.15 L69.35 83.35 Q69.25 87.55 67.55 96.0 65.9 104.35 63.45 113.2 57.45 134.85 53.25 138.1 43.7 122.2 39.05 98.65 37.6 91.3 36.85 84.0 L36.35 78.25 43.35 84.5"></path>
    <path stroke="none" fill-rule="evenodd" fill="#fef2b0" d="M46.85 33.25 Q50.55 26.5 53.6 26.5 59.4 26.5 65.85 49.55 68.3 58.35 70.05 67.85 71.7 76.75 71.8 81.4 72.0 87.05 63.35 93.5 L56.9 97.45 Q53.85 99.0 52.85 98.95 49.55 98.85 42.6 92.25 35.0 85.0 34.6 79.3 34.35 75.25 36.05 66.5 37.75 57.7 40.55 48.85 43.65 39.1 46.85 33.25"></path>
    <path stroke="none" fill-rule="evenodd" fill="#ffffa8" d="M43.05 -64.8 Q46.8 -67.25 49.75 -63.0 52.75 -58.75 53.25 -50.35 53.8 -41.95 51.5 -34.3 49.25 -26.65 45.55 -24.2 41.8 -21.8 38.85 -26.0 35.85 -30.25 35.35 -38.65 34.8 -47.1 37.1 -54.75 39.35 -62.4 43.05 -64.8"></path>
    <path stroke="none" fill-rule="evenodd" fill="#82380d" d="M57.35 -7.65 Q59.4 -8.85 60.5 -10.4 62.35 -13.0 63.75 -18.35 68.85 -18.35 72.2 -8.45 75.7 1.7 75.7 17.85 75.7 34.3 72.15 45.95 68.6 57.55 63.55 57.55 58.55 57.55 55.0 45.95 51.45 34.3 51.45 17.85 51.45 9.0 52.6 1.05 53.25 -3.45 54.55 -5.4 55.3 -6.55 57.35 -7.65"></path>
    <path stroke="none" fill-rule="evenodd" fill="#ffefaf" d="M56.6 -3.8 Q59.65 -13.75 63.9 -13.75 68.2 -13.75 71.25 -3.8 74.3 6.1 74.3 20.15 74.3 34.2 71.25 44.15 68.2 54.1 63.9 54.1 59.6 54.1 56.6 44.15 53.55 34.2 53.55 20.15 53.55 6.15 56.6 -3.8"></path>
    <path stroke="none" fill-rule="evenodd" fill="#fbd600" d="M73.45 7.0 Q74.3 13.25 74.3 20.15 74.3 29.55 72.8 37.6 L72.55 38.0 73.25 28.85 Q73.9 18.95 73.6 15.0 L72.7 6.85 72.15 3.5 54.25 17.3 53.8 12.8 54.0 10.0 71.25 -3.8 Q72.7 0.9 73.45 7.0"></path>
    <path stroke="none" fill-rule="evenodd" fill="#82380d" d="M44.85 -11.6 Q45.95 -10.0 48.0 -8.85 50.0 -7.7 50.8 -6.6 52.1 -4.65 52.75 -0.15 53.9 7.9 53.9 16.7 53.9 33.15 50.35 44.8 46.8 56.4 41.8 56.4 36.75 56.4 33.2 44.8 29.65 33.15 29.65 16.7 29.65 0.55 33.1 -9.6 36.5 -19.5 41.6 -19.5 43.0 -14.15 44.85 -11.6"></path>
    <path stroke="none" fill-rule="evenodd" fill="#ffefaf" d="M34.45 -7.25 Q37.5 -17.2 41.8 -17.2 46.05 -17.2 49.1 -7.25 52.15 2.65 52.15 16.7 52.15 30.75 49.1 40.7 46.05 50.65 41.8 50.65 37.5 50.65 34.45 40.7 31.4 30.75 31.4 16.7 31.4 2.7 34.45 -7.25"></path>
    <path stroke="none" fill-rule="evenodd" fill="#fbd600" d="M32.75 5.7 Q31.65 11.7 31.45 19.35 L31.4 16.7 Q31.4 10.35 32.1 4.5 32.75 -1.15 34.0 -5.7 L52.0 11.55 52.15 16.7 52.15 17.5 33.85 1.2 Q33.35 2.7 32.75 5.7"></path>
    <path stroke="none" fill-rule="evenodd" fill="#82380d" d="M42.95 25.6 Q41.95 22.4 41.95 17.85 41.95 13.35 42.95 10.15 43.9 6.95 45.3 6.95 46.7 6.95 47.65 10.15 48.65 13.35 48.65 17.85 48.65 22.4 47.65 25.6 46.7 28.8 45.3 28.8 43.9 28.8 42.95 25.6"></path>
    <path stroke="none" fill-rule="evenodd" fill="#64220a" d="M42.65 14.65 Q42.15 16.65 42.0 19.65 L41.95 18.7 Q42.05 15.45 42.3 13.2 42.7 10.4 43.5 8.7 44.3 6.95 45.3 6.95 46.15 6.95 46.9 8.25 47.6 9.55 48.05 11.75 48.5 14.8 48.6 18.7 L48.6 19.3 Q48.3 16.75 47.6 14.7 46.45 11.25 44.75 11.55 43.4 11.8 42.65 14.65"></path>
    <path stroke="none" fill-rule="evenodd" fill="#82380d" d="M60.05 6.95 Q61.45 6.95 62.4 10.15 63.4 13.35 63.4 17.85 63.4 22.4 62.4 25.6 61.45 28.8 60.05 28.8 58.65 28.8 57.7 25.6 56.7 22.4 56.7 17.85 56.7 13.35 57.7 10.15 58.65 6.95 60.05 6.95"></path>
    <path stroke="none" fill-rule="evenodd" fill="#64220a" d="M62.45 10.25 Q63.4 13.45 63.4 17.85 L63.4 18.45 Q62.9 15.95 62.2 14.45 61.2 12.45 59.9 12.7 58.15 13.0 57.45 17.25 57.05 19.7 57.05 22.7 57.0 18.0 57.4 14.05 58.15 7.1 60.15 6.95 61.5 7.05 62.45 10.25"></path>
    <path stroke="none" fill-rule="evenodd" fill="#8e4216" d="M81.05 -28.9 Q82.15 -14.7 82.0 -11.45 81.9 -8.25 67.55 3.7 L53.2 15.0 38.8 2.7 Q24.4 -10.1 24.4 -12.6 24.4 -15.15 25.45 -29.05 L26.5 -42.5 53.2 -6.85 79.9 -42.5 81.05 -28.9"></path>
    <path stroke="none" fill-rule="evenodd" fill="#6f280d" d="M27.9 -33.3 L25.8 -10.0 Q24.4 -11.85 24.4 -12.6 24.4 -15.15 25.45 -29.05 L26.5 -42.5 53.2 -6.85 79.9 -42.5 80.4 -36.65 52.85 1.2 27.9 -33.3"></path>
    <path stroke="none" fill-rule="evenodd" fill="#82380d" d="M44.2 86.15 Q51.1 91.85 53.55 92.05 55.45 92.25 60.35 89.5 L67.95 85.15 Q67.85 88.95 66.3 96.6 64.8 104.15 62.55 112.15 57.05 131.7 53.2 134.65 44.5 120.3 40.25 99.0 38.9 92.3 38.2 85.75 L37.75 80.55 44.2 86.15"></path>
    <path stroke="none" fill-rule="evenodd" fill="#fecb01" d="M45.6 92.5 Q51.45 97.6 53.55 97.8 55.05 97.95 59.0 94.55 63.85 90.4 65.15 89.75 65.0 92.05 63.7 98.25 62.35 104.85 60.6 111.25 55.9 128.3 53.2 127.75 48.8 124.9 44.05 105.9 42.55 99.95 41.25 93.1 L40.2 87.45 45.6 92.5"></path>
    <path stroke="none" fill-rule="evenodd" fill="#82380d" d="M47.2 35.1 Q50.65 28.8 53.55 28.8 59.05 28.8 65.1 50.35 67.45 58.6 69.05 67.5 70.6 75.85 70.75 80.2 70.9 85.5 62.75 91.5 55.65 96.75 52.85 96.65 49.75 96.55 43.2 90.4 36.0 83.6 35.65 78.25 35.35 74.45 37.0 66.25 38.6 58.05 41.25 49.75 44.15 40.6 47.2 35.1"></path>
    <path stroke="none" fill-rule="evenodd" fill="#fecb01" d="M53.2 93.2 Q50.7 93.2 44.05 86.3 37.3 79.25 37.05 75.95 36.9 74.1 38.3 67.3 39.85 60.0 42.1 52.75 48.25 32.85 53.55 32.25 58.45 33.8 64.15 53.65 66.35 61.25 67.85 68.95 69.3 76.2 69.35 79.4 69.2 82.85 62.0 88.25 55.35 93.2 53.2 93.2"></path>
    <path stroke="none" fill-rule="evenodd" fill="#fef4b2" d="M62.8 49.8 Q61.1 45.2 57.8 40.5 54.45 35.65 54.25 38.0 53.8 44.15 53.65 68.15 L53.55 90.9 52.65 66.8 Q51.65 42.5 51.1 41.45 50.5 40.45 48.65 44.0 46.9 47.3 44.7 53.05 39.5 66.9 39.15 73.65 38.95 77.0 45.55 84.4 L49.75 89.0 Q51.5 90.9 51.1 90.9 50.0 90.9 41.85 83.9 37.25 78.55 37.05 75.95 36.9 74.1 38.3 67.3 39.85 60.0 42.1 52.75 48.2 32.9 53.55 32.25 57.05 33.35 61.2 44.55 L62.8 49.8 63.4 51.8 63.45 52.3 62.8 49.8"></path>
  </g>
</svg>
